%TF.GenerationSoftware,KiCad,Pcbnew,8.0.4*%
%TF.CreationDate,2024-08-26T12:07:15-05:00*%
%TF.ProjectId,iCEGenius,69434547-656e-4697-9573-2e6b69636164,rev?*%
%TF.SameCoordinates,Original*%
%TF.FileFunction,Copper,L3,Inr*%
%TF.FilePolarity,Positive*%
%FSLAX46Y46*%
G04 Gerber Fmt 4.6, Leading zero omitted, Abs format (unit mm)*
G04 Created by KiCad (PCBNEW 8.0.4) date 2024-08-26 12:07:15*
%MOMM*%
%LPD*%
G01*
G04 APERTURE LIST*
%TA.AperFunction,ComponentPad*%
%ADD10O,1.700000X1.700000*%
%TD*%
%TA.AperFunction,ComponentPad*%
%ADD11R,1.700000X1.700000*%
%TD*%
%TA.AperFunction,ComponentPad*%
%ADD12O,1.000000X1.800000*%
%TD*%
%TA.AperFunction,ComponentPad*%
%ADD13O,1.000000X2.100000*%
%TD*%
%TA.AperFunction,ViaPad*%
%ADD14C,0.500000*%
%TD*%
G04 APERTURE END LIST*
D10*
%TO.N,GND*%
%TO.C,J3*%
X164915000Y-111390000D03*
%TO.N,IOL_5A_GBIN6*%
X164915000Y-108850000D03*
%TO.N,IOR_34*%
X164915000Y-106310000D03*
%TO.N,IOR_35_GBIN3*%
X164915000Y-103770000D03*
%TO.N,IOR_36_GBIN2*%
X164915000Y-101230000D03*
%TO.N,IOR_38*%
X164915000Y-98690000D03*
%TO.N,IOR_39*%
X164915000Y-96150000D03*
%TO.N,IOT_45*%
X164915000Y-93610000D03*
%TO.N,IOT_47*%
X164915000Y-91070000D03*
D11*
%TO.N,+3V3*%
X164915000Y-88530000D03*
%TD*%
D10*
%TO.N,GND*%
%TO.C,J2*%
X147115000Y-111410000D03*
%TO.N,IOL_5B*%
X147115000Y-108870000D03*
%TO.N,IOL_4B_GBIN7*%
X147115000Y-106330000D03*
%TO.N,IOL_4A*%
X147115000Y-103790000D03*
%TO.N,IOL_2A*%
X147115000Y-101250000D03*
%TO.N,IOL_2B*%
X147115000Y-98710000D03*
%TO.N,IOT_52*%
X147115000Y-96170000D03*
%TO.N,IOT_53*%
X147115000Y-93630000D03*
%TO.N,IOT_50_GBIN1*%
X147115000Y-91090000D03*
D11*
%TO.N,+3V3*%
X147115000Y-88550000D03*
%TD*%
D12*
%TO.N,unconnected-(J1-SHIELD-PadS1)_2*%
%TO.C,J1*%
X151680000Y-78720000D03*
D13*
%TO.N,unconnected-(J1-SHIELD-PadS1)_3*%
X151680000Y-82900000D03*
D12*
%TO.N,unconnected-(J1-SHIELD-PadS1)_1*%
X160320000Y-78720000D03*
D13*
%TO.N,unconnected-(J1-SHIELD-PadS1)*%
X160320000Y-82900000D03*
%TD*%
D14*
%TO.N,GND*%
X166100000Y-87300000D03*
X162500000Y-80000000D03*
X149500000Y-80500000D03*
X158300000Y-78200000D03*
X164800000Y-118900000D03*
X165000000Y-116600000D03*
X158000000Y-88300000D03*
X156100000Y-85400000D03*
X154600000Y-85100000D03*
X151800000Y-108200000D03*
X159600000Y-106800000D03*
X161200000Y-96100000D03*
X155900000Y-99900000D03*
X148800000Y-99300000D03*
X148900000Y-96800000D03*
X148900000Y-94100000D03*
X148700000Y-89500000D03*
X150700000Y-87100000D03*
X145700000Y-87300000D03*
X145800000Y-90100000D03*
X145800000Y-92500000D03*
X145800000Y-95200000D03*
X145700000Y-97400000D03*
X145800000Y-100500000D03*
X145800000Y-102700000D03*
X145700000Y-105600000D03*
X145800000Y-108400000D03*
X146000000Y-110100000D03*
X145700000Y-111800000D03*
X147500000Y-113800000D03*
X147500000Y-115900000D03*
X145900000Y-118900000D03*
X146100000Y-120500000D03*
X148600000Y-119400000D03*
X160800000Y-119800000D03*
X163400000Y-120300000D03*
X162100000Y-118200000D03*
X166000000Y-120600000D03*
X165600000Y-118000000D03*
X164700000Y-115200000D03*
X166200000Y-113600000D03*
X166100000Y-110300000D03*
X166100000Y-107600000D03*
X166000000Y-104900000D03*
X166100000Y-102400000D03*
X166000000Y-100100000D03*
X166100000Y-90000000D03*
X166000000Y-92200000D03*
X165800000Y-94700000D03*
X165800000Y-97500000D03*
X162300000Y-97600000D03*
X162000000Y-95100000D03*
X158700000Y-87500000D03*
X150700000Y-89300000D03*
X150800000Y-85100000D03*
X152200000Y-86600000D03*
X162200000Y-78400000D03*
X149700000Y-79000000D03*
X155100000Y-79100000D03*
X156900000Y-78300000D03*
X153100000Y-78400000D03*
X146300000Y-114000000D03*
X153900000Y-102600000D03*
%TO.N,+3V3*%
X151500103Y-120000103D03*
X154200000Y-120100000D03*
%TO.N,GND*%
X155700000Y-87700000D03*
%TO.N,CRESET_B*%
X153000000Y-88400000D03*
%TO.N,SS*%
X153800000Y-88400000D03*
%TO.N,MOSI*%
X158612107Y-92684867D03*
%TO.N,SCK*%
X158206053Y-93192433D03*
%TO.N,MISO*%
X157800000Y-93700000D03*
%TO.N,GND*%
X160500000Y-85200000D03*
X158000000Y-85700000D03*
X151800000Y-85100000D03*
X153500000Y-86300000D03*
X157600000Y-86500000D03*
X159900000Y-87500000D03*
X159500000Y-88400000D03*
X161300000Y-90600000D03*
X159700000Y-90600000D03*
X160400000Y-94000000D03*
X157500000Y-94900000D03*
X155800000Y-95900000D03*
X151900000Y-95400000D03*
X157100000Y-98100000D03*
X154000000Y-98600000D03*
X154900000Y-99000000D03*
X155900000Y-99000000D03*
%TO.N,MISO*%
X158100000Y-100700000D03*
%TO.N,SCK*%
X158800000Y-100900000D03*
%TO.N,GND*%
X156100000Y-109900000D03*
X151700000Y-100500000D03*
%TO.N,/CHIP_PU*%
X154300000Y-96000000D03*
X156100000Y-96500000D03*
%TO.N,+3V3*%
X151300000Y-92150000D03*
X152050000Y-94150000D03*
%TO.N,SS*%
X156800000Y-104900000D03*
%TO.N,SCK*%
X158700000Y-102500000D03*
%TO.N,MISO*%
X158100000Y-103100000D03*
%TO.N,MOSI*%
X159400000Y-101400000D03*
%TO.N,GND*%
X151800000Y-103600000D03*
X151800000Y-105900000D03*
X155600000Y-103700000D03*
X155100000Y-108900000D03*
X158900000Y-119100000D03*
X158400000Y-118500000D03*
X160500000Y-117100000D03*
X150600000Y-119000000D03*
X150900000Y-118300000D03*
X150700000Y-113100000D03*
X159400000Y-108800000D03*
X160400000Y-109100000D03*
X159000000Y-110500000D03*
X158700000Y-111900000D03*
X158900000Y-111300000D03*
X160000000Y-111900000D03*
X162800000Y-104700000D03*
X152800000Y-83500000D03*
X159200000Y-83500000D03*
%TO.N,USB_D+*%
X156200000Y-82400000D03*
X155300000Y-82400000D03*
%TO.N,GND*%
X156087502Y-116100000D03*
X153587500Y-113700001D03*
X156087500Y-113700001D03*
X153687501Y-116100000D03*
%TO.N,IOT_45*%
X158750000Y-106450000D03*
%TO.N,IOT_47*%
X158000000Y-106450000D03*
%TO.N,IOT_50_GBIN1*%
X151300000Y-110100000D03*
%TO.N,IOT_53*%
X151257372Y-111165577D03*
%TO.N,IOT_52*%
X150700000Y-111500000D03*
%TO.N,IOL_2B*%
X151387502Y-112800001D03*
%TO.N,IOL_2A*%
X151387500Y-113700001D03*
%TO.N,IOL_4A*%
X151387500Y-115049998D03*
%TO.N,IOL_4B_GBIN7*%
X151387502Y-115700001D03*
%TO.N,IOL_5B*%
X151387502Y-116400000D03*
%TO.N,IOL_5A_GBIN6*%
X151387500Y-117200000D03*
%TO.N,CRESET_B*%
X153054818Y-118499801D03*
%TO.N,MOSI*%
X154354795Y-118494688D03*
%TO.N,MISO*%
X155004776Y-118500069D03*
%TO.N,SS*%
X155687501Y-118500001D03*
%TO.N,SCK*%
X156387502Y-118500001D03*
%TO.N,IOR_34*%
X158587502Y-116550003D03*
%TO.N,IOR_35_GBIN3*%
X158546096Y-115900000D03*
%TO.N,IOR_36_GBIN2*%
X158594361Y-115241158D03*
%TO.N,IOR_38*%
X158587409Y-114591192D03*
%TO.N,IOR_39*%
X158587502Y-113900000D03*
%TO.N,GND*%
X153100000Y-90400000D03*
X156100000Y-90400000D03*
X156100000Y-93400000D03*
X153100000Y-93400000D03*
X149900000Y-90300000D03*
X150800000Y-90800000D03*
%TD*%
%TA.AperFunction,Conductor*%
%TO.N,GND*%
G36*
X151063204Y-77320184D02*
G01*
X151108959Y-77372988D01*
X151118903Y-77442146D01*
X151089878Y-77505702D01*
X151065055Y-77527602D01*
X151042215Y-77542862D01*
X150902863Y-77682214D01*
X150902860Y-77682218D01*
X150793371Y-77846079D01*
X150793364Y-77846092D01*
X150717950Y-78028160D01*
X150717947Y-78028170D01*
X150679500Y-78221456D01*
X150679500Y-78221459D01*
X150679500Y-79218541D01*
X150679500Y-79218543D01*
X150679499Y-79218543D01*
X150717947Y-79411829D01*
X150717950Y-79411839D01*
X150793364Y-79593907D01*
X150793371Y-79593920D01*
X150902860Y-79757781D01*
X150902863Y-79757785D01*
X151042214Y-79897136D01*
X151042218Y-79897139D01*
X151206079Y-80006628D01*
X151206092Y-80006635D01*
X151388160Y-80082049D01*
X151388165Y-80082051D01*
X151388169Y-80082051D01*
X151388170Y-80082052D01*
X151581456Y-80120500D01*
X151581459Y-80120500D01*
X151778543Y-80120500D01*
X151908582Y-80094632D01*
X151971835Y-80082051D01*
X152153914Y-80006632D01*
X152317782Y-79897139D01*
X152457139Y-79757782D01*
X152566632Y-79593914D01*
X152642051Y-79411835D01*
X152680500Y-79218541D01*
X152680500Y-78221459D01*
X152680500Y-78221456D01*
X152642052Y-78028170D01*
X152642051Y-78028169D01*
X152642051Y-78028165D01*
X152642049Y-78028160D01*
X152566635Y-77846092D01*
X152566628Y-77846079D01*
X152457139Y-77682218D01*
X152457136Y-77682214D01*
X152317784Y-77542862D01*
X152294945Y-77527602D01*
X152250139Y-77473990D01*
X152241432Y-77404665D01*
X152271586Y-77341637D01*
X152331029Y-77304917D01*
X152363835Y-77300499D01*
X159636165Y-77300499D01*
X159703204Y-77320184D01*
X159748959Y-77372988D01*
X159758903Y-77442146D01*
X159729878Y-77505702D01*
X159705055Y-77527602D01*
X159682215Y-77542862D01*
X159542863Y-77682214D01*
X159542860Y-77682218D01*
X159433371Y-77846079D01*
X159433364Y-77846092D01*
X159357950Y-78028160D01*
X159357947Y-78028170D01*
X159319500Y-78221456D01*
X159319500Y-78221459D01*
X159319500Y-79218541D01*
X159319500Y-79218543D01*
X159319499Y-79218543D01*
X159357947Y-79411829D01*
X159357950Y-79411839D01*
X159433364Y-79593907D01*
X159433371Y-79593920D01*
X159542860Y-79757781D01*
X159542863Y-79757785D01*
X159682214Y-79897136D01*
X159682218Y-79897139D01*
X159846079Y-80006628D01*
X159846092Y-80006635D01*
X160028160Y-80082049D01*
X160028165Y-80082051D01*
X160028169Y-80082051D01*
X160028170Y-80082052D01*
X160221456Y-80120500D01*
X160221459Y-80120500D01*
X160418543Y-80120500D01*
X160548582Y-80094632D01*
X160611835Y-80082051D01*
X160793914Y-80006632D01*
X160957782Y-79897139D01*
X161097139Y-79757782D01*
X161206632Y-79593914D01*
X161282051Y-79411835D01*
X161320500Y-79218541D01*
X161320500Y-78221459D01*
X161320500Y-78221456D01*
X161282052Y-78028170D01*
X161282051Y-78028169D01*
X161282051Y-78028165D01*
X161282049Y-78028160D01*
X161206635Y-77846092D01*
X161206628Y-77846079D01*
X161097139Y-77682218D01*
X161097136Y-77682214D01*
X160957784Y-77542862D01*
X160934945Y-77527602D01*
X160890139Y-77473990D01*
X160881432Y-77404665D01*
X160911586Y-77341637D01*
X160971029Y-77304917D01*
X161003835Y-77300499D01*
X162652405Y-77300499D01*
X162690244Y-77300499D01*
X162709630Y-77302024D01*
X162742255Y-77307191D01*
X162779141Y-77319175D01*
X162799767Y-77329684D01*
X162831151Y-77352487D01*
X162847511Y-77368847D01*
X162870315Y-77400233D01*
X162880821Y-77420852D01*
X162892809Y-77457747D01*
X162897973Y-77490355D01*
X162899500Y-77509748D01*
X162899500Y-85649550D01*
X162899501Y-85649563D01*
X162899501Y-85702349D01*
X162931524Y-85904534D01*
X162994778Y-86099214D01*
X162994780Y-86099217D01*
X163087713Y-86281609D01*
X163208035Y-86447217D01*
X163352782Y-86591964D01*
X163518390Y-86712286D01*
X163700782Y-86805219D01*
X163895466Y-86868476D01*
X164097648Y-86900499D01*
X164160438Y-86900499D01*
X166352405Y-86900499D01*
X166390244Y-86900499D01*
X166409630Y-86902024D01*
X166442255Y-86907191D01*
X166479141Y-86919175D01*
X166499767Y-86929684D01*
X166531151Y-86952487D01*
X166547511Y-86968847D01*
X166570315Y-87000233D01*
X166580821Y-87020852D01*
X166592809Y-87057747D01*
X166597973Y-87090355D01*
X166599500Y-87109748D01*
X166599500Y-121090244D01*
X166597973Y-121109644D01*
X166592808Y-121142251D01*
X166580820Y-121179146D01*
X166570314Y-121199765D01*
X166547510Y-121231151D01*
X166531151Y-121247510D01*
X166499765Y-121270314D01*
X166479146Y-121280820D01*
X166442251Y-121292808D01*
X166429990Y-121294750D01*
X166409644Y-121297972D01*
X166390250Y-121299499D01*
X145609757Y-121299499D01*
X145590359Y-121297972D01*
X145557749Y-121292807D01*
X145520855Y-121280820D01*
X145500233Y-121270312D01*
X145468849Y-121247510D01*
X145452488Y-121231148D01*
X145429687Y-121199766D01*
X145419178Y-121179141D01*
X145407193Y-121142251D01*
X145402025Y-121109623D01*
X145400500Y-121090236D01*
X145400500Y-120000100D01*
X150744854Y-120000100D01*
X150744854Y-120000105D01*
X150763788Y-120168159D01*
X150819648Y-120327797D01*
X150819650Y-120327800D01*
X150909621Y-120470987D01*
X150909626Y-120470993D01*
X151029212Y-120590579D01*
X151029218Y-120590584D01*
X151172405Y-120680555D01*
X151172408Y-120680557D01*
X151172412Y-120680558D01*
X151172413Y-120680559D01*
X151200769Y-120690481D01*
X151332046Y-120736417D01*
X151500100Y-120755352D01*
X151500103Y-120755352D01*
X151500106Y-120755352D01*
X151668159Y-120736417D01*
X151668162Y-120736416D01*
X151827793Y-120680559D01*
X151827795Y-120680557D01*
X151827797Y-120680557D01*
X151827800Y-120680555D01*
X151970987Y-120590584D01*
X151970988Y-120590583D01*
X151970993Y-120590580D01*
X152090580Y-120470993D01*
X152117787Y-120427694D01*
X152180555Y-120327800D01*
X152180557Y-120327797D01*
X152180557Y-120327795D01*
X152180559Y-120327793D01*
X152236416Y-120168162D01*
X152236416Y-120168161D01*
X152236417Y-120168159D01*
X152255352Y-120000105D01*
X152255352Y-120000100D01*
X152236417Y-119832046D01*
X152180557Y-119672408D01*
X152180555Y-119672405D01*
X152090584Y-119529218D01*
X152090579Y-119529212D01*
X151970993Y-119409626D01*
X151970987Y-119409621D01*
X151827800Y-119319650D01*
X151827797Y-119319648D01*
X151668159Y-119263788D01*
X151500106Y-119244854D01*
X151500100Y-119244854D01*
X151332046Y-119263788D01*
X151172408Y-119319648D01*
X151172405Y-119319650D01*
X151029218Y-119409621D01*
X151029212Y-119409626D01*
X150909626Y-119529212D01*
X150909621Y-119529218D01*
X150819650Y-119672405D01*
X150819648Y-119672408D01*
X150763788Y-119832046D01*
X150744854Y-120000100D01*
X145400500Y-120000100D01*
X145400500Y-118499798D01*
X152299569Y-118499798D01*
X152299569Y-118499803D01*
X152318503Y-118667857D01*
X152374363Y-118827495D01*
X152374365Y-118827498D01*
X152464336Y-118970685D01*
X152464341Y-118970691D01*
X152583927Y-119090277D01*
X152583933Y-119090282D01*
X152727120Y-119180253D01*
X152727123Y-119180255D01*
X152727127Y-119180256D01*
X152727128Y-119180257D01*
X152755078Y-119190037D01*
X152886761Y-119236115D01*
X153054815Y-119255050D01*
X153054818Y-119255050D01*
X153054821Y-119255050D01*
X153222874Y-119236115D01*
X153237489Y-119231001D01*
X153382508Y-119180257D01*
X153382510Y-119180255D01*
X153382512Y-119180255D01*
X153382515Y-119180253D01*
X153525702Y-119090282D01*
X153525703Y-119090281D01*
X153525708Y-119090278D01*
X153619682Y-118996304D01*
X153681005Y-118962819D01*
X153750697Y-118967803D01*
X153795044Y-118996304D01*
X153883905Y-119085165D01*
X153892361Y-119090478D01*
X154003545Y-119160340D01*
X154049836Y-119212675D01*
X154060484Y-119281729D01*
X154032109Y-119345577D01*
X153978529Y-119382375D01*
X153872311Y-119419543D01*
X153872302Y-119419547D01*
X153729115Y-119509518D01*
X153729109Y-119509523D01*
X153609523Y-119629109D01*
X153609518Y-119629115D01*
X153519547Y-119772302D01*
X153519545Y-119772305D01*
X153463685Y-119931943D01*
X153444751Y-120099997D01*
X153444751Y-120100002D01*
X153463685Y-120268056D01*
X153519545Y-120427694D01*
X153519547Y-120427697D01*
X153609518Y-120570884D01*
X153609523Y-120570890D01*
X153729109Y-120690476D01*
X153729115Y-120690481D01*
X153872302Y-120780452D01*
X153872305Y-120780454D01*
X153872309Y-120780455D01*
X153872310Y-120780456D01*
X153944913Y-120805860D01*
X154031943Y-120836314D01*
X154199997Y-120855249D01*
X154200000Y-120855249D01*
X154200003Y-120855249D01*
X154368056Y-120836314D01*
X154368059Y-120836313D01*
X154527690Y-120780456D01*
X154527692Y-120780454D01*
X154527694Y-120780454D01*
X154527697Y-120780452D01*
X154670884Y-120690481D01*
X154670885Y-120690480D01*
X154670890Y-120690477D01*
X154790477Y-120570890D01*
X154880452Y-120427697D01*
X154880454Y-120427694D01*
X154880454Y-120427692D01*
X154880456Y-120427690D01*
X154936313Y-120268059D01*
X154936313Y-120268058D01*
X154936314Y-120268056D01*
X154955249Y-120100002D01*
X154955249Y-120099997D01*
X154936314Y-119931943D01*
X154880454Y-119772305D01*
X154880452Y-119772302D01*
X154790481Y-119629115D01*
X154790476Y-119629109D01*
X154670888Y-119509521D01*
X154551247Y-119434345D01*
X154504957Y-119382010D01*
X154494309Y-119312957D01*
X154522684Y-119249109D01*
X154576264Y-119212311D01*
X154631143Y-119193109D01*
X154700922Y-119189548D01*
X154713051Y-119193110D01*
X154836715Y-119236382D01*
X155004773Y-119255318D01*
X155004776Y-119255318D01*
X155004779Y-119255318D01*
X155172835Y-119236382D01*
X155172836Y-119236382D01*
X155241629Y-119212310D01*
X155305282Y-119190036D01*
X155375059Y-119186474D01*
X155387174Y-119190031D01*
X155519442Y-119236314D01*
X155519441Y-119236314D01*
X155687498Y-119255250D01*
X155687501Y-119255250D01*
X155687504Y-119255250D01*
X155855560Y-119236314D01*
X155855561Y-119236314D01*
X155924160Y-119212310D01*
X155996546Y-119186980D01*
X156066323Y-119183418D01*
X156078455Y-119186981D01*
X156219441Y-119236314D01*
X156387499Y-119255250D01*
X156387502Y-119255250D01*
X156387505Y-119255250D01*
X156555558Y-119236315D01*
X156556130Y-119236115D01*
X156715192Y-119180457D01*
X156715194Y-119180455D01*
X156715196Y-119180455D01*
X156715199Y-119180453D01*
X156858386Y-119090482D01*
X156858387Y-119090481D01*
X156858392Y-119090478D01*
X156977979Y-118970891D01*
X156978105Y-118970691D01*
X157067954Y-118827698D01*
X157067956Y-118827695D01*
X157067956Y-118827693D01*
X157067958Y-118827691D01*
X157123815Y-118668060D01*
X157123815Y-118668059D01*
X157123816Y-118668057D01*
X157142751Y-118500003D01*
X157142751Y-118499998D01*
X157123816Y-118331944D01*
X157067956Y-118172306D01*
X157067954Y-118172303D01*
X156977983Y-118029116D01*
X156977978Y-118029110D01*
X156858392Y-117909524D01*
X156858386Y-117909519D01*
X156715199Y-117819548D01*
X156715196Y-117819546D01*
X156555558Y-117763686D01*
X156387505Y-117744752D01*
X156387499Y-117744752D01*
X156219444Y-117763687D01*
X156078455Y-117813021D01*
X156008676Y-117816582D01*
X155996546Y-117813021D01*
X155855557Y-117763686D01*
X155687504Y-117744752D01*
X155687498Y-117744752D01*
X155519443Y-117763687D01*
X155386995Y-117810032D01*
X155317216Y-117813593D01*
X155305087Y-117810032D01*
X155172833Y-117763755D01*
X155004779Y-117744820D01*
X155004773Y-117744820D01*
X154836717Y-117763755D01*
X154728426Y-117801647D01*
X154658648Y-117805208D01*
X154646523Y-117801648D01*
X154614594Y-117790476D01*
X154522851Y-117758373D01*
X154354798Y-117739439D01*
X154354792Y-117739439D01*
X154186738Y-117758373D01*
X154027100Y-117814233D01*
X154027097Y-117814235D01*
X153883910Y-117904206D01*
X153883904Y-117904211D01*
X153789931Y-117998185D01*
X153728608Y-118031670D01*
X153658916Y-118026686D01*
X153614569Y-117998185D01*
X153525708Y-117909324D01*
X153525702Y-117909319D01*
X153382515Y-117819348D01*
X153382512Y-117819346D01*
X153222874Y-117763486D01*
X153054821Y-117744552D01*
X153054815Y-117744552D01*
X152886761Y-117763486D01*
X152727123Y-117819346D01*
X152727120Y-117819348D01*
X152583933Y-117909319D01*
X152583927Y-117909324D01*
X152464341Y-118028910D01*
X152464336Y-118028916D01*
X152374365Y-118172103D01*
X152374363Y-118172106D01*
X152318503Y-118331744D01*
X152299569Y-118499798D01*
X145400500Y-118499798D01*
X145400500Y-91089999D01*
X145759341Y-91089999D01*
X145759341Y-91090000D01*
X145779936Y-91325403D01*
X145779938Y-91325413D01*
X145841094Y-91553655D01*
X145841096Y-91553659D01*
X145841097Y-91553663D01*
X145931639Y-91747830D01*
X145940965Y-91767830D01*
X145940967Y-91767834D01*
X145979112Y-91822310D01*
X146067509Y-91948554D01*
X146076501Y-91961395D01*
X146076506Y-91961402D01*
X146243597Y-92128493D01*
X146243603Y-92128498D01*
X146429158Y-92258425D01*
X146472783Y-92313002D01*
X146479977Y-92382500D01*
X146448454Y-92444855D01*
X146429158Y-92461575D01*
X146243597Y-92591505D01*
X146076505Y-92758597D01*
X145940965Y-92952169D01*
X145940964Y-92952171D01*
X145841098Y-93166335D01*
X145841094Y-93166344D01*
X145779938Y-93394586D01*
X145779936Y-93394596D01*
X145759341Y-93629999D01*
X145759341Y-93630000D01*
X145779936Y-93865403D01*
X145779938Y-93865413D01*
X145841094Y-94093655D01*
X145841096Y-94093659D01*
X145841097Y-94093663D01*
X145877106Y-94170884D01*
X145940965Y-94307830D01*
X145940967Y-94307834D01*
X146076501Y-94501395D01*
X146076506Y-94501402D01*
X146243597Y-94668493D01*
X146243603Y-94668498D01*
X146429158Y-94798425D01*
X146472783Y-94853002D01*
X146479977Y-94922500D01*
X146448454Y-94984855D01*
X146429158Y-95001575D01*
X146243597Y-95131505D01*
X146076505Y-95298597D01*
X145940965Y-95492169D01*
X145940964Y-95492171D01*
X145841098Y-95706335D01*
X145841094Y-95706344D01*
X145779938Y-95934586D01*
X145779936Y-95934596D01*
X145759341Y-96169999D01*
X145759341Y-96170000D01*
X145779936Y-96405403D01*
X145779938Y-96405413D01*
X145841094Y-96633655D01*
X145841096Y-96633659D01*
X145841097Y-96633663D01*
X145862916Y-96680454D01*
X145940965Y-96847830D01*
X145940967Y-96847834D01*
X146076501Y-97041395D01*
X146076506Y-97041402D01*
X146243597Y-97208493D01*
X146243603Y-97208498D01*
X146429158Y-97338425D01*
X146472783Y-97393002D01*
X146479977Y-97462500D01*
X146448454Y-97524855D01*
X146429158Y-97541575D01*
X146243597Y-97671505D01*
X146076505Y-97838597D01*
X145940965Y-98032169D01*
X145940964Y-98032171D01*
X145841098Y-98246335D01*
X145841094Y-98246344D01*
X145779938Y-98474586D01*
X145779936Y-98474596D01*
X145759341Y-98709999D01*
X145759341Y-98710000D01*
X145779936Y-98945403D01*
X145779938Y-98945413D01*
X145841094Y-99173655D01*
X145841096Y-99173659D01*
X145841097Y-99173663D01*
X145931639Y-99367830D01*
X145940965Y-99387830D01*
X145940967Y-99387834D01*
X146076501Y-99581395D01*
X146076506Y-99581402D01*
X146243597Y-99748493D01*
X146243603Y-99748498D01*
X146429158Y-99878425D01*
X146472783Y-99933002D01*
X146479977Y-100002500D01*
X146448454Y-100064855D01*
X146429158Y-100081575D01*
X146243597Y-100211505D01*
X146076505Y-100378597D01*
X145940965Y-100572169D01*
X145940964Y-100572171D01*
X145841098Y-100786335D01*
X145841094Y-100786344D01*
X145779938Y-101014586D01*
X145779936Y-101014596D01*
X145759341Y-101249999D01*
X145759341Y-101250000D01*
X145779936Y-101485403D01*
X145779938Y-101485413D01*
X145841094Y-101713655D01*
X145841096Y-101713659D01*
X145841097Y-101713663D01*
X145931639Y-101907830D01*
X145940965Y-101927830D01*
X145940967Y-101927834D01*
X146076501Y-102121395D01*
X146076506Y-102121402D01*
X146243597Y-102288493D01*
X146243603Y-102288498D01*
X146429158Y-102418425D01*
X146472783Y-102473002D01*
X146479977Y-102542500D01*
X146448454Y-102604855D01*
X146429158Y-102621575D01*
X146243597Y-102751505D01*
X146076505Y-102918597D01*
X145940965Y-103112169D01*
X145940964Y-103112171D01*
X145841098Y-103326335D01*
X145841094Y-103326344D01*
X145779938Y-103554586D01*
X145779936Y-103554596D01*
X145759341Y-103789999D01*
X145759341Y-103790000D01*
X145779936Y-104025403D01*
X145779938Y-104025413D01*
X145841094Y-104253655D01*
X145841096Y-104253659D01*
X145841097Y-104253663D01*
X145867143Y-104309518D01*
X145940965Y-104467830D01*
X145940967Y-104467834D01*
X146076501Y-104661395D01*
X146076506Y-104661402D01*
X146243597Y-104828493D01*
X146243603Y-104828498D01*
X146429158Y-104958425D01*
X146472783Y-105013002D01*
X146479977Y-105082500D01*
X146448454Y-105144855D01*
X146429158Y-105161575D01*
X146243597Y-105291505D01*
X146076505Y-105458597D01*
X145940965Y-105652169D01*
X145940964Y-105652171D01*
X145841098Y-105866335D01*
X145841094Y-105866344D01*
X145779938Y-106094586D01*
X145779936Y-106094596D01*
X145759341Y-106329999D01*
X145759341Y-106330000D01*
X145779936Y-106565403D01*
X145779938Y-106565413D01*
X145841094Y-106793655D01*
X145841096Y-106793659D01*
X145841097Y-106793663D01*
X145900424Y-106920890D01*
X145940965Y-107007830D01*
X145940967Y-107007834D01*
X146076501Y-107201395D01*
X146076506Y-107201402D01*
X146243597Y-107368493D01*
X146243603Y-107368498D01*
X146429158Y-107498425D01*
X146472783Y-107553002D01*
X146479977Y-107622500D01*
X146448454Y-107684855D01*
X146429158Y-107701575D01*
X146243597Y-107831505D01*
X146076505Y-107998597D01*
X145940965Y-108192169D01*
X145940964Y-108192171D01*
X145841098Y-108406335D01*
X145841094Y-108406344D01*
X145779938Y-108634586D01*
X145779936Y-108634596D01*
X145759341Y-108869999D01*
X145759341Y-108870000D01*
X145779936Y-109105403D01*
X145779938Y-109105413D01*
X145841094Y-109333655D01*
X145841096Y-109333659D01*
X145841097Y-109333663D01*
X145923100Y-109509518D01*
X145940965Y-109547830D01*
X145940967Y-109547834D01*
X146076501Y-109741395D01*
X146076506Y-109741402D01*
X146243597Y-109908493D01*
X146243603Y-109908498D01*
X146429594Y-110038730D01*
X146473219Y-110093307D01*
X146480413Y-110162805D01*
X146448890Y-110225160D01*
X146429595Y-110241880D01*
X146243922Y-110371890D01*
X146243920Y-110371891D01*
X146076891Y-110538920D01*
X146076886Y-110538926D01*
X145941400Y-110732420D01*
X145941399Y-110732422D01*
X145841570Y-110946507D01*
X145841567Y-110946513D01*
X145784364Y-111159999D01*
X145784364Y-111160000D01*
X146681988Y-111160000D01*
X146649075Y-111217007D01*
X146615000Y-111344174D01*
X146615000Y-111475826D01*
X146649075Y-111602993D01*
X146681988Y-111660000D01*
X145784364Y-111660000D01*
X145841567Y-111873486D01*
X145841570Y-111873492D01*
X145941399Y-112087578D01*
X146076894Y-112281082D01*
X146243917Y-112448105D01*
X146437421Y-112583600D01*
X146651507Y-112683429D01*
X146651516Y-112683433D01*
X146865000Y-112740634D01*
X146865000Y-111843012D01*
X146922007Y-111875925D01*
X147049174Y-111910000D01*
X147180826Y-111910000D01*
X147307993Y-111875925D01*
X147365000Y-111843012D01*
X147365000Y-112740633D01*
X147578483Y-112683433D01*
X147578492Y-112683429D01*
X147792578Y-112583600D01*
X147986082Y-112448105D01*
X148153105Y-112281082D01*
X148288600Y-112087578D01*
X148388429Y-111873492D01*
X148388432Y-111873486D01*
X148445636Y-111660000D01*
X147548012Y-111660000D01*
X147580925Y-111602993D01*
X147608523Y-111499997D01*
X149944751Y-111499997D01*
X149944751Y-111500002D01*
X149963685Y-111668056D01*
X150019545Y-111827694D01*
X150019547Y-111827697D01*
X150109518Y-111970884D01*
X150109523Y-111970890D01*
X150229109Y-112090476D01*
X150229115Y-112090481D01*
X150372302Y-112180452D01*
X150372305Y-112180454D01*
X150372309Y-112180455D01*
X150372310Y-112180456D01*
X150531941Y-112236313D01*
X150531944Y-112236314D01*
X150637846Y-112248246D01*
X150702260Y-112275312D01*
X150741815Y-112332907D01*
X150743953Y-112402744D01*
X150728958Y-112437436D01*
X150707047Y-112472307D01*
X150651187Y-112631944D01*
X150632253Y-112799998D01*
X150632253Y-112800003D01*
X150651187Y-112968057D01*
X150707047Y-113127693D01*
X150742444Y-113184027D01*
X150761444Y-113251264D01*
X150742445Y-113315970D01*
X150707044Y-113372311D01*
X150651185Y-113531944D01*
X150632251Y-113699998D01*
X150632251Y-113700003D01*
X150651185Y-113868057D01*
X150707045Y-114027695D01*
X150707047Y-114027698D01*
X150797018Y-114170885D01*
X150797023Y-114170891D01*
X150913450Y-114287318D01*
X150946935Y-114348641D01*
X150941951Y-114418333D01*
X150913451Y-114462680D01*
X150797018Y-114579113D01*
X150707047Y-114722300D01*
X150707045Y-114722303D01*
X150651185Y-114881941D01*
X150632251Y-115049995D01*
X150632251Y-115050000D01*
X150651186Y-115218055D01*
X150691773Y-115334048D01*
X150695334Y-115403827D01*
X150691773Y-115415956D01*
X150651188Y-115531942D01*
X150651187Y-115531946D01*
X150632253Y-115699998D01*
X150632253Y-115700003D01*
X150651188Y-115868058D01*
X150700521Y-116009046D01*
X150704082Y-116078825D01*
X150700521Y-116090954D01*
X150651188Y-116231942D01*
X150632253Y-116399997D01*
X150632253Y-116400002D01*
X150651187Y-116568056D01*
X150707047Y-116727693D01*
X150711026Y-116734025D01*
X150730027Y-116801262D01*
X150711031Y-116865964D01*
X150707044Y-116872308D01*
X150651185Y-117031943D01*
X150632251Y-117199997D01*
X150632251Y-117200002D01*
X150651185Y-117368056D01*
X150707045Y-117527694D01*
X150707047Y-117527697D01*
X150797018Y-117670884D01*
X150797023Y-117670890D01*
X150916609Y-117790476D01*
X150916615Y-117790481D01*
X151059802Y-117880452D01*
X151059805Y-117880454D01*
X151059809Y-117880455D01*
X151059810Y-117880456D01*
X151127684Y-117904206D01*
X151219443Y-117936314D01*
X151387497Y-117955249D01*
X151387500Y-117955249D01*
X151387503Y-117955249D01*
X151555556Y-117936314D01*
X151555559Y-117936313D01*
X151715190Y-117880456D01*
X151715192Y-117880454D01*
X151715194Y-117880454D01*
X151715197Y-117880452D01*
X151858384Y-117790481D01*
X151858385Y-117790480D01*
X151858390Y-117790477D01*
X151977977Y-117670890D01*
X152067952Y-117527697D01*
X152067954Y-117527694D01*
X152067954Y-117527692D01*
X152067956Y-117527690D01*
X152123813Y-117368059D01*
X152123813Y-117368058D01*
X152123814Y-117368056D01*
X152142749Y-117200002D01*
X152142749Y-117199997D01*
X152123814Y-117031943D01*
X152069841Y-116877697D01*
X152067956Y-116872310D01*
X152067955Y-116872308D01*
X152067954Y-116872305D01*
X152067953Y-116872304D01*
X152063974Y-116865971D01*
X152044974Y-116798734D01*
X152063977Y-116734024D01*
X152067958Y-116727690D01*
X152123815Y-116568059D01*
X152142751Y-116400000D01*
X152140716Y-116381941D01*
X152123815Y-116231940D01*
X152123815Y-116231939D01*
X152074482Y-116090955D01*
X152070920Y-116021176D01*
X152074482Y-116009045D01*
X152112640Y-115899997D01*
X157790847Y-115899997D01*
X157790847Y-115900002D01*
X157809781Y-116068056D01*
X157849621Y-116181910D01*
X157863755Y-116222304D01*
X157865643Y-116227698D01*
X157866246Y-116228950D01*
X157866392Y-116229839D01*
X157867940Y-116234262D01*
X157867165Y-116234533D01*
X157877597Y-116297892D01*
X157871567Y-116323701D01*
X157851189Y-116381941D01*
X157851188Y-116381944D01*
X157832253Y-116550000D01*
X157832253Y-116550005D01*
X157851187Y-116718059D01*
X157907047Y-116877697D01*
X157907049Y-116877700D01*
X157997020Y-117020887D01*
X157997025Y-117020893D01*
X158116611Y-117140479D01*
X158116617Y-117140484D01*
X158259804Y-117230455D01*
X158259807Y-117230457D01*
X158259811Y-117230458D01*
X158259812Y-117230459D01*
X158332415Y-117255863D01*
X158419445Y-117286317D01*
X158587499Y-117305252D01*
X158587502Y-117305252D01*
X158587505Y-117305252D01*
X158755558Y-117286317D01*
X158755561Y-117286316D01*
X158915192Y-117230459D01*
X158915194Y-117230457D01*
X158915196Y-117230457D01*
X158915199Y-117230455D01*
X159058386Y-117140484D01*
X159058387Y-117140483D01*
X159058392Y-117140480D01*
X159177979Y-117020893D01*
X159267954Y-116877700D01*
X159267956Y-116877697D01*
X159267956Y-116877695D01*
X159267958Y-116877693D01*
X159323815Y-116718062D01*
X159323815Y-116718061D01*
X159323816Y-116718059D01*
X159342751Y-116550005D01*
X159342751Y-116550000D01*
X159323816Y-116381946D01*
X159294404Y-116297892D01*
X159267958Y-116222313D01*
X159267956Y-116222309D01*
X159267954Y-116222304D01*
X159267351Y-116221051D01*
X159267204Y-116220160D01*
X159265658Y-116215741D01*
X159266432Y-116215470D01*
X159256000Y-116152110D01*
X159262031Y-116126296D01*
X159274397Y-116090955D01*
X159282409Y-116068059D01*
X159301345Y-115900000D01*
X159301345Y-115899997D01*
X159282410Y-115731945D01*
X159271233Y-115700003D01*
X159262759Y-115675787D01*
X159259197Y-115606011D01*
X159272113Y-115575278D01*
X159271794Y-115575125D01*
X159274811Y-115568859D01*
X159274813Y-115568853D01*
X159274817Y-115568848D01*
X159311025Y-115465372D01*
X159330674Y-115409219D01*
X159330674Y-115409217D01*
X159349610Y-115241160D01*
X159349610Y-115241155D01*
X159330674Y-115073098D01*
X159330674Y-115073097D01*
X159286618Y-114947194D01*
X159283055Y-114877416D01*
X159286609Y-114865312D01*
X159323722Y-114759251D01*
X159327886Y-114722300D01*
X159342658Y-114591194D01*
X159342658Y-114591189D01*
X159323722Y-114423132D01*
X159323722Y-114423131D01*
X159277304Y-114290478D01*
X159275975Y-114286681D01*
X159272413Y-114216905D01*
X159275969Y-114204795D01*
X159323815Y-114068059D01*
X159342751Y-113900000D01*
X159342751Y-113899997D01*
X159323816Y-113731943D01*
X159267956Y-113572305D01*
X159267954Y-113572302D01*
X159177983Y-113429115D01*
X159177978Y-113429109D01*
X159058392Y-113309523D01*
X159058386Y-113309518D01*
X158915199Y-113219547D01*
X158915196Y-113219545D01*
X158755558Y-113163685D01*
X158587505Y-113144751D01*
X158587499Y-113144751D01*
X158419445Y-113163685D01*
X158259807Y-113219545D01*
X158259804Y-113219547D01*
X158116617Y-113309518D01*
X158116611Y-113309523D01*
X157997025Y-113429109D01*
X157997020Y-113429115D01*
X157907049Y-113572302D01*
X157907047Y-113572305D01*
X157851187Y-113731943D01*
X157832253Y-113899997D01*
X157832253Y-113900002D01*
X157851188Y-114068057D01*
X157898934Y-114204509D01*
X157902495Y-114274288D01*
X157898934Y-114286417D01*
X157851095Y-114423134D01*
X157832160Y-114591189D01*
X157832160Y-114591194D01*
X157851095Y-114759251D01*
X157851095Y-114759253D01*
X157895150Y-114885152D01*
X157898712Y-114954931D01*
X157895151Y-114967060D01*
X157858047Y-115073099D01*
X157839112Y-115241155D01*
X157839112Y-115241160D01*
X157858047Y-115409214D01*
X157858047Y-115409215D01*
X157877696Y-115465372D01*
X157881257Y-115535151D01*
X157868344Y-115565885D01*
X157868660Y-115566038D01*
X157865684Y-115572216D01*
X157865657Y-115572282D01*
X157865641Y-115572306D01*
X157809781Y-115731943D01*
X157790847Y-115899997D01*
X152112640Y-115899997D01*
X152123815Y-115868061D01*
X152123815Y-115868060D01*
X152142751Y-115700003D01*
X152142751Y-115699998D01*
X152123816Y-115531945D01*
X152100521Y-115465372D01*
X152083226Y-115415948D01*
X152079664Y-115346173D01*
X152083225Y-115334048D01*
X152123813Y-115218057D01*
X152140147Y-115073097D01*
X152142749Y-115050000D01*
X152142749Y-115049995D01*
X152123814Y-114881941D01*
X152093360Y-114794911D01*
X152067956Y-114722308D01*
X152067955Y-114722307D01*
X152067954Y-114722303D01*
X152067952Y-114722300D01*
X151977981Y-114579113D01*
X151977976Y-114579107D01*
X151861549Y-114462680D01*
X151828064Y-114401357D01*
X151833048Y-114331665D01*
X151861545Y-114287322D01*
X151977977Y-114170891D01*
X152042592Y-114068058D01*
X152067952Y-114027698D01*
X152067954Y-114027695D01*
X152067954Y-114027693D01*
X152067956Y-114027691D01*
X152123813Y-113868060D01*
X152123813Y-113868059D01*
X152123814Y-113868057D01*
X152142749Y-113700003D01*
X152142749Y-113699998D01*
X152123814Y-113531944D01*
X152067954Y-113372306D01*
X152067952Y-113372303D01*
X152032558Y-113315974D01*
X152013557Y-113248738D01*
X152032558Y-113184029D01*
X152067958Y-113127691D01*
X152123815Y-112968060D01*
X152142751Y-112800001D01*
X152136062Y-112740633D01*
X152123816Y-112631944D01*
X152067956Y-112472306D01*
X152067954Y-112472303D01*
X151977983Y-112329116D01*
X151977978Y-112329110D01*
X151858392Y-112209524D01*
X151858386Y-112209519D01*
X151715199Y-112119548D01*
X151715188Y-112119543D01*
X151593445Y-112076943D01*
X151536669Y-112036222D01*
X151510922Y-111971269D01*
X151524378Y-111902707D01*
X151572766Y-111852305D01*
X151580608Y-111848177D01*
X151585049Y-111846037D01*
X151585062Y-111846033D01*
X151728262Y-111756054D01*
X151847849Y-111636467D01*
X151933596Y-111500002D01*
X151937824Y-111493274D01*
X151937826Y-111493271D01*
X151937826Y-111493269D01*
X151937828Y-111493267D01*
X151993685Y-111333636D01*
X151993685Y-111333635D01*
X151993686Y-111333633D01*
X152012621Y-111165579D01*
X152012621Y-111165574D01*
X151993686Y-110997520D01*
X151962894Y-110909523D01*
X151937828Y-110837887D01*
X151937826Y-110837884D01*
X151937826Y-110837883D01*
X151881543Y-110748311D01*
X151869138Y-110728569D01*
X151850138Y-110661333D01*
X151870505Y-110594498D01*
X151886456Y-110574911D01*
X151890477Y-110570890D01*
X151910565Y-110538920D01*
X151980456Y-110427690D01*
X152036313Y-110268059D01*
X152036313Y-110268058D01*
X152036314Y-110268056D01*
X152055249Y-110100002D01*
X152055249Y-110099997D01*
X152036314Y-109931943D01*
X151980454Y-109772305D01*
X151980452Y-109772302D01*
X151890481Y-109629115D01*
X151890476Y-109629109D01*
X151770890Y-109509523D01*
X151770884Y-109509518D01*
X151627697Y-109419547D01*
X151627694Y-109419545D01*
X151468056Y-109363685D01*
X151300003Y-109344751D01*
X151299997Y-109344751D01*
X151131943Y-109363685D01*
X150972305Y-109419545D01*
X150972302Y-109419547D01*
X150829115Y-109509518D01*
X150829109Y-109509523D01*
X150709523Y-109629109D01*
X150709518Y-109629115D01*
X150619547Y-109772302D01*
X150619545Y-109772305D01*
X150563685Y-109931943D01*
X150544751Y-110099997D01*
X150544751Y-110100002D01*
X150563685Y-110268056D01*
X150619545Y-110427692D01*
X150688233Y-110537008D01*
X150707233Y-110604245D01*
X150686865Y-110671080D01*
X150670925Y-110690656D01*
X150666899Y-110694681D01*
X150666890Y-110694693D01*
X150662285Y-110702022D01*
X150609949Y-110748311D01*
X150571182Y-110759265D01*
X150531941Y-110763687D01*
X150372307Y-110819544D01*
X150372302Y-110819547D01*
X150229115Y-110909518D01*
X150229109Y-110909523D01*
X150109523Y-111029109D01*
X150109518Y-111029115D01*
X150019547Y-111172302D01*
X150019545Y-111172305D01*
X149963685Y-111331943D01*
X149944751Y-111499997D01*
X147608523Y-111499997D01*
X147615000Y-111475826D01*
X147615000Y-111344174D01*
X147580925Y-111217007D01*
X147548012Y-111160000D01*
X148445636Y-111160000D01*
X148445635Y-111159999D01*
X148388432Y-110946513D01*
X148388429Y-110946507D01*
X148288600Y-110732422D01*
X148288599Y-110732420D01*
X148153113Y-110538926D01*
X148153108Y-110538920D01*
X147986078Y-110371890D01*
X147800405Y-110241879D01*
X147756780Y-110187302D01*
X147749588Y-110117804D01*
X147781110Y-110055449D01*
X147800406Y-110038730D01*
X147828969Y-110018730D01*
X147986401Y-109908495D01*
X148153495Y-109741401D01*
X148289035Y-109547830D01*
X148388903Y-109333663D01*
X148450063Y-109105408D01*
X148470659Y-108870000D01*
X148450063Y-108634592D01*
X148388903Y-108406337D01*
X148289035Y-108192171D01*
X148153495Y-107998599D01*
X148153494Y-107998597D01*
X147986402Y-107831506D01*
X147986396Y-107831501D01*
X147800842Y-107701575D01*
X147757217Y-107646998D01*
X147750023Y-107577500D01*
X147781546Y-107515145D01*
X147800842Y-107498425D01*
X147829405Y-107478425D01*
X147986401Y-107368495D01*
X148153495Y-107201401D01*
X148289035Y-107007830D01*
X148388903Y-106793663D01*
X148450063Y-106565408D01*
X148460160Y-106449997D01*
X157244751Y-106449997D01*
X157244751Y-106450002D01*
X157263685Y-106618056D01*
X157319545Y-106777694D01*
X157319547Y-106777697D01*
X157409518Y-106920884D01*
X157409523Y-106920890D01*
X157529109Y-107040476D01*
X157529115Y-107040481D01*
X157672302Y-107130452D01*
X157672305Y-107130454D01*
X157672309Y-107130455D01*
X157672310Y-107130456D01*
X157744913Y-107155860D01*
X157831943Y-107186314D01*
X157999997Y-107205249D01*
X158000000Y-107205249D01*
X158000003Y-107205249D01*
X158168059Y-107186313D01*
X158168060Y-107186313D01*
X158257237Y-107155108D01*
X158327690Y-107130456D01*
X158327690Y-107130455D01*
X158334045Y-107128232D01*
X158403824Y-107124670D01*
X158415955Y-107128232D01*
X158422309Y-107130455D01*
X158422310Y-107130456D01*
X158465918Y-107145715D01*
X158581939Y-107186313D01*
X158749997Y-107205249D01*
X158750000Y-107205249D01*
X158750003Y-107205249D01*
X158918056Y-107186314D01*
X158932094Y-107181402D01*
X159077690Y-107130456D01*
X159077692Y-107130454D01*
X159077694Y-107130454D01*
X159077697Y-107130452D01*
X159220884Y-107040481D01*
X159220885Y-107040480D01*
X159220890Y-107040477D01*
X159340477Y-106920890D01*
X159420419Y-106793664D01*
X159430452Y-106777697D01*
X159430454Y-106777694D01*
X159430454Y-106777692D01*
X159430456Y-106777690D01*
X159486313Y-106618059D01*
X159486313Y-106618058D01*
X159486314Y-106618056D01*
X159505249Y-106450002D01*
X159505249Y-106449997D01*
X159486314Y-106281943D01*
X159430454Y-106122305D01*
X159430452Y-106122302D01*
X159340481Y-105979115D01*
X159340476Y-105979109D01*
X159220890Y-105859523D01*
X159220884Y-105859518D01*
X159077697Y-105769547D01*
X159077694Y-105769545D01*
X158918056Y-105713685D01*
X158750003Y-105694751D01*
X158749997Y-105694751D01*
X158581943Y-105713685D01*
X158447190Y-105760838D01*
X158422310Y-105769544D01*
X158422309Y-105769544D01*
X158415955Y-105771768D01*
X158346176Y-105775329D01*
X158334045Y-105771768D01*
X158327690Y-105769544D01*
X158294077Y-105757782D01*
X158168056Y-105713685D01*
X158000003Y-105694751D01*
X157999997Y-105694751D01*
X157831943Y-105713685D01*
X157672305Y-105769545D01*
X157672302Y-105769547D01*
X157529115Y-105859518D01*
X157529109Y-105859523D01*
X157409523Y-105979109D01*
X157409518Y-105979115D01*
X157319547Y-106122302D01*
X157319545Y-106122305D01*
X157263685Y-106281943D01*
X157244751Y-106449997D01*
X148460160Y-106449997D01*
X148470659Y-106330000D01*
X148450063Y-106094592D01*
X148388903Y-105866337D01*
X148289035Y-105652171D01*
X148277932Y-105636313D01*
X148153494Y-105458597D01*
X147986402Y-105291506D01*
X147986396Y-105291501D01*
X147800842Y-105161575D01*
X147757217Y-105106998D01*
X147750023Y-105037500D01*
X147781546Y-104975145D01*
X147800842Y-104958425D01*
X147829405Y-104938425D01*
X147884286Y-104899997D01*
X156044751Y-104899997D01*
X156044751Y-104900002D01*
X156063685Y-105068056D01*
X156119545Y-105227694D01*
X156119547Y-105227697D01*
X156209518Y-105370884D01*
X156209523Y-105370890D01*
X156329109Y-105490476D01*
X156329115Y-105490481D01*
X156472302Y-105580452D01*
X156472305Y-105580454D01*
X156472309Y-105580455D01*
X156472310Y-105580456D01*
X156544913Y-105605860D01*
X156631943Y-105636314D01*
X156799997Y-105655249D01*
X156800000Y-105655249D01*
X156800003Y-105655249D01*
X156968056Y-105636314D01*
X156979902Y-105632169D01*
X157127690Y-105580456D01*
X157127692Y-105580454D01*
X157127694Y-105580454D01*
X157127697Y-105580452D01*
X157270884Y-105490481D01*
X157270885Y-105490480D01*
X157270890Y-105490477D01*
X157390477Y-105370890D01*
X157440361Y-105291501D01*
X157480452Y-105227697D01*
X157480454Y-105227694D01*
X157480454Y-105227692D01*
X157480456Y-105227690D01*
X157536313Y-105068059D01*
X157536313Y-105068058D01*
X157536314Y-105068056D01*
X157555249Y-104900002D01*
X157555249Y-104899997D01*
X157536314Y-104731943D01*
X157480454Y-104572305D01*
X157480452Y-104572302D01*
X157390481Y-104429115D01*
X157390476Y-104429109D01*
X157270890Y-104309523D01*
X157270884Y-104309518D01*
X157127697Y-104219547D01*
X157127694Y-104219545D01*
X156968056Y-104163685D01*
X156800003Y-104144751D01*
X156799997Y-104144751D01*
X156631943Y-104163685D01*
X156472305Y-104219545D01*
X156472302Y-104219547D01*
X156329115Y-104309518D01*
X156329109Y-104309523D01*
X156209523Y-104429109D01*
X156209518Y-104429115D01*
X156119547Y-104572302D01*
X156119545Y-104572305D01*
X156063685Y-104731943D01*
X156044751Y-104899997D01*
X147884286Y-104899997D01*
X147986401Y-104828495D01*
X148153495Y-104661401D01*
X148289035Y-104467830D01*
X148388903Y-104253663D01*
X148450063Y-104025408D01*
X148470659Y-103790000D01*
X148450063Y-103554592D01*
X148388903Y-103326337D01*
X148289035Y-103112171D01*
X148280515Y-103100002D01*
X148153494Y-102918597D01*
X147986402Y-102751506D01*
X147986396Y-102751501D01*
X147800842Y-102621575D01*
X147757217Y-102566998D01*
X147750023Y-102497500D01*
X147781546Y-102435145D01*
X147800842Y-102418425D01*
X147924352Y-102331942D01*
X147986401Y-102288495D01*
X148153495Y-102121401D01*
X148289035Y-101927830D01*
X148388903Y-101713663D01*
X148450063Y-101485408D01*
X148470659Y-101250000D01*
X148450063Y-101014592D01*
X148388903Y-100786337D01*
X148348642Y-100699997D01*
X157344751Y-100699997D01*
X157344751Y-100700002D01*
X157363685Y-100868056D01*
X157419545Y-101027694D01*
X157419547Y-101027697D01*
X157509518Y-101170884D01*
X157509523Y-101170890D01*
X157629109Y-101290476D01*
X157629115Y-101290481D01*
X157772302Y-101380452D01*
X157772305Y-101380454D01*
X157772309Y-101380455D01*
X157772310Y-101380456D01*
X157828155Y-101399997D01*
X157931943Y-101436314D01*
X158099997Y-101455249D01*
X158100000Y-101455249D01*
X158100003Y-101455249D01*
X158214909Y-101442302D01*
X158283731Y-101454356D01*
X158316474Y-101477841D01*
X158329109Y-101490476D01*
X158329115Y-101490481D01*
X158462920Y-101574557D01*
X158509211Y-101626891D01*
X158519859Y-101695945D01*
X158491484Y-101759793D01*
X158437903Y-101796591D01*
X158372313Y-101819542D01*
X158372302Y-101819547D01*
X158229115Y-101909518D01*
X158229109Y-101909523D01*
X158109523Y-102029109D01*
X158109518Y-102029115D01*
X158019547Y-102172302D01*
X158019544Y-102172308D01*
X157975181Y-102299093D01*
X157934459Y-102355869D01*
X157899093Y-102375181D01*
X157772308Y-102419544D01*
X157772302Y-102419547D01*
X157629115Y-102509518D01*
X157629109Y-102509523D01*
X157509523Y-102629109D01*
X157509518Y-102629115D01*
X157419547Y-102772302D01*
X157419545Y-102772305D01*
X157363685Y-102931943D01*
X157344751Y-103099997D01*
X157344751Y-103100002D01*
X157363685Y-103268056D01*
X157419545Y-103427694D01*
X157419547Y-103427697D01*
X157509518Y-103570884D01*
X157509523Y-103570890D01*
X157629109Y-103690476D01*
X157629115Y-103690481D01*
X157772302Y-103780452D01*
X157772305Y-103780454D01*
X157772309Y-103780455D01*
X157772310Y-103780456D01*
X157844913Y-103805860D01*
X157931943Y-103836314D01*
X158099997Y-103855249D01*
X158100000Y-103855249D01*
X158100003Y-103855249D01*
X158268056Y-103836314D01*
X158268059Y-103836313D01*
X158427690Y-103780456D01*
X158427692Y-103780454D01*
X158427694Y-103780454D01*
X158427697Y-103780452D01*
X158570884Y-103690481D01*
X158570885Y-103690480D01*
X158570890Y-103690477D01*
X158690477Y-103570890D01*
X158690481Y-103570884D01*
X158780452Y-103427697D01*
X158780455Y-103427691D01*
X158780456Y-103427690D01*
X158824819Y-103300906D01*
X158865541Y-103244131D01*
X158900907Y-103224819D01*
X159027690Y-103180456D01*
X159027693Y-103180453D01*
X159027697Y-103180452D01*
X159170884Y-103090481D01*
X159170885Y-103090480D01*
X159170890Y-103090477D01*
X159290477Y-102970890D01*
X159314949Y-102931943D01*
X159380452Y-102827697D01*
X159380454Y-102827694D01*
X159380454Y-102827692D01*
X159380456Y-102827690D01*
X159436313Y-102668059D01*
X159436313Y-102668058D01*
X159436314Y-102668056D01*
X159455249Y-102500002D01*
X159455249Y-102499997D01*
X159436313Y-102331942D01*
X159426809Y-102304779D01*
X159423248Y-102235001D01*
X159457977Y-102174373D01*
X159519970Y-102142146D01*
X159529950Y-102140606D01*
X159568059Y-102136313D01*
X159727690Y-102080456D01*
X159727692Y-102080454D01*
X159727694Y-102080454D01*
X159727697Y-102080452D01*
X159870884Y-101990481D01*
X159870885Y-101990480D01*
X159870890Y-101990477D01*
X159990477Y-101870890D01*
X160022740Y-101819544D01*
X160080452Y-101727697D01*
X160080454Y-101727694D01*
X160080454Y-101727692D01*
X160080456Y-101727690D01*
X160136313Y-101568059D01*
X160136313Y-101568058D01*
X160136314Y-101568056D01*
X160155249Y-101400002D01*
X160155249Y-101399997D01*
X160136314Y-101231943D01*
X160080454Y-101072305D01*
X160080452Y-101072302D01*
X159990481Y-100929115D01*
X159990476Y-100929109D01*
X159870890Y-100809523D01*
X159870884Y-100809518D01*
X159727697Y-100719547D01*
X159727692Y-100719544D01*
X159640212Y-100688934D01*
X159568059Y-100663687D01*
X159568056Y-100663686D01*
X159561487Y-100661388D01*
X159562503Y-100658484D01*
X159513405Y-100630996D01*
X159484966Y-100585200D01*
X159480456Y-100572310D01*
X159480454Y-100572307D01*
X159480454Y-100572306D01*
X159480452Y-100572302D01*
X159390481Y-100429115D01*
X159390476Y-100429109D01*
X159270890Y-100309523D01*
X159270884Y-100309518D01*
X159127697Y-100219547D01*
X159127694Y-100219545D01*
X158968056Y-100163685D01*
X158800003Y-100144751D01*
X158799996Y-100144751D01*
X158685089Y-100157697D01*
X158616267Y-100145642D01*
X158583525Y-100122158D01*
X158570890Y-100109523D01*
X158570884Y-100109518D01*
X158427697Y-100019547D01*
X158427694Y-100019545D01*
X158268056Y-99963685D01*
X158100003Y-99944751D01*
X158099997Y-99944751D01*
X157931943Y-99963685D01*
X157772305Y-100019545D01*
X157772302Y-100019547D01*
X157629115Y-100109518D01*
X157629109Y-100109523D01*
X157509523Y-100229109D01*
X157509518Y-100229115D01*
X157419547Y-100372302D01*
X157419545Y-100372305D01*
X157363685Y-100531943D01*
X157344751Y-100699997D01*
X148348642Y-100699997D01*
X148289035Y-100572171D01*
X148260868Y-100531943D01*
X148153494Y-100378597D01*
X147986402Y-100211506D01*
X147986396Y-100211501D01*
X147800842Y-100081575D01*
X147757217Y-100026998D01*
X147750023Y-99957500D01*
X147781546Y-99895145D01*
X147800842Y-99878425D01*
X147829405Y-99858425D01*
X147986401Y-99748495D01*
X148153495Y-99581401D01*
X148289035Y-99387830D01*
X148388903Y-99173663D01*
X148450063Y-98945408D01*
X148470659Y-98710000D01*
X148450063Y-98474592D01*
X148388903Y-98246337D01*
X148289035Y-98032171D01*
X148153495Y-97838599D01*
X148153494Y-97838597D01*
X147986402Y-97671506D01*
X147986396Y-97671501D01*
X147800842Y-97541575D01*
X147757217Y-97486998D01*
X147750023Y-97417500D01*
X147781546Y-97355145D01*
X147800842Y-97338425D01*
X147946671Y-97236314D01*
X147986401Y-97208495D01*
X148153495Y-97041401D01*
X148289035Y-96847830D01*
X148388903Y-96633663D01*
X148450063Y-96405408D01*
X148470659Y-96170000D01*
X148455785Y-95999997D01*
X153544751Y-95999997D01*
X153544751Y-96000002D01*
X153563685Y-96168056D01*
X153619545Y-96327694D01*
X153619547Y-96327697D01*
X153709518Y-96470884D01*
X153709523Y-96470890D01*
X153829109Y-96590476D01*
X153829115Y-96590481D01*
X153972302Y-96680452D01*
X153972305Y-96680454D01*
X153972309Y-96680455D01*
X153972310Y-96680456D01*
X154044913Y-96705860D01*
X154131943Y-96736314D01*
X154299997Y-96755249D01*
X154300000Y-96755249D01*
X154300003Y-96755249D01*
X154468056Y-96736314D01*
X154468059Y-96736313D01*
X154627690Y-96680456D01*
X154627692Y-96680454D01*
X154627694Y-96680454D01*
X154627697Y-96680452D01*
X154770884Y-96590481D01*
X154770885Y-96590480D01*
X154770890Y-96590477D01*
X154861370Y-96499997D01*
X155344751Y-96499997D01*
X155344751Y-96500002D01*
X155363685Y-96668056D01*
X155419545Y-96827694D01*
X155419547Y-96827697D01*
X155509518Y-96970884D01*
X155509523Y-96970890D01*
X155629109Y-97090476D01*
X155629115Y-97090481D01*
X155772302Y-97180452D01*
X155772305Y-97180454D01*
X155772309Y-97180455D01*
X155772310Y-97180456D01*
X155795293Y-97188498D01*
X155931943Y-97236314D01*
X156099997Y-97255249D01*
X156100000Y-97255249D01*
X156100003Y-97255249D01*
X156268056Y-97236314D01*
X156268059Y-97236313D01*
X156427690Y-97180456D01*
X156427692Y-97180454D01*
X156427694Y-97180454D01*
X156427697Y-97180452D01*
X156570884Y-97090481D01*
X156570885Y-97090480D01*
X156570890Y-97090477D01*
X156690477Y-96970890D01*
X156767799Y-96847834D01*
X156780452Y-96827697D01*
X156780454Y-96827694D01*
X156780454Y-96827692D01*
X156780456Y-96827690D01*
X156836313Y-96668059D01*
X156836313Y-96668058D01*
X156836314Y-96668056D01*
X156855249Y-96500002D01*
X156855249Y-96499997D01*
X156836314Y-96331943D01*
X156780454Y-96172305D01*
X156780452Y-96172302D01*
X156690481Y-96029115D01*
X156690476Y-96029109D01*
X156570890Y-95909523D01*
X156570884Y-95909518D01*
X156427697Y-95819547D01*
X156427694Y-95819545D01*
X156268056Y-95763685D01*
X156100003Y-95744751D01*
X156099997Y-95744751D01*
X155931943Y-95763685D01*
X155772305Y-95819545D01*
X155772302Y-95819547D01*
X155629115Y-95909518D01*
X155629109Y-95909523D01*
X155509523Y-96029109D01*
X155509518Y-96029115D01*
X155419547Y-96172302D01*
X155419545Y-96172305D01*
X155363685Y-96331943D01*
X155344751Y-96499997D01*
X154861370Y-96499997D01*
X154890477Y-96470890D01*
X154931619Y-96405413D01*
X154980452Y-96327697D01*
X154980454Y-96327694D01*
X154980454Y-96327692D01*
X154980456Y-96327690D01*
X155036313Y-96168059D01*
X155036313Y-96168058D01*
X155036314Y-96168056D01*
X155055249Y-96000002D01*
X155055249Y-95999997D01*
X155036314Y-95831943D01*
X154992362Y-95706335D01*
X154980456Y-95672310D01*
X154980455Y-95672309D01*
X154980454Y-95672305D01*
X154980452Y-95672302D01*
X154890481Y-95529115D01*
X154890476Y-95529109D01*
X154770890Y-95409523D01*
X154770884Y-95409518D01*
X154627697Y-95319547D01*
X154627694Y-95319545D01*
X154468056Y-95263685D01*
X154300003Y-95244751D01*
X154299997Y-95244751D01*
X154131943Y-95263685D01*
X153972305Y-95319545D01*
X153972302Y-95319547D01*
X153829115Y-95409518D01*
X153829109Y-95409523D01*
X153709523Y-95529109D01*
X153709518Y-95529115D01*
X153619547Y-95672302D01*
X153619545Y-95672305D01*
X153563685Y-95831943D01*
X153544751Y-95999997D01*
X148455785Y-95999997D01*
X148450063Y-95934592D01*
X148388903Y-95706337D01*
X148289035Y-95492171D01*
X148231165Y-95409523D01*
X148153494Y-95298597D01*
X147986402Y-95131506D01*
X147986396Y-95131501D01*
X147800842Y-95001575D01*
X147757217Y-94946998D01*
X147750023Y-94877500D01*
X147781546Y-94815145D01*
X147800842Y-94798425D01*
X147883600Y-94740477D01*
X147986401Y-94668495D01*
X148153495Y-94501401D01*
X148289035Y-94307830D01*
X148362634Y-94149997D01*
X151294751Y-94149997D01*
X151294751Y-94150002D01*
X151313685Y-94318056D01*
X151369545Y-94477694D01*
X151369547Y-94477697D01*
X151459518Y-94620884D01*
X151459523Y-94620890D01*
X151579109Y-94740476D01*
X151579115Y-94740481D01*
X151722302Y-94830452D01*
X151722305Y-94830454D01*
X151722309Y-94830455D01*
X151722310Y-94830456D01*
X151786743Y-94853002D01*
X151881943Y-94886314D01*
X152049997Y-94905249D01*
X152050000Y-94905249D01*
X152050003Y-94905249D01*
X152218056Y-94886314D01*
X152218059Y-94886313D01*
X152377690Y-94830456D01*
X152377692Y-94830454D01*
X152377694Y-94830454D01*
X152377697Y-94830452D01*
X152520884Y-94740481D01*
X152520885Y-94740480D01*
X152520890Y-94740477D01*
X152640477Y-94620890D01*
X152715557Y-94501402D01*
X152730452Y-94477697D01*
X152730454Y-94477694D01*
X152730454Y-94477692D01*
X152730456Y-94477690D01*
X152786313Y-94318059D01*
X152786313Y-94318058D01*
X152786314Y-94318056D01*
X152805249Y-94150002D01*
X152805249Y-94149997D01*
X152786314Y-93981943D01*
X152745538Y-93865413D01*
X152730456Y-93822310D01*
X152730455Y-93822309D01*
X152730454Y-93822305D01*
X152730452Y-93822302D01*
X152653602Y-93699997D01*
X157044751Y-93699997D01*
X157044751Y-93700002D01*
X157063685Y-93868056D01*
X157119545Y-94027694D01*
X157119547Y-94027697D01*
X157209518Y-94170884D01*
X157209523Y-94170890D01*
X157329109Y-94290476D01*
X157329115Y-94290481D01*
X157472302Y-94380452D01*
X157472305Y-94380454D01*
X157472309Y-94380455D01*
X157472310Y-94380456D01*
X157544913Y-94405860D01*
X157631943Y-94436314D01*
X157799997Y-94455249D01*
X157800000Y-94455249D01*
X157800003Y-94455249D01*
X157968056Y-94436314D01*
X157968059Y-94436313D01*
X158127690Y-94380456D01*
X158127692Y-94380454D01*
X158127694Y-94380454D01*
X158127697Y-94380452D01*
X158270884Y-94290481D01*
X158270885Y-94290480D01*
X158270890Y-94290477D01*
X158390477Y-94170890D01*
X158439002Y-94093664D01*
X158480452Y-94027697D01*
X158480456Y-94027689D01*
X158520539Y-93913136D01*
X158561260Y-93856359D01*
X158571602Y-93849099D01*
X158676943Y-93782910D01*
X158796530Y-93663323D01*
X158796534Y-93663317D01*
X158886505Y-93520130D01*
X158886508Y-93520125D01*
X158904206Y-93469547D01*
X158926592Y-93405568D01*
X158967314Y-93348794D01*
X158977657Y-93341533D01*
X159082997Y-93275344D01*
X159202584Y-93155757D01*
X159208503Y-93146337D01*
X159292559Y-93012564D01*
X159292561Y-93012561D01*
X159292561Y-93012559D01*
X159292563Y-93012557D01*
X159348420Y-92852926D01*
X159348420Y-92852925D01*
X159348421Y-92852923D01*
X159367356Y-92684869D01*
X159367356Y-92684864D01*
X159348421Y-92516810D01*
X159301424Y-92382500D01*
X159292563Y-92357177D01*
X159292562Y-92357175D01*
X159292561Y-92357172D01*
X159292559Y-92357169D01*
X159202588Y-92213982D01*
X159202583Y-92213976D01*
X159082997Y-92094390D01*
X159082991Y-92094385D01*
X158939804Y-92004414D01*
X158939801Y-92004412D01*
X158780163Y-91948552D01*
X158612110Y-91929618D01*
X158612104Y-91929618D01*
X158444050Y-91948552D01*
X158284412Y-92004412D01*
X158284409Y-92004414D01*
X158141222Y-92094385D01*
X158141216Y-92094390D01*
X158021630Y-92213976D01*
X158021625Y-92213982D01*
X157931655Y-92357167D01*
X157931651Y-92357175D01*
X157891566Y-92471731D01*
X157850844Y-92528506D01*
X157840498Y-92535768D01*
X157735164Y-92601955D01*
X157735160Y-92601958D01*
X157615576Y-92721542D01*
X157615571Y-92721548D01*
X157525596Y-92864741D01*
X157525595Y-92864742D01*
X157485511Y-92979298D01*
X157444790Y-93036074D01*
X157434443Y-93043336D01*
X157329113Y-93109520D01*
X157329111Y-93109521D01*
X157209523Y-93229109D01*
X157209518Y-93229115D01*
X157119547Y-93372302D01*
X157119545Y-93372305D01*
X157063685Y-93531943D01*
X157044751Y-93699997D01*
X152653602Y-93699997D01*
X152640481Y-93679115D01*
X152640476Y-93679109D01*
X152520890Y-93559523D01*
X152520884Y-93559518D01*
X152377697Y-93469547D01*
X152377694Y-93469545D01*
X152218056Y-93413685D01*
X152050003Y-93394751D01*
X152049997Y-93394751D01*
X151881943Y-93413685D01*
X151722305Y-93469545D01*
X151722302Y-93469547D01*
X151579115Y-93559518D01*
X151579109Y-93559523D01*
X151459523Y-93679109D01*
X151459518Y-93679115D01*
X151369547Y-93822302D01*
X151369545Y-93822305D01*
X151313685Y-93981943D01*
X151294751Y-94149997D01*
X148362634Y-94149997D01*
X148388903Y-94093663D01*
X148450063Y-93865408D01*
X148470659Y-93630000D01*
X148450063Y-93394592D01*
X148388903Y-93166337D01*
X148289035Y-92952171D01*
X148227817Y-92864741D01*
X148153494Y-92758597D01*
X147986402Y-92591506D01*
X147986396Y-92591501D01*
X147800842Y-92461575D01*
X147757217Y-92406998D01*
X147750023Y-92337500D01*
X147781546Y-92275145D01*
X147800842Y-92258425D01*
X147864320Y-92213977D01*
X147955693Y-92149997D01*
X150544751Y-92149997D01*
X150544751Y-92150002D01*
X150563685Y-92318056D01*
X150619545Y-92477694D01*
X150619547Y-92477697D01*
X150709518Y-92620884D01*
X150709523Y-92620890D01*
X150829109Y-92740476D01*
X150829115Y-92740481D01*
X150972302Y-92830452D01*
X150972305Y-92830454D01*
X150972309Y-92830455D01*
X150972310Y-92830456D01*
X151036517Y-92852923D01*
X151131943Y-92886314D01*
X151299997Y-92905249D01*
X151300000Y-92905249D01*
X151300003Y-92905249D01*
X151468056Y-92886314D01*
X151468059Y-92886313D01*
X151627690Y-92830456D01*
X151627692Y-92830454D01*
X151627694Y-92830454D01*
X151627697Y-92830452D01*
X151770884Y-92740481D01*
X151770885Y-92740480D01*
X151770890Y-92740477D01*
X151890477Y-92620890D01*
X151902375Y-92601955D01*
X151980452Y-92477697D01*
X151980454Y-92477694D01*
X151980454Y-92477692D01*
X151980456Y-92477690D01*
X152036313Y-92318059D01*
X152036313Y-92318058D01*
X152036314Y-92318056D01*
X152055249Y-92150002D01*
X152055249Y-92149997D01*
X152036314Y-91981943D01*
X151980454Y-91822305D01*
X151980452Y-91822302D01*
X151890481Y-91679115D01*
X151890476Y-91679109D01*
X151770890Y-91559523D01*
X151770884Y-91559518D01*
X151627697Y-91469547D01*
X151627694Y-91469545D01*
X151468056Y-91413685D01*
X151300003Y-91394751D01*
X151299997Y-91394751D01*
X151131943Y-91413685D01*
X150972305Y-91469545D01*
X150972302Y-91469547D01*
X150829115Y-91559518D01*
X150829109Y-91559523D01*
X150709523Y-91679109D01*
X150709518Y-91679115D01*
X150619547Y-91822302D01*
X150619545Y-91822305D01*
X150563685Y-91981943D01*
X150544751Y-92149997D01*
X147955693Y-92149997D01*
X147986401Y-92128495D01*
X148153495Y-91961401D01*
X148289035Y-91767830D01*
X148388903Y-91553663D01*
X148450063Y-91325408D01*
X148470659Y-91090000D01*
X148468909Y-91069999D01*
X163559341Y-91069999D01*
X163559341Y-91070000D01*
X163579936Y-91305403D01*
X163579938Y-91305413D01*
X163641094Y-91533655D01*
X163641096Y-91533659D01*
X163641097Y-91533663D01*
X163653156Y-91559523D01*
X163740965Y-91747830D01*
X163740967Y-91747834D01*
X163849281Y-91902521D01*
X163868254Y-91929618D01*
X163876501Y-91941395D01*
X163876506Y-91941402D01*
X164043597Y-92108493D01*
X164043603Y-92108498D01*
X164229158Y-92238425D01*
X164272783Y-92293002D01*
X164279977Y-92362500D01*
X164248454Y-92424855D01*
X164229158Y-92441575D01*
X164043597Y-92571505D01*
X163876505Y-92738597D01*
X163740965Y-92932169D01*
X163740964Y-92932171D01*
X163641098Y-93146335D01*
X163641094Y-93146344D01*
X163579938Y-93374586D01*
X163579936Y-93374596D01*
X163559341Y-93609999D01*
X163559341Y-93610000D01*
X163579936Y-93845403D01*
X163579938Y-93845413D01*
X163641094Y-94073655D01*
X163641096Y-94073659D01*
X163641097Y-94073663D01*
X163676694Y-94150000D01*
X163740965Y-94287830D01*
X163740967Y-94287834D01*
X163805821Y-94380454D01*
X163873911Y-94477697D01*
X163876501Y-94481395D01*
X163876506Y-94481402D01*
X164043597Y-94648493D01*
X164043603Y-94648498D01*
X164229158Y-94778425D01*
X164272783Y-94833002D01*
X164279977Y-94902500D01*
X164248454Y-94964855D01*
X164229158Y-94981575D01*
X164043597Y-95111505D01*
X163876505Y-95278597D01*
X163740965Y-95472169D01*
X163740964Y-95472171D01*
X163641098Y-95686335D01*
X163641094Y-95686344D01*
X163579938Y-95914586D01*
X163579936Y-95914596D01*
X163559341Y-96149999D01*
X163559341Y-96150000D01*
X163579936Y-96385403D01*
X163579938Y-96385413D01*
X163641094Y-96613655D01*
X163641096Y-96613659D01*
X163641097Y-96613663D01*
X163698290Y-96736313D01*
X163740965Y-96827830D01*
X163740967Y-96827834D01*
X163876501Y-97021395D01*
X163876506Y-97021402D01*
X164043597Y-97188493D01*
X164043603Y-97188498D01*
X164229158Y-97318425D01*
X164272783Y-97373002D01*
X164279977Y-97442500D01*
X164248454Y-97504855D01*
X164229158Y-97521575D01*
X164043597Y-97651505D01*
X163876505Y-97818597D01*
X163740965Y-98012169D01*
X163740964Y-98012171D01*
X163641098Y-98226335D01*
X163641094Y-98226344D01*
X163579938Y-98454586D01*
X163579936Y-98454596D01*
X163559341Y-98689999D01*
X163559341Y-98690000D01*
X163579936Y-98925403D01*
X163579938Y-98925413D01*
X163641094Y-99153655D01*
X163641096Y-99153659D01*
X163641097Y-99153663D01*
X163650424Y-99173664D01*
X163740965Y-99367830D01*
X163740967Y-99367834D01*
X163876501Y-99561395D01*
X163876506Y-99561402D01*
X164043597Y-99728493D01*
X164043603Y-99728498D01*
X164229158Y-99858425D01*
X164272783Y-99913002D01*
X164279977Y-99982500D01*
X164248454Y-100044855D01*
X164229158Y-100061575D01*
X164043597Y-100191505D01*
X163876505Y-100358597D01*
X163740965Y-100552169D01*
X163740964Y-100552171D01*
X163641098Y-100766335D01*
X163641094Y-100766344D01*
X163579938Y-100994586D01*
X163579936Y-100994596D01*
X163559341Y-101229999D01*
X163559341Y-101230000D01*
X163579936Y-101465403D01*
X163579938Y-101465413D01*
X163641094Y-101693655D01*
X163641096Y-101693659D01*
X163641097Y-101693663D01*
X163699798Y-101819547D01*
X163740965Y-101907830D01*
X163740967Y-101907834D01*
X163876501Y-102101395D01*
X163876506Y-102101402D01*
X164043597Y-102268493D01*
X164043603Y-102268498D01*
X164229158Y-102398425D01*
X164272783Y-102453002D01*
X164279977Y-102522500D01*
X164248454Y-102584855D01*
X164229158Y-102601575D01*
X164043597Y-102731505D01*
X163876505Y-102898597D01*
X163740965Y-103092169D01*
X163740964Y-103092171D01*
X163641098Y-103306335D01*
X163641094Y-103306344D01*
X163579938Y-103534586D01*
X163579936Y-103534596D01*
X163559341Y-103769999D01*
X163559341Y-103770000D01*
X163579936Y-104005403D01*
X163579938Y-104005413D01*
X163641094Y-104233655D01*
X163641096Y-104233659D01*
X163641097Y-104233663D01*
X163732235Y-104429109D01*
X163740965Y-104447830D01*
X163740967Y-104447834D01*
X163876501Y-104641395D01*
X163876506Y-104641402D01*
X164043597Y-104808493D01*
X164043603Y-104808498D01*
X164229158Y-104938425D01*
X164272783Y-104993002D01*
X164279977Y-105062500D01*
X164248454Y-105124855D01*
X164229158Y-105141575D01*
X164043597Y-105271505D01*
X163876505Y-105438597D01*
X163740965Y-105632169D01*
X163740964Y-105632171D01*
X163641098Y-105846335D01*
X163641094Y-105846344D01*
X163579938Y-106074586D01*
X163579936Y-106074596D01*
X163559341Y-106309999D01*
X163559341Y-106310000D01*
X163579936Y-106545403D01*
X163579938Y-106545413D01*
X163641094Y-106773655D01*
X163641096Y-106773659D01*
X163641097Y-106773663D01*
X163709750Y-106920890D01*
X163740965Y-106987830D01*
X163740967Y-106987834D01*
X163876501Y-107181395D01*
X163876506Y-107181402D01*
X164043597Y-107348493D01*
X164043603Y-107348498D01*
X164229158Y-107478425D01*
X164272783Y-107533002D01*
X164279977Y-107602500D01*
X164248454Y-107664855D01*
X164229158Y-107681575D01*
X164043597Y-107811505D01*
X163876505Y-107978597D01*
X163740965Y-108172169D01*
X163740964Y-108172171D01*
X163641098Y-108386335D01*
X163641094Y-108386344D01*
X163579938Y-108614586D01*
X163579936Y-108614596D01*
X163559341Y-108849999D01*
X163559341Y-108850000D01*
X163579936Y-109085403D01*
X163579938Y-109085413D01*
X163641094Y-109313655D01*
X163641096Y-109313659D01*
X163641097Y-109313663D01*
X163690471Y-109419545D01*
X163740965Y-109527830D01*
X163740967Y-109527834D01*
X163876501Y-109721395D01*
X163876506Y-109721402D01*
X164043597Y-109888493D01*
X164043603Y-109888498D01*
X164229594Y-110018730D01*
X164273219Y-110073307D01*
X164280413Y-110142805D01*
X164248890Y-110205160D01*
X164229595Y-110221880D01*
X164043922Y-110351890D01*
X164043920Y-110351891D01*
X163876891Y-110518920D01*
X163876886Y-110518926D01*
X163741400Y-110712420D01*
X163741399Y-110712422D01*
X163641570Y-110926507D01*
X163641567Y-110926513D01*
X163584364Y-111139999D01*
X163584364Y-111140000D01*
X164481988Y-111140000D01*
X164449075Y-111197007D01*
X164415000Y-111324174D01*
X164415000Y-111455826D01*
X164449075Y-111582993D01*
X164481988Y-111640000D01*
X163584364Y-111640000D01*
X163641567Y-111853486D01*
X163641570Y-111853492D01*
X163741399Y-112067578D01*
X163876894Y-112261082D01*
X164043917Y-112428105D01*
X164237421Y-112563600D01*
X164451507Y-112663429D01*
X164451516Y-112663433D01*
X164665000Y-112720634D01*
X164665000Y-111823012D01*
X164722007Y-111855925D01*
X164849174Y-111890000D01*
X164980826Y-111890000D01*
X165107993Y-111855925D01*
X165165000Y-111823012D01*
X165165000Y-112720633D01*
X165378483Y-112663433D01*
X165378492Y-112663429D01*
X165592578Y-112563600D01*
X165786082Y-112428105D01*
X165953105Y-112261082D01*
X166088600Y-112067578D01*
X166188429Y-111853492D01*
X166188432Y-111853486D01*
X166245636Y-111640000D01*
X165348012Y-111640000D01*
X165380925Y-111582993D01*
X165415000Y-111455826D01*
X165415000Y-111324174D01*
X165380925Y-111197007D01*
X165348012Y-111140000D01*
X166245636Y-111140000D01*
X166245635Y-111139999D01*
X166188432Y-110926513D01*
X166188429Y-110926507D01*
X166088600Y-110712422D01*
X166088599Y-110712420D01*
X165953113Y-110518926D01*
X165953108Y-110518920D01*
X165786078Y-110351890D01*
X165600405Y-110221879D01*
X165556780Y-110167302D01*
X165549588Y-110097804D01*
X165581110Y-110035449D01*
X165600406Y-110018730D01*
X165786401Y-109888495D01*
X165953495Y-109721401D01*
X166089035Y-109527830D01*
X166188903Y-109313663D01*
X166250063Y-109085408D01*
X166270659Y-108850000D01*
X166250063Y-108614592D01*
X166188903Y-108386337D01*
X166089035Y-108172171D01*
X165953495Y-107978599D01*
X165953494Y-107978597D01*
X165786402Y-107811506D01*
X165786396Y-107811501D01*
X165600842Y-107681575D01*
X165557217Y-107626998D01*
X165550023Y-107557500D01*
X165581546Y-107495145D01*
X165600842Y-107478425D01*
X165623026Y-107462891D01*
X165786401Y-107348495D01*
X165953495Y-107181401D01*
X166089035Y-106987830D01*
X166188903Y-106773663D01*
X166250063Y-106545408D01*
X166270659Y-106310000D01*
X166250063Y-106074592D01*
X166188903Y-105846337D01*
X166089035Y-105632171D01*
X166052822Y-105580452D01*
X165953494Y-105438597D01*
X165786402Y-105271506D01*
X165786396Y-105271501D01*
X165600842Y-105141575D01*
X165557217Y-105086998D01*
X165550023Y-105017500D01*
X165581546Y-104955145D01*
X165600842Y-104938425D01*
X165623026Y-104922891D01*
X165786401Y-104808495D01*
X165953495Y-104641401D01*
X166089035Y-104447830D01*
X166188903Y-104233663D01*
X166250063Y-104005408D01*
X166270659Y-103770000D01*
X166250063Y-103534592D01*
X166188903Y-103306337D01*
X166089035Y-103092171D01*
X166087849Y-103090476D01*
X165953494Y-102898597D01*
X165786402Y-102731506D01*
X165786396Y-102731501D01*
X165600842Y-102601575D01*
X165557217Y-102546998D01*
X165550023Y-102477500D01*
X165581546Y-102415145D01*
X165600842Y-102398425D01*
X165695789Y-102331942D01*
X165786401Y-102268495D01*
X165953495Y-102101401D01*
X166089035Y-101907830D01*
X166188903Y-101693663D01*
X166250063Y-101465408D01*
X166270659Y-101230000D01*
X166250063Y-100994592D01*
X166188903Y-100766337D01*
X166089035Y-100552171D01*
X166074872Y-100531943D01*
X165953494Y-100358597D01*
X165786402Y-100191506D01*
X165786396Y-100191501D01*
X165600842Y-100061575D01*
X165557217Y-100006998D01*
X165550023Y-99937500D01*
X165581546Y-99875145D01*
X165600842Y-99858425D01*
X165623026Y-99842891D01*
X165786401Y-99728495D01*
X165953495Y-99561401D01*
X166089035Y-99367830D01*
X166188903Y-99153663D01*
X166250063Y-98925408D01*
X166270659Y-98690000D01*
X166250063Y-98454592D01*
X166188903Y-98226337D01*
X166089035Y-98012171D01*
X165953495Y-97818599D01*
X165953494Y-97818597D01*
X165786402Y-97651506D01*
X165786396Y-97651501D01*
X165600842Y-97521575D01*
X165557217Y-97466998D01*
X165550023Y-97397500D01*
X165581546Y-97335145D01*
X165600842Y-97318425D01*
X165718108Y-97236314D01*
X165786401Y-97188495D01*
X165953495Y-97021401D01*
X166089035Y-96827830D01*
X166188903Y-96613663D01*
X166250063Y-96385408D01*
X166270659Y-96150000D01*
X166250063Y-95914592D01*
X166188903Y-95686337D01*
X166089035Y-95472171D01*
X165953495Y-95278599D01*
X165953494Y-95278597D01*
X165786402Y-95111506D01*
X165786396Y-95111501D01*
X165600842Y-94981575D01*
X165557217Y-94926998D01*
X165550023Y-94857500D01*
X165581546Y-94795145D01*
X165600842Y-94778425D01*
X165623026Y-94762891D01*
X165786401Y-94648495D01*
X165953495Y-94481401D01*
X166089035Y-94287830D01*
X166188903Y-94073663D01*
X166250063Y-93845408D01*
X166270659Y-93610000D01*
X166250063Y-93374592D01*
X166191427Y-93155757D01*
X166188905Y-93146344D01*
X166188904Y-93146343D01*
X166188903Y-93146337D01*
X166089035Y-92932171D01*
X166041821Y-92864741D01*
X165953494Y-92738597D01*
X165786402Y-92571506D01*
X165786396Y-92571501D01*
X165600842Y-92441575D01*
X165557217Y-92386998D01*
X165550023Y-92317500D01*
X165581546Y-92255145D01*
X165600842Y-92238425D01*
X165635759Y-92213976D01*
X165786401Y-92108495D01*
X165953495Y-91941401D01*
X166089035Y-91747830D01*
X166188903Y-91533663D01*
X166250063Y-91305408D01*
X166270659Y-91070000D01*
X166250063Y-90834592D01*
X166188903Y-90606337D01*
X166089035Y-90392171D01*
X165953495Y-90198599D01*
X165831567Y-90076671D01*
X165798084Y-90015351D01*
X165803068Y-89945659D01*
X165844939Y-89889725D01*
X165875915Y-89872810D01*
X166007331Y-89823796D01*
X166122546Y-89737546D01*
X166208796Y-89622331D01*
X166259091Y-89487483D01*
X166265500Y-89427873D01*
X166265499Y-87632128D01*
X166259091Y-87572517D01*
X166216256Y-87457671D01*
X166208797Y-87437671D01*
X166208793Y-87437664D01*
X166122547Y-87322455D01*
X166122544Y-87322452D01*
X166007335Y-87236206D01*
X166007328Y-87236202D01*
X165872482Y-87185908D01*
X165872483Y-87185908D01*
X165812883Y-87179501D01*
X165812881Y-87179500D01*
X165812873Y-87179500D01*
X165812864Y-87179500D01*
X164017129Y-87179500D01*
X164017123Y-87179501D01*
X163957516Y-87185908D01*
X163822671Y-87236202D01*
X163822664Y-87236206D01*
X163707455Y-87322452D01*
X163707452Y-87322455D01*
X163621206Y-87437664D01*
X163621202Y-87437671D01*
X163570908Y-87572517D01*
X163564501Y-87632116D01*
X163564501Y-87632123D01*
X163564500Y-87632135D01*
X163564500Y-89427870D01*
X163564501Y-89427876D01*
X163570908Y-89487483D01*
X163621202Y-89622328D01*
X163621206Y-89622335D01*
X163707452Y-89737544D01*
X163707455Y-89737547D01*
X163822664Y-89823793D01*
X163822671Y-89823797D01*
X163954081Y-89872810D01*
X164010015Y-89914681D01*
X164034432Y-89980145D01*
X164019580Y-90048418D01*
X163998430Y-90076673D01*
X163876503Y-90198600D01*
X163740965Y-90392169D01*
X163740964Y-90392171D01*
X163641098Y-90606335D01*
X163641094Y-90606344D01*
X163579938Y-90834586D01*
X163579936Y-90834596D01*
X163559341Y-91069999D01*
X148468909Y-91069999D01*
X148450063Y-90854592D01*
X148388903Y-90626337D01*
X148289035Y-90412171D01*
X148153495Y-90218599D01*
X148031567Y-90096671D01*
X147998084Y-90035351D01*
X148003068Y-89965659D01*
X148044939Y-89909725D01*
X148075915Y-89892810D01*
X148207331Y-89843796D01*
X148322546Y-89757546D01*
X148408796Y-89642331D01*
X148459091Y-89507483D01*
X148465500Y-89447873D01*
X148465499Y-88399997D01*
X152244751Y-88399997D01*
X152244751Y-88400002D01*
X152263685Y-88568056D01*
X152319545Y-88727694D01*
X152319547Y-88727697D01*
X152409518Y-88870884D01*
X152409523Y-88870890D01*
X152529109Y-88990476D01*
X152529115Y-88990481D01*
X152672302Y-89080452D01*
X152672305Y-89080454D01*
X152672309Y-89080455D01*
X152672310Y-89080456D01*
X152744913Y-89105860D01*
X152831943Y-89136314D01*
X152999997Y-89155249D01*
X153000000Y-89155249D01*
X153000003Y-89155249D01*
X153100835Y-89143887D01*
X153168059Y-89136313D01*
X153327690Y-89080456D01*
X153334024Y-89076475D01*
X153401258Y-89057472D01*
X153465975Y-89076475D01*
X153472304Y-89080452D01*
X153472312Y-89080457D01*
X153546020Y-89106248D01*
X153631941Y-89136313D01*
X153673955Y-89141047D01*
X153799997Y-89155249D01*
X153800000Y-89155249D01*
X153800003Y-89155249D01*
X153968056Y-89136314D01*
X153968059Y-89136313D01*
X154127690Y-89080456D01*
X154127692Y-89080454D01*
X154127694Y-89080454D01*
X154127697Y-89080452D01*
X154270884Y-88990481D01*
X154270885Y-88990480D01*
X154270890Y-88990477D01*
X154390477Y-88870890D01*
X154480452Y-88727697D01*
X154480454Y-88727694D01*
X154480454Y-88727692D01*
X154480456Y-88727690D01*
X154536313Y-88568059D01*
X154536313Y-88568058D01*
X154536314Y-88568056D01*
X154555249Y-88400002D01*
X154555249Y-88399997D01*
X154536314Y-88231943D01*
X154480454Y-88072305D01*
X154480452Y-88072302D01*
X154390481Y-87929115D01*
X154390476Y-87929109D01*
X154270890Y-87809523D01*
X154270884Y-87809518D01*
X154127697Y-87719547D01*
X154127694Y-87719545D01*
X153968056Y-87663685D01*
X153800003Y-87644751D01*
X153799997Y-87644751D01*
X153631943Y-87663685D01*
X153502250Y-87709067D01*
X153472310Y-87719544D01*
X153472308Y-87719544D01*
X153472308Y-87719545D01*
X153465967Y-87723529D01*
X153398730Y-87742525D01*
X153334033Y-87723529D01*
X153330284Y-87721173D01*
X153327690Y-87719544D01*
X153262844Y-87696853D01*
X153168056Y-87663685D01*
X153000003Y-87644751D01*
X152999997Y-87644751D01*
X152831943Y-87663685D01*
X152672305Y-87719545D01*
X152672302Y-87719547D01*
X152529115Y-87809518D01*
X152529109Y-87809523D01*
X152409523Y-87929109D01*
X152409518Y-87929115D01*
X152319547Y-88072302D01*
X152319545Y-88072305D01*
X152263685Y-88231943D01*
X152244751Y-88399997D01*
X148465499Y-88399997D01*
X148465499Y-87652128D01*
X148459091Y-87592517D01*
X148451631Y-87572517D01*
X148408797Y-87457671D01*
X148408793Y-87457664D01*
X148322547Y-87342455D01*
X148322544Y-87342452D01*
X148207335Y-87256206D01*
X148207328Y-87256202D01*
X148072482Y-87205908D01*
X148072483Y-87205908D01*
X148012883Y-87199501D01*
X148012881Y-87199500D01*
X148012873Y-87199500D01*
X148012864Y-87199500D01*
X146217129Y-87199500D01*
X146217123Y-87199501D01*
X146157516Y-87205908D01*
X146022671Y-87256202D01*
X146022664Y-87256206D01*
X145907455Y-87342452D01*
X145907452Y-87342455D01*
X145821206Y-87457664D01*
X145821202Y-87457671D01*
X145770908Y-87592517D01*
X145766650Y-87632127D01*
X145764501Y-87652123D01*
X145764500Y-87652135D01*
X145764500Y-89447870D01*
X145764501Y-89447876D01*
X145770908Y-89507483D01*
X145821202Y-89642328D01*
X145821206Y-89642335D01*
X145907452Y-89757544D01*
X145907455Y-89757547D01*
X146022664Y-89843793D01*
X146022671Y-89843797D01*
X146154081Y-89892810D01*
X146210015Y-89934681D01*
X146234432Y-90000145D01*
X146219580Y-90068418D01*
X146198430Y-90096673D01*
X146076503Y-90218600D01*
X145940965Y-90412169D01*
X145940964Y-90412171D01*
X145841098Y-90626335D01*
X145841094Y-90626344D01*
X145779938Y-90854586D01*
X145779936Y-90854596D01*
X145759341Y-91089999D01*
X145400500Y-91089999D01*
X145400500Y-87109754D01*
X145402025Y-87090369D01*
X145407192Y-87057743D01*
X145419177Y-87020857D01*
X145429687Y-87000230D01*
X145452486Y-86968851D01*
X145468851Y-86952486D01*
X145500230Y-86929687D01*
X145520857Y-86919177D01*
X145557744Y-86907192D01*
X145590376Y-86902024D01*
X145609762Y-86900499D01*
X145647595Y-86900499D01*
X147748637Y-86900499D01*
X147748643Y-86900500D01*
X147800001Y-86900499D01*
X147800001Y-86900500D01*
X147902353Y-86900499D01*
X148104535Y-86868477D01*
X148299219Y-86805220D01*
X148481611Y-86712287D01*
X148647219Y-86591965D01*
X148791966Y-86447218D01*
X148912287Y-86281610D01*
X149005220Y-86099218D01*
X149068477Y-85904534D01*
X149100500Y-85702351D01*
X149100500Y-85600000D01*
X149100500Y-85552405D01*
X149100500Y-85552404D01*
X149100500Y-83548543D01*
X150679499Y-83548543D01*
X150717947Y-83741829D01*
X150717950Y-83741839D01*
X150793364Y-83923907D01*
X150793371Y-83923920D01*
X150902860Y-84087781D01*
X150902863Y-84087785D01*
X151042214Y-84227136D01*
X151042218Y-84227139D01*
X151206079Y-84336628D01*
X151206092Y-84336635D01*
X151388160Y-84412049D01*
X151388165Y-84412051D01*
X151388169Y-84412051D01*
X151388170Y-84412052D01*
X151581456Y-84450500D01*
X151581459Y-84450500D01*
X151778543Y-84450500D01*
X151908582Y-84424632D01*
X151971835Y-84412051D01*
X152153914Y-84336632D01*
X152317782Y-84227139D01*
X152457139Y-84087782D01*
X152566632Y-83923914D01*
X152642051Y-83741835D01*
X152680500Y-83548541D01*
X152680500Y-83031333D01*
X152700185Y-82964294D01*
X152752989Y-82918539D01*
X152822147Y-82908595D01*
X152866501Y-82923947D01*
X152887859Y-82936278D01*
X152887860Y-82936278D01*
X152887865Y-82936281D01*
X153034234Y-82975500D01*
X153034236Y-82975500D01*
X153185764Y-82975500D01*
X153185766Y-82975500D01*
X153332135Y-82936281D01*
X153463365Y-82860515D01*
X153570515Y-82753365D01*
X153646281Y-82622135D01*
X153685500Y-82475766D01*
X153685500Y-82399997D01*
X154544751Y-82399997D01*
X154544751Y-82400002D01*
X154563685Y-82568056D01*
X154619545Y-82727694D01*
X154619547Y-82727697D01*
X154709518Y-82870884D01*
X154709523Y-82870890D01*
X154829109Y-82990476D01*
X154829115Y-82990481D01*
X154972302Y-83080452D01*
X154972305Y-83080454D01*
X154972309Y-83080455D01*
X154972310Y-83080456D01*
X155044913Y-83105860D01*
X155131943Y-83136314D01*
X155299997Y-83155249D01*
X155300000Y-83155249D01*
X155300003Y-83155249D01*
X155468056Y-83136314D01*
X155468059Y-83136313D01*
X155627690Y-83080456D01*
X155684027Y-83045057D01*
X155751264Y-83026056D01*
X155815973Y-83045057D01*
X155872306Y-83080454D01*
X155872307Y-83080454D01*
X155872310Y-83080456D01*
X155978730Y-83117694D01*
X156031943Y-83136314D01*
X156199997Y-83155249D01*
X156200000Y-83155249D01*
X156200003Y-83155249D01*
X156368056Y-83136314D01*
X156368059Y-83136313D01*
X156527690Y-83080456D01*
X156527692Y-83080454D01*
X156527694Y-83080454D01*
X156527697Y-83080452D01*
X156670884Y-82990481D01*
X156670885Y-82990480D01*
X156670890Y-82990477D01*
X156790477Y-82870890D01*
X156864322Y-82753367D01*
X156880452Y-82727697D01*
X156880454Y-82727694D01*
X156880454Y-82727692D01*
X156880456Y-82727690D01*
X156936313Y-82568059D01*
X156936313Y-82568058D01*
X156936314Y-82568056D01*
X156955249Y-82400002D01*
X156955249Y-82399997D01*
X156946713Y-82324234D01*
X158314500Y-82324234D01*
X158314500Y-82475765D01*
X158353719Y-82622136D01*
X158391602Y-82687750D01*
X158429485Y-82753365D01*
X158536635Y-82860515D01*
X158619912Y-82908595D01*
X158667861Y-82936279D01*
X158667865Y-82936281D01*
X158814234Y-82975500D01*
X158814236Y-82975500D01*
X158965764Y-82975500D01*
X158965766Y-82975500D01*
X159112135Y-82936281D01*
X159122451Y-82930325D01*
X159133499Y-82923947D01*
X159201398Y-82907473D01*
X159267426Y-82930325D01*
X159310617Y-82985245D01*
X159319500Y-83031333D01*
X159319500Y-83548541D01*
X159319500Y-83548543D01*
X159319499Y-83548543D01*
X159357947Y-83741829D01*
X159357950Y-83741839D01*
X159433364Y-83923907D01*
X159433371Y-83923920D01*
X159542860Y-84087781D01*
X159542863Y-84087785D01*
X159682214Y-84227136D01*
X159682218Y-84227139D01*
X159846079Y-84336628D01*
X159846092Y-84336635D01*
X160028160Y-84412049D01*
X160028165Y-84412051D01*
X160028169Y-84412051D01*
X160028170Y-84412052D01*
X160221456Y-84450500D01*
X160221459Y-84450500D01*
X160418543Y-84450500D01*
X160548582Y-84424632D01*
X160611835Y-84412051D01*
X160793914Y-84336632D01*
X160957782Y-84227139D01*
X161097139Y-84087782D01*
X161206632Y-83923914D01*
X161282051Y-83741835D01*
X161320500Y-83548541D01*
X161320500Y-82251459D01*
X161320500Y-82251456D01*
X161282052Y-82058170D01*
X161282051Y-82058169D01*
X161282051Y-82058165D01*
X161277274Y-82046632D01*
X161206635Y-81876092D01*
X161206628Y-81876079D01*
X161097139Y-81712218D01*
X161097136Y-81712214D01*
X160957785Y-81572863D01*
X160957781Y-81572860D01*
X160793920Y-81463371D01*
X160793907Y-81463364D01*
X160611839Y-81387950D01*
X160611829Y-81387947D01*
X160418543Y-81349500D01*
X160418541Y-81349500D01*
X160221459Y-81349500D01*
X160221457Y-81349500D01*
X160028170Y-81387947D01*
X160028160Y-81387950D01*
X159846092Y-81463364D01*
X159846079Y-81463371D01*
X159682218Y-81572860D01*
X159682214Y-81572863D01*
X159542863Y-81712214D01*
X159542860Y-81712218D01*
X159433371Y-81876079D01*
X159433363Y-81876094D01*
X159429456Y-81885528D01*
X159385615Y-81939931D01*
X159319320Y-81961995D01*
X159251621Y-81944715D01*
X159246968Y-81941566D01*
X159243366Y-81939486D01*
X159243365Y-81939485D01*
X159149899Y-81885522D01*
X159112136Y-81863719D01*
X159038950Y-81844109D01*
X158965766Y-81824500D01*
X158814234Y-81824500D01*
X158667863Y-81863719D01*
X158536635Y-81939485D01*
X158536632Y-81939487D01*
X158429487Y-82046632D01*
X158429485Y-82046635D01*
X158353719Y-82177863D01*
X158314500Y-82324234D01*
X156946713Y-82324234D01*
X156936314Y-82231943D01*
X156880454Y-82072305D01*
X156880452Y-82072302D01*
X156790481Y-81929115D01*
X156790476Y-81929109D01*
X156670890Y-81809523D01*
X156670884Y-81809518D01*
X156527697Y-81719547D01*
X156527694Y-81719545D01*
X156368056Y-81663685D01*
X156200003Y-81644751D01*
X156199997Y-81644751D01*
X156031943Y-81663685D01*
X155872307Y-81719545D01*
X155815971Y-81754943D01*
X155748734Y-81773943D01*
X155684029Y-81754943D01*
X155627692Y-81719545D01*
X155627691Y-81719544D01*
X155627690Y-81719544D01*
X155589370Y-81706135D01*
X155468056Y-81663685D01*
X155300003Y-81644751D01*
X155299997Y-81644751D01*
X155131943Y-81663685D01*
X154972305Y-81719545D01*
X154972302Y-81719547D01*
X154829115Y-81809518D01*
X154829109Y-81809523D01*
X154709523Y-81929109D01*
X154709518Y-81929115D01*
X154619547Y-82072302D01*
X154619545Y-82072305D01*
X154563685Y-82231943D01*
X154544751Y-82399997D01*
X153685500Y-82399997D01*
X153685500Y-82324234D01*
X153646281Y-82177865D01*
X153570515Y-82046635D01*
X153463365Y-81939485D01*
X153392838Y-81898766D01*
X153332136Y-81863719D01*
X153258950Y-81844109D01*
X153185766Y-81824500D01*
X153034234Y-81824500D01*
X152887863Y-81863719D01*
X152796428Y-81916510D01*
X152756635Y-81939485D01*
X152756633Y-81939486D01*
X152749597Y-81943549D01*
X152748254Y-81941224D01*
X152695391Y-81961647D01*
X152626949Y-81947592D01*
X152576971Y-81898766D01*
X152570540Y-81885522D01*
X152566632Y-81876087D01*
X152566628Y-81876079D01*
X152457139Y-81712218D01*
X152457136Y-81712214D01*
X152317785Y-81572863D01*
X152317781Y-81572860D01*
X152153920Y-81463371D01*
X152153907Y-81463364D01*
X151971839Y-81387950D01*
X151971829Y-81387947D01*
X151778543Y-81349500D01*
X151778541Y-81349500D01*
X151581459Y-81349500D01*
X151581457Y-81349500D01*
X151388170Y-81387947D01*
X151388160Y-81387950D01*
X151206092Y-81463364D01*
X151206079Y-81463371D01*
X151042218Y-81572860D01*
X151042214Y-81572863D01*
X150902863Y-81712214D01*
X150902860Y-81712218D01*
X150793371Y-81876079D01*
X150793364Y-81876092D01*
X150717950Y-82058160D01*
X150717947Y-82058170D01*
X150679500Y-82251456D01*
X150679500Y-82251459D01*
X150679500Y-83548541D01*
X150679500Y-83548543D01*
X150679499Y-83548543D01*
X149100500Y-83548543D01*
X149100500Y-77509748D01*
X149102025Y-77490369D01*
X149107192Y-77457743D01*
X149119177Y-77420857D01*
X149129687Y-77400230D01*
X149152486Y-77368851D01*
X149168851Y-77352486D01*
X149200230Y-77329687D01*
X149220857Y-77319177D01*
X149257744Y-77307192D01*
X149290376Y-77302024D01*
X149309762Y-77300499D01*
X149347595Y-77300499D01*
X150996165Y-77300499D01*
X151063204Y-77320184D01*
G37*
%TD.AperFunction*%
%TD*%
M02*
