%TF.GenerationSoftware,KiCad,Pcbnew,8.0.4*%
%TF.CreationDate,2024-08-26T12:07:15-05:00*%
%TF.ProjectId,iCEGenius,69434547-656e-4697-9573-2e6b69636164,rev?*%
%TF.SameCoordinates,Original*%
%TF.FileFunction,Copper,L4,Bot*%
%TF.FilePolarity,Positive*%
%FSLAX46Y46*%
G04 Gerber Fmt 4.6, Leading zero omitted, Abs format (unit mm)*
G04 Created by KiCad (PCBNEW 8.0.4) date 2024-08-26 12:07:15*
%MOMM*%
%LPD*%
G01*
G04 APERTURE LIST*
%TA.AperFunction,ComponentPad*%
%ADD10O,1.700000X1.700000*%
%TD*%
%TA.AperFunction,ComponentPad*%
%ADD11R,1.700000X1.700000*%
%TD*%
%TA.AperFunction,ComponentPad*%
%ADD12O,1.000000X1.800000*%
%TD*%
%TA.AperFunction,ComponentPad*%
%ADD13O,1.000000X2.100000*%
%TD*%
%TA.AperFunction,ViaPad*%
%ADD14C,0.500000*%
%TD*%
%TA.AperFunction,Conductor*%
%ADD15C,0.300000*%
%TD*%
%TA.AperFunction,Conductor*%
%ADD16C,0.250000*%
%TD*%
%TA.AperFunction,Conductor*%
%ADD17C,0.500000*%
%TD*%
%TA.AperFunction,Conductor*%
%ADD18C,0.200000*%
%TD*%
G04 APERTURE END LIST*
D10*
%TO.P,J3,10,Pin_10*%
%TO.N,GND*%
X164915000Y-111390000D03*
%TO.P,J3,9,Pin_9*%
%TO.N,IOL_5A_GBIN6*%
X164915000Y-108850000D03*
%TO.P,J3,8,Pin_8*%
%TO.N,IOR_34*%
X164915000Y-106310000D03*
%TO.P,J3,7,Pin_7*%
%TO.N,IOR_35_GBIN3*%
X164915000Y-103770000D03*
%TO.P,J3,6,Pin_6*%
%TO.N,IOR_36_GBIN2*%
X164915000Y-101230000D03*
%TO.P,J3,5,Pin_5*%
%TO.N,IOR_38*%
X164915000Y-98690000D03*
%TO.P,J3,4,Pin_4*%
%TO.N,IOR_39*%
X164915000Y-96150000D03*
%TO.P,J3,3,Pin_3*%
%TO.N,IOT_45*%
X164915000Y-93610000D03*
%TO.P,J3,2,Pin_2*%
%TO.N,IOT_47*%
X164915000Y-91070000D03*
D11*
%TO.P,J3,1,Pin_1*%
%TO.N,+3V3*%
X164915000Y-88530000D03*
%TD*%
D10*
%TO.P,J2,10,Pin_10*%
%TO.N,GND*%
X147115000Y-111410000D03*
%TO.P,J2,9,Pin_9*%
%TO.N,IOL_5B*%
X147115000Y-108870000D03*
%TO.P,J2,8,Pin_8*%
%TO.N,IOL_4B_GBIN7*%
X147115000Y-106330000D03*
%TO.P,J2,7,Pin_7*%
%TO.N,IOL_4A*%
X147115000Y-103790000D03*
%TO.P,J2,6,Pin_6*%
%TO.N,IOL_2A*%
X147115000Y-101250000D03*
%TO.P,J2,5,Pin_5*%
%TO.N,IOL_2B*%
X147115000Y-98710000D03*
%TO.P,J2,4,Pin_4*%
%TO.N,IOT_52*%
X147115000Y-96170000D03*
%TO.P,J2,3,Pin_3*%
%TO.N,IOT_53*%
X147115000Y-93630000D03*
%TO.P,J2,2,Pin_2*%
%TO.N,IOT_50_GBIN1*%
X147115000Y-91090000D03*
D11*
%TO.P,J2,1,Pin_1*%
%TO.N,+3V3*%
X147115000Y-88550000D03*
%TD*%
D12*
%TO.P,J1,S1,SHIELD*%
%TO.N,unconnected-(J1-SHIELD-PadS1)_2*%
X151680000Y-78720000D03*
D13*
%TO.N,unconnected-(J1-SHIELD-PadS1)_3*%
X151680000Y-82900000D03*
D12*
%TO.N,unconnected-(J1-SHIELD-PadS1)_1*%
X160320000Y-78720000D03*
D13*
%TO.N,unconnected-(J1-SHIELD-PadS1)*%
X160320000Y-82900000D03*
%TD*%
D14*
%TO.N,GND*%
X166100000Y-87300000D03*
X162500000Y-80000000D03*
X149500000Y-80500000D03*
X158300000Y-78200000D03*
X164800000Y-118900000D03*
X165000000Y-116600000D03*
X158000000Y-88300000D03*
X156100000Y-85400000D03*
X154600000Y-85100000D03*
X151800000Y-108200000D03*
X159600000Y-106800000D03*
X161200000Y-96100000D03*
X155900000Y-99900000D03*
X148800000Y-99300000D03*
X148900000Y-96800000D03*
X148900000Y-94100000D03*
X148700000Y-89500000D03*
X150700000Y-87100000D03*
X145700000Y-87300000D03*
X145800000Y-90100000D03*
X145800000Y-92500000D03*
X145800000Y-95200000D03*
X145700000Y-97400000D03*
X145800000Y-100500000D03*
X145800000Y-102700000D03*
X145700000Y-105600000D03*
X145800000Y-108400000D03*
X146000000Y-110100000D03*
X145700000Y-111800000D03*
X147500000Y-113800000D03*
X147500000Y-115900000D03*
X145900000Y-118900000D03*
X146100000Y-120500000D03*
X148600000Y-119400000D03*
X160800000Y-119800000D03*
X163400000Y-120300000D03*
X162100000Y-118200000D03*
X166000000Y-120600000D03*
X165600000Y-118000000D03*
X164700000Y-115200000D03*
X166200000Y-113600000D03*
X166100000Y-110300000D03*
X166100000Y-107600000D03*
X166000000Y-104900000D03*
X166100000Y-102400000D03*
X166000000Y-100100000D03*
X166100000Y-90000000D03*
X166000000Y-92200000D03*
X165800000Y-94700000D03*
X165800000Y-97500000D03*
X162300000Y-97600000D03*
X162000000Y-95100000D03*
X158700000Y-87500000D03*
X150700000Y-89300000D03*
X150800000Y-85100000D03*
X152200000Y-86600000D03*
X162200000Y-78400000D03*
X149700000Y-79000000D03*
X155100000Y-79100000D03*
X156900000Y-78300000D03*
X153100000Y-78400000D03*
X146300000Y-114000000D03*
X153900000Y-102600000D03*
%TO.N,+3V3*%
X151500103Y-120000103D03*
X154200000Y-120100000D03*
%TO.N,GND*%
X155700000Y-87700000D03*
%TO.N,CRESET_B*%
X153000000Y-88400000D03*
%TO.N,SS*%
X153800000Y-88400000D03*
%TO.N,MOSI*%
X158612107Y-92684867D03*
%TO.N,SCK*%
X158206053Y-93192433D03*
%TO.N,MISO*%
X157800000Y-93700000D03*
%TO.N,GND*%
X160500000Y-85200000D03*
X158000000Y-85700000D03*
X151800000Y-85100000D03*
X153500000Y-86300000D03*
X157600000Y-86500000D03*
X159900000Y-87500000D03*
X159500000Y-88400000D03*
X161300000Y-90600000D03*
X159700000Y-90600000D03*
X160400000Y-94000000D03*
X157500000Y-94900000D03*
X155800000Y-95900000D03*
X151900000Y-95400000D03*
X157100000Y-98100000D03*
X154000000Y-98600000D03*
X154900000Y-99000000D03*
X155900000Y-99000000D03*
%TO.N,MISO*%
X158100000Y-100700000D03*
%TO.N,SCK*%
X158800000Y-100900000D03*
%TO.N,GND*%
X156100000Y-109900000D03*
X151700000Y-100500000D03*
%TO.N,/CHIP_PU*%
X154300000Y-96000000D03*
X156100000Y-96500000D03*
%TO.N,+3V3*%
X151300000Y-92150000D03*
X152050000Y-94150000D03*
%TO.N,SS*%
X156800000Y-104900000D03*
%TO.N,SCK*%
X158700000Y-102500000D03*
%TO.N,MISO*%
X158100000Y-103100000D03*
%TO.N,MOSI*%
X159400000Y-101400000D03*
%TO.N,GND*%
X151800000Y-103600000D03*
X151800000Y-105900000D03*
X155600000Y-103700000D03*
X155100000Y-108900000D03*
X158900000Y-119100000D03*
X158400000Y-118500000D03*
X160500000Y-117100000D03*
X150600000Y-119000000D03*
X150900000Y-118300000D03*
X150700000Y-113100000D03*
X159400000Y-108800000D03*
X160400000Y-109100000D03*
X159000000Y-110500000D03*
X158700000Y-111900000D03*
X158900000Y-111300000D03*
X160000000Y-111900000D03*
X162800000Y-104700000D03*
X152800000Y-83500000D03*
X159200000Y-83500000D03*
%TO.N,USB_D+*%
X156200000Y-82400000D03*
X155300000Y-82400000D03*
%TO.N,GND*%
X156087502Y-116100000D03*
X153587500Y-113700001D03*
X156087500Y-113700001D03*
X153687501Y-116100000D03*
%TO.N,IOT_45*%
X158750000Y-106450000D03*
%TO.N,IOT_47*%
X158000000Y-106450000D03*
%TO.N,IOT_50_GBIN1*%
X151300000Y-110100000D03*
%TO.N,IOT_53*%
X151257372Y-111165577D03*
%TO.N,IOT_52*%
X150700000Y-111500000D03*
%TO.N,IOL_2B*%
X151387502Y-112800001D03*
%TO.N,IOL_2A*%
X151387500Y-113700001D03*
%TO.N,IOL_4A*%
X151387500Y-115049998D03*
%TO.N,IOL_4B_GBIN7*%
X151387502Y-115700001D03*
%TO.N,IOL_5B*%
X151387502Y-116400000D03*
%TO.N,IOL_5A_GBIN6*%
X151387500Y-117200000D03*
%TO.N,CRESET_B*%
X153054818Y-118499801D03*
%TO.N,MOSI*%
X154354795Y-118494688D03*
%TO.N,MISO*%
X155004776Y-118500069D03*
%TO.N,SS*%
X155687501Y-118500001D03*
%TO.N,SCK*%
X156387502Y-118500001D03*
%TO.N,IOR_34*%
X158587502Y-116550003D03*
%TO.N,IOR_35_GBIN3*%
X158546096Y-115900000D03*
%TO.N,IOR_36_GBIN2*%
X158594361Y-115241158D03*
%TO.N,IOR_38*%
X158587409Y-114591192D03*
%TO.N,IOR_39*%
X158587502Y-113900000D03*
%TO.N,GND*%
X153100000Y-90400000D03*
X156100000Y-90400000D03*
X156100000Y-93400000D03*
X153100000Y-93400000D03*
X149900000Y-90300000D03*
X150800000Y-90800000D03*
%TD*%
D15*
%TO.N,CRESET_B*%
X152699801Y-118499801D02*
X153054818Y-118499801D01*
X152500000Y-118300000D02*
X152699801Y-118499801D01*
X152500000Y-95400000D02*
X152500000Y-118300000D01*
X153721656Y-94178344D02*
X152500000Y-95400000D01*
X153000000Y-88400000D02*
X153721656Y-89121656D01*
X153721656Y-89121656D02*
X153721656Y-94178344D01*
%TO.N,SS*%
X155687501Y-118595162D02*
X155687501Y-118500001D01*
X153850069Y-119050069D02*
X155232594Y-119050069D01*
X153600000Y-118800000D02*
X153850069Y-119050069D01*
X153604818Y-118795182D02*
X153600000Y-118800000D01*
X153604818Y-116804818D02*
X153604818Y-118795182D01*
X154369054Y-94330946D02*
X153300000Y-95400000D01*
X155232594Y-119050069D02*
X155687501Y-118595162D01*
X153300000Y-95400000D02*
X153300000Y-113209683D01*
X153037500Y-116237500D02*
X153604818Y-116804818D01*
X153037500Y-113472183D02*
X153037500Y-116237500D01*
X153300000Y-113209683D02*
X153037500Y-113472183D01*
X153800000Y-88400000D02*
X154369054Y-88969054D01*
X154369054Y-88969054D02*
X154369054Y-94330946D01*
D16*
%TO.N,IOL_5B*%
X148300000Y-115600000D02*
X148300000Y-110055000D01*
X149100000Y-116400000D02*
X148300000Y-115600000D01*
X151387502Y-116400000D02*
X149100000Y-116400000D01*
X148300000Y-110055000D02*
X147115000Y-108870000D01*
%TO.N,IOL_4B_GBIN7*%
X148700000Y-107915000D02*
X147115000Y-106330000D01*
X148700000Y-115200000D02*
X148700000Y-107915000D01*
X151387502Y-115700001D02*
X149200001Y-115700001D01*
X149200001Y-115700001D02*
X148700000Y-115200000D01*
%TO.N,IOL_2A*%
X149500000Y-103635000D02*
X147115000Y-101250000D01*
X149500000Y-113500000D02*
X149500000Y-103635000D01*
X149700001Y-113700001D02*
X149500000Y-113500000D01*
X151387500Y-113700001D02*
X149700001Y-113700001D01*
D17*
%TO.N,+3V3*%
X151600000Y-120100000D02*
X151500103Y-120000103D01*
X154200000Y-120100000D02*
X151600000Y-120100000D01*
D16*
%TO.N,IOL_5A_GBIN6*%
X163700000Y-118600000D02*
X163700000Y-110065000D01*
X161600000Y-120700000D02*
X163700000Y-118600000D01*
X163700000Y-110065000D02*
X164915000Y-108850000D01*
X149900000Y-119700000D02*
X150900000Y-120700000D01*
X149900000Y-117500000D02*
X149900000Y-119700000D01*
X150900000Y-120700000D02*
X161600000Y-120700000D01*
X150200000Y-117200000D02*
X149900000Y-117500000D01*
X151387500Y-117200000D02*
X150200000Y-117200000D01*
D15*
%TO.N,MOSI*%
X158612107Y-92707198D02*
X158612107Y-92684867D01*
X159600000Y-93695091D02*
X158612107Y-92707198D01*
X159600000Y-93900000D02*
X159600000Y-93695091D01*
%TO.N,SCK*%
X158900000Y-93886380D02*
X158206053Y-93192433D01*
X158900000Y-94800000D02*
X158900000Y-93886380D01*
%TO.N,MOSI*%
X159600000Y-101200000D02*
X159600000Y-93900000D01*
X159400000Y-101400000D02*
X159600000Y-101200000D01*
%TO.N,MISO*%
X158200000Y-94100000D02*
X157800000Y-93700000D01*
X158200000Y-95000000D02*
X158200000Y-94100000D01*
%TO.N,SS*%
X155537502Y-109537498D02*
X156200000Y-108875000D01*
X155537502Y-118350002D02*
X155537502Y-109537498D01*
X155687501Y-118500001D02*
X155537502Y-118350002D01*
X156200000Y-108875000D02*
X156200000Y-105500000D01*
X156200000Y-105500000D02*
X156800000Y-104900000D01*
%TO.N,MISO*%
X158200000Y-100600000D02*
X158200000Y-95000000D01*
X158100000Y-100700000D02*
X158200000Y-100600000D01*
%TO.N,SCK*%
X158900000Y-100800000D02*
X158900000Y-94800000D01*
X158800000Y-100900000D02*
X158900000Y-100800000D01*
%TO.N,MISO*%
X154900000Y-118395293D02*
X155004776Y-118500069D01*
X157200000Y-103100000D02*
X154550000Y-105750000D01*
X154550000Y-105750000D02*
X154550000Y-109245224D01*
X158100000Y-103100000D02*
X157200000Y-103100000D01*
X154550000Y-109245224D02*
X154900000Y-109595224D01*
X154900000Y-109595224D02*
X154900000Y-118395293D01*
%TO.N,MOSI*%
X153900000Y-113234683D02*
X154354795Y-113689478D01*
X156700000Y-101500000D02*
X153900000Y-104300000D01*
X159300000Y-101500000D02*
X156700000Y-101500000D01*
X154354795Y-113689478D02*
X154354795Y-118494688D01*
X159400000Y-101400000D02*
X159300000Y-101500000D01*
X153900000Y-104300000D02*
X153900000Y-113234683D01*
D16*
%TO.N,IOT_50_GBIN1*%
X151100000Y-95075000D02*
X147115000Y-91090000D01*
X151100000Y-109900000D02*
X151100000Y-95075000D01*
X151200000Y-110000000D02*
X151100000Y-109900000D01*
%TO.N,IOT_53*%
X150700000Y-97215000D02*
X147115000Y-93630000D01*
X150700000Y-110608205D02*
X150700000Y-97215000D01*
X151257372Y-111165577D02*
X150700000Y-110608205D01*
%TO.N,IOT_52*%
X150300000Y-99355000D02*
X147115000Y-96170000D01*
X150300000Y-111100000D02*
X150300000Y-99355000D01*
X150700000Y-111500000D02*
X150300000Y-111100000D01*
D15*
%TO.N,/CHIP_PU*%
X154300000Y-96000000D02*
X154800000Y-96500000D01*
X154800000Y-96500000D02*
X156100000Y-96500000D01*
%TO.N,+3V3*%
X152050000Y-92900000D02*
X151300000Y-92150000D01*
X152050000Y-94150000D02*
X152050000Y-92900000D01*
D16*
%TO.N,IOL_2B*%
X149900000Y-112000000D02*
X149900000Y-101495000D01*
X149900000Y-101495000D02*
X147115000Y-98710000D01*
X150987501Y-112400000D02*
X150300000Y-112400000D01*
X151387502Y-112800001D02*
X150987501Y-112400000D01*
X150300000Y-112400000D02*
X149900000Y-112000000D01*
%TO.N,IOT_47*%
X160100000Y-104200000D02*
X160100000Y-95885000D01*
X160100000Y-95885000D02*
X164915000Y-91070000D01*
X158000000Y-106300000D02*
X160100000Y-104200000D01*
X158000000Y-106450000D02*
X158000000Y-106300000D01*
%TO.N,IOT_45*%
X160600000Y-97925000D02*
X164915000Y-93610000D01*
X160600000Y-104600000D02*
X160600000Y-97925000D01*
X158750000Y-106450000D02*
X160600000Y-104600000D01*
%TO.N,IOR_38*%
X161700000Y-101905000D02*
X164915000Y-98690000D01*
X161700000Y-114300000D02*
X161700000Y-101905000D01*
X161408808Y-114591192D02*
X161700000Y-114300000D01*
X158587409Y-114591192D02*
X161408808Y-114591192D01*
%TO.N,IOR_39*%
X161200000Y-113600000D02*
X161200000Y-99865000D01*
X160900000Y-113900000D02*
X161200000Y-113600000D01*
X161200000Y-99865000D02*
X164915000Y-96150000D01*
X158587502Y-113900000D02*
X160900000Y-113900000D01*
%TO.N,IOR_35_GBIN3*%
X162700000Y-105985000D02*
X164915000Y-103770000D01*
X162700000Y-115300000D02*
X162700000Y-105985000D01*
X158546096Y-115900000D02*
X162100000Y-115900000D01*
X162100000Y-115900000D02*
X162700000Y-115300000D01*
%TO.N,IOR_36_GBIN2*%
X162200000Y-103945000D02*
X164915000Y-101230000D01*
X162200000Y-114900000D02*
X162200000Y-103945000D01*
X158594361Y-115241158D02*
X161858842Y-115241158D01*
X161858842Y-115241158D02*
X162200000Y-114900000D01*
%TO.N,IOR_34*%
X163200000Y-108025000D02*
X164915000Y-106310000D01*
X158723914Y-116500000D02*
X162600000Y-116500000D01*
X163200000Y-115900000D02*
X163200000Y-108025000D01*
D15*
X158673911Y-116550003D02*
X158723914Y-116500000D01*
X158587502Y-116550003D02*
X158673911Y-116550003D01*
D16*
X162600000Y-116500000D02*
X163200000Y-115900000D01*
D18*
%TO.N,IOT_50_GBIN1*%
X151300000Y-110100000D02*
X151200000Y-110000000D01*
D17*
%TO.N,+3V3*%
X148650000Y-88550000D02*
X147115000Y-88550000D01*
X149600000Y-87600000D02*
X148650000Y-88550000D01*
X149600000Y-81900000D02*
X149600000Y-87600000D01*
X163030000Y-88530000D02*
X162200000Y-87700000D01*
X150900000Y-80600000D02*
X149600000Y-81900000D01*
X161200000Y-80600000D02*
X150900000Y-80600000D01*
X164915000Y-88530000D02*
X163030000Y-88530000D01*
X162200000Y-81600000D02*
X161200000Y-80600000D01*
X162200000Y-87700000D02*
X162200000Y-81600000D01*
D16*
%TO.N,IOL_4A*%
X149100000Y-105775000D02*
X147115000Y-103790000D01*
X149100000Y-114700000D02*
X149100000Y-105775000D01*
X151387500Y-115049998D02*
X149449998Y-115049998D01*
X149449998Y-115049998D02*
X149100000Y-114700000D01*
%TO.N,USB_D+*%
X155300000Y-82400000D02*
X156200000Y-82400000D01*
D15*
%TO.N,SCK*%
X157500000Y-118200000D02*
X157199999Y-118500001D01*
X157199999Y-118500001D02*
X156387502Y-118500001D01*
X156900000Y-105577818D02*
X156900000Y-109700000D01*
X158700000Y-103777818D02*
X156900000Y-105577818D01*
X157500000Y-110300000D02*
X157500000Y-118200000D01*
X158700000Y-102500000D02*
X158700000Y-103777818D01*
X156900000Y-109700000D02*
X157500000Y-110300000D01*
%TD*%
%TA.AperFunction,Conductor*%
%TO.N,GND*%
G36*
X148777808Y-86575750D02*
G01*
X148830287Y-86621877D01*
X148849500Y-86688177D01*
X148849500Y-87237769D01*
X148829815Y-87304808D01*
X148813181Y-87325451D01*
X148656310Y-87482321D01*
X148594987Y-87515805D01*
X148525295Y-87510821D01*
X148486158Y-87487237D01*
X148309462Y-87329866D01*
X148304096Y-87325451D01*
X148299701Y-87321834D01*
X148278929Y-87304742D01*
X148275662Y-87302929D01*
X148260182Y-87294339D01*
X148246043Y-87285184D01*
X148207331Y-87256204D01*
X148167617Y-87241391D01*
X148157225Y-87236602D01*
X148157135Y-87236797D01*
X148153128Y-87234934D01*
X148153118Y-87234929D01*
X148145336Y-87231966D01*
X148142736Y-87231243D01*
X148138715Y-87230125D01*
X148128605Y-87226840D01*
X148072485Y-87205909D01*
X148072483Y-87205908D01*
X148012883Y-87199501D01*
X148012881Y-87199500D01*
X148012873Y-87199500D01*
X148012864Y-87199500D01*
X146217129Y-87199500D01*
X146217123Y-87199501D01*
X146157516Y-87205908D01*
X146022671Y-87256202D01*
X146022664Y-87256206D01*
X145907455Y-87342452D01*
X145907452Y-87342455D01*
X145821206Y-87457664D01*
X145821202Y-87457671D01*
X145770908Y-87592517D01*
X145764501Y-87652116D01*
X145764500Y-87652135D01*
X145764500Y-89447870D01*
X145764501Y-89447876D01*
X145770908Y-89507483D01*
X145821202Y-89642328D01*
X145821206Y-89642335D01*
X145907452Y-89757544D01*
X145907455Y-89757547D01*
X146022664Y-89843793D01*
X146022671Y-89843797D01*
X146154081Y-89892810D01*
X146210015Y-89934681D01*
X146234432Y-90000145D01*
X146219580Y-90068418D01*
X146198430Y-90096673D01*
X146076503Y-90218600D01*
X145940965Y-90412169D01*
X145940964Y-90412171D01*
X145841098Y-90626335D01*
X145841094Y-90626344D01*
X145779938Y-90854586D01*
X145779936Y-90854596D01*
X145759341Y-91089999D01*
X145759341Y-91090000D01*
X145779936Y-91325403D01*
X145779938Y-91325413D01*
X145841094Y-91553655D01*
X145841096Y-91553659D01*
X145841097Y-91553663D01*
X145905473Y-91691718D01*
X145940965Y-91767830D01*
X145940967Y-91767834D01*
X146010501Y-91867138D01*
X146074476Y-91958504D01*
X146076501Y-91961395D01*
X146076506Y-91961402D01*
X146243597Y-92128493D01*
X146243603Y-92128498D01*
X146429158Y-92258425D01*
X146472783Y-92313002D01*
X146479977Y-92382500D01*
X146448454Y-92444855D01*
X146429158Y-92461575D01*
X146243597Y-92591505D01*
X146076505Y-92758597D01*
X145940965Y-92952169D01*
X145940964Y-92952171D01*
X145841098Y-93166335D01*
X145841094Y-93166344D01*
X145779938Y-93394586D01*
X145779936Y-93394596D01*
X145759341Y-93629999D01*
X145759341Y-93630000D01*
X145779936Y-93865403D01*
X145779938Y-93865413D01*
X145841094Y-94093655D01*
X145841096Y-94093659D01*
X145841097Y-94093663D01*
X145876644Y-94169893D01*
X145940965Y-94307830D01*
X145940967Y-94307834D01*
X146046493Y-94458539D01*
X146060495Y-94478537D01*
X146076501Y-94501395D01*
X146076506Y-94501402D01*
X146243597Y-94668493D01*
X146243603Y-94668498D01*
X146429158Y-94798425D01*
X146472783Y-94853002D01*
X146479977Y-94922500D01*
X146448454Y-94984855D01*
X146429158Y-95001575D01*
X146243597Y-95131505D01*
X146076505Y-95298597D01*
X145940965Y-95492169D01*
X145940964Y-95492171D01*
X145841098Y-95706335D01*
X145841094Y-95706344D01*
X145779938Y-95934586D01*
X145779936Y-95934596D01*
X145759341Y-96169999D01*
X145759341Y-96170000D01*
X145779936Y-96405403D01*
X145779938Y-96405413D01*
X145841094Y-96633655D01*
X145841096Y-96633659D01*
X145841097Y-96633663D01*
X145905473Y-96771718D01*
X145940965Y-96847830D01*
X145940967Y-96847834D01*
X146027838Y-96971898D01*
X146074476Y-97038504D01*
X146076501Y-97041395D01*
X146076506Y-97041402D01*
X146243597Y-97208493D01*
X146243603Y-97208498D01*
X146429158Y-97338425D01*
X146472783Y-97393002D01*
X146479977Y-97462500D01*
X146448454Y-97524855D01*
X146429158Y-97541575D01*
X146243597Y-97671505D01*
X146076505Y-97838597D01*
X145940965Y-98032169D01*
X145940964Y-98032171D01*
X145841098Y-98246335D01*
X145841094Y-98246344D01*
X145779938Y-98474586D01*
X145779936Y-98474596D01*
X145759341Y-98709999D01*
X145759341Y-98710000D01*
X145779936Y-98945403D01*
X145779938Y-98945413D01*
X145841094Y-99173655D01*
X145841096Y-99173659D01*
X145841097Y-99173663D01*
X145905473Y-99311718D01*
X145940965Y-99387830D01*
X145940967Y-99387834D01*
X146027838Y-99511898D01*
X146074476Y-99578504D01*
X146076501Y-99581395D01*
X146076506Y-99581402D01*
X146243597Y-99748493D01*
X146243603Y-99748498D01*
X146429158Y-99878425D01*
X146472783Y-99933002D01*
X146479977Y-100002500D01*
X146448454Y-100064855D01*
X146429158Y-100081575D01*
X146243597Y-100211505D01*
X146076505Y-100378597D01*
X145940965Y-100572169D01*
X145940964Y-100572171D01*
X145841098Y-100786335D01*
X145841094Y-100786344D01*
X145779938Y-101014586D01*
X145779936Y-101014596D01*
X145759341Y-101249999D01*
X145759341Y-101250000D01*
X145779936Y-101485403D01*
X145779938Y-101485413D01*
X145841094Y-101713655D01*
X145841096Y-101713659D01*
X145841097Y-101713663D01*
X145871608Y-101779094D01*
X145940965Y-101927830D01*
X145940967Y-101927834D01*
X146027839Y-102051899D01*
X146060495Y-102098537D01*
X146076501Y-102121395D01*
X146076506Y-102121402D01*
X146243597Y-102288493D01*
X146243603Y-102288498D01*
X146429158Y-102418425D01*
X146472783Y-102473002D01*
X146479977Y-102542500D01*
X146448454Y-102604855D01*
X146429158Y-102621575D01*
X146243597Y-102751505D01*
X146076505Y-102918597D01*
X145940965Y-103112169D01*
X145940964Y-103112171D01*
X145841098Y-103326335D01*
X145841094Y-103326344D01*
X145779938Y-103554586D01*
X145779936Y-103554596D01*
X145759341Y-103789999D01*
X145759341Y-103790000D01*
X145779936Y-104025403D01*
X145779938Y-104025413D01*
X145841094Y-104253655D01*
X145841096Y-104253659D01*
X145841097Y-104253663D01*
X145841931Y-104255451D01*
X145940965Y-104467830D01*
X145940967Y-104467834D01*
X146076501Y-104661395D01*
X146076506Y-104661402D01*
X146243597Y-104828493D01*
X146243603Y-104828498D01*
X146429158Y-104958425D01*
X146472783Y-105013002D01*
X146479977Y-105082500D01*
X146448454Y-105144855D01*
X146429158Y-105161575D01*
X146243597Y-105291505D01*
X146076505Y-105458597D01*
X145940965Y-105652169D01*
X145940964Y-105652171D01*
X145841098Y-105866335D01*
X145841094Y-105866344D01*
X145779938Y-106094586D01*
X145779936Y-106094596D01*
X145759341Y-106329999D01*
X145759341Y-106330000D01*
X145779936Y-106565403D01*
X145779938Y-106565413D01*
X145841094Y-106793655D01*
X145841096Y-106793659D01*
X145841097Y-106793663D01*
X145900424Y-106920890D01*
X145940965Y-107007830D01*
X145940967Y-107007834D01*
X146076501Y-107201395D01*
X146076506Y-107201402D01*
X146243597Y-107368493D01*
X146243603Y-107368498D01*
X146429158Y-107498425D01*
X146472783Y-107553002D01*
X146479977Y-107622500D01*
X146448454Y-107684855D01*
X146429158Y-107701575D01*
X146243597Y-107831505D01*
X146076505Y-107998597D01*
X145940965Y-108192169D01*
X145940964Y-108192171D01*
X145841098Y-108406335D01*
X145841094Y-108406344D01*
X145779938Y-108634586D01*
X145779936Y-108634596D01*
X145759341Y-108869999D01*
X145759341Y-108870000D01*
X145779936Y-109105403D01*
X145779938Y-109105413D01*
X145841094Y-109333655D01*
X145841096Y-109333659D01*
X145841097Y-109333663D01*
X145862328Y-109379192D01*
X145940965Y-109547830D01*
X145940967Y-109547834D01*
X145963202Y-109579588D01*
X146076505Y-109741401D01*
X146243599Y-109908495D01*
X146424909Y-110035450D01*
X146429594Y-110038730D01*
X146473219Y-110093307D01*
X146480413Y-110162805D01*
X146448890Y-110225160D01*
X146429595Y-110241880D01*
X146243922Y-110371890D01*
X146243920Y-110371891D01*
X146076891Y-110538920D01*
X146076886Y-110538926D01*
X145941400Y-110732420D01*
X145941399Y-110732422D01*
X145841570Y-110946507D01*
X145841567Y-110946513D01*
X145784364Y-111159999D01*
X145784364Y-111160000D01*
X146681988Y-111160000D01*
X146649075Y-111217007D01*
X146615000Y-111344174D01*
X146615000Y-111475826D01*
X146649075Y-111602993D01*
X146681988Y-111660000D01*
X145784364Y-111660000D01*
X145841567Y-111873486D01*
X145841570Y-111873492D01*
X145941399Y-112087578D01*
X146076894Y-112281082D01*
X146243917Y-112448105D01*
X146437421Y-112583600D01*
X146651507Y-112683429D01*
X146651516Y-112683433D01*
X146865000Y-112740634D01*
X146865000Y-111843012D01*
X146922007Y-111875925D01*
X147049174Y-111910000D01*
X147180826Y-111910000D01*
X147307993Y-111875925D01*
X147365000Y-111843012D01*
X147365000Y-112740633D01*
X147518407Y-112699530D01*
X147588257Y-112701193D01*
X147646119Y-112740356D01*
X147673623Y-112804584D01*
X147674500Y-112819305D01*
X147674500Y-115538393D01*
X147674500Y-115661607D01*
X147674500Y-115661609D01*
X147674499Y-115661609D01*
X147682235Y-115700495D01*
X147682235Y-115700497D01*
X147698535Y-115782446D01*
X147698539Y-115782458D01*
X147706350Y-115801314D01*
X147706351Y-115801317D01*
X147745685Y-115896281D01*
X147745690Y-115896290D01*
X147763896Y-115923536D01*
X147763897Y-115923537D01*
X147814141Y-115998732D01*
X147814144Y-115998736D01*
X147905586Y-116090178D01*
X147905608Y-116090198D01*
X148611016Y-116795606D01*
X148611045Y-116795637D01*
X148701263Y-116885855D01*
X148701267Y-116885858D01*
X148767314Y-116929989D01*
X148803715Y-116954312D01*
X148866594Y-116980357D01*
X148917548Y-117001463D01*
X148959880Y-117009883D01*
X149038391Y-117025499D01*
X149038392Y-117025500D01*
X149038393Y-117025500D01*
X149038394Y-117025500D01*
X149234064Y-117025500D01*
X149301103Y-117045185D01*
X149346858Y-117097989D01*
X149356802Y-117167147D01*
X149346821Y-117197590D01*
X149348019Y-117198086D01*
X149314023Y-117280161D01*
X149314023Y-117280162D01*
X149298538Y-117317545D01*
X149298535Y-117317555D01*
X149274500Y-117438389D01*
X149274500Y-117438394D01*
X149274500Y-119638393D01*
X149274500Y-119761607D01*
X149281237Y-119795477D01*
X149298265Y-119881087D01*
X149298271Y-119881117D01*
X149298270Y-119881117D01*
X149298534Y-119882441D01*
X149298539Y-119882459D01*
X149345685Y-119996280D01*
X149345690Y-119996289D01*
X149379914Y-120047507D01*
X149379915Y-120047509D01*
X149414140Y-120098731D01*
X149414141Y-120098732D01*
X149414142Y-120098733D01*
X149501267Y-120185858D01*
X149501268Y-120185858D01*
X149508335Y-120192925D01*
X149508334Y-120192925D01*
X149508338Y-120192928D01*
X150403226Y-121087818D01*
X150436711Y-121149141D01*
X150431727Y-121218833D01*
X150389855Y-121274766D01*
X150324391Y-121299183D01*
X150315545Y-121299499D01*
X145609757Y-121299499D01*
X145590359Y-121297972D01*
X145557749Y-121292807D01*
X145520855Y-121280820D01*
X145500233Y-121270312D01*
X145468849Y-121247510D01*
X145452488Y-121231148D01*
X145429687Y-121199766D01*
X145419178Y-121179141D01*
X145407193Y-121142251D01*
X145402025Y-121109623D01*
X145400500Y-121090236D01*
X145400500Y-87109754D01*
X145402025Y-87090369D01*
X145407192Y-87057743D01*
X145419177Y-87020857D01*
X145429687Y-87000230D01*
X145452486Y-86968851D01*
X145468851Y-86952486D01*
X145500230Y-86929687D01*
X145520857Y-86919177D01*
X145557744Y-86907192D01*
X145590376Y-86902024D01*
X145609762Y-86900499D01*
X145647595Y-86900499D01*
X147748637Y-86900499D01*
X147748643Y-86900500D01*
X147800001Y-86900499D01*
X147800001Y-86900500D01*
X147902353Y-86900499D01*
X148104535Y-86868477D01*
X148299219Y-86805220D01*
X148481611Y-86712287D01*
X148647219Y-86591965D01*
X148647221Y-86591962D01*
X148651160Y-86589101D01*
X148652263Y-86590619D01*
X148708722Y-86565317D01*
X148777808Y-86575750D01*
G37*
%TD.AperFunction*%
%TA.AperFunction,Conductor*%
G36*
X163155703Y-86380670D02*
G01*
X163174814Y-86401493D01*
X163208035Y-86447217D01*
X163352782Y-86591964D01*
X163518390Y-86712286D01*
X163700782Y-86805219D01*
X163895466Y-86868476D01*
X164097648Y-86900499D01*
X164160438Y-86900499D01*
X166352405Y-86900499D01*
X166390244Y-86900499D01*
X166409630Y-86902024D01*
X166442255Y-86907191D01*
X166479141Y-86919175D01*
X166499767Y-86929684D01*
X166531151Y-86952487D01*
X166547511Y-86968847D01*
X166570315Y-87000233D01*
X166580821Y-87020852D01*
X166592809Y-87057747D01*
X166597973Y-87090355D01*
X166599500Y-87109748D01*
X166599500Y-121090244D01*
X166597973Y-121109644D01*
X166592808Y-121142251D01*
X166580820Y-121179146D01*
X166570314Y-121199765D01*
X166547510Y-121231151D01*
X166531151Y-121247510D01*
X166499765Y-121270314D01*
X166479146Y-121280820D01*
X166442251Y-121292808D01*
X166429990Y-121294750D01*
X166409644Y-121297972D01*
X166390250Y-121299499D01*
X162184452Y-121299499D01*
X162117413Y-121279814D01*
X162071658Y-121227010D01*
X162061714Y-121157852D01*
X162090739Y-121094296D01*
X162096771Y-121087818D01*
X162132185Y-121052404D01*
X164185857Y-118998734D01*
X164187714Y-118995956D01*
X164254311Y-118896286D01*
X164301463Y-118782452D01*
X164308133Y-118748919D01*
X164325500Y-118661607D01*
X164325500Y-118538394D01*
X164325500Y-112791267D01*
X164345185Y-112724228D01*
X164397989Y-112678473D01*
X164467147Y-112668529D01*
X164481593Y-112671492D01*
X164665000Y-112720634D01*
X164665000Y-111823012D01*
X164722007Y-111855925D01*
X164849174Y-111890000D01*
X164980826Y-111890000D01*
X165107993Y-111855925D01*
X165165000Y-111823012D01*
X165165000Y-112720633D01*
X165378483Y-112663433D01*
X165378492Y-112663429D01*
X165592578Y-112563600D01*
X165786082Y-112428105D01*
X165953105Y-112261082D01*
X166088600Y-112067578D01*
X166188429Y-111853492D01*
X166188432Y-111853486D01*
X166245636Y-111640000D01*
X165348012Y-111640000D01*
X165380925Y-111582993D01*
X165415000Y-111455826D01*
X165415000Y-111324174D01*
X165380925Y-111197007D01*
X165348012Y-111140000D01*
X166245636Y-111140000D01*
X166245635Y-111139999D01*
X166188432Y-110926513D01*
X166188429Y-110926507D01*
X166088600Y-110712422D01*
X166088599Y-110712420D01*
X165953113Y-110518926D01*
X165953108Y-110518920D01*
X165786082Y-110351894D01*
X165600404Y-110221880D01*
X165556779Y-110167303D01*
X165549587Y-110097804D01*
X165581109Y-110035450D01*
X165600399Y-110018734D01*
X165786401Y-109888495D01*
X165953495Y-109721401D01*
X166089035Y-109527830D01*
X166188903Y-109313663D01*
X166250063Y-109085408D01*
X166270659Y-108850000D01*
X166250063Y-108614592D01*
X166188903Y-108386337D01*
X166089035Y-108172171D01*
X165953495Y-107978599D01*
X165953494Y-107978597D01*
X165786402Y-107811506D01*
X165786401Y-107811505D01*
X165600839Y-107681573D01*
X165557216Y-107626997D01*
X165550023Y-107557498D01*
X165581545Y-107495144D01*
X165600831Y-107478432D01*
X165786401Y-107348495D01*
X165953495Y-107181401D01*
X166089035Y-106987830D01*
X166188903Y-106773663D01*
X166250063Y-106545408D01*
X166270659Y-106310000D01*
X166250063Y-106074592D01*
X166203626Y-105901285D01*
X166188905Y-105846344D01*
X166188904Y-105846343D01*
X166188903Y-105846337D01*
X166089035Y-105632171D01*
X166057845Y-105587626D01*
X165953494Y-105438597D01*
X165786402Y-105271506D01*
X165786401Y-105271505D01*
X165600839Y-105141573D01*
X165557216Y-105086997D01*
X165550023Y-105017498D01*
X165581545Y-104955144D01*
X165600831Y-104938432D01*
X165786401Y-104808495D01*
X165953495Y-104641401D01*
X166089035Y-104447830D01*
X166188903Y-104233663D01*
X166250063Y-104005408D01*
X166270659Y-103770000D01*
X166250063Y-103534592D01*
X166188903Y-103306337D01*
X166089035Y-103092171D01*
X166051831Y-103039037D01*
X165953494Y-102898597D01*
X165786402Y-102731506D01*
X165786401Y-102731505D01*
X165649359Y-102635547D01*
X165600839Y-102601573D01*
X165557216Y-102546997D01*
X165550023Y-102477498D01*
X165581545Y-102415144D01*
X165600831Y-102398432D01*
X165786401Y-102268495D01*
X165953495Y-102101401D01*
X166089035Y-101907830D01*
X166188903Y-101693663D01*
X166250063Y-101465408D01*
X166270659Y-101230000D01*
X166250063Y-100994592D01*
X166188903Y-100766337D01*
X166089035Y-100552171D01*
X165974920Y-100389196D01*
X165953494Y-100358597D01*
X165786402Y-100191506D01*
X165786401Y-100191505D01*
X165768915Y-100179261D01*
X165600839Y-100061573D01*
X165557216Y-100006997D01*
X165550023Y-99937498D01*
X165581545Y-99875144D01*
X165600831Y-99858432D01*
X165786401Y-99728495D01*
X165953495Y-99561401D01*
X166089035Y-99367830D01*
X166188903Y-99153663D01*
X166250063Y-98925408D01*
X166270659Y-98690000D01*
X166250063Y-98454592D01*
X166188903Y-98226337D01*
X166089035Y-98012171D01*
X166042386Y-97945548D01*
X165953494Y-97818597D01*
X165786402Y-97651506D01*
X165786401Y-97651505D01*
X165600839Y-97521573D01*
X165557216Y-97466997D01*
X165550023Y-97397498D01*
X165581545Y-97335144D01*
X165600831Y-97318432D01*
X165786401Y-97188495D01*
X165953495Y-97021401D01*
X166089035Y-96827830D01*
X166188903Y-96613663D01*
X166250063Y-96385408D01*
X166270659Y-96150000D01*
X166250063Y-95914592D01*
X166188903Y-95686337D01*
X166089035Y-95472171D01*
X165993640Y-95335931D01*
X165953494Y-95278597D01*
X165786402Y-95111506D01*
X165786401Y-95111505D01*
X165646284Y-95013394D01*
X165600839Y-94981573D01*
X165557216Y-94926997D01*
X165550023Y-94857498D01*
X165581545Y-94795144D01*
X165600831Y-94778432D01*
X165786401Y-94648495D01*
X165953495Y-94481401D01*
X166089035Y-94287830D01*
X166188903Y-94073663D01*
X166250063Y-93845408D01*
X166270659Y-93610000D01*
X166250063Y-93374592D01*
X166188903Y-93146337D01*
X166089035Y-92932171D01*
X166041821Y-92864741D01*
X165953494Y-92738597D01*
X165786402Y-92571506D01*
X165786401Y-92571505D01*
X165643909Y-92471731D01*
X165600839Y-92441573D01*
X165557216Y-92386997D01*
X165550023Y-92317498D01*
X165581545Y-92255144D01*
X165600831Y-92238432D01*
X165786401Y-92108495D01*
X165953495Y-91941401D01*
X166089035Y-91747830D01*
X166188903Y-91533663D01*
X166250063Y-91305408D01*
X166270659Y-91070000D01*
X166250063Y-90834592D01*
X166188903Y-90606337D01*
X166089035Y-90392171D01*
X165953495Y-90198599D01*
X165831567Y-90076671D01*
X165798084Y-90015351D01*
X165803068Y-89945659D01*
X165844939Y-89889725D01*
X165875915Y-89872810D01*
X166007331Y-89823796D01*
X166122546Y-89737546D01*
X166208796Y-89622331D01*
X166259091Y-89487483D01*
X166265500Y-89427873D01*
X166265499Y-87632128D01*
X166259091Y-87572517D01*
X166216256Y-87457671D01*
X166208797Y-87437671D01*
X166208793Y-87437664D01*
X166122547Y-87322455D01*
X166122544Y-87322452D01*
X166007335Y-87236206D01*
X166007328Y-87236202D01*
X165872482Y-87185908D01*
X165872483Y-87185908D01*
X165812883Y-87179501D01*
X165812881Y-87179500D01*
X165812873Y-87179500D01*
X165812865Y-87179500D01*
X164106008Y-87179500D01*
X164098137Y-87179250D01*
X164097308Y-87179197D01*
X164089624Y-87179500D01*
X164017131Y-87179500D01*
X164017122Y-87179501D01*
X163957518Y-87185908D01*
X163925440Y-87197872D01*
X163915841Y-87201012D01*
X163893603Y-87207297D01*
X163893597Y-87207300D01*
X163882114Y-87213160D01*
X163869091Y-87218889D01*
X163822665Y-87236205D01*
X163800557Y-87252756D01*
X163782614Y-87263937D01*
X163765442Y-87272700D01*
X163765436Y-87272703D01*
X163304795Y-87597861D01*
X163238675Y-87620440D01*
X163170843Y-87603687D01*
X163145606Y-87584238D01*
X162986819Y-87425451D01*
X162953334Y-87364128D01*
X162950500Y-87337770D01*
X162950500Y-86474383D01*
X162970185Y-86407344D01*
X163022989Y-86361589D01*
X163092147Y-86351645D01*
X163155703Y-86380670D01*
G37*
%TD.AperFunction*%
%TA.AperFunction,Conductor*%
G36*
X163025635Y-117067291D02*
G01*
X163067039Y-117123571D01*
X163074500Y-117165935D01*
X163074500Y-118289547D01*
X163054815Y-118356586D01*
X163038181Y-118377228D01*
X161377229Y-120038181D01*
X161315906Y-120071666D01*
X161289548Y-120074500D01*
X155063188Y-120074500D01*
X154996149Y-120054815D01*
X154950394Y-120002011D01*
X154939968Y-119964384D01*
X154936313Y-119931941D01*
X154933483Y-119923855D01*
X154928671Y-119910101D01*
X154924094Y-119893332D01*
X154921660Y-119881095D01*
X154921658Y-119881088D01*
X154917902Y-119872019D01*
X154910435Y-119802549D01*
X154941711Y-119740071D01*
X155001801Y-119704420D01*
X155032464Y-119700569D01*
X155296665Y-119700569D01*
X155381209Y-119683751D01*
X155422338Y-119675570D01*
X155540721Y-119626534D01*
X155548120Y-119621589D01*
X155548130Y-119621586D01*
X155548129Y-119621585D01*
X155622311Y-119572018D01*
X155647263Y-119555346D01*
X155810222Y-119392385D01*
X155830424Y-119376036D01*
X155837960Y-119371148D01*
X155862729Y-119349500D01*
X156002803Y-119227071D01*
X156066233Y-119197774D01*
X156125361Y-119203394D01*
X156219441Y-119236314D01*
X156387499Y-119255250D01*
X156387502Y-119255250D01*
X156387505Y-119255250D01*
X156555554Y-119236315D01*
X156555554Y-119236314D01*
X156555561Y-119236314D01*
X156576178Y-119229099D01*
X156592768Y-119224559D01*
X156819710Y-119179113D01*
X156950533Y-119152915D01*
X156974881Y-119150501D01*
X157264070Y-119150501D01*
X157348614Y-119133683D01*
X157389743Y-119125502D01*
X157508126Y-119076466D01*
X157511068Y-119074500D01*
X157614668Y-119005278D01*
X158005276Y-118614670D01*
X158040870Y-118561398D01*
X158076464Y-118508129D01*
X158076465Y-118508127D01*
X158125501Y-118389744D01*
X158130608Y-118364069D01*
X158150500Y-118264069D01*
X158150500Y-117366971D01*
X158170185Y-117299932D01*
X158222989Y-117254177D01*
X158292147Y-117244233D01*
X158315452Y-117249928D01*
X158327595Y-117254177D01*
X158419445Y-117286317D01*
X158587499Y-117305252D01*
X158587502Y-117305252D01*
X158587505Y-117305252D01*
X158755557Y-117286317D01*
X158755559Y-117286316D01*
X158755561Y-117286316D01*
X158838248Y-117257382D01*
X158850449Y-117253804D01*
X158879747Y-117246827D01*
X159164554Y-117134189D01*
X159210156Y-117125500D01*
X162661608Y-117125500D01*
X162661608Y-117125499D01*
X162724726Y-117112945D01*
X162724727Y-117112945D01*
X162744324Y-117109046D01*
X162782452Y-117101463D01*
X162815792Y-117087652D01*
X162896286Y-117054312D01*
X162896286Y-117054311D01*
X162901916Y-117051980D01*
X162902890Y-117054333D01*
X162960376Y-117042329D01*
X163025635Y-117067291D01*
G37*
%TD.AperFunction*%
%TA.AperFunction,Conductor*%
G36*
X150818735Y-117829550D02*
G01*
X151153838Y-117917377D01*
X151153867Y-117917384D01*
X151176916Y-117922970D01*
X151176899Y-117923037D01*
X151193341Y-117927181D01*
X151219439Y-117936313D01*
X151387497Y-117955249D01*
X151387500Y-117955249D01*
X151387503Y-117955249D01*
X151488335Y-117943887D01*
X151555559Y-117936313D01*
X151649727Y-117903362D01*
X151684546Y-117891179D01*
X151754324Y-117887618D01*
X151814952Y-117922347D01*
X151847179Y-117984340D01*
X151849500Y-118008221D01*
X151849500Y-118364068D01*
X151849499Y-118364070D01*
X151871304Y-118473682D01*
X151874499Y-118489744D01*
X151894650Y-118538394D01*
X151923535Y-118608127D01*
X151959271Y-118661610D01*
X151994726Y-118714673D01*
X152285128Y-119005075D01*
X152285131Y-119005077D01*
X152358898Y-119054366D01*
X152391674Y-119076266D01*
X152475382Y-119110939D01*
X152529785Y-119154780D01*
X152551850Y-119221074D01*
X152534571Y-119288773D01*
X152483434Y-119336384D01*
X152427929Y-119349500D01*
X151913750Y-119349500D01*
X151861590Y-119336434D01*
X151861213Y-119337345D01*
X151855445Y-119334955D01*
X151836944Y-119325396D01*
X151827794Y-119319647D01*
X151771116Y-119299815D01*
X151764617Y-119297334D01*
X151719018Y-119278446D01*
X151719010Y-119278443D01*
X151706755Y-119276005D01*
X151690005Y-119271433D01*
X151668162Y-119263790D01*
X151668160Y-119263789D01*
X151668158Y-119263789D01*
X151668156Y-119263788D01*
X151620713Y-119258443D01*
X151610406Y-119256840D01*
X151574023Y-119249603D01*
X151574020Y-119249603D01*
X151549213Y-119249603D01*
X151535329Y-119248823D01*
X151500105Y-119244854D01*
X151500101Y-119244854D01*
X151464877Y-119248823D01*
X151450993Y-119249603D01*
X151426182Y-119249603D01*
X151389801Y-119256840D01*
X151379494Y-119258443D01*
X151332049Y-119263788D01*
X151332038Y-119263791D01*
X151310187Y-119271436D01*
X151293439Y-119276008D01*
X151281190Y-119278445D01*
X151281189Y-119278445D01*
X151235581Y-119297336D01*
X151229087Y-119299815D01*
X151172412Y-119319646D01*
X151163257Y-119325399D01*
X151144754Y-119334959D01*
X151144611Y-119335017D01*
X151144606Y-119335020D01*
X151093356Y-119369263D01*
X151090442Y-119371152D01*
X151029214Y-119409625D01*
X151029213Y-119409626D01*
X151021690Y-119417148D01*
X151021689Y-119417148D01*
X150917148Y-119521689D01*
X150917148Y-119521690D01*
X150909626Y-119529213D01*
X150909625Y-119529214D01*
X150878199Y-119579227D01*
X150825863Y-119625517D01*
X150756810Y-119636164D01*
X150692962Y-119607788D01*
X150685525Y-119600934D01*
X150561819Y-119477228D01*
X150528334Y-119415905D01*
X150525500Y-119389547D01*
X150525500Y-117949500D01*
X150545185Y-117882461D01*
X150597989Y-117836706D01*
X150649500Y-117825500D01*
X150787299Y-117825500D01*
X150818735Y-117829550D01*
G37*
%TD.AperFunction*%
%TA.AperFunction,Conductor*%
G36*
X156393205Y-110113597D02*
G01*
X156399683Y-110119629D01*
X156813181Y-110533126D01*
X156846666Y-110594449D01*
X156849500Y-110620807D01*
X156849500Y-117675560D01*
X156829815Y-117742599D01*
X156777011Y-117788354D01*
X156707853Y-117798298D01*
X156701152Y-117797146D01*
X156622808Y-117781457D01*
X156592775Y-117775443D01*
X156576174Y-117770900D01*
X156555561Y-117763688D01*
X156555560Y-117763687D01*
X156555558Y-117763687D01*
X156387505Y-117744752D01*
X156387498Y-117744752D01*
X156325885Y-117751694D01*
X156257063Y-117739639D01*
X156205684Y-117692290D01*
X156188002Y-117628474D01*
X156188002Y-110207310D01*
X156207687Y-110140271D01*
X156260491Y-110094516D01*
X156329649Y-110084572D01*
X156393205Y-110113597D01*
G37*
%TD.AperFunction*%
%TA.AperFunction,Conductor*%
G36*
X160493834Y-105693269D02*
G01*
X160549767Y-105735141D01*
X160574184Y-105800605D01*
X160574500Y-105809451D01*
X160574500Y-113150500D01*
X160554815Y-113217539D01*
X160502011Y-113263294D01*
X160450500Y-113274500D01*
X159187704Y-113274500D01*
X159156267Y-113270449D01*
X158821172Y-113182624D01*
X158816981Y-113181608D01*
X158802945Y-113178207D01*
X158802941Y-113178206D01*
X158798089Y-113177031D01*
X158798105Y-113176964D01*
X158781659Y-113172818D01*
X158755565Y-113163688D01*
X158755555Y-113163685D01*
X158587505Y-113144751D01*
X158587499Y-113144751D01*
X158419445Y-113163685D01*
X158330637Y-113194761D01*
X158315454Y-113200074D01*
X158245676Y-113203635D01*
X158185048Y-113168906D01*
X158152821Y-113106913D01*
X158150500Y-113083032D01*
X158150500Y-110235928D01*
X158125502Y-110110261D01*
X158125501Y-110110260D01*
X158125501Y-110110256D01*
X158076465Y-109991873D01*
X158076464Y-109991872D01*
X158076461Y-109991866D01*
X158005277Y-109885332D01*
X158002493Y-109882548D01*
X157914669Y-109794724D01*
X157586819Y-109466873D01*
X157553334Y-109405550D01*
X157550500Y-109379192D01*
X157550500Y-107262594D01*
X157570185Y-107195555D01*
X157622989Y-107149800D01*
X157692147Y-107139856D01*
X157715455Y-107145553D01*
X157831939Y-107186313D01*
X157999997Y-107205249D01*
X158000000Y-107205249D01*
X158000003Y-107205249D01*
X158168059Y-107186313D01*
X158168060Y-107186313D01*
X158300826Y-107139856D01*
X158327690Y-107130456D01*
X158327690Y-107130455D01*
X158334045Y-107128232D01*
X158403824Y-107124670D01*
X158415955Y-107128232D01*
X158422309Y-107130455D01*
X158422310Y-107130456D01*
X158449174Y-107139856D01*
X158581939Y-107186313D01*
X158749997Y-107205249D01*
X158750000Y-107205249D01*
X158750003Y-107205249D01*
X158918056Y-107186314D01*
X158932094Y-107181402D01*
X159077690Y-107130456D01*
X159077692Y-107130454D01*
X159077694Y-107130454D01*
X159077697Y-107130452D01*
X159220884Y-107040481D01*
X159220885Y-107040480D01*
X159220890Y-107040477D01*
X159340477Y-106920890D01*
X159413847Y-106804119D01*
X159421799Y-106792902D01*
X159421977Y-106792676D01*
X159422486Y-106792038D01*
X159597340Y-106492975D01*
X159616697Y-106467891D01*
X160362820Y-105721769D01*
X160424142Y-105688285D01*
X160493834Y-105693269D01*
G37*
%TD.AperFunction*%
%TA.AperFunction,Conductor*%
G36*
X155468834Y-105853626D02*
G01*
X155524767Y-105895498D01*
X155549184Y-105960962D01*
X155549500Y-105969808D01*
X155549500Y-108554192D01*
X155529815Y-108621231D01*
X155513181Y-108641873D01*
X155412181Y-108742873D01*
X155350858Y-108776358D01*
X155281166Y-108771374D01*
X155225233Y-108729502D01*
X155200816Y-108664038D01*
X155200500Y-108655192D01*
X155200500Y-106070808D01*
X155220185Y-106003769D01*
X155236819Y-105983127D01*
X155337819Y-105882127D01*
X155399142Y-105848642D01*
X155468834Y-105853626D01*
G37*
%TD.AperFunction*%
%TA.AperFunction,Conductor*%
G36*
X163344821Y-103787282D02*
G01*
X163400754Y-103829154D01*
X163425171Y-103894618D01*
X163418487Y-103944538D01*
X163261499Y-104391718D01*
X163261498Y-104391719D01*
X163191221Y-104591899D01*
X163161903Y-104638505D01*
X163037180Y-104763228D01*
X162975859Y-104796713D01*
X162906167Y-104791729D01*
X162850233Y-104749858D01*
X162825816Y-104684394D01*
X162825500Y-104675547D01*
X162825500Y-104255451D01*
X162845185Y-104188412D01*
X162861815Y-104167774D01*
X163213807Y-103815782D01*
X163275129Y-103782298D01*
X163344821Y-103787282D01*
G37*
%TD.AperFunction*%
%TA.AperFunction,Conductor*%
G36*
X159673647Y-81370185D02*
G01*
X159719402Y-81422989D01*
X159729346Y-81492147D01*
X159700321Y-81555703D01*
X159685275Y-81570352D01*
X159682212Y-81572865D01*
X159542863Y-81712214D01*
X159542860Y-81712218D01*
X159433371Y-81876079D01*
X159433363Y-81876094D01*
X159429456Y-81885528D01*
X159385615Y-81939931D01*
X159319320Y-81961995D01*
X159251621Y-81944715D01*
X159246968Y-81941566D01*
X159243366Y-81939486D01*
X159243365Y-81939485D01*
X159149899Y-81885522D01*
X159112136Y-81863719D01*
X159038950Y-81844109D01*
X158965766Y-81824500D01*
X158814234Y-81824500D01*
X158667863Y-81863719D01*
X158536635Y-81939485D01*
X158536632Y-81939487D01*
X158429487Y-82046632D01*
X158429485Y-82046635D01*
X158353719Y-82177863D01*
X158314500Y-82324234D01*
X158314500Y-82475765D01*
X158353719Y-82622136D01*
X158391602Y-82687750D01*
X158429485Y-82753365D01*
X158536635Y-82860515D01*
X158619912Y-82908595D01*
X158667861Y-82936279D01*
X158667865Y-82936281D01*
X158814234Y-82975500D01*
X158814236Y-82975500D01*
X158965764Y-82975500D01*
X158965766Y-82975500D01*
X159112135Y-82936281D01*
X159122451Y-82930325D01*
X159133499Y-82923947D01*
X159201398Y-82907473D01*
X159267426Y-82930325D01*
X159310617Y-82985245D01*
X159319500Y-83031333D01*
X159319500Y-83548541D01*
X159319500Y-83548543D01*
X159319499Y-83548543D01*
X159357947Y-83741829D01*
X159357950Y-83741839D01*
X159433364Y-83923907D01*
X159433371Y-83923920D01*
X159542860Y-84087781D01*
X159542863Y-84087785D01*
X159682214Y-84227136D01*
X159682218Y-84227139D01*
X159846079Y-84336628D01*
X159846092Y-84336635D01*
X160028160Y-84412049D01*
X160028165Y-84412051D01*
X160028169Y-84412051D01*
X160028170Y-84412052D01*
X160221456Y-84450500D01*
X160221459Y-84450500D01*
X160418543Y-84450500D01*
X160548582Y-84424632D01*
X160611835Y-84412051D01*
X160793914Y-84336632D01*
X160957782Y-84227139D01*
X161097139Y-84087782D01*
X161206632Y-83923914D01*
X161210939Y-83913515D01*
X161254779Y-83859114D01*
X161321073Y-83837048D01*
X161388772Y-83854327D01*
X161436383Y-83905463D01*
X161449500Y-83960969D01*
X161449500Y-87773918D01*
X161449500Y-87773920D01*
X161449499Y-87773920D01*
X161478340Y-87918907D01*
X161478343Y-87918917D01*
X161525184Y-88032000D01*
X161534916Y-88055495D01*
X161546146Y-88072302D01*
X161556694Y-88088089D01*
X161617049Y-88178418D01*
X161617052Y-88178421D01*
X162447049Y-89008416D01*
X162551584Y-89112951D01*
X162551585Y-89112952D01*
X162674498Y-89195080D01*
X162674511Y-89195087D01*
X162782676Y-89239890D01*
X162811087Y-89251658D01*
X162811091Y-89251658D01*
X162811092Y-89251659D01*
X162956079Y-89280500D01*
X162956082Y-89280500D01*
X163008121Y-89280500D01*
X163075160Y-89300185D01*
X163079622Y-89303190D01*
X163763624Y-89786016D01*
X163763651Y-89786035D01*
X163765466Y-89787316D01*
X163774381Y-89793466D01*
X163785563Y-89798872D01*
X163805900Y-89811242D01*
X163822669Y-89823796D01*
X163880415Y-89845333D01*
X163891040Y-89849872D01*
X163903914Y-89856097D01*
X163910654Y-89858238D01*
X163916847Y-89859775D01*
X163930287Y-89863934D01*
X163954087Y-89872811D01*
X164010018Y-89914682D01*
X164034433Y-89980147D01*
X164019580Y-90048420D01*
X163998431Y-90076672D01*
X163876503Y-90198600D01*
X163740965Y-90392169D01*
X163740964Y-90392171D01*
X163655193Y-90576106D01*
X163652778Y-90581001D01*
X163648650Y-90588923D01*
X163647859Y-90590747D01*
X163644342Y-90599376D01*
X163641096Y-90606336D01*
X163637672Y-90619116D01*
X163634899Y-90628090D01*
X163261499Y-91691718D01*
X163261498Y-91691719D01*
X163191221Y-91891899D01*
X163161903Y-91938505D01*
X160462181Y-94638228D01*
X160400858Y-94671713D01*
X160331166Y-94666729D01*
X160275233Y-94624857D01*
X160250816Y-94559393D01*
X160250500Y-94550547D01*
X160250500Y-93631019D01*
X160225502Y-93505352D01*
X160225501Y-93505351D01*
X160225501Y-93505347D01*
X160176465Y-93386964D01*
X160176463Y-93386962D01*
X160176463Y-93386960D01*
X160173269Y-93382181D01*
X160173261Y-93382170D01*
X160105277Y-93280422D01*
X160105275Y-93280420D01*
X160105273Y-93280417D01*
X160105272Y-93280416D01*
X159479823Y-92654968D01*
X159461709Y-92631966D01*
X159443361Y-92601955D01*
X159282033Y-92338072D01*
X159279564Y-92334033D01*
X159272211Y-92322366D01*
X159269314Y-92318479D01*
X159269418Y-92318401D01*
X159261600Y-92307900D01*
X159202587Y-92213981D01*
X159202585Y-92213978D01*
X159082997Y-92094390D01*
X159082991Y-92094385D01*
X158939804Y-92004414D01*
X158939801Y-92004412D01*
X158780163Y-91948552D01*
X158612110Y-91929618D01*
X158612104Y-91929618D01*
X158444050Y-91948552D01*
X158284412Y-92004412D01*
X158284409Y-92004414D01*
X158141222Y-92094385D01*
X158141216Y-92094390D01*
X158021630Y-92213976D01*
X158021625Y-92213982D01*
X157931655Y-92357167D01*
X157931651Y-92357175D01*
X157891566Y-92471731D01*
X157850844Y-92528506D01*
X157840498Y-92535768D01*
X157735164Y-92601955D01*
X157735160Y-92601958D01*
X157615576Y-92721542D01*
X157615571Y-92721548D01*
X157525596Y-92864741D01*
X157525595Y-92864742D01*
X157485511Y-92979298D01*
X157444790Y-93036074D01*
X157434443Y-93043336D01*
X157329113Y-93109520D01*
X157329111Y-93109521D01*
X157209523Y-93229109D01*
X157209518Y-93229115D01*
X157119547Y-93372302D01*
X157119545Y-93372305D01*
X157063685Y-93531943D01*
X157044751Y-93699997D01*
X157044751Y-93700002D01*
X157063685Y-93868056D01*
X157119545Y-94027694D01*
X157119547Y-94027697D01*
X157209518Y-94170884D01*
X157209523Y-94170890D01*
X157329110Y-94290477D01*
X157416271Y-94345244D01*
X157428394Y-94354380D01*
X157428503Y-94354240D01*
X157431996Y-94356946D01*
X157432002Y-94356951D01*
X157494258Y-94398432D01*
X157539131Y-94451985D01*
X157549500Y-94501623D01*
X157549500Y-100069923D01*
X157537582Y-100122966D01*
X157421764Y-100367697D01*
X157421377Y-100368507D01*
X157417756Y-100376017D01*
X157417330Y-100377069D01*
X157414140Y-100384036D01*
X157411984Y-100388747D01*
X157411786Y-100389196D01*
X157411784Y-100389201D01*
X157389554Y-100449545D01*
X157389118Y-100452503D01*
X157383490Y-100475343D01*
X157363686Y-100531941D01*
X157344751Y-100699997D01*
X157344751Y-100699998D01*
X157346060Y-100711613D01*
X157334007Y-100780435D01*
X157286659Y-100831816D01*
X157222840Y-100849500D01*
X156635929Y-100849500D01*
X156510261Y-100874497D01*
X156510255Y-100874499D01*
X156391874Y-100923534D01*
X156285326Y-100994726D01*
X156285325Y-100994727D01*
X154162181Y-103117872D01*
X154100858Y-103151357D01*
X154031166Y-103146373D01*
X153975233Y-103104501D01*
X153950816Y-103039037D01*
X153950500Y-103030191D01*
X153950500Y-96900903D01*
X153970185Y-96833864D01*
X154022989Y-96788109D01*
X154092147Y-96778165D01*
X154143257Y-96797712D01*
X154236441Y-96859801D01*
X154255360Y-96875306D01*
X154350938Y-96970884D01*
X154385331Y-97005277D01*
X154385332Y-97005278D01*
X154477519Y-97066875D01*
X154477521Y-97066876D01*
X154491864Y-97076460D01*
X154491872Y-97076464D01*
X154491873Y-97076465D01*
X154610256Y-97125501D01*
X154610260Y-97125501D01*
X154610261Y-97125502D01*
X154735928Y-97150500D01*
X154735931Y-97150500D01*
X155512622Y-97150500D01*
X155536968Y-97152913D01*
X155894734Y-97224559D01*
X155911338Y-97229103D01*
X155931941Y-97236313D01*
X155973955Y-97241047D01*
X156099997Y-97255249D01*
X156100000Y-97255249D01*
X156100003Y-97255249D01*
X156268056Y-97236314D01*
X156301110Y-97224748D01*
X156427690Y-97180456D01*
X156427692Y-97180454D01*
X156427694Y-97180454D01*
X156427697Y-97180452D01*
X156570884Y-97090481D01*
X156570885Y-97090480D01*
X156570890Y-97090477D01*
X156690477Y-96970890D01*
X156690481Y-96970884D01*
X156780452Y-96827697D01*
X156780454Y-96827694D01*
X156780454Y-96827692D01*
X156780456Y-96827690D01*
X156836313Y-96668059D01*
X156836313Y-96668058D01*
X156836314Y-96668056D01*
X156855249Y-96500002D01*
X156855249Y-96499997D01*
X156836314Y-96331943D01*
X156793348Y-96209154D01*
X156780456Y-96172310D01*
X156780455Y-96172309D01*
X156780454Y-96172305D01*
X156780452Y-96172302D01*
X156690481Y-96029115D01*
X156690476Y-96029109D01*
X156570890Y-95909523D01*
X156570884Y-95909518D01*
X156427697Y-95819547D01*
X156427694Y-95819545D01*
X156268056Y-95763685D01*
X156100003Y-95744751D01*
X156099997Y-95744751D01*
X155931944Y-95763686D01*
X155911321Y-95770901D01*
X155894722Y-95775443D01*
X155830165Y-95788371D01*
X155828124Y-95788853D01*
X155828107Y-95788783D01*
X155828103Y-95788784D01*
X155828101Y-95788776D01*
X155819173Y-95790740D01*
X155817557Y-95791012D01*
X155817172Y-95791081D01*
X155806967Y-95793016D01*
X155536965Y-95847086D01*
X155512617Y-95849500D01*
X155168253Y-95849500D01*
X155101214Y-95829815D01*
X155065062Y-95794257D01*
X155062950Y-95791088D01*
X155013678Y-95717139D01*
X155013677Y-95717137D01*
X154956949Y-95632000D01*
X154954768Y-95628754D01*
X154954765Y-95628751D01*
X154954764Y-95628749D01*
X154951966Y-95625180D01*
X154952224Y-95624976D01*
X154943477Y-95613458D01*
X154890477Y-95529110D01*
X154770890Y-95409523D01*
X154770884Y-95409518D01*
X154627697Y-95319547D01*
X154627686Y-95319542D01*
X154571508Y-95299884D01*
X154514732Y-95259162D01*
X154488985Y-95194209D01*
X154502442Y-95125648D01*
X154524775Y-95095169D01*
X154874331Y-94745615D01*
X154945520Y-94639072D01*
X154987849Y-94536879D01*
X154994555Y-94520690D01*
X155002370Y-94481401D01*
X155019554Y-94395017D01*
X155019554Y-88904982D01*
X154994556Y-88779315D01*
X154994555Y-88779314D01*
X154994555Y-88779310D01*
X154945519Y-88660927D01*
X154937243Y-88648541D01*
X154937242Y-88648538D01*
X154874332Y-88554386D01*
X154874326Y-88554379D01*
X154675308Y-88355361D01*
X154659798Y-88336437D01*
X154515816Y-88120348D01*
X154515811Y-88120340D01*
X154513677Y-88117137D01*
X154456949Y-88032000D01*
X154454768Y-88028754D01*
X154454765Y-88028751D01*
X154454764Y-88028749D01*
X154451966Y-88025180D01*
X154452224Y-88024976D01*
X154443477Y-88013458D01*
X154390477Y-87929110D01*
X154270890Y-87809523D01*
X154270884Y-87809518D01*
X154127697Y-87719547D01*
X154127694Y-87719545D01*
X153968056Y-87663685D01*
X153800003Y-87644751D01*
X153799997Y-87644751D01*
X153631943Y-87663685D01*
X153502250Y-87709067D01*
X153472310Y-87719544D01*
X153472308Y-87719544D01*
X153472308Y-87719545D01*
X153465967Y-87723529D01*
X153398730Y-87742525D01*
X153334033Y-87723529D01*
X153330284Y-87721173D01*
X153327690Y-87719544D01*
X153262844Y-87696853D01*
X153168056Y-87663685D01*
X153000003Y-87644751D01*
X152999997Y-87644751D01*
X152831943Y-87663685D01*
X152672305Y-87719545D01*
X152672302Y-87719547D01*
X152529115Y-87809518D01*
X152529109Y-87809523D01*
X152409523Y-87929109D01*
X152409518Y-87929115D01*
X152319547Y-88072302D01*
X152319545Y-88072305D01*
X152263685Y-88231943D01*
X152244751Y-88399997D01*
X152244751Y-88400002D01*
X152263685Y-88568056D01*
X152319545Y-88727694D01*
X152319547Y-88727697D01*
X152409518Y-88870884D01*
X152409523Y-88870890D01*
X152529110Y-88990477D01*
X152616271Y-89045244D01*
X152628394Y-89054380D01*
X152628503Y-89054240D01*
X152632005Y-89056953D01*
X152750665Y-89136017D01*
X152750669Y-89136020D01*
X152936442Y-89259802D01*
X152955366Y-89275312D01*
X153034837Y-89354783D01*
X153068322Y-89416106D01*
X153071156Y-89442464D01*
X153071156Y-93857535D01*
X153051471Y-93924574D01*
X153034836Y-93945217D01*
X152981849Y-93998203D01*
X152920526Y-94031687D01*
X152850834Y-94026702D01*
X152794901Y-93984830D01*
X152772583Y-93934869D01*
X152770521Y-93924574D01*
X152702914Y-93586967D01*
X152700500Y-93562620D01*
X152700500Y-92835928D01*
X152675502Y-92710261D01*
X152675501Y-92710260D01*
X152675501Y-92710256D01*
X152626465Y-92591873D01*
X152626464Y-92591872D01*
X152626461Y-92591866D01*
X152555277Y-92485332D01*
X152511519Y-92441574D01*
X152464669Y-92394724D01*
X152175312Y-92105367D01*
X152159801Y-92086443D01*
X152013678Y-91867139D01*
X152013678Y-91867138D01*
X151983808Y-91822310D01*
X151956949Y-91782000D01*
X151954768Y-91778754D01*
X151954765Y-91778751D01*
X151954764Y-91778749D01*
X151951966Y-91775180D01*
X151952224Y-91774976D01*
X151943477Y-91763458D01*
X151890477Y-91679110D01*
X151770890Y-91559523D01*
X151770884Y-91559518D01*
X151627697Y-91469547D01*
X151627694Y-91469545D01*
X151468056Y-91413685D01*
X151300003Y-91394751D01*
X151299997Y-91394751D01*
X151131943Y-91413685D01*
X150972305Y-91469545D01*
X150972302Y-91469547D01*
X150829115Y-91559518D01*
X150829109Y-91559523D01*
X150709523Y-91679109D01*
X150709518Y-91679115D01*
X150619547Y-91822302D01*
X150619545Y-91822305D01*
X150563685Y-91981943D01*
X150544751Y-92149997D01*
X150544751Y-92150002D01*
X150563685Y-92318056D01*
X150619545Y-92477694D01*
X150619547Y-92477697D01*
X150709518Y-92620884D01*
X150709523Y-92620890D01*
X150829110Y-92740477D01*
X150857948Y-92758597D01*
X150916271Y-92795244D01*
X150928394Y-92804380D01*
X150928503Y-92804240D01*
X150932005Y-92806953D01*
X151050665Y-92886017D01*
X151050669Y-92886020D01*
X151236444Y-93009803D01*
X151255368Y-93025313D01*
X151363181Y-93133126D01*
X151396666Y-93194449D01*
X151399500Y-93220807D01*
X151399500Y-93562618D01*
X151397086Y-93586967D01*
X151325440Y-93944732D01*
X151320897Y-93961334D01*
X151313687Y-93981940D01*
X151313685Y-93981946D01*
X151299767Y-94105479D01*
X151272700Y-94169893D01*
X151215106Y-94209448D01*
X151145269Y-94211585D01*
X151088866Y-94179276D01*
X148868094Y-91958504D01*
X148838775Y-91911897D01*
X148831754Y-91891899D01*
X148395101Y-90648095D01*
X148392328Y-90639121D01*
X148388903Y-90626337D01*
X148385659Y-90619380D01*
X148381597Y-90609600D01*
X148376721Y-90596282D01*
X148376479Y-90595648D01*
X148348095Y-90534005D01*
X148344768Y-90528410D01*
X148344996Y-90528273D01*
X148336720Y-90514431D01*
X148289035Y-90412171D01*
X148289034Y-90412169D01*
X148153496Y-90218600D01*
X148133495Y-90198599D01*
X148031567Y-90096671D01*
X147998084Y-90035351D01*
X148003068Y-89965659D01*
X148044939Y-89909725D01*
X148075915Y-89892810D01*
X148207331Y-89843796D01*
X148322546Y-89757546D01*
X148399249Y-89655083D01*
X148424212Y-89630124D01*
X148434619Y-89622335D01*
X148933149Y-89249213D01*
X148959985Y-89233934D01*
X149005495Y-89215084D01*
X149076288Y-89167782D01*
X149128416Y-89132952D01*
X149245978Y-89015388D01*
X149255837Y-89006533D01*
X149263751Y-89000156D01*
X149265013Y-88999062D01*
X149327496Y-88934295D01*
X149327495Y-88934295D01*
X149332504Y-88929104D01*
X149332543Y-88929141D01*
X149334739Y-88926627D01*
X150182952Y-88078416D01*
X150245148Y-87985331D01*
X150265084Y-87955495D01*
X150321658Y-87818913D01*
X150350500Y-87673918D01*
X150350500Y-82262229D01*
X150370185Y-82195190D01*
X150386813Y-82174553D01*
X150482227Y-82079139D01*
X150543546Y-82045657D01*
X150613238Y-82050641D01*
X150669172Y-82092512D01*
X150693589Y-82157976D01*
X150691523Y-82191013D01*
X150687574Y-82210867D01*
X150679500Y-82251459D01*
X150679500Y-83548541D01*
X150679500Y-83548543D01*
X150679499Y-83548543D01*
X150717947Y-83741829D01*
X150717950Y-83741839D01*
X150793364Y-83923907D01*
X150793371Y-83923920D01*
X150902860Y-84087781D01*
X150902863Y-84087785D01*
X151042214Y-84227136D01*
X151042218Y-84227139D01*
X151206079Y-84336628D01*
X151206092Y-84336635D01*
X151388160Y-84412049D01*
X151388165Y-84412051D01*
X151388169Y-84412051D01*
X151388170Y-84412052D01*
X151581456Y-84450500D01*
X151581459Y-84450500D01*
X151778543Y-84450500D01*
X151908582Y-84424632D01*
X151971835Y-84412051D01*
X152153914Y-84336632D01*
X152317782Y-84227139D01*
X152457139Y-84087782D01*
X152566632Y-83923914D01*
X152642051Y-83741835D01*
X152680500Y-83548541D01*
X152680500Y-83031333D01*
X152700185Y-82964294D01*
X152752989Y-82918539D01*
X152822147Y-82908595D01*
X152866501Y-82923947D01*
X152887859Y-82936278D01*
X152887860Y-82936278D01*
X152887865Y-82936281D01*
X153034234Y-82975500D01*
X153034236Y-82975500D01*
X153185764Y-82975500D01*
X153185766Y-82975500D01*
X153332135Y-82936281D01*
X153463365Y-82860515D01*
X153570515Y-82753365D01*
X153646281Y-82622135D01*
X153685500Y-82475766D01*
X153685500Y-82399997D01*
X154544751Y-82399997D01*
X154544751Y-82400002D01*
X154563685Y-82568056D01*
X154619545Y-82727694D01*
X154619547Y-82727697D01*
X154709518Y-82870884D01*
X154709523Y-82870890D01*
X154829109Y-82990476D01*
X154829115Y-82990481D01*
X154972302Y-83080452D01*
X154972305Y-83080454D01*
X154972309Y-83080455D01*
X154972310Y-83080456D01*
X155044913Y-83105860D01*
X155131943Y-83136314D01*
X155299997Y-83155249D01*
X155300000Y-83155249D01*
X155300003Y-83155249D01*
X155468052Y-83136314D01*
X155468052Y-83136313D01*
X155468059Y-83136313D01*
X155503523Y-83123903D01*
X155530425Y-83117745D01*
X155533660Y-83117377D01*
X155718563Y-83068916D01*
X155781435Y-83068916D01*
X155966367Y-83117385D01*
X155989416Y-83122970D01*
X155989399Y-83123037D01*
X156005841Y-83127181D01*
X156031939Y-83136313D01*
X156199997Y-83155249D01*
X156200000Y-83155249D01*
X156200003Y-83155249D01*
X156368056Y-83136314D01*
X156368059Y-83136313D01*
X156527690Y-83080456D01*
X156527692Y-83080454D01*
X156527694Y-83080454D01*
X156527697Y-83080452D01*
X156670884Y-82990481D01*
X156670885Y-82990480D01*
X156670890Y-82990477D01*
X156790477Y-82870890D01*
X156864322Y-82753367D01*
X156880452Y-82727697D01*
X156880454Y-82727694D01*
X156880454Y-82727692D01*
X156880456Y-82727690D01*
X156936313Y-82568059D01*
X156936313Y-82568058D01*
X156936314Y-82568056D01*
X156955249Y-82400002D01*
X156955249Y-82399997D01*
X156936314Y-82231943D01*
X156887525Y-82092512D01*
X156880456Y-82072310D01*
X156880455Y-82072309D01*
X156880454Y-82072305D01*
X156880452Y-82072302D01*
X156790481Y-81929115D01*
X156790476Y-81929109D01*
X156670890Y-81809523D01*
X156670884Y-81809518D01*
X156527697Y-81719547D01*
X156527694Y-81719545D01*
X156368056Y-81663685D01*
X156200003Y-81644751D01*
X156199997Y-81644751D01*
X156031945Y-81663685D01*
X156031935Y-81663688D01*
X155996485Y-81676092D01*
X155969591Y-81682251D01*
X155966333Y-81682622D01*
X155781435Y-81731081D01*
X155718562Y-81731081D01*
X155533670Y-81682624D01*
X155525643Y-81680679D01*
X155515443Y-81678207D01*
X155515439Y-81678206D01*
X155510587Y-81677031D01*
X155510603Y-81676964D01*
X155494157Y-81672818D01*
X155468063Y-81663688D01*
X155468053Y-81663685D01*
X155300003Y-81644751D01*
X155299997Y-81644751D01*
X155131943Y-81663685D01*
X154972305Y-81719545D01*
X154972302Y-81719547D01*
X154829115Y-81809518D01*
X154829109Y-81809523D01*
X154709523Y-81929109D01*
X154709518Y-81929115D01*
X154619547Y-82072302D01*
X154619545Y-82072305D01*
X154563685Y-82231943D01*
X154544751Y-82399997D01*
X153685500Y-82399997D01*
X153685500Y-82324234D01*
X153646281Y-82177865D01*
X153570515Y-82046635D01*
X153463365Y-81939485D01*
X153392838Y-81898766D01*
X153332136Y-81863719D01*
X153258950Y-81844109D01*
X153185766Y-81824500D01*
X153034234Y-81824500D01*
X152887863Y-81863719D01*
X152796428Y-81916510D01*
X152756635Y-81939485D01*
X152756633Y-81939486D01*
X152749597Y-81943549D01*
X152748254Y-81941224D01*
X152695391Y-81961647D01*
X152626949Y-81947592D01*
X152576971Y-81898766D01*
X152570540Y-81885522D01*
X152566632Y-81876087D01*
X152566628Y-81876079D01*
X152457139Y-81712218D01*
X152457136Y-81712214D01*
X152317787Y-81572865D01*
X152314725Y-81570352D01*
X152313552Y-81568630D01*
X152313475Y-81568553D01*
X152313489Y-81568538D01*
X152275392Y-81512605D01*
X152273523Y-81442761D01*
X152309711Y-81382993D01*
X152372468Y-81352278D01*
X152393392Y-81350500D01*
X159606608Y-81350500D01*
X159673647Y-81370185D01*
G37*
%TD.AperFunction*%
%TA.AperFunction,Conductor*%
G36*
X148774087Y-98728142D02*
G01*
X148816191Y-98755781D01*
X149638181Y-99577771D01*
X149671666Y-99639094D01*
X149674500Y-99665452D01*
X149674500Y-100085548D01*
X149654815Y-100152587D01*
X149602011Y-100198342D01*
X149532853Y-100208286D01*
X149469297Y-100179261D01*
X149462819Y-100173229D01*
X148868094Y-99578504D01*
X148838775Y-99531897D01*
X148788200Y-99387834D01*
X148611509Y-98884533D01*
X148607877Y-98814761D01*
X148642544Y-98754098D01*
X148704505Y-98721808D01*
X148774087Y-98728142D01*
G37*
%TD.AperFunction*%
%TA.AperFunction,Conductor*%
G36*
X163344821Y-96167282D02*
G01*
X163400754Y-96209154D01*
X163425171Y-96274618D01*
X163418487Y-96324538D01*
X163261499Y-96771718D01*
X163261498Y-96771719D01*
X163191221Y-96971898D01*
X163161903Y-97018504D01*
X161437181Y-98743227D01*
X161375858Y-98776712D01*
X161306166Y-98771728D01*
X161250233Y-98729856D01*
X161225816Y-98664392D01*
X161225500Y-98655546D01*
X161225500Y-98235452D01*
X161245185Y-98168413D01*
X161261819Y-98147771D01*
X162229138Y-97180452D01*
X163213808Y-96195781D01*
X163275129Y-96162298D01*
X163344821Y-96167282D01*
G37*
%TD.AperFunction*%
%TA.AperFunction,Conductor*%
G36*
X148774087Y-96188142D02*
G01*
X148816191Y-96215781D01*
X150038181Y-97437771D01*
X150071666Y-97499094D01*
X150074500Y-97525452D01*
X150074500Y-97945548D01*
X150054815Y-98012587D01*
X150002011Y-98058342D01*
X149932853Y-98068286D01*
X149869297Y-98039261D01*
X149862819Y-98033229D01*
X148868094Y-97038504D01*
X148838775Y-96991897D01*
X148831754Y-96971898D01*
X148611509Y-96344533D01*
X148607877Y-96274761D01*
X148642544Y-96214098D01*
X148704505Y-96181808D01*
X148774087Y-96188142D01*
G37*
%TD.AperFunction*%
%TA.AperFunction,Conductor*%
G36*
X163344821Y-93627281D02*
G01*
X163400754Y-93669153D01*
X163425171Y-93734617D01*
X163418487Y-93784537D01*
X163261499Y-94231718D01*
X163261498Y-94231719D01*
X163191221Y-94431898D01*
X163161903Y-94478504D01*
X160937181Y-96703227D01*
X160875858Y-96736712D01*
X160806166Y-96731728D01*
X160750233Y-96689856D01*
X160725816Y-96624392D01*
X160725500Y-96615546D01*
X160725500Y-96195451D01*
X160745185Y-96128412D01*
X160761814Y-96107775D01*
X163213808Y-93655780D01*
X163275129Y-93622297D01*
X163344821Y-93627281D01*
G37*
%TD.AperFunction*%
%TA.AperFunction,Conductor*%
G36*
X148774088Y-93648143D02*
G01*
X148816192Y-93675782D01*
X150438181Y-95297771D01*
X150471666Y-95359094D01*
X150474500Y-95385452D01*
X150474500Y-95805547D01*
X150454815Y-95872586D01*
X150402011Y-95918341D01*
X150332853Y-95928285D01*
X150269297Y-95899260D01*
X150262819Y-95893228D01*
X148868094Y-94498503D01*
X148838775Y-94451896D01*
X148838252Y-94450407D01*
X148611510Y-93804536D01*
X148607878Y-93734762D01*
X148642545Y-93674099D01*
X148704506Y-93641809D01*
X148774088Y-93648143D01*
G37*
%TD.AperFunction*%
%TA.AperFunction,Conductor*%
G36*
X151063204Y-77320184D02*
G01*
X151108959Y-77372988D01*
X151118903Y-77442146D01*
X151089878Y-77505702D01*
X151065055Y-77527602D01*
X151042215Y-77542862D01*
X150902863Y-77682214D01*
X150902860Y-77682218D01*
X150793371Y-77846079D01*
X150793364Y-77846092D01*
X150717950Y-78028160D01*
X150717947Y-78028170D01*
X150679500Y-78221456D01*
X150679500Y-78221459D01*
X150679500Y-79218541D01*
X150679500Y-79218543D01*
X150679499Y-79218543D01*
X150717947Y-79411829D01*
X150717950Y-79411839D01*
X150793364Y-79593907D01*
X150793371Y-79593920D01*
X150844844Y-79670954D01*
X150865722Y-79737632D01*
X150847238Y-79805012D01*
X150795259Y-79851702D01*
X150765935Y-79861462D01*
X150681092Y-79878339D01*
X150681083Y-79878342D01*
X150601081Y-79911479D01*
X150601082Y-79911480D01*
X150544505Y-79934915D01*
X150462372Y-79989795D01*
X150421585Y-80017047D01*
X150421581Y-80017050D01*
X149312181Y-81126451D01*
X149250858Y-81159936D01*
X149181166Y-81154952D01*
X149125233Y-81113080D01*
X149100816Y-81047616D01*
X149100500Y-81038770D01*
X149100500Y-77509754D01*
X149102025Y-77490369D01*
X149107192Y-77457743D01*
X149119177Y-77420857D01*
X149129687Y-77400230D01*
X149152486Y-77368851D01*
X149168851Y-77352486D01*
X149200230Y-77329687D01*
X149220857Y-77319177D01*
X149257744Y-77307192D01*
X149290376Y-77302024D01*
X149309762Y-77300499D01*
X149347595Y-77300499D01*
X150996165Y-77300499D01*
X151063204Y-77320184D01*
G37*
%TD.AperFunction*%
%TA.AperFunction,Conductor*%
G36*
X162709630Y-77302024D02*
G01*
X162742255Y-77307191D01*
X162779141Y-77319175D01*
X162799767Y-77329684D01*
X162831151Y-77352487D01*
X162847511Y-77368847D01*
X162870315Y-77400233D01*
X162880821Y-77420852D01*
X162892809Y-77457747D01*
X162897973Y-77490355D01*
X162899500Y-77509748D01*
X162899500Y-80938770D01*
X162879815Y-81005809D01*
X162827011Y-81051564D01*
X162757853Y-81061508D01*
X162694297Y-81032483D01*
X162687823Y-81026456D01*
X162678416Y-81017049D01*
X162600137Y-80938770D01*
X161678421Y-80017052D01*
X161678414Y-80017046D01*
X161604729Y-79967812D01*
X161604729Y-79967813D01*
X161555491Y-79934913D01*
X161418917Y-79878343D01*
X161418907Y-79878340D01*
X161273920Y-79849500D01*
X161273918Y-79849500D01*
X161267843Y-79849500D01*
X161200804Y-79829815D01*
X161155049Y-79777011D01*
X161145105Y-79707853D01*
X161164741Y-79656609D01*
X161206628Y-79593920D01*
X161206628Y-79593919D01*
X161206632Y-79593914D01*
X161282051Y-79411835D01*
X161320500Y-79218541D01*
X161320500Y-78221459D01*
X161320500Y-78221456D01*
X161282052Y-78028170D01*
X161282051Y-78028169D01*
X161282051Y-78028165D01*
X161282049Y-78028160D01*
X161206635Y-77846092D01*
X161206628Y-77846079D01*
X161097139Y-77682218D01*
X161097136Y-77682214D01*
X160957784Y-77542862D01*
X160934945Y-77527602D01*
X160890139Y-77473990D01*
X160881432Y-77404665D01*
X160911586Y-77341637D01*
X160971029Y-77304917D01*
X161003835Y-77300499D01*
X162652405Y-77300499D01*
X162690244Y-77300499D01*
X162709630Y-77302024D01*
G37*
%TD.AperFunction*%
%TA.AperFunction,Conductor*%
G36*
X159703204Y-77320184D02*
G01*
X159748959Y-77372988D01*
X159758903Y-77442146D01*
X159729878Y-77505702D01*
X159705055Y-77527602D01*
X159682215Y-77542862D01*
X159542863Y-77682214D01*
X159542860Y-77682218D01*
X159433371Y-77846079D01*
X159433364Y-77846092D01*
X159357950Y-78028160D01*
X159357947Y-78028170D01*
X159319500Y-78221456D01*
X159319500Y-78221459D01*
X159319500Y-79218541D01*
X159319500Y-79218543D01*
X159319499Y-79218543D01*
X159357947Y-79411829D01*
X159357950Y-79411839D01*
X159433364Y-79593907D01*
X159433371Y-79593920D01*
X159475259Y-79656609D01*
X159496137Y-79723286D01*
X159477653Y-79790667D01*
X159425674Y-79837357D01*
X159372157Y-79849500D01*
X152627843Y-79849500D01*
X152560804Y-79829815D01*
X152515049Y-79777011D01*
X152505105Y-79707853D01*
X152524741Y-79656609D01*
X152566628Y-79593920D01*
X152566628Y-79593919D01*
X152566632Y-79593914D01*
X152642051Y-79411835D01*
X152680500Y-79218541D01*
X152680500Y-78221459D01*
X152680500Y-78221456D01*
X152642052Y-78028170D01*
X152642051Y-78028169D01*
X152642051Y-78028165D01*
X152642049Y-78028160D01*
X152566635Y-77846092D01*
X152566628Y-77846079D01*
X152457139Y-77682218D01*
X152457136Y-77682214D01*
X152317784Y-77542862D01*
X152294945Y-77527602D01*
X152250139Y-77473990D01*
X152241432Y-77404665D01*
X152271586Y-77341637D01*
X152331029Y-77304917D01*
X152363835Y-77300499D01*
X159636165Y-77300499D01*
X159703204Y-77320184D01*
G37*
%TD.AperFunction*%
%TD*%
%TA.AperFunction,Conductor*%
%TO.N,CRESET_B*%
G36*
X153050403Y-118253772D02*
G01*
X153054775Y-118261587D01*
X153054855Y-118262923D01*
X153055518Y-118498140D01*
X153054611Y-118502690D01*
X152963924Y-118719356D01*
X152957568Y-118725665D01*
X152948614Y-118725632D01*
X152948028Y-118725367D01*
X152741219Y-118624854D01*
X152505991Y-118510528D01*
X152500048Y-118503829D01*
X152500582Y-118494891D01*
X152502829Y-118491735D01*
X152700477Y-118294087D01*
X152707377Y-118290742D01*
X153041787Y-118251336D01*
X153050403Y-118253772D01*
G37*
%TD.AperFunction*%
%TD*%
%TA.AperFunction,Conductor*%
%TO.N,CRESET_B*%
G36*
X153231061Y-88307994D02*
G01*
X153236279Y-88312298D01*
X153293007Y-88397435D01*
X153454301Y-88639507D01*
X153456036Y-88648292D01*
X153452837Y-88654268D01*
X153254268Y-88852837D01*
X153245995Y-88856264D01*
X153239507Y-88854301D01*
X153036067Y-88718748D01*
X152912298Y-88636280D01*
X152907315Y-88628841D01*
X152907960Y-88622109D01*
X152997436Y-88403822D01*
X153003743Y-88397468D01*
X153222109Y-88307961D01*
X153231061Y-88307994D01*
G37*
%TD.AperFunction*%
%TD*%
%TA.AperFunction,Conductor*%
%TO.N,SS*%
G36*
X155466994Y-118408618D02*
G01*
X155686012Y-118498394D01*
X155689880Y-118500979D01*
X155855500Y-118667930D01*
X155858894Y-118676217D01*
X155855434Y-118684476D01*
X155854894Y-118684979D01*
X155505296Y-118990536D01*
X155496811Y-118993401D01*
X155489323Y-118990000D01*
X155293553Y-118794230D01*
X155290126Y-118785957D01*
X155293553Y-118777684D01*
X155332826Y-118738411D01*
X155390422Y-118625373D01*
X155408301Y-118512482D01*
X155409184Y-118509526D01*
X155451889Y-118414642D01*
X155458409Y-118408505D01*
X155466994Y-118408618D01*
G37*
%TD.AperFunction*%
%TD*%
%TA.AperFunction,Conductor*%
%TO.N,SS*%
G36*
X154031061Y-88307994D02*
G01*
X154036279Y-88312298D01*
X154093007Y-88397435D01*
X154254301Y-88639507D01*
X154256036Y-88648292D01*
X154252837Y-88654268D01*
X154054268Y-88852837D01*
X154045995Y-88856264D01*
X154039507Y-88854301D01*
X153836067Y-88718748D01*
X153712298Y-88636280D01*
X153707315Y-88628841D01*
X153707960Y-88622109D01*
X153797436Y-88403822D01*
X153803743Y-88397468D01*
X154022109Y-88307961D01*
X154031061Y-88307994D01*
G37*
%TD.AperFunction*%
%TD*%
%TA.AperFunction,Conductor*%
%TO.N,IOL_5B*%
G36*
X151290868Y-116172825D02*
G01*
X151295756Y-116178408D01*
X151386611Y-116395483D01*
X151386644Y-116404437D01*
X151386611Y-116404517D01*
X151295756Y-116621591D01*
X151289400Y-116627900D01*
X151281997Y-116628392D01*
X150896236Y-116527289D01*
X150889102Y-116521876D01*
X150887502Y-116515971D01*
X150887502Y-116284028D01*
X150890929Y-116275755D01*
X150896233Y-116272711D01*
X151281997Y-116171607D01*
X151290868Y-116172825D01*
G37*
%TD.AperFunction*%
%TD*%
%TA.AperFunction,Conductor*%
%TO.N,IOL_4B_GBIN7*%
G36*
X151290868Y-115472826D02*
G01*
X151295756Y-115478409D01*
X151386611Y-115695484D01*
X151386644Y-115704438D01*
X151386611Y-115704518D01*
X151295756Y-115921592D01*
X151289400Y-115927901D01*
X151281997Y-115928393D01*
X150896236Y-115827290D01*
X150889102Y-115821877D01*
X150887502Y-115815972D01*
X150887502Y-115584029D01*
X150890929Y-115575756D01*
X150896233Y-115572712D01*
X151281997Y-115471608D01*
X151290868Y-115472826D01*
G37*
%TD.AperFunction*%
%TD*%
%TA.AperFunction,Conductor*%
%TO.N,IOL_2A*%
G36*
X151290866Y-113472826D02*
G01*
X151295754Y-113478409D01*
X151386609Y-113695484D01*
X151386642Y-113704438D01*
X151386609Y-113704518D01*
X151295754Y-113921592D01*
X151289398Y-113927901D01*
X151281995Y-113928393D01*
X150896234Y-113827290D01*
X150889100Y-113821877D01*
X150887500Y-113815972D01*
X150887500Y-113584029D01*
X150890927Y-113575756D01*
X150896231Y-113572712D01*
X151281995Y-113471608D01*
X151290866Y-113472826D01*
G37*
%TD.AperFunction*%
%TD*%
%TA.AperFunction,Conductor*%
%TO.N,IOL_5A_GBIN6*%
G36*
X151290866Y-116972825D02*
G01*
X151295754Y-116978408D01*
X151386609Y-117195483D01*
X151386642Y-117204437D01*
X151386609Y-117204517D01*
X151295754Y-117421591D01*
X151289398Y-117427900D01*
X151281995Y-117428392D01*
X150896234Y-117327289D01*
X150889100Y-117321876D01*
X150887500Y-117315971D01*
X150887500Y-117084028D01*
X150890927Y-117075755D01*
X150896231Y-117072711D01*
X151281995Y-116971607D01*
X151290866Y-116972825D01*
G37*
%TD.AperFunction*%
%TD*%
%TA.AperFunction,Conductor*%
%TO.N,MOSI*%
G36*
X158842810Y-92593008D02*
G01*
X158848274Y-92597697D01*
X159053534Y-92933438D01*
X159054926Y-92942283D01*
X159051825Y-92947813D01*
X158853196Y-93146442D01*
X158844923Y-93149869D01*
X158838149Y-93147708D01*
X158457958Y-92877713D01*
X158456459Y-92876447D01*
X158446719Y-92866707D01*
X158443292Y-92858434D01*
X158446684Y-92850198D01*
X158609731Y-92685842D01*
X158613592Y-92683261D01*
X158833857Y-92592975D01*
X158842810Y-92593008D01*
G37*
%TD.AperFunction*%
%TD*%
%TA.AperFunction,Conductor*%
%TO.N,SCK*%
G36*
X158437114Y-93100427D02*
G01*
X158442332Y-93104731D01*
X158499060Y-93189868D01*
X158660354Y-93431940D01*
X158662089Y-93440725D01*
X158658890Y-93446701D01*
X158460321Y-93645270D01*
X158452048Y-93648697D01*
X158445560Y-93646734D01*
X158242120Y-93511181D01*
X158118351Y-93428713D01*
X158113368Y-93421274D01*
X158114013Y-93414542D01*
X158203489Y-93196255D01*
X158209796Y-93189901D01*
X158428162Y-93100394D01*
X158437114Y-93100427D01*
G37*
%TD.AperFunction*%
%TD*%
%TA.AperFunction,Conductor*%
%TO.N,MOSI*%
G36*
X159743546Y-100986269D02*
G01*
X159746973Y-100994542D01*
X159746670Y-100997187D01*
X159634079Y-101482274D01*
X159628870Y-101489558D01*
X159620037Y-101491026D01*
X159618245Y-101490455D01*
X159402190Y-101401897D01*
X159398331Y-101399321D01*
X159231213Y-101231258D01*
X159227809Y-101222975D01*
X159230997Y-101214981D01*
X159446537Y-100986513D01*
X159454706Y-100982847D01*
X159455047Y-100982842D01*
X159735273Y-100982842D01*
X159743546Y-100986269D01*
G37*
%TD.AperFunction*%
%TD*%
%TA.AperFunction,Conductor*%
%TO.N,MISO*%
G36*
X158031061Y-93607994D02*
G01*
X158036279Y-93612298D01*
X158093007Y-93697435D01*
X158254301Y-93939507D01*
X158256036Y-93948292D01*
X158252837Y-93954268D01*
X158054268Y-94152837D01*
X158045995Y-94156264D01*
X158039507Y-94154301D01*
X157836067Y-94018748D01*
X157712298Y-93936280D01*
X157707315Y-93928841D01*
X157707960Y-93922109D01*
X157797436Y-93703822D01*
X157803743Y-93697468D01*
X158022109Y-93607961D01*
X158031061Y-93607994D01*
G37*
%TD.AperFunction*%
%TD*%
%TA.AperFunction,Conductor*%
%TO.N,SS*%
G36*
X155689488Y-118058759D02*
G01*
X155690972Y-118060575D01*
X155910667Y-118392539D01*
X155912375Y-118401329D01*
X155907367Y-118408753D01*
X155905427Y-118409789D01*
X155689690Y-118500084D01*
X155685126Y-118500991D01*
X155447917Y-118500042D01*
X155439658Y-118496582D01*
X155436337Y-118489649D01*
X155388965Y-118068339D01*
X155391446Y-118059735D01*
X155399285Y-118055405D01*
X155400592Y-118055332D01*
X155681215Y-118055332D01*
X155689488Y-118058759D01*
G37*
%TD.AperFunction*%
%TD*%
%TA.AperFunction,Conductor*%
%TO.N,SS*%
G36*
X156577890Y-104807960D02*
G01*
X156796175Y-104897435D01*
X156802531Y-104903744D01*
X156802564Y-104903824D01*
X156892038Y-105122107D01*
X156892005Y-105131061D01*
X156887700Y-105136281D01*
X156560492Y-105354301D01*
X156551707Y-105356036D01*
X156545731Y-105352837D01*
X156347162Y-105154268D01*
X156343735Y-105145995D01*
X156345698Y-105139507D01*
X156563720Y-104812297D01*
X156571158Y-104807315D01*
X156577890Y-104807960D01*
G37*
%TD.AperFunction*%
%TD*%
%TA.AperFunction,Conductor*%
%TO.N,MISO*%
G36*
X158346573Y-100225350D02*
G01*
X158350000Y-100233623D01*
X158350000Y-100688346D01*
X158346573Y-100696619D01*
X158338347Y-100700046D01*
X158102374Y-100700990D01*
X158097810Y-100700083D01*
X157880327Y-100609057D01*
X157874018Y-100602701D01*
X157874051Y-100593747D01*
X157874255Y-100593286D01*
X158046832Y-100228618D01*
X158053469Y-100222606D01*
X158057408Y-100221923D01*
X158338300Y-100221923D01*
X158346573Y-100225350D01*
G37*
%TD.AperFunction*%
%TD*%
%TA.AperFunction,Conductor*%
%TO.N,SCK*%
G36*
X159046573Y-100425350D02*
G01*
X159050000Y-100433623D01*
X159050000Y-100888346D01*
X159046573Y-100896619D01*
X159038347Y-100900046D01*
X158802374Y-100900990D01*
X158797810Y-100900083D01*
X158580327Y-100809057D01*
X158574018Y-100802701D01*
X158574051Y-100793747D01*
X158574255Y-100793286D01*
X158746832Y-100428618D01*
X158753469Y-100422606D01*
X158757408Y-100421923D01*
X159038300Y-100421923D01*
X159046573Y-100425350D01*
G37*
%TD.AperFunction*%
%TD*%
%TA.AperFunction,Conductor*%
%TO.N,MISO*%
G36*
X158003722Y-102872645D02*
G01*
X158008027Y-102877865D01*
X158099109Y-103095483D01*
X158099142Y-103104438D01*
X158099109Y-103104517D01*
X158008027Y-103322134D01*
X158001671Y-103328443D01*
X157994937Y-103329089D01*
X157609403Y-103251883D01*
X157601963Y-103246899D01*
X157600000Y-103240411D01*
X157600000Y-102959588D01*
X157603427Y-102951315D01*
X157609400Y-102948117D01*
X157994939Y-102870910D01*
X158003722Y-102872645D01*
G37*
%TD.AperFunction*%
%TD*%
%TA.AperFunction,Conductor*%
%TO.N,MISO*%
G36*
X155050976Y-118028610D02*
G01*
X155053210Y-118031736D01*
X155230285Y-118393250D01*
X155230847Y-118402188D01*
X155224925Y-118408904D01*
X155224295Y-118409190D01*
X155006965Y-118500152D01*
X155002401Y-118501059D01*
X154771095Y-118500133D01*
X154762836Y-118496673D01*
X154759586Y-118490263D01*
X154754477Y-118458006D01*
X154754335Y-118456314D01*
X154750119Y-118037001D01*
X154753462Y-118028693D01*
X154761700Y-118025184D01*
X154761818Y-118025183D01*
X155042703Y-118025183D01*
X155050976Y-118028610D01*
G37*
%TD.AperFunction*%
%TD*%
%TA.AperFunction,Conductor*%
%TO.N,MOSI*%
G36*
X159308840Y-101179839D02*
G01*
X159309057Y-101180327D01*
X159400083Y-101397810D01*
X159400990Y-101402374D01*
X159400047Y-101638347D01*
X159396587Y-101646606D01*
X159388347Y-101650000D01*
X158933623Y-101650000D01*
X158925350Y-101646573D01*
X158921923Y-101638300D01*
X158921923Y-101357407D01*
X158925350Y-101349134D01*
X158928615Y-101346832D01*
X159293260Y-101174267D01*
X159302203Y-101173827D01*
X159308840Y-101179839D01*
G37*
%TD.AperFunction*%
%TD*%
%TA.AperFunction,Conductor*%
%TO.N,MOSI*%
G36*
X154503479Y-117998115D02*
G01*
X154506678Y-118004091D01*
X154583884Y-118389625D01*
X154582149Y-118398410D01*
X154576929Y-118402715D01*
X154359312Y-118493797D01*
X154350358Y-118493830D01*
X154350278Y-118493797D01*
X154132660Y-118402715D01*
X154126351Y-118396360D01*
X154125705Y-118389627D01*
X154202912Y-118004091D01*
X154207896Y-117996651D01*
X154214384Y-117994688D01*
X154495206Y-117994688D01*
X154503479Y-117998115D01*
G37*
%TD.AperFunction*%
%TD*%
%TA.AperFunction,Conductor*%
%TO.N,IOT_50_GBIN1*%
G36*
X151228391Y-109686079D02*
G01*
X151239423Y-109696612D01*
X151468140Y-109914977D01*
X151471758Y-109923168D01*
X151468523Y-109931518D01*
X151468357Y-109931689D01*
X151303450Y-110097530D01*
X151295187Y-110100980D01*
X151295107Y-110100980D01*
X151059743Y-110100038D01*
X151051484Y-110096578D01*
X151048275Y-110090408D01*
X151018217Y-109923223D01*
X150977476Y-109696612D01*
X150979384Y-109687863D01*
X150986921Y-109683027D01*
X150988991Y-109682842D01*
X151220313Y-109682842D01*
X151228391Y-109686079D01*
G37*
%TD.AperFunction*%
%TD*%
%TA.AperFunction,Conductor*%
%TO.N,IOT_53*%
G36*
X150999997Y-110728190D02*
G01*
X151344266Y-110929475D01*
X151349679Y-110936609D01*
X151349187Y-110944012D01*
X151259936Y-111161752D01*
X151253627Y-111168108D01*
X151253547Y-111168141D01*
X151035807Y-111257392D01*
X151026853Y-111257359D01*
X151021270Y-111252471D01*
X150819985Y-110908203D01*
X150818768Y-110899335D01*
X150821811Y-110894030D01*
X150985824Y-110730017D01*
X150994096Y-110726591D01*
X150999997Y-110728190D01*
G37*
%TD.AperFunction*%
%TD*%
%TA.AperFunction,Conductor*%
%TO.N,IOT_52*%
G36*
X150442625Y-111062613D02*
G01*
X150786894Y-111263898D01*
X150792307Y-111271032D01*
X150791815Y-111278435D01*
X150702564Y-111496175D01*
X150696255Y-111502531D01*
X150696175Y-111502564D01*
X150478435Y-111591815D01*
X150469481Y-111591782D01*
X150463898Y-111586894D01*
X150262613Y-111242626D01*
X150261396Y-111233758D01*
X150264439Y-111228453D01*
X150428452Y-111064440D01*
X150436724Y-111061014D01*
X150442625Y-111062613D01*
G37*
%TD.AperFunction*%
%TD*%
%TA.AperFunction,Conductor*%
%TO.N,/CHIP_PU*%
G36*
X154531061Y-95907994D02*
G01*
X154536279Y-95912298D01*
X154593007Y-95997435D01*
X154754301Y-96239507D01*
X154756036Y-96248292D01*
X154752837Y-96254268D01*
X154554268Y-96452837D01*
X154545995Y-96456264D01*
X154539507Y-96454301D01*
X154336067Y-96318748D01*
X154212298Y-96236280D01*
X154207315Y-96228841D01*
X154207960Y-96222109D01*
X154297436Y-96003822D01*
X154303743Y-95997468D01*
X154522109Y-95907961D01*
X154531061Y-95907994D01*
G37*
%TD.AperFunction*%
%TD*%
%TA.AperFunction,Conductor*%
%TO.N,/CHIP_PU*%
G36*
X156003722Y-96272645D02*
G01*
X156008026Y-96277864D01*
X156011044Y-96285074D01*
X156099109Y-96495483D01*
X156099142Y-96504438D01*
X156099109Y-96504517D01*
X156008027Y-96722134D01*
X156001671Y-96728443D01*
X155994937Y-96729089D01*
X155609403Y-96651883D01*
X155601963Y-96646899D01*
X155600000Y-96640411D01*
X155600000Y-96359588D01*
X155603427Y-96351315D01*
X155609400Y-96348117D01*
X155906207Y-96288679D01*
X155906626Y-96288604D01*
X155925304Y-96285646D01*
X155926430Y-96285072D01*
X155929437Y-96284027D01*
X155994939Y-96270910D01*
X156003722Y-96272645D01*
G37*
%TD.AperFunction*%
%TD*%
%TA.AperFunction,Conductor*%
%TO.N,+3V3*%
G36*
X151531061Y-92057994D02*
G01*
X151536279Y-92062298D01*
X151593007Y-92147435D01*
X151754301Y-92389507D01*
X151756036Y-92398292D01*
X151752837Y-92404268D01*
X151554268Y-92602837D01*
X151545995Y-92606264D01*
X151539507Y-92604301D01*
X151336067Y-92468748D01*
X151212298Y-92386280D01*
X151207315Y-92378841D01*
X151207960Y-92372109D01*
X151297436Y-92153822D01*
X151303743Y-92147468D01*
X151522109Y-92057961D01*
X151531061Y-92057994D01*
G37*
%TD.AperFunction*%
%TD*%
%TA.AperFunction,Conductor*%
%TO.N,+3V3*%
G36*
X152198684Y-93653427D02*
G01*
X152201883Y-93659403D01*
X152279089Y-94044937D01*
X152277354Y-94053722D01*
X152272134Y-94058027D01*
X152054517Y-94149109D01*
X152045563Y-94149142D01*
X152045483Y-94149109D01*
X151827865Y-94058027D01*
X151821556Y-94051672D01*
X151820910Y-94044939D01*
X151898117Y-93659403D01*
X151903101Y-93651963D01*
X151909589Y-93650000D01*
X152190411Y-93650000D01*
X152198684Y-93653427D01*
G37*
%TD.AperFunction*%
%TD*%
%TA.AperFunction,Conductor*%
%TO.N,IOL_2B*%
G36*
X151130127Y-112362614D02*
G01*
X151474396Y-112563899D01*
X151479809Y-112571033D01*
X151479317Y-112578436D01*
X151390066Y-112796176D01*
X151383757Y-112802532D01*
X151383677Y-112802565D01*
X151165937Y-112891816D01*
X151156983Y-112891783D01*
X151151400Y-112886895D01*
X150950115Y-112542627D01*
X150948898Y-112533759D01*
X150951941Y-112528454D01*
X151115954Y-112364441D01*
X151124226Y-112361015D01*
X151130127Y-112362614D01*
G37*
%TD.AperFunction*%
%TD*%
%TA.AperFunction,Conductor*%
%TO.N,IOT_47*%
G36*
X158179746Y-105959375D02*
G01*
X158343726Y-106123355D01*
X158347153Y-106131628D01*
X158346715Y-106134801D01*
X158234527Y-106533041D01*
X158228985Y-106540075D01*
X158220092Y-106541130D01*
X158218828Y-106540694D01*
X158001489Y-106451607D01*
X157997620Y-106449021D01*
X157831764Y-106281833D01*
X157828370Y-106273546D01*
X157831830Y-106265287D01*
X157832118Y-106265010D01*
X158163537Y-105959050D01*
X158171940Y-105955957D01*
X158179746Y-105959375D01*
G37*
%TD.AperFunction*%
%TD*%
%TA.AperFunction,Conductor*%
%TO.N,IOT_45*%
G36*
X159021548Y-106014441D02*
G01*
X159185558Y-106178451D01*
X159188985Y-106186724D01*
X159187385Y-106192629D01*
X158986101Y-106536894D01*
X158978967Y-106542307D01*
X158971564Y-106541815D01*
X158753824Y-106452564D01*
X158747468Y-106446255D01*
X158747435Y-106446175D01*
X158658184Y-106228435D01*
X158658217Y-106219481D01*
X158663103Y-106213899D01*
X159007373Y-106012613D01*
X159016241Y-106011396D01*
X159021548Y-106014441D01*
G37*
%TD.AperFunction*%
%TD*%
%TA.AperFunction,Conductor*%
%TO.N,IOR_38*%
G36*
X159078676Y-114463903D02*
G01*
X159085809Y-114469315D01*
X159087409Y-114475220D01*
X159087409Y-114707163D01*
X159083982Y-114715436D01*
X159078675Y-114718481D01*
X158692913Y-114819584D01*
X158684042Y-114818366D01*
X158679154Y-114812783D01*
X158588298Y-114595707D01*
X158588266Y-114586755D01*
X158679155Y-114369598D01*
X158685510Y-114363291D01*
X158692913Y-114362799D01*
X159078676Y-114463903D01*
G37*
%TD.AperFunction*%
%TD*%
%TA.AperFunction,Conductor*%
%TO.N,IOR_39*%
G36*
X159078769Y-113772711D02*
G01*
X159085902Y-113778123D01*
X159087502Y-113784028D01*
X159087502Y-114015971D01*
X159084075Y-114024244D01*
X159078768Y-114027289D01*
X158693006Y-114128392D01*
X158684135Y-114127174D01*
X158679247Y-114121591D01*
X158588391Y-113904515D01*
X158588359Y-113895563D01*
X158679248Y-113678406D01*
X158685603Y-113672099D01*
X158693006Y-113671607D01*
X159078769Y-113772711D01*
G37*
%TD.AperFunction*%
%TD*%
%TA.AperFunction,Conductor*%
%TO.N,IOR_35_GBIN3*%
G36*
X159037363Y-115772711D02*
G01*
X159044496Y-115778123D01*
X159046096Y-115784028D01*
X159046096Y-116015971D01*
X159042669Y-116024244D01*
X159037362Y-116027289D01*
X158651600Y-116128392D01*
X158642729Y-116127174D01*
X158637841Y-116121591D01*
X158546985Y-115904515D01*
X158546953Y-115895563D01*
X158637842Y-115678406D01*
X158644197Y-115672099D01*
X158651600Y-115671607D01*
X159037363Y-115772711D01*
G37*
%TD.AperFunction*%
%TD*%
%TA.AperFunction,Conductor*%
%TO.N,IOR_36_GBIN2*%
G36*
X159085628Y-115113869D02*
G01*
X159092761Y-115119281D01*
X159094361Y-115125186D01*
X159094361Y-115357129D01*
X159090934Y-115365402D01*
X159085627Y-115368447D01*
X158699865Y-115469550D01*
X158690994Y-115468332D01*
X158686106Y-115462749D01*
X158595250Y-115245673D01*
X158595218Y-115236721D01*
X158686107Y-115019564D01*
X158692462Y-115013257D01*
X158699865Y-115012765D01*
X159085628Y-115113869D01*
G37*
%TD.AperFunction*%
%TD*%
%TA.AperFunction,Conductor*%
%TO.N,IOR_34*%
G36*
X158600916Y-116302055D02*
G01*
X159067626Y-116373480D01*
X159075285Y-116378119D01*
X159077556Y-116385045D01*
X159077556Y-116617045D01*
X159074129Y-116625318D01*
X159070159Y-116627925D01*
X158693840Y-116776754D01*
X158684886Y-116776610D01*
X158678744Y-116770391D01*
X158619116Y-116627925D01*
X158587417Y-116552191D01*
X158586511Y-116547630D01*
X158587447Y-116313572D01*
X158590907Y-116305315D01*
X158599194Y-116301921D01*
X158600916Y-116302055D01*
G37*
%TD.AperFunction*%
%TD*%
%TA.AperFunction,Conductor*%
%TO.N,IOL_4A*%
G36*
X151290866Y-114822823D02*
G01*
X151295754Y-114828406D01*
X151386609Y-115045481D01*
X151386642Y-115054435D01*
X151386609Y-115054515D01*
X151295754Y-115271589D01*
X151289398Y-115277898D01*
X151281995Y-115278390D01*
X150896234Y-115177287D01*
X150889100Y-115171874D01*
X150887500Y-115165969D01*
X150887500Y-114934026D01*
X150890927Y-114925753D01*
X150896231Y-114922709D01*
X151281995Y-114821605D01*
X151290866Y-114822823D01*
G37*
%TD.AperFunction*%
%TD*%
%TA.AperFunction,Conductor*%
%TO.N,USB_D+*%
G36*
X155791267Y-82272711D02*
G01*
X155798400Y-82278123D01*
X155800000Y-82284028D01*
X155800000Y-82515971D01*
X155796573Y-82524244D01*
X155791266Y-82527289D01*
X155405504Y-82628392D01*
X155396633Y-82627174D01*
X155391745Y-82621591D01*
X155300889Y-82404515D01*
X155300857Y-82395563D01*
X155391746Y-82178406D01*
X155398101Y-82172099D01*
X155405504Y-82171607D01*
X155791267Y-82272711D01*
G37*
%TD.AperFunction*%
%TD*%
%TA.AperFunction,Conductor*%
%TO.N,USB_D+*%
G36*
X156103366Y-82172825D02*
G01*
X156108254Y-82178408D01*
X156199109Y-82395483D01*
X156199142Y-82404437D01*
X156199109Y-82404517D01*
X156108254Y-82621591D01*
X156101898Y-82627900D01*
X156094495Y-82628392D01*
X155708734Y-82527289D01*
X155701600Y-82521876D01*
X155700000Y-82515971D01*
X155700000Y-82284028D01*
X155703427Y-82275755D01*
X155708731Y-82272711D01*
X156094495Y-82171607D01*
X156103366Y-82172825D01*
G37*
%TD.AperFunction*%
%TD*%
%TA.AperFunction,Conductor*%
%TO.N,SCK*%
G36*
X156878101Y-118348118D02*
G01*
X156885539Y-118353101D01*
X156887502Y-118359589D01*
X156887502Y-118640412D01*
X156884075Y-118648685D01*
X156878099Y-118651884D01*
X156492564Y-118729090D01*
X156483779Y-118727355D01*
X156479475Y-118722136D01*
X156388391Y-118504516D01*
X156388359Y-118495564D01*
X156479475Y-118277864D01*
X156485829Y-118271557D01*
X156492561Y-118270911D01*
X156878101Y-118348118D01*
G37*
%TD.AperFunction*%
%TD*%
%TA.AperFunction,Conductor*%
%TO.N,SCK*%
G36*
X158922135Y-102591973D02*
G01*
X158928443Y-102598328D01*
X158929089Y-102605062D01*
X158851883Y-102990597D01*
X158846899Y-102998037D01*
X158840411Y-103000000D01*
X158559589Y-103000000D01*
X158551316Y-102996573D01*
X158548117Y-102990597D01*
X158545326Y-102976662D01*
X158470910Y-102605060D01*
X158472645Y-102596277D01*
X158477862Y-102591974D01*
X158695484Y-102500889D01*
X158704436Y-102500857D01*
X158922135Y-102591973D01*
G37*
%TD.AperFunction*%
%TD*%
%TA.AperFunction,Conductor*%
%TO.N,IOL_5A_GBIN6*%
G36*
X164141106Y-108529428D02*
G01*
X164911215Y-108847438D01*
X164917552Y-108853761D01*
X164917562Y-108853785D01*
X165235567Y-109623883D01*
X165235558Y-109632838D01*
X165229219Y-109639163D01*
X165228629Y-109639388D01*
X163808251Y-110138031D01*
X163799309Y-110137539D01*
X163796102Y-110135265D01*
X163629734Y-109968897D01*
X163626307Y-109960624D01*
X163626968Y-109956748D01*
X163738461Y-109639163D01*
X164125612Y-108536368D01*
X164131584Y-108529699D01*
X164140526Y-108529207D01*
X164141106Y-108529428D01*
G37*
%TD.AperFunction*%
%TD*%
%TA.AperFunction,Conductor*%
%TO.N,IOT_47*%
G36*
X164141106Y-90749428D02*
G01*
X164911215Y-91067438D01*
X164917552Y-91073761D01*
X164917562Y-91073785D01*
X165235567Y-91843883D01*
X165235558Y-91852838D01*
X165229219Y-91859163D01*
X165228629Y-91859388D01*
X163808251Y-92358031D01*
X163799309Y-92357539D01*
X163796102Y-92355265D01*
X163629734Y-92188897D01*
X163626307Y-92180624D01*
X163626968Y-92176748D01*
X163738461Y-91859163D01*
X164125612Y-90756368D01*
X164131584Y-90749699D01*
X164140526Y-90749207D01*
X164141106Y-90749428D01*
G37*
%TD.AperFunction*%
%TD*%
%TA.AperFunction,Conductor*%
%TO.N,IOT_45*%
G36*
X164141106Y-93289428D02*
G01*
X164911215Y-93607438D01*
X164917552Y-93613761D01*
X164917562Y-93613785D01*
X165235567Y-94383883D01*
X165235558Y-94392838D01*
X165229219Y-94399163D01*
X165228629Y-94399388D01*
X163808251Y-94898031D01*
X163799309Y-94897539D01*
X163796102Y-94895265D01*
X163629734Y-94728897D01*
X163626307Y-94720624D01*
X163626968Y-94716748D01*
X163738461Y-94399163D01*
X164125612Y-93296368D01*
X164131584Y-93289699D01*
X164140526Y-93289207D01*
X164141106Y-93289428D01*
G37*
%TD.AperFunction*%
%TD*%
%TA.AperFunction,Conductor*%
%TO.N,IOR_38*%
G36*
X164141106Y-98369428D02*
G01*
X164911215Y-98687438D01*
X164917552Y-98693761D01*
X164917562Y-98693785D01*
X165235567Y-99463883D01*
X165235558Y-99472838D01*
X165229219Y-99479163D01*
X165228629Y-99479388D01*
X163808251Y-99978031D01*
X163799309Y-99977539D01*
X163796102Y-99975265D01*
X163629734Y-99808897D01*
X163626307Y-99800624D01*
X163626968Y-99796748D01*
X163738461Y-99479163D01*
X164125612Y-98376368D01*
X164131584Y-98369699D01*
X164140526Y-98369207D01*
X164141106Y-98369428D01*
G37*
%TD.AperFunction*%
%TD*%
%TA.AperFunction,Conductor*%
%TO.N,IOR_39*%
G36*
X164141106Y-95829428D02*
G01*
X164911215Y-96147438D01*
X164917552Y-96153761D01*
X164917562Y-96153785D01*
X165235567Y-96923883D01*
X165235558Y-96932838D01*
X165229219Y-96939163D01*
X165228629Y-96939388D01*
X163808251Y-97438031D01*
X163799309Y-97437539D01*
X163796102Y-97435265D01*
X163629734Y-97268897D01*
X163626307Y-97260624D01*
X163626968Y-97256748D01*
X163738461Y-96939163D01*
X164125612Y-95836368D01*
X164131584Y-95829699D01*
X164140526Y-95829207D01*
X164141106Y-95829428D01*
G37*
%TD.AperFunction*%
%TD*%
%TA.AperFunction,Conductor*%
%TO.N,IOR_35_GBIN3*%
G36*
X164141106Y-103449428D02*
G01*
X164911215Y-103767438D01*
X164917552Y-103773761D01*
X164917562Y-103773785D01*
X165235567Y-104543883D01*
X165235558Y-104552838D01*
X165229219Y-104559163D01*
X165228629Y-104559388D01*
X163808251Y-105058031D01*
X163799309Y-105057539D01*
X163796102Y-105055265D01*
X163629734Y-104888897D01*
X163626307Y-104880624D01*
X163626968Y-104876748D01*
X163738461Y-104559163D01*
X164125612Y-103456368D01*
X164131584Y-103449699D01*
X164140526Y-103449207D01*
X164141106Y-103449428D01*
G37*
%TD.AperFunction*%
%TD*%
%TA.AperFunction,Conductor*%
%TO.N,IOR_36_GBIN2*%
G36*
X164141106Y-100909428D02*
G01*
X164911215Y-101227438D01*
X164917552Y-101233761D01*
X164917562Y-101233785D01*
X165235567Y-102003883D01*
X165235558Y-102012838D01*
X165229219Y-102019163D01*
X165228629Y-102019388D01*
X163808251Y-102518031D01*
X163799309Y-102517539D01*
X163796102Y-102515265D01*
X163629734Y-102348897D01*
X163626307Y-102340624D01*
X163626968Y-102336748D01*
X163738461Y-102019163D01*
X164125612Y-100916368D01*
X164131584Y-100909699D01*
X164140526Y-100909207D01*
X164141106Y-100909428D01*
G37*
%TD.AperFunction*%
%TD*%
%TA.AperFunction,Conductor*%
%TO.N,IOR_34*%
G36*
X164141106Y-105989428D02*
G01*
X164911215Y-106307438D01*
X164917552Y-106313761D01*
X164917562Y-106313785D01*
X165235567Y-107083883D01*
X165235558Y-107092838D01*
X165229219Y-107099163D01*
X165228629Y-107099388D01*
X163808251Y-107598031D01*
X163799309Y-107597539D01*
X163796102Y-107595265D01*
X163629734Y-107428897D01*
X163626307Y-107420624D01*
X163626968Y-107416748D01*
X163738461Y-107099163D01*
X164125612Y-105996368D01*
X164131584Y-105989699D01*
X164140526Y-105989207D01*
X164141106Y-105989428D01*
G37*
%TD.AperFunction*%
%TD*%
%TA.AperFunction,Conductor*%
%TO.N,+3V3*%
G36*
X164071968Y-87686960D02*
G01*
X164907712Y-88521722D01*
X164911144Y-88529993D01*
X164907722Y-88538268D01*
X164907712Y-88538278D01*
X164071968Y-89373039D01*
X164063693Y-89376461D01*
X164056953Y-89374320D01*
X164055138Y-89373039D01*
X163219953Y-88783496D01*
X163215170Y-88775925D01*
X163215000Y-88773937D01*
X163215000Y-88286062D01*
X163218427Y-88277789D01*
X163219947Y-88276507D01*
X164056955Y-87685678D01*
X164065688Y-87683708D01*
X164071968Y-87686960D01*
G37*
%TD.AperFunction*%
%TD*%
%TA.AperFunction,Conductor*%
%TO.N,IOL_5B*%
G36*
X147897744Y-108549480D02*
G01*
X147904069Y-108555819D01*
X147904326Y-108556499D01*
X148276352Y-109644453D01*
X148419705Y-110063672D01*
X148419139Y-110072609D01*
X148412420Y-110078529D01*
X148408634Y-110079158D01*
X148176750Y-110079158D01*
X148173327Y-110078646D01*
X146802027Y-109659064D01*
X146795118Y-109653367D01*
X146794262Y-109644453D01*
X146794633Y-109643417D01*
X147113144Y-108873485D01*
X147119471Y-108867153D01*
X147888790Y-108549471D01*
X147897744Y-108549480D01*
G37*
%TD.AperFunction*%
%TD*%
%TA.AperFunction,Conductor*%
%TO.N,IOL_4B_GBIN7*%
G36*
X147897838Y-106009441D02*
G01*
X147904163Y-106015780D01*
X147904388Y-106016370D01*
X148403031Y-107436748D01*
X148402539Y-107445690D01*
X148400265Y-107448897D01*
X148233897Y-107615265D01*
X148225624Y-107618692D01*
X148221748Y-107618031D01*
X146801370Y-107119388D01*
X146794699Y-107113415D01*
X146794207Y-107104473D01*
X146794423Y-107103905D01*
X147112438Y-106333783D01*
X147118759Y-106327448D01*
X147888884Y-106009432D01*
X147897838Y-106009441D01*
G37*
%TD.AperFunction*%
%TD*%
%TA.AperFunction,Conductor*%
%TO.N,IOL_2A*%
G36*
X147897838Y-100929441D02*
G01*
X147904163Y-100935780D01*
X147904388Y-100936370D01*
X148403031Y-102356748D01*
X148402539Y-102365690D01*
X148400265Y-102368897D01*
X148233897Y-102535265D01*
X148225624Y-102538692D01*
X148221748Y-102538031D01*
X146801370Y-102039388D01*
X146794699Y-102033415D01*
X146794207Y-102024473D01*
X146794423Y-102023905D01*
X147112438Y-101253783D01*
X147118759Y-101247448D01*
X147888884Y-100929432D01*
X147897838Y-100929441D01*
G37*
%TD.AperFunction*%
%TD*%
%TA.AperFunction,Conductor*%
%TO.N,IOT_50_GBIN1*%
G36*
X147897838Y-90769441D02*
G01*
X147904163Y-90775780D01*
X147904388Y-90776370D01*
X148403031Y-92196748D01*
X148402539Y-92205690D01*
X148400265Y-92208897D01*
X148233897Y-92375265D01*
X148225624Y-92378692D01*
X148221748Y-92378031D01*
X146801370Y-91879388D01*
X146794699Y-91873415D01*
X146794207Y-91864473D01*
X146794423Y-91863905D01*
X147112438Y-91093783D01*
X147118759Y-91087448D01*
X147888884Y-90769432D01*
X147897838Y-90769441D01*
G37*
%TD.AperFunction*%
%TD*%
%TA.AperFunction,Conductor*%
%TO.N,IOT_53*%
G36*
X147897838Y-93309441D02*
G01*
X147904163Y-93315780D01*
X147904388Y-93316370D01*
X148403031Y-94736748D01*
X148402539Y-94745690D01*
X148400265Y-94748897D01*
X148233897Y-94915265D01*
X148225624Y-94918692D01*
X148221748Y-94918031D01*
X146801370Y-94419388D01*
X146794699Y-94413415D01*
X146794207Y-94404473D01*
X146794423Y-94403905D01*
X147112438Y-93633783D01*
X147118759Y-93627448D01*
X147888884Y-93309432D01*
X147897838Y-93309441D01*
G37*
%TD.AperFunction*%
%TD*%
%TA.AperFunction,Conductor*%
%TO.N,IOT_52*%
G36*
X147897838Y-95849441D02*
G01*
X147904163Y-95855780D01*
X147904388Y-95856370D01*
X148403031Y-97276748D01*
X148402539Y-97285690D01*
X148400265Y-97288897D01*
X148233897Y-97455265D01*
X148225624Y-97458692D01*
X148221748Y-97458031D01*
X146801370Y-96959388D01*
X146794699Y-96953415D01*
X146794207Y-96944473D01*
X146794423Y-96943905D01*
X147112438Y-96173783D01*
X147118759Y-96167448D01*
X147888884Y-95849432D01*
X147897838Y-95849441D01*
G37*
%TD.AperFunction*%
%TD*%
%TA.AperFunction,Conductor*%
%TO.N,IOL_2B*%
G36*
X147897838Y-98389441D02*
G01*
X147904163Y-98395780D01*
X147904388Y-98396370D01*
X148403031Y-99816748D01*
X148402539Y-99825690D01*
X148400265Y-99828897D01*
X148233897Y-99995265D01*
X148225624Y-99998692D01*
X148221748Y-99998031D01*
X146801370Y-99499388D01*
X146794699Y-99493415D01*
X146794207Y-99484473D01*
X146794423Y-99483905D01*
X147112438Y-98713783D01*
X147118759Y-98707448D01*
X147888884Y-98389432D01*
X147897838Y-98389441D01*
G37*
%TD.AperFunction*%
%TD*%
%TA.AperFunction,Conductor*%
%TO.N,+3V3*%
G36*
X147973246Y-87707344D02*
G01*
X148589649Y-88256331D01*
X148590140Y-88256795D01*
X148933900Y-88600555D01*
X148937327Y-88608828D01*
X148933900Y-88617101D01*
X148932638Y-88618195D01*
X147972826Y-89336559D01*
X147964149Y-89338773D01*
X147957844Y-89335757D01*
X147186810Y-88618195D01*
X147123169Y-88558967D01*
X147119449Y-88550824D01*
X147122576Y-88542433D01*
X147122838Y-88542161D01*
X147957192Y-87707807D01*
X147965464Y-87704381D01*
X147973246Y-87707344D01*
G37*
%TD.AperFunction*%
%TD*%
%TA.AperFunction,Conductor*%
%TO.N,IOL_4A*%
G36*
X147897838Y-103469441D02*
G01*
X147904163Y-103475780D01*
X147904388Y-103476370D01*
X148403031Y-104896748D01*
X148402539Y-104905690D01*
X148400265Y-104908897D01*
X148233897Y-105075265D01*
X148225624Y-105078692D01*
X148221748Y-105078031D01*
X146801370Y-104579388D01*
X146794699Y-104573415D01*
X146794207Y-104564473D01*
X146794423Y-104563905D01*
X147112438Y-103793783D01*
X147118759Y-103787448D01*
X147888884Y-103469432D01*
X147897838Y-103469441D01*
G37*
%TD.AperFunction*%
%TD*%
M02*
