M48
; DRILL file {KiCad 8.0.4} date 2024-08-26T12:07:15-0500
; FORMAT={-:-/ absolute / inch / decimal}
; #@! TF.CreationDate,2024-08-26T12:07:15-05:00
; #@! TF.GenerationSoftware,Kicad,Pcbnew,8.0.4
; #@! TF.FileFunction,Plated,1,4,PTH
FMAT,2
INCH
; #@! TA.AperFunction,Plated,PTH,ViaDrill
T1C0.0118
; #@! TA.AperFunction,Plated,PTH,ComponentDrill
T2C0.0236
; #@! TA.AperFunction,Plated,PTH,ComponentDrill
T3C0.0394
%
G90
G05
T1
X5.7362Y-3.437
X5.7362Y-3.8346
X5.7362Y-4.1575
X5.7362Y-4.4016
X5.7402Y-3.5472
X5.7402Y-3.6417
X5.7402Y-3.748
X5.7402Y-3.9567
X5.7402Y-4.0433
X5.7402Y-4.2677
X5.7441Y-4.6811
X5.748Y-4.3346
X5.752Y-4.7441
X5.7598Y-4.4882
X5.8071Y-4.4803
X5.8071Y-4.563
X5.8504Y-4.7008
X5.8543Y-3.5236
X5.8583Y-3.9094
X5.8622Y-3.7047
X5.8622Y-3.811
X5.8858Y-3.1693
X5.8937Y-3.1102
X5.9016Y-3.5551
X5.9291Y-4.685
X5.9331Y-3.4291
X5.9331Y-3.5157
X5.9331Y-4.3898
X5.9331Y-4.4528
X5.937Y-3.3504
X5.937Y-3.5748
X5.9409Y-4.6575
X5.955Y-4.3766
X5.9567Y-3.628
X5.9567Y-4.3346
X5.9601Y-4.4764
X5.9601Y-4.5295
X5.9601Y-4.6142
X5.9601Y-4.4409
X5.9601Y-4.5551
X5.9601Y-4.5827
X5.9646Y-4.7244
X5.9724Y-3.9567
X5.9764Y-3.3504
X5.9764Y-4.0787
X5.9764Y-4.1693
X5.9764Y-4.2598
X5.9803Y-3.7559
X5.9862Y-3.7067
X5.9921Y-3.4094
X6.0157Y-3.2874
X6.0236Y-3.4803
X6.0258Y-4.6653
X6.0276Y-3.0866
X6.0276Y-3.5591
X6.0276Y-3.6772
X6.0433Y-3.3976
X6.0468Y-4.4764
X6.0507Y-4.5709
X6.0551Y-3.4803
X6.0591Y-4.0394
X6.063Y-3.8819
X6.0709Y-4.7283
X6.0748Y-3.7795
X6.077Y-4.6651
X6.0866Y-3.3504
X6.0984Y-3.8976
X6.1026Y-4.6654
X6.1063Y-3.1142
X6.1063Y-4.2874
X6.1142Y-3.2441
X6.126Y-4.0827
X6.1294Y-4.6654
X6.1299Y-3.4528
X6.1339Y-3.7756
X6.1378Y-3.8976
X6.1378Y-3.9331
X6.1452Y-4.4764
X6.1452Y-4.5709
X6.1457Y-3.3622
X6.1457Y-3.5591
X6.1457Y-3.6772
X6.1457Y-3.7992
X6.1457Y-4.3268
X6.1496Y-3.2441
X6.157Y-4.6654
X6.1732Y-4.1299
X6.1772Y-3.0827
X6.185Y-3.8622
X6.2008Y-3.7362
X6.2047Y-3.4055
X6.2126Y-3.689
X6.2205Y-3.374
X6.2205Y-3.4764
X6.2205Y-4.1909
X6.2244Y-3.9646
X6.2244Y-4.0591
X6.2286Y-3.669
X6.2323Y-3.0787
X6.2362Y-4.6654
X6.242Y-4.563
X6.2436Y-4.5115
X6.2436Y-4.4843
X6.2436Y-4.5886
X6.2439Y-4.5371
X6.2446Y-3.649
X6.248Y-3.4449
X6.248Y-4.0354
X6.248Y-4.4055
X6.25Y-4.1909
X6.252Y-3.9724
X6.2559Y-4.3819
X6.2559Y-4.689
X6.2598Y-4.3504
X6.2677Y-3.2874
X6.2756Y-3.9921
X6.2756Y-4.2835
X6.2795Y-3.4803
X6.2835Y-4.2047
X6.2874Y-3.5669
X6.2953Y-3.4449
X6.2992Y-4.4055
X6.315Y-3.7008
X6.315Y-4.2953
X6.3189Y-3.3543
X6.3189Y-4.6102
X6.3307Y-4.7165
X6.3465Y-3.7835
X6.3504Y-3.5669
X6.378Y-3.7441
X6.3819Y-4.6535
X6.3858Y-3.0866
X6.3898Y-3.8425
X6.3976Y-3.1496
X6.4094Y-4.122
X6.4331Y-4.7362
X6.4843Y-4.5354
X6.4882Y-4.6811
X6.4961Y-4.5906
X6.5197Y-4.6457
X6.5276Y-3.7283
X6.5276Y-3.8386
X6.5354Y-3.6299
X6.5354Y-3.9409
X6.5354Y-4.1299
X6.5354Y-4.748
X6.5394Y-3.437
X6.5394Y-3.5433
X6.5394Y-4.0315
X6.5394Y-4.2362
X6.5394Y-4.3425
X6.5433Y-4.4724
T3
X5.7919Y-3.4862
X5.7919Y-3.5862
X5.7919Y-3.6862
X5.7919Y-3.7862
X5.7919Y-3.8862
X5.7919Y-3.9862
X5.7919Y-4.0862
X5.7919Y-4.1862
X5.7919Y-4.2862
X5.7919Y-4.3862
X6.4927Y-3.4854
X6.4927Y-3.5854
X6.4927Y-3.6854
X6.4927Y-3.7854
X6.4927Y-3.8854
X6.4927Y-3.9854
X6.4927Y-4.0854
X6.4927Y-4.1854
X6.4927Y-4.2854
X6.4927Y-4.3854
T2
G00X5.9717Y-3.115
M15
G01X5.9717Y-3.0835
M16
G05
G00X5.9717Y-3.2854
M15
G01X5.9717Y-3.2421
M16
G05
G00X6.3118Y-3.115
M15
G01X6.3118Y-3.0835
M16
G05
G00X6.3118Y-3.2854
M15
G01X6.3118Y-3.2421
M16
G05
M30
