M48
; DRILL file {KiCad 7.0.6} date Sun Jul 23 20:03:58 2023
; FORMAT={-:-/ absolute / inch / decimal}
; #@! TF.CreationDate,2023-07-23T20:03:58-07:00
; #@! TF.GenerationSoftware,Kicad,Pcbnew,7.0.6
; #@! TF.FileFunction,Plated,1,6,PTH
FMAT,2
INCH
; #@! TA.AperFunction,Plated,PTH,ViaDrill
T1C0.0118
; #@! TA.AperFunction,Plated,PTH,ViaDrill
T2C0.0157
; #@! TA.AperFunction,Plated,PTH,ComponentDrill
T3C0.0236
; #@! TA.AperFunction,Plated,PTH,ComponentDrill
T4C0.0394
%
G90
G05
T1
X5.7795Y-4.4488
X5.878Y-4.5669
X5.8937Y-4.4331
X5.9232Y-4.2677
X5.9685Y-4.374
X5.9921Y-4.5551
X5.9999Y-4.3534
X6.0039Y-4.4843
X6.0079Y-4.3268
X6.0197Y-4.2992
X6.0276Y-4.1575
X6.0276Y-4.5079
X6.0488Y-4.2977
X6.0512Y-4.5276
X6.0654Y-4.5512
X6.0826Y-4.5727
X6.0827Y-4.2992
X6.1299Y-3.8543
X6.1535Y-3.8819
X6.1614Y-3.9803
X6.1614Y-4.0315
X6.1813Y-4.2754
X6.2Y-4.5693
X6.2102Y-4.2771
X6.2165Y-4.5472
X6.2415Y-4.2764
X6.248Y-4.3031
X6.252Y-4.0787
X6.2795Y-4.4941
X6.2913Y-4.374
X6.2953Y-4.4016
X6.3031Y-4.4724
X6.3071Y-4.4331
X6.3465Y-3.878
X6.3661Y-3.6614
X6.378Y-3.8346
T2
X5.748Y-4.748
X5.7795Y-4.6969
X5.8937Y-3.0906
X5.8937Y-3.1693
X5.8937Y-3.248
X5.8937Y-4.7598
X5.9055Y-4.0315
X5.9055Y-4.5157
X5.9094Y-3.3386
X5.9094Y-3.4173
X5.9094Y-3.4961
X5.9134Y-4.3543
X5.9173Y-3.815
X5.9606Y-3.8543
X5.9606Y-3.9331
X5.9606Y-4.0118
X5.9646Y-4.0827
X5.9803Y-3.3425
X5.9803Y-3.4409
X6.0197Y-3.5984
X6.0236Y-3.8138
X6.0236Y-3.9094
X6.0315Y-4.2087
X6.0354Y-3.7126
X6.0551Y-3.1024
X6.0748Y-4.7126
X6.0866Y-3.622
X6.0906Y-4.2205
X6.0984Y-3.8307
X6.1194Y-3.5972
X6.1339Y-3.1024
X6.1417Y-4.4267
X6.1535Y-4.2244
X6.1614Y-4.7205
X6.1634Y-4.6713
X6.1929Y-3.4291
X6.2126Y-3.1024
X6.2441Y-3.7756
X6.2756Y-3.5906
X6.2835Y-3.3386
X6.2851Y-4.6319
X6.315Y-4.2717
X6.315Y-4.6063
X6.3228Y-3.4803
X6.3465Y-4.2992
X6.3591Y-3.325
X6.3858Y-3.126
X6.4095Y-3.9646
X6.4173Y-3.437
X6.4409Y-4.7047
X6.4843Y-4.4724
X6.4843Y-4.7283
T4
X5.7919Y-3.4862
X5.7919Y-3.5862
X5.7919Y-3.6862
X5.7919Y-3.7862
X5.7919Y-3.8862
X5.7919Y-3.9862
X5.7919Y-4.0862
X5.7919Y-4.1862
X5.7919Y-4.2862
X5.7919Y-4.3862
X6.4927Y-3.4854
X6.4927Y-3.5854
X6.4927Y-3.6854
X6.4927Y-3.7854
X6.4927Y-3.8854
X6.4927Y-3.9854
X6.4927Y-4.0854
X6.4927Y-4.1854
X6.4927Y-4.2854
X6.4927Y-4.3854
T3
G00X5.972Y-3.115
M15
G01X5.972Y-3.0835
M16
G05
G00X5.972Y-3.2854
M15
G01X5.972Y-3.2421
M16
G05
G00X6.3122Y-3.115
M15
G01X6.3122Y-3.0835
M16
G05
G00X6.3122Y-3.2854
M15
G01X6.3122Y-3.2421
M16
G05
T0
M30
