%TF.GenerationSoftware,KiCad,Pcbnew,7.0.2*%
%TF.CreationDate,2023-06-27T14:13:01-07:00*%
%TF.ProjectId,iCEGenius,69434547-656e-4697-9573-2e6b69636164,rev?*%
%TF.SameCoordinates,Original*%
%TF.FileFunction,Legend,Bot*%
%TF.FilePolarity,Positive*%
%FSLAX46Y46*%
G04 Gerber Fmt 4.6, Leading zero omitted, Abs format (unit mm)*
G04 Created by KiCad (PCBNEW 7.0.2) date 2023-06-27 14:13:01*
%MOMM*%
%LPD*%
G01*
G04 APERTURE LIST*
%ADD10C,0.150000*%
%ADD11R,1.700000X1.700000*%
%ADD12O,1.700000X1.700000*%
%ADD13C,0.650000*%
%ADD14O,1.000000X2.100000*%
%ADD15O,1.000000X1.800000*%
G04 APERTURE END LIST*
D10*
X159133333Y-77214333D02*
X159133333Y-77714333D01*
X159133333Y-77714333D02*
X159166666Y-77814333D01*
X159166666Y-77814333D02*
X159233333Y-77881000D01*
X159233333Y-77881000D02*
X159333333Y-77914333D01*
X159333333Y-77914333D02*
X159400000Y-77914333D01*
X158466667Y-77914333D02*
X158800000Y-77914333D01*
X158800000Y-77914333D02*
X158800000Y-77214333D01*
X157833333Y-77847666D02*
X157866666Y-77881000D01*
X157866666Y-77881000D02*
X157966666Y-77914333D01*
X157966666Y-77914333D02*
X158033333Y-77914333D01*
X158033333Y-77914333D02*
X158133333Y-77881000D01*
X158133333Y-77881000D02*
X158200000Y-77814333D01*
X158200000Y-77814333D02*
X158233333Y-77747666D01*
X158233333Y-77747666D02*
X158266666Y-77614333D01*
X158266666Y-77614333D02*
X158266666Y-77514333D01*
X158266666Y-77514333D02*
X158233333Y-77381000D01*
X158233333Y-77381000D02*
X158200000Y-77314333D01*
X158200000Y-77314333D02*
X158133333Y-77247666D01*
X158133333Y-77247666D02*
X158033333Y-77214333D01*
X158033333Y-77214333D02*
X157966666Y-77214333D01*
X157966666Y-77214333D02*
X157866666Y-77247666D01*
X157866666Y-77247666D02*
X157833333Y-77281000D01*
X157333333Y-77214333D02*
X157333333Y-77714333D01*
X157333333Y-77714333D02*
X157366666Y-77814333D01*
X157366666Y-77814333D02*
X157433333Y-77881000D01*
X157433333Y-77881000D02*
X157533333Y-77914333D01*
X157533333Y-77914333D02*
X157600000Y-77914333D01*
X156666667Y-77914333D02*
X157000000Y-77914333D01*
X157000000Y-77914333D02*
X157000000Y-77214333D01*
X156033333Y-77847666D02*
X156066666Y-77881000D01*
X156066666Y-77881000D02*
X156166666Y-77914333D01*
X156166666Y-77914333D02*
X156233333Y-77914333D01*
X156233333Y-77914333D02*
X156333333Y-77881000D01*
X156333333Y-77881000D02*
X156400000Y-77814333D01*
X156400000Y-77814333D02*
X156433333Y-77747666D01*
X156433333Y-77747666D02*
X156466666Y-77614333D01*
X156466666Y-77614333D02*
X156466666Y-77514333D01*
X156466666Y-77514333D02*
X156433333Y-77381000D01*
X156433333Y-77381000D02*
X156400000Y-77314333D01*
X156400000Y-77314333D02*
X156333333Y-77247666D01*
X156333333Y-77247666D02*
X156233333Y-77214333D01*
X156233333Y-77214333D02*
X156166666Y-77214333D01*
X156166666Y-77214333D02*
X156066666Y-77247666D01*
X156066666Y-77247666D02*
X156033333Y-77281000D01*
X155533333Y-77214333D02*
X155533333Y-77714333D01*
X155533333Y-77714333D02*
X155566666Y-77814333D01*
X155566666Y-77814333D02*
X155633333Y-77881000D01*
X155633333Y-77881000D02*
X155733333Y-77914333D01*
X155733333Y-77914333D02*
X155800000Y-77914333D01*
X154866667Y-77914333D02*
X155200000Y-77914333D01*
X155200000Y-77914333D02*
X155200000Y-77214333D01*
X154233333Y-77847666D02*
X154266666Y-77881000D01*
X154266666Y-77881000D02*
X154366666Y-77914333D01*
X154366666Y-77914333D02*
X154433333Y-77914333D01*
X154433333Y-77914333D02*
X154533333Y-77881000D01*
X154533333Y-77881000D02*
X154600000Y-77814333D01*
X154600000Y-77814333D02*
X154633333Y-77747666D01*
X154633333Y-77747666D02*
X154666666Y-77614333D01*
X154666666Y-77614333D02*
X154666666Y-77514333D01*
X154666666Y-77514333D02*
X154633333Y-77381000D01*
X154633333Y-77381000D02*
X154600000Y-77314333D01*
X154600000Y-77314333D02*
X154533333Y-77247666D01*
X154533333Y-77247666D02*
X154433333Y-77214333D01*
X154433333Y-77214333D02*
X154366666Y-77214333D01*
X154366666Y-77214333D02*
X154266666Y-77247666D01*
X154266666Y-77247666D02*
X154233333Y-77281000D01*
X153733333Y-77214333D02*
X153733333Y-77714333D01*
X153733333Y-77714333D02*
X153766666Y-77814333D01*
X153766666Y-77814333D02*
X153833333Y-77881000D01*
X153833333Y-77881000D02*
X153933333Y-77914333D01*
X153933333Y-77914333D02*
X154000000Y-77914333D01*
X153066667Y-77914333D02*
X153400000Y-77914333D01*
X153400000Y-77914333D02*
X153400000Y-77214333D01*
X152433333Y-77847666D02*
X152466666Y-77881000D01*
X152466666Y-77881000D02*
X152566666Y-77914333D01*
X152566666Y-77914333D02*
X152633333Y-77914333D01*
X152633333Y-77914333D02*
X152733333Y-77881000D01*
X152733333Y-77881000D02*
X152800000Y-77814333D01*
X152800000Y-77814333D02*
X152833333Y-77747666D01*
X152833333Y-77747666D02*
X152866666Y-77614333D01*
X152866666Y-77614333D02*
X152866666Y-77514333D01*
X152866666Y-77514333D02*
X152833333Y-77381000D01*
X152833333Y-77381000D02*
X152800000Y-77314333D01*
X152800000Y-77314333D02*
X152733333Y-77247666D01*
X152733333Y-77247666D02*
X152633333Y-77214333D01*
X152633333Y-77214333D02*
X152566666Y-77214333D01*
X152566666Y-77214333D02*
X152466666Y-77247666D01*
X152466666Y-77247666D02*
X152433333Y-77281000D01*
X160283332Y-91533333D02*
X159883332Y-91533333D01*
X160083332Y-92233333D02*
X160083332Y-91533333D01*
X159383332Y-92200000D02*
X159449999Y-92233333D01*
X159449999Y-92233333D02*
X159583332Y-92233333D01*
X159583332Y-92233333D02*
X159649999Y-92200000D01*
X159649999Y-92200000D02*
X159683332Y-92133333D01*
X159683332Y-92133333D02*
X159683332Y-91866666D01*
X159683332Y-91866666D02*
X159649999Y-91800000D01*
X159649999Y-91800000D02*
X159583332Y-91766666D01*
X159583332Y-91766666D02*
X159449999Y-91766666D01*
X159449999Y-91766666D02*
X159383332Y-91800000D01*
X159383332Y-91800000D02*
X159349999Y-91866666D01*
X159349999Y-91866666D02*
X159349999Y-91933333D01*
X159349999Y-91933333D02*
X159683332Y-92000000D01*
X159116666Y-92233333D02*
X158749999Y-91766666D01*
X159116666Y-91766666D02*
X158749999Y-92233333D01*
X158183332Y-92233333D02*
X158183332Y-91866666D01*
X158183332Y-91866666D02*
X158216665Y-91800000D01*
X158216665Y-91800000D02*
X158283332Y-91766666D01*
X158283332Y-91766666D02*
X158416665Y-91766666D01*
X158416665Y-91766666D02*
X158483332Y-91800000D01*
X158183332Y-92200000D02*
X158249999Y-92233333D01*
X158249999Y-92233333D02*
X158416665Y-92233333D01*
X158416665Y-92233333D02*
X158483332Y-92200000D01*
X158483332Y-92200000D02*
X158516665Y-92133333D01*
X158516665Y-92133333D02*
X158516665Y-92066666D01*
X158516665Y-92066666D02*
X158483332Y-92000000D01*
X158483332Y-92000000D02*
X158416665Y-91966666D01*
X158416665Y-91966666D02*
X158249999Y-91966666D01*
X158249999Y-91966666D02*
X158183332Y-91933333D01*
X157883332Y-92200000D02*
X157816666Y-92233333D01*
X157816666Y-92233333D02*
X157683332Y-92233333D01*
X157683332Y-92233333D02*
X157616666Y-92200000D01*
X157616666Y-92200000D02*
X157583332Y-92133333D01*
X157583332Y-92133333D02*
X157583332Y-92100000D01*
X157583332Y-92100000D02*
X157616666Y-92033333D01*
X157616666Y-92033333D02*
X157683332Y-92000000D01*
X157683332Y-92000000D02*
X157783332Y-92000000D01*
X157783332Y-92000000D02*
X157849999Y-91966666D01*
X157849999Y-91966666D02*
X157883332Y-91900000D01*
X157883332Y-91900000D02*
X157883332Y-91866666D01*
X157883332Y-91866666D02*
X157849999Y-91800000D01*
X157849999Y-91800000D02*
X157783332Y-91766666D01*
X157783332Y-91766666D02*
X157683332Y-91766666D01*
X157683332Y-91766666D02*
X157616666Y-91800000D01*
X156849999Y-91533333D02*
X156449999Y-91533333D01*
X156649999Y-92233333D02*
X156649999Y-91533333D01*
X155949999Y-92200000D02*
X156016666Y-92233333D01*
X156016666Y-92233333D02*
X156149999Y-92233333D01*
X156149999Y-92233333D02*
X156216666Y-92200000D01*
X156216666Y-92200000D02*
X156249999Y-92133333D01*
X156249999Y-92133333D02*
X156249999Y-91866666D01*
X156249999Y-91866666D02*
X156216666Y-91800000D01*
X156216666Y-91800000D02*
X156149999Y-91766666D01*
X156149999Y-91766666D02*
X156016666Y-91766666D01*
X156016666Y-91766666D02*
X155949999Y-91800000D01*
X155949999Y-91800000D02*
X155916666Y-91866666D01*
X155916666Y-91866666D02*
X155916666Y-91933333D01*
X155916666Y-91933333D02*
X156249999Y-92000000D01*
X155316666Y-92200000D02*
X155383333Y-92233333D01*
X155383333Y-92233333D02*
X155516666Y-92233333D01*
X155516666Y-92233333D02*
X155583333Y-92200000D01*
X155583333Y-92200000D02*
X155616666Y-92166666D01*
X155616666Y-92166666D02*
X155649999Y-92100000D01*
X155649999Y-92100000D02*
X155649999Y-91900000D01*
X155649999Y-91900000D02*
X155616666Y-91833333D01*
X155616666Y-91833333D02*
X155583333Y-91800000D01*
X155583333Y-91800000D02*
X155516666Y-91766666D01*
X155516666Y-91766666D02*
X155383333Y-91766666D01*
X155383333Y-91766666D02*
X155316666Y-91800000D01*
X155016666Y-92233333D02*
X155016666Y-91533333D01*
X154716666Y-92233333D02*
X154716666Y-91866666D01*
X154716666Y-91866666D02*
X154749999Y-91800000D01*
X154749999Y-91800000D02*
X154816666Y-91766666D01*
X154816666Y-91766666D02*
X154916666Y-91766666D01*
X154916666Y-91766666D02*
X154983333Y-91800000D01*
X154983333Y-91800000D02*
X155016666Y-91833333D01*
X153850000Y-91866666D02*
X153616667Y-91866666D01*
X153516667Y-92233333D02*
X153850000Y-92233333D01*
X153850000Y-92233333D02*
X153850000Y-91533333D01*
X153850000Y-91533333D02*
X153516667Y-91533333D01*
X152816667Y-92166666D02*
X152850000Y-92200000D01*
X152850000Y-92200000D02*
X152950000Y-92233333D01*
X152950000Y-92233333D02*
X153016667Y-92233333D01*
X153016667Y-92233333D02*
X153116667Y-92200000D01*
X153116667Y-92200000D02*
X153183334Y-92133333D01*
X153183334Y-92133333D02*
X153216667Y-92066666D01*
X153216667Y-92066666D02*
X153250000Y-91933333D01*
X153250000Y-91933333D02*
X153250000Y-91833333D01*
X153250000Y-91833333D02*
X153216667Y-91700000D01*
X153216667Y-91700000D02*
X153183334Y-91633333D01*
X153183334Y-91633333D02*
X153116667Y-91566666D01*
X153116667Y-91566666D02*
X153016667Y-91533333D01*
X153016667Y-91533333D02*
X152950000Y-91533333D01*
X152950000Y-91533333D02*
X152850000Y-91566666D01*
X152850000Y-91566666D02*
X152816667Y-91600000D01*
X152516667Y-91866666D02*
X152283334Y-91866666D01*
X152183334Y-92233333D02*
X152516667Y-92233333D01*
X152516667Y-92233333D02*
X152516667Y-91533333D01*
X152516667Y-91533333D02*
X152183334Y-91533333D01*
X159133332Y-93367333D02*
X159133332Y-92667333D01*
X159133332Y-92667333D02*
X158966665Y-92667333D01*
X158966665Y-92667333D02*
X158866665Y-92700666D01*
X158866665Y-92700666D02*
X158799999Y-92767333D01*
X158799999Y-92767333D02*
X158766665Y-92834000D01*
X158766665Y-92834000D02*
X158733332Y-92967333D01*
X158733332Y-92967333D02*
X158733332Y-93067333D01*
X158733332Y-93067333D02*
X158766665Y-93200666D01*
X158766665Y-93200666D02*
X158799999Y-93267333D01*
X158799999Y-93267333D02*
X158866665Y-93334000D01*
X158866665Y-93334000D02*
X158966665Y-93367333D01*
X158966665Y-93367333D02*
X159133332Y-93367333D01*
X158433332Y-93367333D02*
X158433332Y-92900666D01*
X158433332Y-92667333D02*
X158466665Y-92700666D01*
X158466665Y-92700666D02*
X158433332Y-92734000D01*
X158433332Y-92734000D02*
X158399999Y-92700666D01*
X158399999Y-92700666D02*
X158433332Y-92667333D01*
X158433332Y-92667333D02*
X158433332Y-92734000D01*
X158099999Y-93367333D02*
X158099999Y-92900666D01*
X158099999Y-93034000D02*
X158066666Y-92967333D01*
X158066666Y-92967333D02*
X158033332Y-92934000D01*
X158033332Y-92934000D02*
X157966666Y-92900666D01*
X157966666Y-92900666D02*
X157899999Y-92900666D01*
X157666666Y-93367333D02*
X157666666Y-92667333D01*
X157599999Y-93100666D02*
X157399999Y-93367333D01*
X157399999Y-92900666D02*
X157666666Y-93167333D01*
X156666666Y-92667333D02*
X156266666Y-92667333D01*
X156466666Y-93367333D02*
X156466666Y-92667333D01*
X156033333Y-93367333D02*
X156033333Y-92667333D01*
X155733333Y-93367333D02*
X155733333Y-93000666D01*
X155733333Y-93000666D02*
X155766666Y-92934000D01*
X155766666Y-92934000D02*
X155833333Y-92900666D01*
X155833333Y-92900666D02*
X155933333Y-92900666D01*
X155933333Y-92900666D02*
X156000000Y-92934000D01*
X156000000Y-92934000D02*
X156033333Y-92967333D01*
X155400000Y-93367333D02*
X155400000Y-92900666D01*
X155400000Y-92667333D02*
X155433333Y-92700666D01*
X155433333Y-92700666D02*
X155400000Y-92734000D01*
X155400000Y-92734000D02*
X155366667Y-92700666D01*
X155366667Y-92700666D02*
X155400000Y-92667333D01*
X155400000Y-92667333D02*
X155400000Y-92734000D01*
X154800000Y-93334000D02*
X154866667Y-93367333D01*
X154866667Y-93367333D02*
X155000000Y-93367333D01*
X155000000Y-93367333D02*
X155066667Y-93334000D01*
X155066667Y-93334000D02*
X155100000Y-93267333D01*
X155100000Y-93267333D02*
X155100000Y-93000666D01*
X155100000Y-93000666D02*
X155066667Y-92934000D01*
X155066667Y-92934000D02*
X155000000Y-92900666D01*
X155000000Y-92900666D02*
X154866667Y-92900666D01*
X154866667Y-92900666D02*
X154800000Y-92934000D01*
X154800000Y-92934000D02*
X154766667Y-93000666D01*
X154766667Y-93000666D02*
X154766667Y-93067333D01*
X154766667Y-93067333D02*
X155100000Y-93134000D01*
X154466667Y-93367333D02*
X154466667Y-92900666D01*
X154466667Y-92967333D02*
X154433334Y-92934000D01*
X154433334Y-92934000D02*
X154366667Y-92900666D01*
X154366667Y-92900666D02*
X154266667Y-92900666D01*
X154266667Y-92900666D02*
X154200000Y-92934000D01*
X154200000Y-92934000D02*
X154166667Y-93000666D01*
X154166667Y-93000666D02*
X154166667Y-93367333D01*
X154166667Y-93000666D02*
X154133334Y-92934000D01*
X154133334Y-92934000D02*
X154066667Y-92900666D01*
X154066667Y-92900666D02*
X153966667Y-92900666D01*
X153966667Y-92900666D02*
X153900000Y-92934000D01*
X153900000Y-92934000D02*
X153866667Y-93000666D01*
X153866667Y-93000666D02*
X153866667Y-93367333D01*
X153266667Y-93334000D02*
X153333334Y-93367333D01*
X153333334Y-93367333D02*
X153466667Y-93367333D01*
X153466667Y-93367333D02*
X153533334Y-93334000D01*
X153533334Y-93334000D02*
X153566667Y-93267333D01*
X153566667Y-93267333D02*
X153566667Y-93000666D01*
X153566667Y-93000666D02*
X153533334Y-92934000D01*
X153533334Y-92934000D02*
X153466667Y-92900666D01*
X153466667Y-92900666D02*
X153333334Y-92900666D01*
X153333334Y-92900666D02*
X153266667Y-92934000D01*
X153266667Y-92934000D02*
X153233334Y-93000666D01*
X153233334Y-93000666D02*
X153233334Y-93067333D01*
X153233334Y-93067333D02*
X153566667Y-93134000D01*
X159266665Y-94468000D02*
X159166665Y-94501333D01*
X159166665Y-94501333D02*
X158999999Y-94501333D01*
X158999999Y-94501333D02*
X158933332Y-94468000D01*
X158933332Y-94468000D02*
X158899999Y-94434666D01*
X158899999Y-94434666D02*
X158866665Y-94368000D01*
X158866665Y-94368000D02*
X158866665Y-94301333D01*
X158866665Y-94301333D02*
X158899999Y-94234666D01*
X158899999Y-94234666D02*
X158933332Y-94201333D01*
X158933332Y-94201333D02*
X158999999Y-94168000D01*
X158999999Y-94168000D02*
X159133332Y-94134666D01*
X159133332Y-94134666D02*
X159199999Y-94101333D01*
X159199999Y-94101333D02*
X159233332Y-94068000D01*
X159233332Y-94068000D02*
X159266665Y-94001333D01*
X159266665Y-94001333D02*
X159266665Y-93934666D01*
X159266665Y-93934666D02*
X159233332Y-93868000D01*
X159233332Y-93868000D02*
X159199999Y-93834666D01*
X159199999Y-93834666D02*
X159133332Y-93801333D01*
X159133332Y-93801333D02*
X158966665Y-93801333D01*
X158966665Y-93801333D02*
X158866665Y-93834666D01*
X158266665Y-94034666D02*
X158266665Y-94501333D01*
X158566665Y-94034666D02*
X158566665Y-94401333D01*
X158566665Y-94401333D02*
X158533332Y-94468000D01*
X158533332Y-94468000D02*
X158466665Y-94501333D01*
X158466665Y-94501333D02*
X158366665Y-94501333D01*
X158366665Y-94501333D02*
X158299998Y-94468000D01*
X158299998Y-94468000D02*
X158266665Y-94434666D01*
X157933332Y-94501333D02*
X157933332Y-94034666D01*
X157933332Y-94101333D02*
X157899999Y-94068000D01*
X157899999Y-94068000D02*
X157833332Y-94034666D01*
X157833332Y-94034666D02*
X157733332Y-94034666D01*
X157733332Y-94034666D02*
X157666665Y-94068000D01*
X157666665Y-94068000D02*
X157633332Y-94134666D01*
X157633332Y-94134666D02*
X157633332Y-94501333D01*
X157633332Y-94134666D02*
X157599999Y-94068000D01*
X157599999Y-94068000D02*
X157533332Y-94034666D01*
X157533332Y-94034666D02*
X157433332Y-94034666D01*
X157433332Y-94034666D02*
X157366665Y-94068000D01*
X157366665Y-94068000D02*
X157333332Y-94134666D01*
X157333332Y-94134666D02*
X157333332Y-94501333D01*
X156999999Y-94501333D02*
X156999999Y-94034666D01*
X156999999Y-94101333D02*
X156966666Y-94068000D01*
X156966666Y-94068000D02*
X156899999Y-94034666D01*
X156899999Y-94034666D02*
X156799999Y-94034666D01*
X156799999Y-94034666D02*
X156733332Y-94068000D01*
X156733332Y-94068000D02*
X156699999Y-94134666D01*
X156699999Y-94134666D02*
X156699999Y-94501333D01*
X156699999Y-94134666D02*
X156666666Y-94068000D01*
X156666666Y-94068000D02*
X156599999Y-94034666D01*
X156599999Y-94034666D02*
X156499999Y-94034666D01*
X156499999Y-94034666D02*
X156433332Y-94068000D01*
X156433332Y-94068000D02*
X156399999Y-94134666D01*
X156399999Y-94134666D02*
X156399999Y-94501333D01*
X155799999Y-94468000D02*
X155866666Y-94501333D01*
X155866666Y-94501333D02*
X155999999Y-94501333D01*
X155999999Y-94501333D02*
X156066666Y-94468000D01*
X156066666Y-94468000D02*
X156099999Y-94401333D01*
X156099999Y-94401333D02*
X156099999Y-94134666D01*
X156099999Y-94134666D02*
X156066666Y-94068000D01*
X156066666Y-94068000D02*
X155999999Y-94034666D01*
X155999999Y-94034666D02*
X155866666Y-94034666D01*
X155866666Y-94034666D02*
X155799999Y-94068000D01*
X155799999Y-94068000D02*
X155766666Y-94134666D01*
X155766666Y-94134666D02*
X155766666Y-94201333D01*
X155766666Y-94201333D02*
X156099999Y-94268000D01*
X155466666Y-94501333D02*
X155466666Y-94034666D01*
X155466666Y-94168000D02*
X155433333Y-94101333D01*
X155433333Y-94101333D02*
X155399999Y-94068000D01*
X155399999Y-94068000D02*
X155333333Y-94034666D01*
X155333333Y-94034666D02*
X155266666Y-94034666D01*
X154466667Y-93801333D02*
X154533333Y-93934666D01*
X154200000Y-93868000D02*
X154166667Y-93834666D01*
X154166667Y-93834666D02*
X154100000Y-93801333D01*
X154100000Y-93801333D02*
X153933334Y-93801333D01*
X153933334Y-93801333D02*
X153866667Y-93834666D01*
X153866667Y-93834666D02*
X153833334Y-93868000D01*
X153833334Y-93868000D02*
X153800000Y-93934666D01*
X153800000Y-93934666D02*
X153800000Y-94001333D01*
X153800000Y-94001333D02*
X153833334Y-94101333D01*
X153833334Y-94101333D02*
X154233334Y-94501333D01*
X154233334Y-94501333D02*
X153800000Y-94501333D01*
X153566667Y-93801333D02*
X153133333Y-93801333D01*
X153133333Y-93801333D02*
X153366667Y-94068000D01*
X153366667Y-94068000D02*
X153266667Y-94068000D01*
X153266667Y-94068000D02*
X153200000Y-94101333D01*
X153200000Y-94101333D02*
X153166667Y-94134666D01*
X153166667Y-94134666D02*
X153133333Y-94201333D01*
X153133333Y-94201333D02*
X153133333Y-94368000D01*
X153133333Y-94368000D02*
X153166667Y-94434666D01*
X153166667Y-94434666D02*
X153200000Y-94468000D01*
X153200000Y-94468000D02*
X153266667Y-94501333D01*
X153266667Y-94501333D02*
X153466667Y-94501333D01*
X153466667Y-94501333D02*
X153533333Y-94468000D01*
X153533333Y-94468000D02*
X153566667Y-94434666D01*
X149950000Y-90900000D02*
X162450000Y-90900000D01*
X162450000Y-95100000D01*
X149950000Y-95100000D01*
X149950000Y-90900000D01*
%TO.C,REF\u002A\u002A*%
G36*
X161442462Y-101432859D02*
G01*
X158724103Y-101432859D01*
X158724103Y-100715025D01*
X157529769Y-100715025D01*
X157529769Y-101905454D01*
X158467198Y-101906675D01*
X159405249Y-101908384D01*
X159405725Y-102222471D01*
X159407115Y-103138914D01*
X159408358Y-104369993D01*
X157747487Y-104369993D01*
X157747487Y-103646177D01*
X157529769Y-103646177D01*
X157529769Y-108497617D01*
X158257567Y-108497617D01*
X158257567Y-110501585D01*
X158257567Y-110812681D01*
X153710387Y-110812681D01*
X153710387Y-110501585D01*
X154033850Y-110501585D01*
X157934102Y-110501585D01*
X157934102Y-108814695D01*
X157206305Y-108814695D01*
X157206305Y-103652219D01*
X156820635Y-103652219D01*
X156820635Y-108958250D01*
X157243628Y-108958250D01*
X157242385Y-109596555D01*
X157240515Y-110235349D01*
X155957228Y-110237180D01*
X154674563Y-110238340D01*
X154674563Y-108958250D01*
X155054015Y-108958250D01*
X155054015Y-103676145D01*
X154631018Y-103676145D01*
X154631018Y-108814695D01*
X154033850Y-108814695D01*
X154033850Y-110501585D01*
X153710387Y-110501585D01*
X153710387Y-108497617D01*
X154307551Y-108497617D01*
X154307551Y-103670103D01*
X154102275Y-103670103D01*
X154102275Y-104346128D01*
X152391642Y-104346128D01*
X152391959Y-104035032D01*
X152721327Y-104035032D01*
X153778811Y-104035032D01*
X153778811Y-103359006D01*
X155383700Y-103359006D01*
X155383700Y-109269285D01*
X155004248Y-109269285D01*
X155004248Y-109921323D01*
X156913939Y-109921323D01*
X156913939Y-109269285D01*
X156490946Y-109269285D01*
X156490946Y-103335142D01*
X158077174Y-103335142D01*
X158077174Y-104058958D01*
X159078673Y-104058958D01*
X159078673Y-102222471D01*
X152721327Y-102222471D01*
X152721327Y-104035032D01*
X152391959Y-104035032D01*
X152392886Y-103127012D01*
X152394751Y-101908384D01*
X153350840Y-101906675D01*
X154307551Y-101905454D01*
X154307551Y-100732908D01*
X153069674Y-100732908D01*
X153069674Y-101432859D01*
X150357539Y-101432859D01*
X150357539Y-101121763D01*
X150681006Y-101121763D01*
X152739989Y-101121763D01*
X152739989Y-100421934D01*
X154631018Y-100421934D01*
X154631018Y-101905454D01*
X157206305Y-101905454D01*
X157207549Y-101152891D01*
X157209414Y-100400999D01*
X159050683Y-100400999D01*
X159052548Y-100761106D01*
X159053792Y-101121763D01*
X161118996Y-101121763D01*
X161118996Y-98106870D01*
X150681006Y-98106870D01*
X150681006Y-101121763D01*
X150357539Y-101121763D01*
X150357539Y-97795774D01*
X161442462Y-97795774D01*
X161442462Y-98106870D01*
X161442462Y-101432859D01*
G37*
%TD*%
%LPC*%
D11*
%TO.C,J3*%
X164915000Y-88530000D03*
D12*
X164915000Y-91070000D03*
X164915000Y-93610000D03*
X164915000Y-96150000D03*
X164915000Y-98690000D03*
X164915000Y-101230000D03*
X164915000Y-103770000D03*
X164915000Y-106310000D03*
X164915000Y-108850000D03*
X164915000Y-111390000D03*
%TD*%
D11*
%TO.C,J2*%
X147115000Y-88550000D03*
D12*
X147115000Y-91090000D03*
X147115000Y-93630000D03*
X147115000Y-96170000D03*
X147115000Y-98710000D03*
X147115000Y-101250000D03*
X147115000Y-103790000D03*
X147115000Y-106330000D03*
X147115000Y-108870000D03*
X147115000Y-111410000D03*
%TD*%
D13*
%TO.C,J1*%
X158900000Y-82400000D03*
X153120000Y-82400000D03*
D14*
X160330000Y-82900000D03*
D15*
X160330000Y-78720000D03*
D14*
X151690000Y-82900000D03*
D15*
X151690000Y-78720000D03*
%TD*%
%LPD*%
M02*
