%TF.GenerationSoftware,KiCad,Pcbnew,7.0.6*%
%TF.CreationDate,2023-07-23T20:03:58-07:00*%
%TF.ProjectId,iCEGenius,69434547-656e-4697-9573-2e6b69636164,rev?*%
%TF.SameCoordinates,Original*%
%TF.FileFunction,Copper,L4,Inr*%
%TF.FilePolarity,Positive*%
%FSLAX46Y46*%
G04 Gerber Fmt 4.6, Leading zero omitted, Abs format (unit mm)*
G04 Created by KiCad (PCBNEW 7.0.6) date 2023-07-23 20:03:58*
%MOMM*%
%LPD*%
G01*
G04 APERTURE LIST*
%TA.AperFunction,ComponentPad*%
%ADD10R,1.700000X1.700000*%
%TD*%
%TA.AperFunction,ComponentPad*%
%ADD11O,1.700000X1.700000*%
%TD*%
%TA.AperFunction,ComponentPad*%
%ADD12O,1.000000X2.100000*%
%TD*%
%TA.AperFunction,ComponentPad*%
%ADD13O,1.000000X1.800000*%
%TD*%
%TA.AperFunction,ViaPad*%
%ADD14C,0.800000*%
%TD*%
%TA.AperFunction,ViaPad*%
%ADD15C,0.500000*%
%TD*%
%TA.AperFunction,Conductor*%
%ADD16C,0.500000*%
%TD*%
G04 APERTURE END LIST*
D10*
%TO.N,+3V3*%
%TO.C,J3*%
X164915000Y-88530000D03*
D11*
%TO.N,IOL_2A*%
X164915000Y-91070000D03*
%TO.N,IOL_2B*%
X164915000Y-93610000D03*
%TO.N,IOT_52*%
X164915000Y-96150000D03*
%TO.N,IOT_53*%
X164915000Y-98690000D03*
%TO.N,IOT_50_GBIN1*%
X164915000Y-101230000D03*
%TO.N,IOL_4A*%
X164915000Y-103770000D03*
%TO.N,IOT_47*%
X164915000Y-106310000D03*
%TO.N,IOT_45*%
X164915000Y-108850000D03*
%TO.N,GND*%
X164915000Y-111390000D03*
%TD*%
D10*
%TO.N,+3V3*%
%TO.C,J2*%
X147115000Y-88550000D03*
D11*
%TO.N,IOL_4B_GBIN7*%
X147115000Y-91090000D03*
%TO.N,IOL_5B*%
X147115000Y-93630000D03*
%TO.N,IOL_5A_GBIN6*%
X147115000Y-96170000D03*
%TO.N,IOR_34*%
X147115000Y-98710000D03*
%TO.N,IOR_35_GBIN3*%
X147115000Y-101250000D03*
%TO.N,IOR_36_GBIN2*%
X147115000Y-103790000D03*
%TO.N,IOR_38*%
X147115000Y-106330000D03*
%TO.N,IOR_39*%
X147115000Y-108870000D03*
%TO.N,GND*%
X147115000Y-111410000D03*
%TD*%
D12*
%TO.N,unconnected-(J1-SHIELD-PadS1)*%
%TO.C,J1*%
X160330000Y-82900000D03*
D13*
X160330000Y-78720000D03*
D12*
X151690000Y-82900000D03*
D13*
X151690000Y-78720000D03*
%TD*%
D14*
%TO.N,+5V*%
X154600000Y-92000000D03*
X154900000Y-97300000D03*
X161520000Y-84455000D03*
%TO.N,GND*%
X163600000Y-119500000D03*
X151900000Y-84900000D03*
X151400000Y-97899999D03*
X151400000Y-99900000D03*
X156500000Y-119900000D03*
X164700000Y-113600000D03*
X153000000Y-96869500D03*
X155800000Y-78800000D03*
X159400000Y-91200000D03*
X152900000Y-91400000D03*
X157800001Y-78800000D03*
X150100000Y-88800000D03*
X158600000Y-95900000D03*
X150300000Y-96900000D03*
X153799999Y-78800000D03*
D15*
X161700000Y-93000000D03*
D14*
X151400000Y-101900001D03*
X153300000Y-94300000D03*
X161200000Y-109200000D03*
X156300000Y-107300000D03*
X153200000Y-106900000D03*
D15*
X149700000Y-112600000D03*
D14*
X156550000Y-118650000D03*
X149700000Y-80500000D03*
X150100000Y-84800000D03*
X150000000Y-102400000D03*
X151900000Y-87400000D03*
X149700000Y-78500000D03*
X160600000Y-88400000D03*
X155431635Y-91368365D03*
X146800000Y-119300000D03*
X162200000Y-79400000D03*
D15*
X152200000Y-115700000D03*
D14*
X154300000Y-119700000D03*
X149700000Y-82500000D03*
X159641121Y-117650468D03*
X150100000Y-86800000D03*
X146000000Y-120600000D03*
X156000000Y-112438990D03*
X163000000Y-87300000D03*
X157300000Y-87100000D03*
X159600000Y-84800000D03*
%TO.N,+3V3*%
X160400000Y-108500000D03*
X164700000Y-120100000D03*
X150000000Y-114700000D03*
X154700000Y-107200000D03*
X151500000Y-103700000D03*
X153000000Y-99300000D03*
X160400000Y-117000000D03*
X149700000Y-120900000D03*
X150200000Y-110600000D03*
X162800500Y-100700000D03*
D15*
%TO.N,SS*%
X152397937Y-110576525D03*
X156500000Y-101100000D03*
X155700000Y-97900000D03*
%TO.N,CRESET_B_CTL*%
X146800000Y-113000000D03*
X156300000Y-98600000D03*
%TO.N,IOL_4B_GBIN7*%
X158533627Y-108620571D03*
%TO.N,IOL_5A_GBIN6*%
X157003934Y-108596040D03*
%TO.N,IOT_50_GBIN1*%
X159500000Y-114149500D03*
%TO.N,MOSI*%
X152600000Y-109900000D03*
X153100000Y-105600000D03*
%TO.N,IOR_36_GBIN2*%
X153700000Y-115000000D03*
%TO.N,IOR_35_GBIN3*%
X153100000Y-114500000D03*
%TO.N,IOL_2A*%
X159800000Y-111100000D03*
%TO.N,IOL_2B*%
X159900000Y-111800000D03*
%TO.N,IOR_34*%
X152500000Y-113900000D03*
%TO.N,IOR_38*%
X154059891Y-115599818D03*
%TO.N,IOR_39*%
X154496826Y-116146070D03*
%TO.N,IOT_45*%
X157480298Y-116059602D03*
%TO.N,IOT_47*%
X157900000Y-115500000D03*
%TO.N,IOT_52*%
X160200000Y-112600000D03*
%TO.N,IOT_53*%
X160100000Y-113600000D03*
%TO.N,IOL_4A*%
X158700000Y-109300000D03*
%TO.N,IOL_5B*%
X157738543Y-108638543D03*
%TO.N,CRESET_B*%
X149300000Y-116000000D03*
X154500000Y-109200000D03*
%TO.N,SCK*%
X161200000Y-98500000D03*
X151600000Y-111100000D03*
X158800000Y-103600000D03*
%TO.N,MISO*%
X156500000Y-102400000D03*
X152900497Y-109200000D03*
X162000000Y-97400000D03*
%TO.N,Net-(D5-A)*%
X153638804Y-109160489D03*
X150450500Y-108400000D03*
%TD*%
D16*
%TO.N,+5V*%
X159800305Y-86725000D02*
X159049695Y-86725000D01*
X154900000Y-97300000D02*
X155600000Y-96600000D01*
X161520000Y-85005305D02*
X159800305Y-86725000D01*
X161520000Y-84455000D02*
X161520000Y-85005305D01*
X154600000Y-91174695D02*
X154600000Y-92000000D01*
X155600000Y-96600000D02*
X155600000Y-93000000D01*
X159049695Y-86725000D02*
X154600000Y-91174695D01*
X155600000Y-93000000D02*
X154600000Y-92000000D01*
%TD*%
%TA.AperFunction,Conductor*%
%TO.N,+3V3*%
G36*
X163142539Y-77020185D02*
G01*
X163188294Y-77072989D01*
X163199500Y-77124500D01*
X163199500Y-78867410D01*
X163179815Y-78934449D01*
X163127011Y-78980204D01*
X163057853Y-78990148D01*
X162994297Y-78961123D01*
X162968113Y-78929410D01*
X162956448Y-78909206D01*
X162932533Y-78867784D01*
X162805871Y-78727112D01*
X162805870Y-78727111D01*
X162652734Y-78615851D01*
X162652729Y-78615848D01*
X162479807Y-78538857D01*
X162479802Y-78538855D01*
X162334000Y-78507865D01*
X162294646Y-78499500D01*
X162105354Y-78499500D01*
X162072897Y-78506398D01*
X161920197Y-78538855D01*
X161920192Y-78538857D01*
X161747270Y-78615848D01*
X161747265Y-78615851D01*
X161594129Y-78727111D01*
X161594128Y-78727112D01*
X161546649Y-78779843D01*
X161487162Y-78816491D01*
X161417305Y-78815160D01*
X161359257Y-78776273D01*
X161331448Y-78712176D01*
X161330500Y-78696870D01*
X161330500Y-78269256D01*
X161315074Y-78117560D01*
X161254162Y-77923420D01*
X161254160Y-77923416D01*
X161254159Y-77923412D01*
X161155409Y-77745498D01*
X161155408Y-77745497D01*
X161155407Y-77745495D01*
X161022867Y-77591106D01*
X161022865Y-77591104D01*
X160861962Y-77466554D01*
X160861959Y-77466553D01*
X160861958Y-77466552D01*
X160679271Y-77376940D01*
X160482285Y-77325937D01*
X160482287Y-77325937D01*
X160346804Y-77319066D01*
X160279064Y-77315631D01*
X160279063Y-77315631D01*
X160279061Y-77315631D01*
X160077936Y-77346442D01*
X160077924Y-77346445D01*
X159887118Y-77417111D01*
X159887111Y-77417115D01*
X159714432Y-77524745D01*
X159714427Y-77524749D01*
X159566949Y-77664938D01*
X159566948Y-77664940D01*
X159450705Y-77831949D01*
X159370459Y-78018943D01*
X159329500Y-78218258D01*
X159329500Y-79170743D01*
X159344925Y-79322439D01*
X159405837Y-79516579D01*
X159405844Y-79516594D01*
X159504589Y-79694499D01*
X159504592Y-79694504D01*
X159637132Y-79848893D01*
X159637134Y-79848895D01*
X159798037Y-79973445D01*
X159798038Y-79973445D01*
X159798042Y-79973448D01*
X159980729Y-80063060D01*
X160177715Y-80114063D01*
X160380936Y-80124369D01*
X160582071Y-80093556D01*
X160772887Y-80022886D01*
X160945571Y-79915252D01*
X161093053Y-79775059D01*
X161142705Y-79703720D01*
X161197157Y-79659945D01*
X161266635Y-79652556D01*
X161329078Y-79683902D01*
X161362408Y-79736240D01*
X161372817Y-79768274D01*
X161372821Y-79768284D01*
X161467467Y-79932216D01*
X161499493Y-79967784D01*
X161594129Y-80072888D01*
X161747265Y-80184148D01*
X161747270Y-80184151D01*
X161920192Y-80261142D01*
X161920197Y-80261144D01*
X162105354Y-80300500D01*
X162105355Y-80300500D01*
X162294644Y-80300500D01*
X162294646Y-80300500D01*
X162479803Y-80261144D01*
X162652730Y-80184151D01*
X162805871Y-80072888D01*
X162932533Y-79932216D01*
X162968113Y-79870588D01*
X163018679Y-79822374D01*
X163087286Y-79809150D01*
X163152151Y-79835118D01*
X163192680Y-79892032D01*
X163199500Y-79932589D01*
X163199500Y-86275500D01*
X163179815Y-86342539D01*
X163127011Y-86388294D01*
X163075500Y-86399500D01*
X162905354Y-86399500D01*
X162872897Y-86406398D01*
X162720197Y-86438855D01*
X162720192Y-86438857D01*
X162547270Y-86515848D01*
X162547265Y-86515851D01*
X162394129Y-86627111D01*
X162267466Y-86767785D01*
X162172821Y-86931715D01*
X162172818Y-86931722D01*
X162118142Y-87099999D01*
X162114326Y-87111744D01*
X162094540Y-87300000D01*
X162114326Y-87488256D01*
X162114327Y-87488259D01*
X162172818Y-87668277D01*
X162172821Y-87668284D01*
X162267467Y-87832216D01*
X162363487Y-87938857D01*
X162394129Y-87972888D01*
X162547265Y-88084148D01*
X162547270Y-88084151D01*
X162720192Y-88161142D01*
X162720197Y-88161144D01*
X162905354Y-88200500D01*
X162905355Y-88200500D01*
X163094644Y-88200500D01*
X163094646Y-88200500D01*
X163279803Y-88161144D01*
X163452730Y-88084151D01*
X163605871Y-87972888D01*
X163732533Y-87832216D01*
X163827179Y-87668284D01*
X163885674Y-87488256D01*
X163905460Y-87300000D01*
X163885674Y-87111744D01*
X163827179Y-86931716D01*
X163743339Y-86786500D01*
X163726866Y-86718599D01*
X163749719Y-86652573D01*
X163804640Y-86609382D01*
X163850726Y-86600500D01*
X166775500Y-86600500D01*
X166842539Y-86620185D01*
X166888294Y-86672989D01*
X166899500Y-86724500D01*
X166899500Y-121475500D01*
X166879815Y-121542539D01*
X166827011Y-121588294D01*
X166775500Y-121599500D01*
X146537961Y-121599500D01*
X146470922Y-121579815D01*
X146425167Y-121527011D01*
X146415223Y-121457853D01*
X146444248Y-121394297D01*
X146465076Y-121375182D01*
X146541306Y-121319796D01*
X146605871Y-121272888D01*
X146732533Y-121132216D01*
X146827179Y-120968284D01*
X146885674Y-120788256D01*
X146905460Y-120600000D01*
X146885674Y-120411744D01*
X146864605Y-120346903D01*
X146862611Y-120277065D01*
X146898691Y-120217232D01*
X146956750Y-120187299D01*
X147079803Y-120161144D01*
X147079807Y-120161142D01*
X147079808Y-120161142D01*
X147138058Y-120135206D01*
X147252730Y-120084151D01*
X147405871Y-119972888D01*
X147532533Y-119832216D01*
X147608868Y-119700000D01*
X153394540Y-119700000D01*
X153414326Y-119888256D01*
X153414327Y-119888259D01*
X153472818Y-120068277D01*
X153472821Y-120068284D01*
X153567467Y-120232216D01*
X153614227Y-120284148D01*
X153694129Y-120372888D01*
X153847265Y-120484148D01*
X153847270Y-120484151D01*
X154020192Y-120561142D01*
X154020197Y-120561144D01*
X154205354Y-120600500D01*
X154205355Y-120600500D01*
X154394644Y-120600500D01*
X154394646Y-120600500D01*
X154579803Y-120561144D01*
X154752730Y-120484151D01*
X154905871Y-120372888D01*
X155032533Y-120232216D01*
X155127179Y-120068284D01*
X155181858Y-119900000D01*
X155594540Y-119900000D01*
X155614326Y-120088256D01*
X155614327Y-120088259D01*
X155672818Y-120268277D01*
X155672821Y-120268284D01*
X155767467Y-120432216D01*
X155814227Y-120484148D01*
X155894129Y-120572888D01*
X156047265Y-120684148D01*
X156047270Y-120684151D01*
X156220192Y-120761142D01*
X156220197Y-120761144D01*
X156405354Y-120800500D01*
X156405355Y-120800500D01*
X156594644Y-120800500D01*
X156594646Y-120800500D01*
X156779803Y-120761144D01*
X156952730Y-120684151D01*
X157105871Y-120572888D01*
X157232533Y-120432216D01*
X157327179Y-120268284D01*
X157385674Y-120088256D01*
X157405460Y-119900000D01*
X157385674Y-119711744D01*
X157327179Y-119531716D01*
X157308868Y-119500000D01*
X162694540Y-119500000D01*
X162714326Y-119688256D01*
X162714327Y-119688259D01*
X162772818Y-119868277D01*
X162772821Y-119868284D01*
X162867467Y-120032216D01*
X162983553Y-120161142D01*
X162994129Y-120172888D01*
X163147265Y-120284148D01*
X163147270Y-120284151D01*
X163320192Y-120361142D01*
X163320197Y-120361144D01*
X163505354Y-120400500D01*
X163505355Y-120400500D01*
X163694644Y-120400500D01*
X163694646Y-120400500D01*
X163879803Y-120361144D01*
X164052730Y-120284151D01*
X164205871Y-120172888D01*
X164332533Y-120032216D01*
X164427179Y-119868284D01*
X164485674Y-119688256D01*
X164505460Y-119500000D01*
X164485674Y-119311744D01*
X164427179Y-119131716D01*
X164332533Y-118967784D01*
X164205871Y-118827112D01*
X164205870Y-118827111D01*
X164052734Y-118715851D01*
X164052729Y-118715848D01*
X163879807Y-118638857D01*
X163879802Y-118638855D01*
X163734001Y-118607865D01*
X163694646Y-118599500D01*
X163505354Y-118599500D01*
X163472897Y-118606398D01*
X163320197Y-118638855D01*
X163320192Y-118638857D01*
X163147270Y-118715848D01*
X163147265Y-118715851D01*
X162994129Y-118827111D01*
X162867466Y-118967785D01*
X162772821Y-119131715D01*
X162772818Y-119131722D01*
X162718573Y-119298672D01*
X162714326Y-119311744D01*
X162694540Y-119500000D01*
X157308868Y-119500000D01*
X157232533Y-119367784D01*
X157232532Y-119367783D01*
X157231833Y-119366572D01*
X157215360Y-119298672D01*
X157238213Y-119232645D01*
X157247064Y-119221607D01*
X157282533Y-119182216D01*
X157377179Y-119018284D01*
X157435674Y-118838256D01*
X157455460Y-118650000D01*
X157435674Y-118461744D01*
X157377179Y-118281716D01*
X157282533Y-118117784D01*
X157155871Y-117977112D01*
X157155870Y-117977111D01*
X157002734Y-117865851D01*
X157002729Y-117865848D01*
X156829807Y-117788857D01*
X156829802Y-117788855D01*
X156684000Y-117757865D01*
X156644646Y-117749500D01*
X156455354Y-117749500D01*
X156422897Y-117756398D01*
X156270197Y-117788855D01*
X156270192Y-117788857D01*
X156097270Y-117865848D01*
X156097265Y-117865851D01*
X155944129Y-117977111D01*
X155817466Y-118117785D01*
X155722821Y-118281715D01*
X155722818Y-118281722D01*
X155671762Y-118438857D01*
X155664326Y-118461744D01*
X155644540Y-118650000D01*
X155664326Y-118838256D01*
X155664327Y-118838259D01*
X155722818Y-119018277D01*
X155722823Y-119018289D01*
X155818165Y-119183427D01*
X155834638Y-119251327D01*
X155811785Y-119317354D01*
X155802929Y-119328397D01*
X155767470Y-119367778D01*
X155767465Y-119367785D01*
X155672821Y-119531715D01*
X155672818Y-119531722D01*
X155618304Y-119699500D01*
X155614326Y-119711744D01*
X155594540Y-119900000D01*
X155181858Y-119900000D01*
X155185674Y-119888256D01*
X155205460Y-119700000D01*
X155185674Y-119511744D01*
X155127179Y-119331716D01*
X155032533Y-119167784D01*
X154905871Y-119027112D01*
X154905870Y-119027111D01*
X154752734Y-118915851D01*
X154752729Y-118915848D01*
X154579807Y-118838857D01*
X154579802Y-118838855D01*
X154434001Y-118807865D01*
X154394646Y-118799500D01*
X154205354Y-118799500D01*
X154172897Y-118806398D01*
X154020197Y-118838855D01*
X154020192Y-118838857D01*
X153847270Y-118915848D01*
X153847265Y-118915851D01*
X153694129Y-119027111D01*
X153567466Y-119167785D01*
X153472821Y-119331715D01*
X153472818Y-119331722D01*
X153418142Y-119500000D01*
X153414326Y-119511744D01*
X153394540Y-119700000D01*
X147608868Y-119700000D01*
X147627179Y-119668284D01*
X147685674Y-119488256D01*
X147705460Y-119300000D01*
X147685674Y-119111744D01*
X147627179Y-118931716D01*
X147532533Y-118767784D01*
X147405871Y-118627112D01*
X147405870Y-118627111D01*
X147252734Y-118515851D01*
X147252729Y-118515848D01*
X147079807Y-118438857D01*
X147079802Y-118438855D01*
X146934001Y-118407865D01*
X146894646Y-118399500D01*
X146705354Y-118399500D01*
X146672897Y-118406398D01*
X146520197Y-118438855D01*
X146520192Y-118438857D01*
X146347270Y-118515848D01*
X146347265Y-118515851D01*
X146194129Y-118627111D01*
X146067466Y-118767785D01*
X145972821Y-118931715D01*
X145972818Y-118931722D01*
X145914327Y-119111740D01*
X145914326Y-119111744D01*
X145906792Y-119183427D01*
X145894680Y-119298672D01*
X145894540Y-119300000D01*
X145914326Y-119488256D01*
X145914327Y-119488259D01*
X145935393Y-119553094D01*
X145937388Y-119622935D01*
X145901308Y-119682768D01*
X145843243Y-119712702D01*
X145720197Y-119738855D01*
X145720192Y-119738857D01*
X145547270Y-119815848D01*
X145547265Y-119815851D01*
X145394129Y-119927111D01*
X145394128Y-119927112D01*
X145316649Y-120013161D01*
X145257163Y-120049809D01*
X145187306Y-120048478D01*
X145129258Y-120009591D01*
X145101448Y-119945494D01*
X145100500Y-119930188D01*
X145100500Y-117650468D01*
X158735661Y-117650468D01*
X158755447Y-117838724D01*
X158755448Y-117838727D01*
X158813939Y-118018745D01*
X158813942Y-118018752D01*
X158908588Y-118182684D01*
X159035250Y-118323356D01*
X159188386Y-118434616D01*
X159188391Y-118434619D01*
X159361313Y-118511610D01*
X159361318Y-118511612D01*
X159546475Y-118550968D01*
X159546476Y-118550968D01*
X159735765Y-118550968D01*
X159735767Y-118550968D01*
X159920924Y-118511612D01*
X160093851Y-118434619D01*
X160246992Y-118323356D01*
X160373654Y-118182684D01*
X160468300Y-118018752D01*
X160526795Y-117838724D01*
X160546581Y-117650468D01*
X160526795Y-117462212D01*
X160468300Y-117282184D01*
X160373654Y-117118252D01*
X160246992Y-116977580D01*
X160246991Y-116977579D01*
X160093855Y-116866319D01*
X160093850Y-116866316D01*
X159920928Y-116789325D01*
X159920923Y-116789323D01*
X159760612Y-116755249D01*
X159735767Y-116749968D01*
X159546475Y-116749968D01*
X159521630Y-116755249D01*
X159361318Y-116789323D01*
X159361313Y-116789325D01*
X159188391Y-116866316D01*
X159188386Y-116866319D01*
X159035250Y-116977579D01*
X158908587Y-117118253D01*
X158813942Y-117282183D01*
X158813939Y-117282190D01*
X158755448Y-117462208D01*
X158755447Y-117462212D01*
X158735661Y-117650468D01*
X145100500Y-117650468D01*
X145100500Y-116000002D01*
X148544751Y-116000002D01*
X148563685Y-116168056D01*
X148619545Y-116327694D01*
X148619547Y-116327697D01*
X148709518Y-116470884D01*
X148709523Y-116470890D01*
X148829109Y-116590476D01*
X148829115Y-116590481D01*
X148972302Y-116680452D01*
X148972305Y-116680454D01*
X148972309Y-116680455D01*
X148972310Y-116680456D01*
X149044913Y-116705860D01*
X149131943Y-116736314D01*
X149299997Y-116755249D01*
X149300000Y-116755249D01*
X149300003Y-116755249D01*
X149468056Y-116736314D01*
X149468059Y-116736313D01*
X149627690Y-116680456D01*
X149627692Y-116680454D01*
X149627694Y-116680454D01*
X149627697Y-116680452D01*
X149770884Y-116590481D01*
X149770885Y-116590480D01*
X149770890Y-116590477D01*
X149890477Y-116470890D01*
X149912203Y-116436314D01*
X149980452Y-116327697D01*
X149980454Y-116327694D01*
X149980454Y-116327692D01*
X149980456Y-116327690D01*
X150036313Y-116168059D01*
X150036313Y-116168058D01*
X150036314Y-116168056D01*
X150055249Y-116000002D01*
X150055249Y-115999997D01*
X150036314Y-115831943D01*
X150005860Y-115744913D01*
X149990146Y-115700002D01*
X151444751Y-115700002D01*
X151463685Y-115868056D01*
X151519545Y-116027694D01*
X151519547Y-116027697D01*
X151609518Y-116170884D01*
X151609523Y-116170890D01*
X151729109Y-116290476D01*
X151729115Y-116290481D01*
X151872302Y-116380452D01*
X151872305Y-116380454D01*
X151872309Y-116380455D01*
X151872310Y-116380456D01*
X151944913Y-116405860D01*
X152031943Y-116436314D01*
X152199997Y-116455249D01*
X152200000Y-116455249D01*
X152200003Y-116455249D01*
X152368056Y-116436314D01*
X152368059Y-116436313D01*
X152527690Y-116380456D01*
X152527692Y-116380454D01*
X152527694Y-116380454D01*
X152527697Y-116380452D01*
X152670884Y-116290481D01*
X152670885Y-116290480D01*
X152670890Y-116290477D01*
X152790477Y-116170890D01*
X152790481Y-116170884D01*
X152880452Y-116027697D01*
X152880454Y-116027694D01*
X152880454Y-116027692D01*
X152880456Y-116027690D01*
X152936313Y-115868059D01*
X152936313Y-115868058D01*
X152936314Y-115868056D01*
X152955249Y-115700002D01*
X152955249Y-115699997D01*
X152946244Y-115620077D01*
X152958298Y-115551255D01*
X153005647Y-115499875D01*
X153073258Y-115482251D01*
X153139663Y-115503977D01*
X153157145Y-115518512D01*
X153229110Y-115590477D01*
X153258701Y-115609070D01*
X153304992Y-115661405D01*
X153315949Y-115700179D01*
X153323576Y-115767871D01*
X153379435Y-115927510D01*
X153379438Y-115927515D01*
X153469409Y-116070702D01*
X153469414Y-116070708D01*
X153589001Y-116190295D01*
X153716570Y-116270452D01*
X153762859Y-116322785D01*
X153767638Y-116334490D01*
X153816370Y-116473761D01*
X153816373Y-116473767D01*
X153906344Y-116616954D01*
X153906349Y-116616960D01*
X154025935Y-116736546D01*
X154025941Y-116736551D01*
X154169128Y-116826522D01*
X154169131Y-116826524D01*
X154169135Y-116826525D01*
X154169136Y-116826526D01*
X154241739Y-116851930D01*
X154328769Y-116882384D01*
X154496823Y-116901319D01*
X154496826Y-116901319D01*
X154496829Y-116901319D01*
X154664882Y-116882384D01*
X154664885Y-116882383D01*
X154824516Y-116826526D01*
X154824518Y-116826524D01*
X154824520Y-116826524D01*
X154824523Y-116826522D01*
X154967710Y-116736551D01*
X154967711Y-116736550D01*
X154967716Y-116736547D01*
X155087303Y-116616960D01*
X155103941Y-116590481D01*
X155177278Y-116473767D01*
X155177280Y-116473764D01*
X155177281Y-116473761D01*
X155177282Y-116473760D01*
X155233139Y-116314129D01*
X155233139Y-116314128D01*
X155233140Y-116314126D01*
X155252075Y-116146072D01*
X155252075Y-116146067D01*
X155242333Y-116059604D01*
X156725049Y-116059604D01*
X156743983Y-116227658D01*
X156799843Y-116387296D01*
X156799845Y-116387299D01*
X156889816Y-116530486D01*
X156889821Y-116530492D01*
X157009407Y-116650078D01*
X157009413Y-116650083D01*
X157152600Y-116740054D01*
X157152603Y-116740056D01*
X157152607Y-116740057D01*
X157152608Y-116740058D01*
X157196022Y-116755249D01*
X157312241Y-116795916D01*
X157480295Y-116814851D01*
X157480298Y-116814851D01*
X157480301Y-116814851D01*
X157648354Y-116795916D01*
X157667196Y-116789323D01*
X157807988Y-116740058D01*
X157807990Y-116740056D01*
X157807992Y-116740056D01*
X157807995Y-116740054D01*
X157951182Y-116650083D01*
X157951183Y-116650082D01*
X157951188Y-116650079D01*
X158070775Y-116530492D01*
X158106422Y-116473761D01*
X158160750Y-116387299D01*
X158160753Y-116387293D01*
X158160754Y-116387292D01*
X158216611Y-116227661D01*
X158216611Y-116227660D01*
X158218911Y-116221088D01*
X158220922Y-116221791D01*
X158250000Y-116169788D01*
X158270817Y-116153356D01*
X158370890Y-116090477D01*
X158490477Y-115970890D01*
X158490481Y-115970884D01*
X158580452Y-115827697D01*
X158580454Y-115827694D01*
X158580454Y-115827692D01*
X158580456Y-115827690D01*
X158636313Y-115668059D01*
X158636313Y-115668058D01*
X158636314Y-115668056D01*
X158655249Y-115500002D01*
X158655249Y-115499997D01*
X158636314Y-115331943D01*
X158580454Y-115172305D01*
X158580452Y-115172302D01*
X158490481Y-115029115D01*
X158490476Y-115029109D01*
X158370890Y-114909523D01*
X158370884Y-114909518D01*
X158227697Y-114819547D01*
X158227694Y-114819545D01*
X158068056Y-114763685D01*
X157900003Y-114744751D01*
X157899997Y-114744751D01*
X157731943Y-114763685D01*
X157572305Y-114819545D01*
X157572302Y-114819547D01*
X157429115Y-114909518D01*
X157429109Y-114909523D01*
X157309523Y-115029109D01*
X157309518Y-115029115D01*
X157219547Y-115172302D01*
X157219544Y-115172307D01*
X157194865Y-115242838D01*
X157163687Y-115331941D01*
X157163686Y-115331943D01*
X157161388Y-115338513D01*
X157159381Y-115337811D01*
X157130275Y-115389835D01*
X157109474Y-115406249D01*
X157009407Y-115469125D01*
X156889821Y-115588711D01*
X156889816Y-115588717D01*
X156799845Y-115731904D01*
X156799843Y-115731907D01*
X156743983Y-115891545D01*
X156725049Y-116059599D01*
X156725049Y-116059604D01*
X155242333Y-116059604D01*
X155233140Y-115978013D01*
X155180541Y-115827694D01*
X155177282Y-115818380D01*
X155177281Y-115818379D01*
X155177280Y-115818375D01*
X155177278Y-115818372D01*
X155087307Y-115675185D01*
X155087302Y-115675179D01*
X154967714Y-115555591D01*
X154840147Y-115475435D01*
X154793857Y-115423101D01*
X154789083Y-115411408D01*
X154740347Y-115272128D01*
X154740346Y-115272125D01*
X154740343Y-115272120D01*
X154650372Y-115128933D01*
X154650367Y-115128927D01*
X154530782Y-115009342D01*
X154530781Y-115009341D01*
X154501186Y-114990745D01*
X154454896Y-114938409D01*
X154443940Y-114899634D01*
X154436314Y-114831943D01*
X154380455Y-114672308D01*
X154380452Y-114672302D01*
X154290481Y-114529115D01*
X154290476Y-114529109D01*
X154170890Y-114409523D01*
X154170884Y-114409518D01*
X154027697Y-114319547D01*
X154027692Y-114319544D01*
X153915979Y-114280455D01*
X153868059Y-114263687D01*
X153868056Y-114263686D01*
X153861487Y-114261388D01*
X153862503Y-114258484D01*
X153813405Y-114230996D01*
X153784966Y-114185200D01*
X153780456Y-114172310D01*
X153780454Y-114172307D01*
X153780454Y-114172306D01*
X153780452Y-114172302D01*
X153766126Y-114149502D01*
X158744751Y-114149502D01*
X158763685Y-114317556D01*
X158819545Y-114477194D01*
X158819547Y-114477197D01*
X158909518Y-114620384D01*
X158909523Y-114620390D01*
X159029109Y-114739976D01*
X159029115Y-114739981D01*
X159172302Y-114829952D01*
X159172305Y-114829954D01*
X159172309Y-114829955D01*
X159172310Y-114829956D01*
X159177983Y-114831941D01*
X159331943Y-114885814D01*
X159499997Y-114904749D01*
X159500000Y-114904749D01*
X159500003Y-114904749D01*
X159668056Y-114885814D01*
X159668059Y-114885813D01*
X159827690Y-114829956D01*
X159827692Y-114829954D01*
X159827694Y-114829954D01*
X159827697Y-114829952D01*
X159970884Y-114739981D01*
X159970885Y-114739980D01*
X159970890Y-114739977D01*
X160090477Y-114620390D01*
X160090481Y-114620384D01*
X160180452Y-114477197D01*
X160180456Y-114477189D01*
X160186071Y-114461144D01*
X160204682Y-114407953D01*
X160245403Y-114351177D01*
X160280768Y-114331865D01*
X160427690Y-114280456D01*
X160427693Y-114280453D01*
X160427697Y-114280452D01*
X160570884Y-114190481D01*
X160570885Y-114190480D01*
X160570890Y-114190477D01*
X160690477Y-114070890D01*
X160716726Y-114029115D01*
X160780452Y-113927697D01*
X160780454Y-113927694D01*
X160780454Y-113927692D01*
X160780456Y-113927690D01*
X160836313Y-113768059D01*
X160836313Y-113768058D01*
X160836314Y-113768056D01*
X160855249Y-113600002D01*
X160855249Y-113599997D01*
X160836314Y-113431943D01*
X160803963Y-113339490D01*
X160780456Y-113272310D01*
X160759210Y-113238497D01*
X160740210Y-113171261D01*
X160760578Y-113104425D01*
X160776521Y-113084845D01*
X160790477Y-113070890D01*
X160880456Y-112927690D01*
X160936313Y-112768059D01*
X160936313Y-112768058D01*
X160936314Y-112768056D01*
X160955249Y-112600002D01*
X160955249Y-112599997D01*
X160936314Y-112431943D01*
X160880454Y-112272305D01*
X160880452Y-112272302D01*
X160790481Y-112129115D01*
X160790476Y-112129109D01*
X160677841Y-112016474D01*
X160644356Y-111955151D01*
X160642302Y-111914909D01*
X160655249Y-111800002D01*
X160655249Y-111799997D01*
X160636314Y-111631943D01*
X160588504Y-111495310D01*
X160580456Y-111472310D01*
X160580454Y-111472307D01*
X160580454Y-111472306D01*
X160537967Y-111404689D01*
X160533816Y-111390000D01*
X163559341Y-111390000D01*
X163579936Y-111625403D01*
X163579938Y-111625413D01*
X163641094Y-111853655D01*
X163641096Y-111853659D01*
X163641097Y-111853663D01*
X163694441Y-111968059D01*
X163740965Y-112067830D01*
X163740967Y-112067834D01*
X163783877Y-112129115D01*
X163876505Y-112261401D01*
X164043599Y-112428495D01*
X164237170Y-112564035D01*
X164271758Y-112580163D01*
X164324194Y-112626333D01*
X164343347Y-112693527D01*
X164323132Y-112760408D01*
X164269967Y-112805743D01*
X164269789Y-112805822D01*
X164247272Y-112815847D01*
X164247265Y-112815851D01*
X164094129Y-112927111D01*
X163967466Y-113067785D01*
X163872821Y-113231715D01*
X163872818Y-113231722D01*
X163837134Y-113341548D01*
X163814326Y-113411744D01*
X163794540Y-113600000D01*
X163814326Y-113788256D01*
X163814327Y-113788259D01*
X163872818Y-113968277D01*
X163872821Y-113968284D01*
X163967467Y-114132216D01*
X164053436Y-114227694D01*
X164094129Y-114272888D01*
X164247265Y-114384148D01*
X164247270Y-114384151D01*
X164420192Y-114461142D01*
X164420197Y-114461144D01*
X164605354Y-114500500D01*
X164605355Y-114500500D01*
X164794644Y-114500500D01*
X164794646Y-114500500D01*
X164979803Y-114461144D01*
X165152730Y-114384151D01*
X165305871Y-114272888D01*
X165432533Y-114132216D01*
X165527179Y-113968284D01*
X165585674Y-113788256D01*
X165605460Y-113600000D01*
X165585674Y-113411744D01*
X165527179Y-113231716D01*
X165432533Y-113067784D01*
X165305871Y-112927112D01*
X165271138Y-112901877D01*
X165228472Y-112846547D01*
X165222493Y-112776934D01*
X165255098Y-112715139D01*
X165311930Y-112681784D01*
X165347482Y-112672257D01*
X165378663Y-112663903D01*
X165592830Y-112564035D01*
X165786401Y-112428495D01*
X165953495Y-112261401D01*
X166089035Y-112067830D01*
X166188903Y-111853663D01*
X166250063Y-111625408D01*
X166270659Y-111390000D01*
X166250063Y-111154592D01*
X166188903Y-110926337D01*
X166089035Y-110712171D01*
X166030876Y-110629110D01*
X165953494Y-110518597D01*
X165786402Y-110351506D01*
X165786396Y-110351501D01*
X165600842Y-110221575D01*
X165557217Y-110166998D01*
X165550023Y-110097500D01*
X165581546Y-110035145D01*
X165600842Y-110018425D01*
X165718108Y-109936314D01*
X165786401Y-109888495D01*
X165953495Y-109721401D01*
X166089035Y-109527830D01*
X166188903Y-109313663D01*
X166250063Y-109085408D01*
X166270659Y-108850000D01*
X166250063Y-108614592D01*
X166193968Y-108405240D01*
X166188905Y-108386344D01*
X166188904Y-108386343D01*
X166188903Y-108386337D01*
X166089035Y-108172171D01*
X166081313Y-108161142D01*
X165953494Y-107978597D01*
X165786402Y-107811506D01*
X165786396Y-107811501D01*
X165600842Y-107681575D01*
X165557217Y-107626998D01*
X165550023Y-107557500D01*
X165581546Y-107495145D01*
X165600842Y-107478425D01*
X165666838Y-107432214D01*
X165786401Y-107348495D01*
X165953495Y-107181401D01*
X166089035Y-106987830D01*
X166188903Y-106773663D01*
X166250063Y-106545408D01*
X166270659Y-106310000D01*
X166250063Y-106074592D01*
X166188903Y-105846337D01*
X166089035Y-105632171D01*
X166066511Y-105600002D01*
X165953494Y-105438597D01*
X165786402Y-105271506D01*
X165786396Y-105271501D01*
X165600842Y-105141575D01*
X165557217Y-105086998D01*
X165550023Y-105017500D01*
X165581546Y-104955145D01*
X165600842Y-104938425D01*
X165627807Y-104919544D01*
X165786401Y-104808495D01*
X165953495Y-104641401D01*
X166089035Y-104447830D01*
X166188903Y-104233663D01*
X166250063Y-104005408D01*
X166270659Y-103770000D01*
X166250063Y-103534592D01*
X166188903Y-103306337D01*
X166089035Y-103092171D01*
X166080833Y-103080456D01*
X165953494Y-102898597D01*
X165786402Y-102731506D01*
X165786396Y-102731501D01*
X165600842Y-102601575D01*
X165557217Y-102546998D01*
X165550023Y-102477500D01*
X165581546Y-102415145D01*
X165600842Y-102398425D01*
X165623026Y-102382891D01*
X165786401Y-102268495D01*
X165953495Y-102101401D01*
X166089035Y-101907830D01*
X166188903Y-101693663D01*
X166250063Y-101465408D01*
X166270659Y-101230000D01*
X166250063Y-100994592D01*
X166192218Y-100778709D01*
X166188905Y-100766344D01*
X166188904Y-100766343D01*
X166188903Y-100766337D01*
X166089035Y-100552171D01*
X166059170Y-100509518D01*
X165953494Y-100358597D01*
X165786402Y-100191506D01*
X165786396Y-100191501D01*
X165600842Y-100061575D01*
X165557217Y-100006998D01*
X165550023Y-99937500D01*
X165581546Y-99875145D01*
X165600842Y-99858425D01*
X165623026Y-99842891D01*
X165786401Y-99728495D01*
X165953495Y-99561401D01*
X166089035Y-99367830D01*
X166188903Y-99153663D01*
X166188905Y-99153651D01*
X166188908Y-99153647D01*
X166230368Y-98998911D01*
X166250063Y-98925408D01*
X166270659Y-98690000D01*
X166250063Y-98454592D01*
X166188903Y-98226337D01*
X166089035Y-98012171D01*
X166087178Y-98009518D01*
X165953494Y-97818597D01*
X165786402Y-97651506D01*
X165786396Y-97651501D01*
X165600842Y-97521575D01*
X165557217Y-97466998D01*
X165550023Y-97397500D01*
X165581546Y-97335145D01*
X165600842Y-97318425D01*
X165623026Y-97302891D01*
X165786401Y-97188495D01*
X165953495Y-97021401D01*
X166089035Y-96827830D01*
X166188903Y-96613663D01*
X166250063Y-96385408D01*
X166270659Y-96150000D01*
X166250063Y-95914592D01*
X166188903Y-95686337D01*
X166089035Y-95472171D01*
X166015944Y-95367785D01*
X165953494Y-95278597D01*
X165786402Y-95111506D01*
X165786396Y-95111501D01*
X165600842Y-94981575D01*
X165557217Y-94926998D01*
X165550023Y-94857500D01*
X165581546Y-94795145D01*
X165600842Y-94778425D01*
X165623026Y-94762891D01*
X165786401Y-94648495D01*
X165953495Y-94481401D01*
X166089035Y-94287830D01*
X166188903Y-94073663D01*
X166250063Y-93845408D01*
X166270659Y-93610000D01*
X166250063Y-93374592D01*
X166188903Y-93146337D01*
X166089035Y-92932171D01*
X166083121Y-92923724D01*
X165953494Y-92738597D01*
X165786402Y-92571506D01*
X165786396Y-92571501D01*
X165600842Y-92441575D01*
X165557217Y-92386998D01*
X165550023Y-92317500D01*
X165581546Y-92255145D01*
X165600842Y-92238425D01*
X165672489Y-92188257D01*
X165786401Y-92108495D01*
X165953495Y-91941401D01*
X166089035Y-91747830D01*
X166188903Y-91533663D01*
X166250063Y-91305408D01*
X166270659Y-91070000D01*
X166250063Y-90834592D01*
X166194261Y-90626335D01*
X166188905Y-90606344D01*
X166188904Y-90606343D01*
X166188903Y-90606337D01*
X166089035Y-90392171D01*
X166051705Y-90338857D01*
X165953494Y-90198597D01*
X165786402Y-90031506D01*
X165786395Y-90031501D01*
X165592834Y-89895967D01*
X165592830Y-89895965D01*
X165592828Y-89895964D01*
X165378663Y-89796097D01*
X165378659Y-89796096D01*
X165378655Y-89796094D01*
X165150413Y-89734938D01*
X165150403Y-89734936D01*
X164915001Y-89714341D01*
X164914999Y-89714341D01*
X164679596Y-89734936D01*
X164679586Y-89734938D01*
X164451344Y-89796094D01*
X164451335Y-89796098D01*
X164237171Y-89895964D01*
X164237169Y-89895965D01*
X164043597Y-90031505D01*
X163876505Y-90198597D01*
X163740965Y-90392169D01*
X163740964Y-90392171D01*
X163641098Y-90606335D01*
X163641094Y-90606344D01*
X163579938Y-90834586D01*
X163579936Y-90834596D01*
X163559341Y-91069999D01*
X163559341Y-91070000D01*
X163579936Y-91305403D01*
X163579938Y-91305413D01*
X163641094Y-91533655D01*
X163641096Y-91533659D01*
X163641097Y-91533663D01*
X163666556Y-91588259D01*
X163740965Y-91747830D01*
X163740967Y-91747834D01*
X163876501Y-91941395D01*
X163876506Y-91941402D01*
X164043597Y-92108493D01*
X164043603Y-92108498D01*
X164229158Y-92238425D01*
X164272783Y-92293002D01*
X164279977Y-92362500D01*
X164248454Y-92424855D01*
X164229158Y-92441575D01*
X164043597Y-92571505D01*
X163876505Y-92738597D01*
X163740965Y-92932169D01*
X163740964Y-92932171D01*
X163641098Y-93146335D01*
X163641094Y-93146344D01*
X163579938Y-93374586D01*
X163579936Y-93374596D01*
X163559341Y-93609999D01*
X163559341Y-93610000D01*
X163579936Y-93845403D01*
X163579938Y-93845413D01*
X163641094Y-94073655D01*
X163641096Y-94073659D01*
X163641097Y-94073663D01*
X163650424Y-94093664D01*
X163740965Y-94287830D01*
X163740967Y-94287834D01*
X163876501Y-94481395D01*
X163876506Y-94481402D01*
X164043597Y-94648493D01*
X164043603Y-94648498D01*
X164229158Y-94778425D01*
X164272783Y-94833002D01*
X164279977Y-94902500D01*
X164248454Y-94964855D01*
X164229158Y-94981575D01*
X164043597Y-95111505D01*
X163876505Y-95278597D01*
X163740965Y-95472169D01*
X163740964Y-95472171D01*
X163641098Y-95686335D01*
X163641094Y-95686344D01*
X163579938Y-95914586D01*
X163579936Y-95914596D01*
X163559341Y-96149999D01*
X163559341Y-96150000D01*
X163579936Y-96385403D01*
X163579938Y-96385413D01*
X163641094Y-96613655D01*
X163641096Y-96613659D01*
X163641097Y-96613663D01*
X163722310Y-96787825D01*
X163740965Y-96827830D01*
X163740967Y-96827834D01*
X163876501Y-97021395D01*
X163876506Y-97021402D01*
X164043597Y-97188493D01*
X164043603Y-97188498D01*
X164229158Y-97318425D01*
X164272783Y-97373002D01*
X164279977Y-97442500D01*
X164248454Y-97504855D01*
X164229158Y-97521575D01*
X164043597Y-97651505D01*
X163876505Y-97818597D01*
X163740965Y-98012169D01*
X163740964Y-98012171D01*
X163641098Y-98226335D01*
X163641094Y-98226344D01*
X163579938Y-98454586D01*
X163579936Y-98454596D01*
X163559341Y-98689999D01*
X163559341Y-98690000D01*
X163579936Y-98925403D01*
X163579938Y-98925413D01*
X163641092Y-99153647D01*
X163641094Y-99153655D01*
X163641097Y-99153663D01*
X163700220Y-99280452D01*
X163740965Y-99367830D01*
X163740967Y-99367834D01*
X163876501Y-99561395D01*
X163876506Y-99561402D01*
X164043597Y-99728493D01*
X164043603Y-99728498D01*
X164229158Y-99858425D01*
X164272783Y-99913002D01*
X164279977Y-99982500D01*
X164248454Y-100044855D01*
X164229158Y-100061575D01*
X164043597Y-100191505D01*
X163876505Y-100358597D01*
X163740965Y-100552169D01*
X163740964Y-100552171D01*
X163679421Y-100684151D01*
X163643520Y-100761142D01*
X163641098Y-100766335D01*
X163641094Y-100766344D01*
X163579938Y-100994586D01*
X163579936Y-100994596D01*
X163559341Y-101229999D01*
X163559341Y-101230000D01*
X163579936Y-101465403D01*
X163579938Y-101465413D01*
X163641094Y-101693655D01*
X163641096Y-101693659D01*
X163641097Y-101693663D01*
X163695124Y-101809523D01*
X163740965Y-101907830D01*
X163740967Y-101907834D01*
X163827710Y-102031715D01*
X163867301Y-102088257D01*
X163876501Y-102101395D01*
X163876506Y-102101402D01*
X164043597Y-102268493D01*
X164043603Y-102268498D01*
X164229158Y-102398425D01*
X164272783Y-102453002D01*
X164279977Y-102522500D01*
X164248454Y-102584855D01*
X164229158Y-102601575D01*
X164043597Y-102731505D01*
X163876505Y-102898597D01*
X163740965Y-103092169D01*
X163740964Y-103092171D01*
X163641098Y-103306335D01*
X163641094Y-103306344D01*
X163579938Y-103534586D01*
X163579936Y-103534596D01*
X163559341Y-103769999D01*
X163559341Y-103770000D01*
X163579936Y-104005403D01*
X163579938Y-104005413D01*
X163641094Y-104233655D01*
X163641096Y-104233659D01*
X163641097Y-104233663D01*
X163662916Y-104280454D01*
X163740965Y-104447830D01*
X163740967Y-104447834D01*
X163876501Y-104641395D01*
X163876506Y-104641402D01*
X164043597Y-104808493D01*
X164043603Y-104808498D01*
X164229158Y-104938425D01*
X164272783Y-104993002D01*
X164279977Y-105062500D01*
X164248454Y-105124855D01*
X164229158Y-105141575D01*
X164043597Y-105271505D01*
X163876505Y-105438597D01*
X163740965Y-105632169D01*
X163740964Y-105632171D01*
X163641098Y-105846335D01*
X163641094Y-105846344D01*
X163579938Y-106074586D01*
X163579936Y-106074596D01*
X163559341Y-106309999D01*
X163559341Y-106310000D01*
X163579936Y-106545403D01*
X163579938Y-106545413D01*
X163641094Y-106773655D01*
X163641096Y-106773659D01*
X163641097Y-106773663D01*
X163650424Y-106793664D01*
X163740965Y-106987830D01*
X163740967Y-106987834D01*
X163876501Y-107181395D01*
X163876506Y-107181402D01*
X164043597Y-107348493D01*
X164043603Y-107348498D01*
X164229158Y-107478425D01*
X164272783Y-107533002D01*
X164279977Y-107602500D01*
X164248454Y-107664855D01*
X164229158Y-107681575D01*
X164043597Y-107811505D01*
X163876505Y-107978597D01*
X163740965Y-108172169D01*
X163740964Y-108172171D01*
X163641098Y-108386335D01*
X163641094Y-108386344D01*
X163579938Y-108614586D01*
X163579936Y-108614596D01*
X163559341Y-108849999D01*
X163559341Y-108850000D01*
X163579936Y-109085403D01*
X163579938Y-109085413D01*
X163641094Y-109313655D01*
X163641096Y-109313659D01*
X163641097Y-109313663D01*
X163701258Y-109442678D01*
X163740965Y-109527830D01*
X163740967Y-109527834D01*
X163876501Y-109721395D01*
X163876506Y-109721402D01*
X164043597Y-109888493D01*
X164043603Y-109888498D01*
X164229158Y-110018425D01*
X164272783Y-110073002D01*
X164279977Y-110142500D01*
X164248454Y-110204855D01*
X164229158Y-110221575D01*
X164043597Y-110351505D01*
X163876505Y-110518597D01*
X163740965Y-110712169D01*
X163740964Y-110712171D01*
X163641098Y-110926335D01*
X163641094Y-110926344D01*
X163579938Y-111154586D01*
X163579936Y-111154596D01*
X163559341Y-111389999D01*
X163559341Y-111390000D01*
X160533816Y-111390000D01*
X160518966Y-111337452D01*
X160525917Y-111297766D01*
X160536313Y-111268059D01*
X160537561Y-111256981D01*
X160555249Y-111100002D01*
X160555249Y-111099997D01*
X160536314Y-110931943D01*
X160480454Y-110772305D01*
X160480452Y-110772302D01*
X160390481Y-110629115D01*
X160390476Y-110629109D01*
X160270890Y-110509523D01*
X160270884Y-110509518D01*
X160127697Y-110419547D01*
X160127694Y-110419545D01*
X159968056Y-110363685D01*
X159800003Y-110344751D01*
X159799997Y-110344751D01*
X159631943Y-110363685D01*
X159472305Y-110419545D01*
X159472302Y-110419547D01*
X159329115Y-110509518D01*
X159329109Y-110509523D01*
X159209523Y-110629109D01*
X159209518Y-110629115D01*
X159119547Y-110772302D01*
X159119545Y-110772305D01*
X159063685Y-110931943D01*
X159044751Y-111099997D01*
X159044751Y-111100002D01*
X159063685Y-111268056D01*
X159093803Y-111354127D01*
X159115041Y-111414822D01*
X159119545Y-111427692D01*
X159162032Y-111495310D01*
X159181032Y-111562547D01*
X159174081Y-111602233D01*
X159163686Y-111631942D01*
X159144751Y-111799997D01*
X159144751Y-111800002D01*
X159163685Y-111968056D01*
X159219545Y-112127694D01*
X159219547Y-112127697D01*
X159309518Y-112270884D01*
X159309523Y-112270890D01*
X159422158Y-112383525D01*
X159455643Y-112444848D01*
X159457697Y-112485089D01*
X159444751Y-112599995D01*
X159444751Y-112600002D01*
X159463685Y-112768056D01*
X159519544Y-112927691D01*
X159540790Y-112961504D01*
X159559789Y-113028741D01*
X159539420Y-113095576D01*
X159523479Y-113115153D01*
X159509520Y-113129112D01*
X159419548Y-113272300D01*
X159419543Y-113272311D01*
X159395316Y-113341548D01*
X159354594Y-113398324D01*
X159319229Y-113417635D01*
X159172308Y-113469044D01*
X159172302Y-113469047D01*
X159029115Y-113559018D01*
X159029109Y-113559023D01*
X158909523Y-113678609D01*
X158909518Y-113678615D01*
X158819547Y-113821802D01*
X158819545Y-113821805D01*
X158763685Y-113981443D01*
X158744751Y-114149497D01*
X158744751Y-114149502D01*
X153766126Y-114149502D01*
X153690481Y-114029115D01*
X153690476Y-114029109D01*
X153570890Y-113909523D01*
X153570884Y-113909518D01*
X153427697Y-113819547D01*
X153427691Y-113819544D01*
X153300907Y-113775181D01*
X153244131Y-113734459D01*
X153224819Y-113699093D01*
X153218296Y-113680452D01*
X153180456Y-113572310D01*
X153180453Y-113572305D01*
X153180452Y-113572302D01*
X153090481Y-113429115D01*
X153090476Y-113429109D01*
X152970890Y-113309523D01*
X152970884Y-113309518D01*
X152827697Y-113219547D01*
X152827694Y-113219545D01*
X152668056Y-113163685D01*
X152500003Y-113144751D01*
X152499997Y-113144751D01*
X152331943Y-113163685D01*
X152172305Y-113219545D01*
X152172302Y-113219547D01*
X152029115Y-113309518D01*
X152029109Y-113309523D01*
X151909523Y-113429109D01*
X151909518Y-113429115D01*
X151819547Y-113572302D01*
X151819545Y-113572305D01*
X151763685Y-113731943D01*
X151744751Y-113899997D01*
X151744751Y-113900002D01*
X151763685Y-114068056D01*
X151819545Y-114227694D01*
X151819547Y-114227697D01*
X151909518Y-114370884D01*
X151909523Y-114370890D01*
X152029109Y-114490476D01*
X152029115Y-114490481D01*
X152172302Y-114580452D01*
X152172308Y-114580455D01*
X152172310Y-114580456D01*
X152299093Y-114624819D01*
X152355869Y-114665541D01*
X152375179Y-114700903D01*
X152406019Y-114789037D01*
X152409580Y-114858815D01*
X152374851Y-114919443D01*
X152312858Y-114951670D01*
X152275094Y-114953211D01*
X152200004Y-114944751D01*
X152199997Y-114944751D01*
X152031943Y-114963685D01*
X151872305Y-115019545D01*
X151872302Y-115019547D01*
X151729115Y-115109518D01*
X151729109Y-115109523D01*
X151609523Y-115229109D01*
X151609518Y-115229115D01*
X151519547Y-115372302D01*
X151519545Y-115372305D01*
X151463685Y-115531943D01*
X151444751Y-115699997D01*
X151444751Y-115700002D01*
X149990146Y-115700002D01*
X149980456Y-115672310D01*
X149980455Y-115672309D01*
X149980454Y-115672305D01*
X149980452Y-115672302D01*
X149890481Y-115529115D01*
X149890476Y-115529109D01*
X149770890Y-115409523D01*
X149770884Y-115409518D01*
X149627697Y-115319547D01*
X149627694Y-115319545D01*
X149468056Y-115263685D01*
X149300003Y-115244751D01*
X149299997Y-115244751D01*
X149131943Y-115263685D01*
X148972305Y-115319545D01*
X148972302Y-115319547D01*
X148829115Y-115409518D01*
X148829109Y-115409523D01*
X148709523Y-115529109D01*
X148709518Y-115529115D01*
X148619547Y-115672302D01*
X148619545Y-115672305D01*
X148563685Y-115831943D01*
X148544751Y-115999997D01*
X148544751Y-116000002D01*
X145100500Y-116000002D01*
X145100500Y-111410000D01*
X145759341Y-111410000D01*
X145779936Y-111645403D01*
X145779938Y-111645413D01*
X145841094Y-111873655D01*
X145841096Y-111873659D01*
X145841097Y-111873663D01*
X145932980Y-112070706D01*
X145940965Y-112087830D01*
X145940967Y-112087834D01*
X145969873Y-112129115D01*
X146076505Y-112281401D01*
X146178629Y-112383525D01*
X146183856Y-112388752D01*
X146217340Y-112450075D01*
X146212356Y-112519767D01*
X146201168Y-112542405D01*
X146119545Y-112672307D01*
X146063685Y-112831943D01*
X146044751Y-112999997D01*
X146044751Y-113000002D01*
X146063685Y-113168056D01*
X146119545Y-113327694D01*
X146119547Y-113327697D01*
X146209518Y-113470884D01*
X146209523Y-113470890D01*
X146329109Y-113590476D01*
X146329115Y-113590481D01*
X146472302Y-113680452D01*
X146472305Y-113680454D01*
X146472309Y-113680455D01*
X146472310Y-113680456D01*
X146525572Y-113699093D01*
X146631943Y-113736314D01*
X146799997Y-113755249D01*
X146800000Y-113755249D01*
X146800003Y-113755249D01*
X146968056Y-113736314D01*
X146980548Y-113731943D01*
X147127690Y-113680456D01*
X147127692Y-113680454D01*
X147127694Y-113680454D01*
X147127697Y-113680452D01*
X147270884Y-113590481D01*
X147270885Y-113590480D01*
X147270890Y-113590477D01*
X147390477Y-113470890D01*
X147414949Y-113431943D01*
X147480452Y-113327697D01*
X147480454Y-113327694D01*
X147480454Y-113327692D01*
X147480456Y-113327690D01*
X147536313Y-113168059D01*
X147536313Y-113168058D01*
X147536314Y-113168056D01*
X147555249Y-113000002D01*
X147555249Y-112999997D01*
X147536313Y-112831940D01*
X147534782Y-112827564D01*
X147531218Y-112757785D01*
X147565945Y-112697157D01*
X147599414Y-112674226D01*
X147758589Y-112600002D01*
X148944751Y-112600002D01*
X148963685Y-112768056D01*
X149019545Y-112927694D01*
X149019547Y-112927697D01*
X149109518Y-113070884D01*
X149109523Y-113070890D01*
X149229109Y-113190476D01*
X149229115Y-113190481D01*
X149372302Y-113280452D01*
X149372305Y-113280454D01*
X149372309Y-113280455D01*
X149372310Y-113280456D01*
X149428541Y-113300132D01*
X149531943Y-113336314D01*
X149699997Y-113355249D01*
X149700000Y-113355249D01*
X149700003Y-113355249D01*
X149868056Y-113336314D01*
X149892682Y-113327697D01*
X150027690Y-113280456D01*
X150027692Y-113280454D01*
X150027694Y-113280454D01*
X150027697Y-113280452D01*
X150170884Y-113190481D01*
X150170885Y-113190480D01*
X150170890Y-113190477D01*
X150290477Y-113070890D01*
X150335019Y-113000002D01*
X150380452Y-112927697D01*
X150380454Y-112927694D01*
X150380455Y-112927691D01*
X150380456Y-112927690D01*
X150436313Y-112768059D01*
X150436313Y-112768058D01*
X150436314Y-112768056D01*
X150455249Y-112600002D01*
X150455249Y-112599997D01*
X150437108Y-112438990D01*
X155094540Y-112438990D01*
X155114326Y-112627246D01*
X155114327Y-112627249D01*
X155172818Y-112807267D01*
X155172821Y-112807274D01*
X155267467Y-112971206D01*
X155357223Y-113070890D01*
X155394129Y-113111878D01*
X155547265Y-113223138D01*
X155547270Y-113223141D01*
X155720192Y-113300132D01*
X155720197Y-113300134D01*
X155905354Y-113339490D01*
X155905355Y-113339490D01*
X156094644Y-113339490D01*
X156094646Y-113339490D01*
X156279803Y-113300134D01*
X156452730Y-113223141D01*
X156605871Y-113111878D01*
X156732533Y-112971206D01*
X156827179Y-112807274D01*
X156885674Y-112627246D01*
X156905460Y-112438990D01*
X156885674Y-112250734D01*
X156827179Y-112070706D01*
X156732533Y-111906774D01*
X156605871Y-111766102D01*
X156605870Y-111766101D01*
X156452734Y-111654841D01*
X156452729Y-111654838D01*
X156279807Y-111577847D01*
X156279802Y-111577845D01*
X156129376Y-111545872D01*
X156094646Y-111538490D01*
X155905354Y-111538490D01*
X155872897Y-111545388D01*
X155720197Y-111577845D01*
X155720192Y-111577847D01*
X155547270Y-111654838D01*
X155547265Y-111654841D01*
X155394129Y-111766101D01*
X155267466Y-111906775D01*
X155172821Y-112070705D01*
X155172818Y-112070712D01*
X155114327Y-112250730D01*
X155114326Y-112250734D01*
X155094540Y-112438990D01*
X150437108Y-112438990D01*
X150436314Y-112431943D01*
X150380454Y-112272305D01*
X150380452Y-112272302D01*
X150290481Y-112129115D01*
X150290476Y-112129109D01*
X150170890Y-112009523D01*
X150170884Y-112009518D01*
X150027697Y-111919547D01*
X150027694Y-111919545D01*
X149868056Y-111863685D01*
X149700003Y-111844751D01*
X149699997Y-111844751D01*
X149531943Y-111863685D01*
X149372305Y-111919545D01*
X149372302Y-111919547D01*
X149229115Y-112009518D01*
X149229109Y-112009523D01*
X149109523Y-112129109D01*
X149109518Y-112129115D01*
X149019547Y-112272302D01*
X149019545Y-112272305D01*
X148963685Y-112431943D01*
X148944751Y-112599997D01*
X148944751Y-112600002D01*
X147758589Y-112600002D01*
X147792830Y-112584035D01*
X147986401Y-112448495D01*
X148153495Y-112281401D01*
X148289035Y-112087830D01*
X148388903Y-111873663D01*
X148450063Y-111645408D01*
X148470659Y-111410000D01*
X148450063Y-111174592D01*
X148430077Y-111100002D01*
X150844751Y-111100002D01*
X150863685Y-111268056D01*
X150919545Y-111427694D01*
X150919547Y-111427697D01*
X151009518Y-111570884D01*
X151009523Y-111570890D01*
X151129109Y-111690476D01*
X151129115Y-111690481D01*
X151272302Y-111780452D01*
X151272305Y-111780454D01*
X151272309Y-111780455D01*
X151272310Y-111780456D01*
X151328155Y-111799997D01*
X151431943Y-111836314D01*
X151599997Y-111855249D01*
X151600000Y-111855249D01*
X151600003Y-111855249D01*
X151768056Y-111836314D01*
X151768059Y-111836313D01*
X151927690Y-111780456D01*
X151927692Y-111780454D01*
X151927694Y-111780454D01*
X151927697Y-111780452D01*
X152070884Y-111690481D01*
X152070885Y-111690480D01*
X152070890Y-111690477D01*
X152190477Y-111570890D01*
X152190481Y-111570884D01*
X152280452Y-111427697D01*
X152280453Y-111427693D01*
X152280456Y-111427690D01*
X152284959Y-111414822D01*
X152325679Y-111358045D01*
X152390632Y-111332296D01*
X152395146Y-111332088D01*
X152397934Y-111331773D01*
X152397937Y-111331774D01*
X152466533Y-111324044D01*
X152565993Y-111312839D01*
X152565996Y-111312838D01*
X152725627Y-111256981D01*
X152725629Y-111256979D01*
X152725631Y-111256979D01*
X152725634Y-111256977D01*
X152868821Y-111167006D01*
X152868822Y-111167005D01*
X152868827Y-111167002D01*
X152988414Y-111047415D01*
X152988418Y-111047409D01*
X153078389Y-110904222D01*
X153078391Y-110904219D01*
X153078391Y-110904217D01*
X153078393Y-110904215D01*
X153134250Y-110744584D01*
X153134250Y-110744583D01*
X153134251Y-110744581D01*
X153153186Y-110576527D01*
X153153186Y-110576524D01*
X153151237Y-110559235D01*
X153142824Y-110484567D01*
X153154878Y-110415747D01*
X153178366Y-110383000D01*
X153190477Y-110370890D01*
X153280456Y-110227690D01*
X153336313Y-110068059D01*
X153336313Y-110068057D01*
X153336314Y-110068055D01*
X153343169Y-110007213D01*
X153370235Y-109942799D01*
X153427830Y-109903244D01*
X153480273Y-109897876D01*
X153638801Y-109915738D01*
X153638804Y-109915738D01*
X153638807Y-109915738D01*
X153806863Y-109896802D01*
X153806865Y-109896802D01*
X153875206Y-109872888D01*
X153966494Y-109840945D01*
X153971984Y-109837495D01*
X154039216Y-109818491D01*
X154103934Y-109837492D01*
X154172309Y-109880456D01*
X154228155Y-109899997D01*
X154331941Y-109936313D01*
X154373955Y-109941047D01*
X154499997Y-109955249D01*
X154500000Y-109955249D01*
X154500003Y-109955249D01*
X154668056Y-109936314D01*
X154726859Y-109915738D01*
X154827690Y-109880456D01*
X154827692Y-109880454D01*
X154827694Y-109880454D01*
X154827697Y-109880452D01*
X154970884Y-109790481D01*
X154970885Y-109790480D01*
X154970890Y-109790477D01*
X155090477Y-109670890D01*
X155117622Y-109627690D01*
X155180452Y-109527697D01*
X155180454Y-109527694D01*
X155180454Y-109527692D01*
X155180456Y-109527690D01*
X155236313Y-109368059D01*
X155236313Y-109368058D01*
X155236314Y-109368056D01*
X155255249Y-109200002D01*
X155255249Y-109199997D01*
X155236314Y-109031943D01*
X155198450Y-108923734D01*
X155180456Y-108872310D01*
X155180455Y-108872309D01*
X155180454Y-108872305D01*
X155180452Y-108872302D01*
X155090481Y-108729115D01*
X155090476Y-108729109D01*
X154970890Y-108609523D01*
X154970884Y-108609518D01*
X154827697Y-108519547D01*
X154827694Y-108519545D01*
X154668056Y-108463685D01*
X154500003Y-108444751D01*
X154499997Y-108444751D01*
X154331943Y-108463685D01*
X154202250Y-108509067D01*
X154172310Y-108519544D01*
X154172308Y-108519544D01*
X154172308Y-108519545D01*
X154166809Y-108523000D01*
X154099572Y-108541996D01*
X154034869Y-108522996D01*
X153966496Y-108480034D01*
X153966498Y-108480034D01*
X153806860Y-108424174D01*
X153638807Y-108405240D01*
X153638801Y-108405240D01*
X153470747Y-108424174D01*
X153311111Y-108480034D01*
X153291619Y-108492281D01*
X153224381Y-108511277D01*
X153184698Y-108504326D01*
X153068554Y-108463686D01*
X152900500Y-108444751D01*
X152900494Y-108444751D01*
X152732440Y-108463685D01*
X152572802Y-108519545D01*
X152572799Y-108519547D01*
X152429612Y-108609518D01*
X152429606Y-108609523D01*
X152310020Y-108729109D01*
X152310015Y-108729115D01*
X152220044Y-108872302D01*
X152220042Y-108872305D01*
X152164182Y-109031943D01*
X152145248Y-109199997D01*
X152145248Y-109200002D01*
X152148018Y-109224588D01*
X152135963Y-109293410D01*
X152112480Y-109326151D01*
X152009524Y-109429108D01*
X152009518Y-109429115D01*
X151919547Y-109572302D01*
X151919545Y-109572305D01*
X151863685Y-109731943D01*
X151844751Y-109899997D01*
X151844751Y-109900004D01*
X151855111Y-109991957D01*
X151843056Y-110060779D01*
X151819575Y-110093519D01*
X151807457Y-110105637D01*
X151717485Y-110248825D01*
X151717481Y-110248833D01*
X151712977Y-110261707D01*
X151672255Y-110318483D01*
X151607302Y-110344229D01*
X151602791Y-110344436D01*
X151431943Y-110363685D01*
X151272305Y-110419545D01*
X151272302Y-110419547D01*
X151129115Y-110509518D01*
X151129109Y-110509523D01*
X151009523Y-110629109D01*
X151009518Y-110629115D01*
X150919547Y-110772302D01*
X150919545Y-110772305D01*
X150863685Y-110931943D01*
X150844751Y-111099997D01*
X150844751Y-111100002D01*
X148430077Y-111100002D01*
X148388903Y-110946337D01*
X148289035Y-110732171D01*
X148216872Y-110629110D01*
X148153494Y-110538597D01*
X147986402Y-110371506D01*
X147986396Y-110371501D01*
X147800842Y-110241575D01*
X147757217Y-110186998D01*
X147750023Y-110117500D01*
X147781546Y-110055145D01*
X147800842Y-110038425D01*
X147919629Y-109955249D01*
X147986401Y-109908495D01*
X148153495Y-109741401D01*
X148289035Y-109547830D01*
X148388903Y-109333663D01*
X148450063Y-109105408D01*
X148470659Y-108870000D01*
X148450063Y-108634592D01*
X148391452Y-108415849D01*
X148388905Y-108406344D01*
X148388904Y-108406343D01*
X148388903Y-108406337D01*
X148385949Y-108400002D01*
X149695251Y-108400002D01*
X149714185Y-108568056D01*
X149770045Y-108727694D01*
X149770047Y-108727697D01*
X149860018Y-108870884D01*
X149860023Y-108870890D01*
X149979609Y-108990476D01*
X149979615Y-108990481D01*
X150122802Y-109080452D01*
X150122805Y-109080454D01*
X150122809Y-109080455D01*
X150122810Y-109080456D01*
X150194105Y-109105403D01*
X150282443Y-109136314D01*
X150450497Y-109155249D01*
X150450500Y-109155249D01*
X150450503Y-109155249D01*
X150618556Y-109136314D01*
X150631048Y-109131943D01*
X150778190Y-109080456D01*
X150778192Y-109080454D01*
X150778194Y-109080454D01*
X150778197Y-109080452D01*
X150921384Y-108990481D01*
X150921385Y-108990480D01*
X150921390Y-108990477D01*
X151040977Y-108870890D01*
X151065592Y-108831716D01*
X151130952Y-108727697D01*
X151130954Y-108727694D01*
X151130954Y-108727692D01*
X151130956Y-108727690D01*
X151186813Y-108568059D01*
X151186813Y-108568058D01*
X151186814Y-108568056D01*
X151205749Y-108400002D01*
X151205749Y-108399997D01*
X151186814Y-108231943D01*
X151130954Y-108072305D01*
X151130952Y-108072302D01*
X151040981Y-107929115D01*
X151040976Y-107929109D01*
X150921390Y-107809523D01*
X150921384Y-107809518D01*
X150778197Y-107719547D01*
X150778194Y-107719545D01*
X150618556Y-107663685D01*
X150450503Y-107644751D01*
X150450497Y-107644751D01*
X150282443Y-107663685D01*
X150122805Y-107719545D01*
X150122802Y-107719547D01*
X149979615Y-107809518D01*
X149979609Y-107809523D01*
X149860023Y-107929109D01*
X149860018Y-107929115D01*
X149770047Y-108072302D01*
X149770045Y-108072305D01*
X149714185Y-108231943D01*
X149695251Y-108399997D01*
X149695251Y-108400002D01*
X148385949Y-108400002D01*
X148289035Y-108192171D01*
X148267309Y-108161142D01*
X148153494Y-107998597D01*
X147986402Y-107831506D01*
X147986396Y-107831501D01*
X147800842Y-107701575D01*
X147757217Y-107646998D01*
X147750023Y-107577500D01*
X147781546Y-107515145D01*
X147800842Y-107498425D01*
X147895401Y-107432214D01*
X147986401Y-107368495D01*
X148153495Y-107201401D01*
X148289035Y-107007830D01*
X148339317Y-106900000D01*
X152294540Y-106900000D01*
X152314326Y-107088256D01*
X152314327Y-107088259D01*
X152372818Y-107268277D01*
X152372821Y-107268284D01*
X152467467Y-107432216D01*
X152576224Y-107553002D01*
X152594129Y-107572888D01*
X152747265Y-107684148D01*
X152747270Y-107684151D01*
X152920192Y-107761142D01*
X152920197Y-107761144D01*
X153105354Y-107800500D01*
X153105355Y-107800500D01*
X153294644Y-107800500D01*
X153294646Y-107800500D01*
X153479803Y-107761144D01*
X153652730Y-107684151D01*
X153805871Y-107572888D01*
X153932533Y-107432216D01*
X154008868Y-107300000D01*
X155394540Y-107300000D01*
X155414326Y-107488256D01*
X155414327Y-107488259D01*
X155472818Y-107668277D01*
X155472821Y-107668284D01*
X155567467Y-107832216D01*
X155694129Y-107972887D01*
X155694129Y-107972888D01*
X155847265Y-108084148D01*
X155847270Y-108084151D01*
X156020192Y-108161142D01*
X156020193Y-108161142D01*
X156020197Y-108161144D01*
X156199615Y-108199280D01*
X156261095Y-108232471D01*
X156294872Y-108293634D01*
X156290875Y-108361523D01*
X156267620Y-108427982D01*
X156248685Y-108596037D01*
X156248685Y-108596042D01*
X156267619Y-108764096D01*
X156323479Y-108923734D01*
X156323481Y-108923737D01*
X156413452Y-109066924D01*
X156413457Y-109066930D01*
X156533043Y-109186516D01*
X156533049Y-109186521D01*
X156676236Y-109276492D01*
X156676239Y-109276494D01*
X156676243Y-109276495D01*
X156676244Y-109276496D01*
X156722870Y-109292811D01*
X156835877Y-109332354D01*
X157003931Y-109351289D01*
X157003934Y-109351289D01*
X157003937Y-109351289D01*
X157129978Y-109337087D01*
X157171993Y-109332353D01*
X157282703Y-109293613D01*
X157352479Y-109290051D01*
X157389628Y-109305662D01*
X157410853Y-109318999D01*
X157570484Y-109374856D01*
X157612498Y-109379590D01*
X157738540Y-109393792D01*
X157738543Y-109393792D01*
X157738544Y-109393792D01*
X157759350Y-109391447D01*
X157831880Y-109383275D01*
X157900701Y-109395329D01*
X157952081Y-109442678D01*
X157962806Y-109465541D01*
X158019544Y-109627691D01*
X158019547Y-109627697D01*
X158109518Y-109770884D01*
X158109523Y-109770890D01*
X158229109Y-109890476D01*
X158229115Y-109890481D01*
X158372302Y-109980452D01*
X158372305Y-109980454D01*
X158372309Y-109980455D01*
X158372310Y-109980456D01*
X158444913Y-110005860D01*
X158531943Y-110036314D01*
X158699997Y-110055249D01*
X158700000Y-110055249D01*
X158700003Y-110055249D01*
X158868056Y-110036314D01*
X158871397Y-110035145D01*
X159027690Y-109980456D01*
X159027692Y-109980454D01*
X159027694Y-109980454D01*
X159027697Y-109980452D01*
X159170884Y-109890481D01*
X159170885Y-109890480D01*
X159170890Y-109890477D01*
X159290477Y-109770890D01*
X159309006Y-109741402D01*
X159380452Y-109627697D01*
X159380454Y-109627694D01*
X159380455Y-109627691D01*
X159380456Y-109627690D01*
X159436313Y-109468059D01*
X159436313Y-109468058D01*
X159436314Y-109468056D01*
X159455249Y-109300002D01*
X159455249Y-109299997D01*
X159443982Y-109200000D01*
X160294540Y-109200000D01*
X160314326Y-109388256D01*
X160314327Y-109388259D01*
X160372818Y-109568277D01*
X160372821Y-109568284D01*
X160467467Y-109732216D01*
X160524933Y-109796038D01*
X160594129Y-109872888D01*
X160747265Y-109984148D01*
X160747270Y-109984151D01*
X160920192Y-110061142D01*
X160920197Y-110061144D01*
X161105354Y-110100500D01*
X161105355Y-110100500D01*
X161294644Y-110100500D01*
X161294646Y-110100500D01*
X161479803Y-110061144D01*
X161652730Y-109984151D01*
X161805871Y-109872888D01*
X161932533Y-109732216D01*
X162027179Y-109568284D01*
X162085674Y-109388256D01*
X162105460Y-109200000D01*
X162085674Y-109011744D01*
X162027179Y-108831716D01*
X161932533Y-108667784D01*
X161805871Y-108527112D01*
X161804122Y-108525841D01*
X161652734Y-108415851D01*
X161652729Y-108415848D01*
X161479807Y-108338857D01*
X161479802Y-108338855D01*
X161334001Y-108307865D01*
X161294646Y-108299500D01*
X161105354Y-108299500D01*
X161072897Y-108306398D01*
X160920197Y-108338855D01*
X160920192Y-108338857D01*
X160747270Y-108415848D01*
X160747265Y-108415851D01*
X160594129Y-108527111D01*
X160467466Y-108667785D01*
X160372821Y-108831715D01*
X160372818Y-108831722D01*
X160314327Y-109011740D01*
X160314326Y-109011744D01*
X160294540Y-109200000D01*
X159443982Y-109200000D01*
X159436314Y-109131943D01*
X159413565Y-109066930D01*
X159380456Y-108972310D01*
X159292278Y-108831977D01*
X159273279Y-108764742D01*
X159274052Y-108752133D01*
X159288876Y-108620571D01*
X159288203Y-108614596D01*
X159269941Y-108452514D01*
X159214081Y-108292876D01*
X159214079Y-108292873D01*
X159124108Y-108149686D01*
X159124103Y-108149680D01*
X159004517Y-108030094D01*
X159004511Y-108030089D01*
X158861324Y-107940118D01*
X158861321Y-107940116D01*
X158701683Y-107884256D01*
X158533630Y-107865322D01*
X158533624Y-107865322D01*
X158365570Y-107884256D01*
X158205935Y-107940115D01*
X158187155Y-107951916D01*
X158119918Y-107970915D01*
X158072962Y-107959942D01*
X158072807Y-107960387D01*
X158068665Y-107958937D01*
X158067374Y-107958636D01*
X158066235Y-107958087D01*
X157906600Y-107902229D01*
X157738546Y-107883294D01*
X157738540Y-107883294D01*
X157570483Y-107902229D01*
X157570481Y-107902229D01*
X157459775Y-107940968D01*
X157389996Y-107944530D01*
X157352849Y-107928920D01*
X157331624Y-107915584D01*
X157331621Y-107915582D01*
X157214135Y-107874473D01*
X157184020Y-107863935D01*
X157127245Y-107823214D01*
X157101497Y-107758262D01*
X157114953Y-107689700D01*
X157117571Y-107684924D01*
X157127179Y-107668284D01*
X157185674Y-107488256D01*
X157205460Y-107300000D01*
X157185674Y-107111744D01*
X157127179Y-106931716D01*
X157032533Y-106767784D01*
X156905871Y-106627112D01*
X156905870Y-106627111D01*
X156752734Y-106515851D01*
X156752729Y-106515848D01*
X156579807Y-106438857D01*
X156579802Y-106438855D01*
X156434000Y-106407865D01*
X156394646Y-106399500D01*
X156205354Y-106399500D01*
X156172897Y-106406398D01*
X156020197Y-106438855D01*
X156020192Y-106438857D01*
X155847270Y-106515848D01*
X155847265Y-106515851D01*
X155694129Y-106627111D01*
X155567466Y-106767785D01*
X155472821Y-106931715D01*
X155472818Y-106931722D01*
X155414327Y-107111740D01*
X155414326Y-107111744D01*
X155394540Y-107300000D01*
X154008868Y-107300000D01*
X154027179Y-107268284D01*
X154085674Y-107088256D01*
X154105460Y-106900000D01*
X154085674Y-106711744D01*
X154027179Y-106531716D01*
X153932533Y-106367784D01*
X153805871Y-106227112D01*
X153762608Y-106195680D01*
X153753033Y-106188723D01*
X153710367Y-106133393D01*
X153704388Y-106063780D01*
X153720925Y-106022432D01*
X153780452Y-105927697D01*
X153780456Y-105927690D01*
X153836313Y-105768059D01*
X153836313Y-105768058D01*
X153836314Y-105768056D01*
X153855249Y-105600002D01*
X153855249Y-105599997D01*
X153836314Y-105431943D01*
X153787173Y-105291506D01*
X153780456Y-105272310D01*
X153780455Y-105272309D01*
X153780454Y-105272305D01*
X153780452Y-105272302D01*
X153690481Y-105129115D01*
X153690476Y-105129109D01*
X153570890Y-105009523D01*
X153570884Y-105009518D01*
X153427697Y-104919547D01*
X153427694Y-104919545D01*
X153268056Y-104863685D01*
X153100003Y-104844751D01*
X153099997Y-104844751D01*
X152931943Y-104863685D01*
X152772305Y-104919545D01*
X152772302Y-104919547D01*
X152629115Y-105009518D01*
X152629109Y-105009523D01*
X152509523Y-105129109D01*
X152509518Y-105129115D01*
X152419547Y-105272302D01*
X152419545Y-105272305D01*
X152363685Y-105431943D01*
X152344751Y-105599997D01*
X152344751Y-105600002D01*
X152363685Y-105768056D01*
X152419545Y-105927694D01*
X152419547Y-105927697D01*
X152509518Y-106070884D01*
X152509523Y-106070890D01*
X152544853Y-106106220D01*
X152578338Y-106167543D01*
X152573354Y-106237235D01*
X152549323Y-106276872D01*
X152467466Y-106367785D01*
X152372821Y-106531715D01*
X152372818Y-106531722D01*
X152314327Y-106711740D01*
X152314326Y-106711744D01*
X152294540Y-106900000D01*
X148339317Y-106900000D01*
X148388903Y-106793663D01*
X148450063Y-106565408D01*
X148470659Y-106330000D01*
X148450063Y-106094592D01*
X148388903Y-105866337D01*
X148289035Y-105652171D01*
X148153495Y-105458599D01*
X148153494Y-105458597D01*
X147986402Y-105291506D01*
X147986396Y-105291501D01*
X147800842Y-105161575D01*
X147757217Y-105106998D01*
X147750023Y-105037500D01*
X147781546Y-104975145D01*
X147800842Y-104958425D01*
X147856370Y-104919544D01*
X147986401Y-104828495D01*
X148153495Y-104661401D01*
X148289035Y-104467830D01*
X148388903Y-104253663D01*
X148450063Y-104025408D01*
X148470659Y-103790000D01*
X148454036Y-103600002D01*
X158044751Y-103600002D01*
X158063685Y-103768056D01*
X158119545Y-103927694D01*
X158119547Y-103927697D01*
X158209518Y-104070884D01*
X158209523Y-104070890D01*
X158329109Y-104190476D01*
X158329115Y-104190481D01*
X158472302Y-104280452D01*
X158472305Y-104280454D01*
X158472309Y-104280455D01*
X158472310Y-104280456D01*
X158544913Y-104305860D01*
X158631943Y-104336314D01*
X158799997Y-104355249D01*
X158800000Y-104355249D01*
X158800003Y-104355249D01*
X158968056Y-104336314D01*
X158968059Y-104336313D01*
X159127690Y-104280456D01*
X159127692Y-104280454D01*
X159127694Y-104280454D01*
X159127697Y-104280452D01*
X159270884Y-104190481D01*
X159270885Y-104190480D01*
X159270890Y-104190477D01*
X159390477Y-104070890D01*
X159390481Y-104070884D01*
X159480452Y-103927697D01*
X159480454Y-103927694D01*
X159480454Y-103927692D01*
X159480456Y-103927690D01*
X159536313Y-103768059D01*
X159536313Y-103768058D01*
X159536314Y-103768056D01*
X159555249Y-103600002D01*
X159555249Y-103599997D01*
X159536314Y-103431943D01*
X159480454Y-103272305D01*
X159480452Y-103272302D01*
X159390481Y-103129115D01*
X159390476Y-103129109D01*
X159270890Y-103009523D01*
X159270884Y-103009518D01*
X159127697Y-102919547D01*
X159127694Y-102919545D01*
X158968056Y-102863685D01*
X158800003Y-102844751D01*
X158799997Y-102844751D01*
X158631943Y-102863685D01*
X158472305Y-102919545D01*
X158472302Y-102919547D01*
X158329115Y-103009518D01*
X158329109Y-103009523D01*
X158209523Y-103129109D01*
X158209518Y-103129115D01*
X158119547Y-103272302D01*
X158119545Y-103272305D01*
X158063685Y-103431943D01*
X158044751Y-103599997D01*
X158044751Y-103600002D01*
X148454036Y-103600002D01*
X148450063Y-103554592D01*
X148388903Y-103326337D01*
X148289035Y-103112171D01*
X148266826Y-103080452D01*
X148153494Y-102918597D01*
X147986402Y-102751506D01*
X147986396Y-102751501D01*
X147800842Y-102621575D01*
X147757217Y-102566998D01*
X147750023Y-102497500D01*
X147781546Y-102435145D01*
X147800842Y-102418425D01*
X147827153Y-102400002D01*
X147827156Y-102400000D01*
X149094540Y-102400000D01*
X149114326Y-102588256D01*
X149114327Y-102588259D01*
X149172818Y-102768277D01*
X149172821Y-102768284D01*
X149267467Y-102932216D01*
X149337075Y-103009523D01*
X149394129Y-103072888D01*
X149547265Y-103184148D01*
X149547270Y-103184151D01*
X149720192Y-103261142D01*
X149720197Y-103261144D01*
X149905354Y-103300500D01*
X149905355Y-103300500D01*
X150094644Y-103300500D01*
X150094646Y-103300500D01*
X150279803Y-103261144D01*
X150452730Y-103184151D01*
X150605871Y-103072888D01*
X150732533Y-102932216D01*
X150827179Y-102768284D01*
X150827182Y-102768272D01*
X150827863Y-102766746D01*
X150828501Y-102765994D01*
X150830429Y-102762656D01*
X150831038Y-102763008D01*
X150873104Y-102713501D01*
X150939949Y-102693168D01*
X150991584Y-102703882D01*
X151120197Y-102761145D01*
X151305354Y-102800501D01*
X151305355Y-102800501D01*
X151494644Y-102800501D01*
X151494646Y-102800501D01*
X151679803Y-102761145D01*
X151852730Y-102684152D01*
X152005871Y-102572889D01*
X152132533Y-102432217D01*
X152151132Y-102400002D01*
X155744751Y-102400002D01*
X155763685Y-102568056D01*
X155819545Y-102727694D01*
X155819547Y-102727697D01*
X155909518Y-102870884D01*
X155909523Y-102870890D01*
X156029109Y-102990476D01*
X156029115Y-102990481D01*
X156172302Y-103080452D01*
X156172305Y-103080454D01*
X156172309Y-103080455D01*
X156172310Y-103080456D01*
X156205784Y-103092169D01*
X156331943Y-103136314D01*
X156499997Y-103155249D01*
X156500000Y-103155249D01*
X156500003Y-103155249D01*
X156668056Y-103136314D01*
X156668059Y-103136313D01*
X156827690Y-103080456D01*
X156827692Y-103080454D01*
X156827694Y-103080454D01*
X156827697Y-103080452D01*
X156970884Y-102990481D01*
X156970885Y-102990480D01*
X156970890Y-102990477D01*
X157090477Y-102870890D01*
X157095004Y-102863685D01*
X157180452Y-102727697D01*
X157180454Y-102727694D01*
X157180454Y-102727692D01*
X157180456Y-102727690D01*
X157236313Y-102568059D01*
X157236313Y-102568058D01*
X157236314Y-102568056D01*
X157255249Y-102400002D01*
X157255249Y-102399997D01*
X157236314Y-102231943D01*
X157180454Y-102072305D01*
X157180452Y-102072302D01*
X157090481Y-101929115D01*
X157090476Y-101929109D01*
X156999048Y-101837681D01*
X156965563Y-101776358D01*
X156970547Y-101706666D01*
X156999048Y-101662319D01*
X156999048Y-101662318D01*
X157090477Y-101570890D01*
X157110605Y-101538857D01*
X157180452Y-101427697D01*
X157180454Y-101427694D01*
X157180454Y-101427692D01*
X157180456Y-101427690D01*
X157236313Y-101268059D01*
X157236313Y-101268058D01*
X157236314Y-101268056D01*
X157255249Y-101100002D01*
X157255249Y-101099997D01*
X157236314Y-100931943D01*
X157190320Y-100800500D01*
X157180456Y-100772310D01*
X157180455Y-100772309D01*
X157180454Y-100772305D01*
X157180452Y-100772302D01*
X157090481Y-100629115D01*
X157090476Y-100629109D01*
X156970890Y-100509523D01*
X156970884Y-100509518D01*
X156827697Y-100419547D01*
X156827694Y-100419545D01*
X156668056Y-100363685D01*
X156500003Y-100344751D01*
X156499997Y-100344751D01*
X156331943Y-100363685D01*
X156172305Y-100419545D01*
X156172302Y-100419547D01*
X156029115Y-100509518D01*
X156029109Y-100509523D01*
X155909523Y-100629109D01*
X155909518Y-100629115D01*
X155819547Y-100772302D01*
X155819545Y-100772305D01*
X155763685Y-100931943D01*
X155744751Y-101099997D01*
X155744751Y-101100002D01*
X155763685Y-101268056D01*
X155819545Y-101427694D01*
X155819547Y-101427697D01*
X155909518Y-101570884D01*
X155909523Y-101570890D01*
X156000952Y-101662319D01*
X156034437Y-101723642D01*
X156029453Y-101793334D01*
X156000952Y-101837681D01*
X155909523Y-101929109D01*
X155909518Y-101929115D01*
X155819547Y-102072302D01*
X155819545Y-102072305D01*
X155763685Y-102231943D01*
X155744751Y-102399997D01*
X155744751Y-102400002D01*
X152151132Y-102400002D01*
X152227179Y-102268285D01*
X152285674Y-102088257D01*
X152305460Y-101900001D01*
X152285674Y-101711745D01*
X152227935Y-101534043D01*
X152227181Y-101531723D01*
X152227180Y-101531722D01*
X152227179Y-101531717D01*
X152132533Y-101367785D01*
X152005871Y-101227113D01*
X152005870Y-101227112D01*
X151852734Y-101115852D01*
X151852729Y-101115849D01*
X151679807Y-101038858D01*
X151679802Y-101038856D01*
X151597158Y-101021290D01*
X151535676Y-100988098D01*
X151501900Y-100926934D01*
X151506552Y-100857220D01*
X151548157Y-100801088D01*
X151597153Y-100778711D01*
X151679803Y-100761144D01*
X151679807Y-100761142D01*
X151679808Y-100761142D01*
X151738058Y-100735206D01*
X151852730Y-100684151D01*
X152005871Y-100572888D01*
X152132533Y-100432216D01*
X152227179Y-100268284D01*
X152285674Y-100088256D01*
X152305460Y-99900000D01*
X152285674Y-99711744D01*
X152227179Y-99531716D01*
X152132533Y-99367784D01*
X152005871Y-99227112D01*
X151955453Y-99190481D01*
X151852734Y-99115851D01*
X151852729Y-99115848D01*
X151679807Y-99038857D01*
X151679802Y-99038855D01*
X151597158Y-99021289D01*
X151535676Y-98988097D01*
X151501900Y-98926933D01*
X151506552Y-98857219D01*
X151548157Y-98801087D01*
X151597153Y-98778710D01*
X151679803Y-98761143D01*
X151679807Y-98761141D01*
X151679808Y-98761141D01*
X151772455Y-98719891D01*
X151852730Y-98684150D01*
X152005871Y-98572887D01*
X152132533Y-98432215D01*
X152227179Y-98268283D01*
X152285674Y-98088255D01*
X152305460Y-97899999D01*
X152286547Y-97720053D01*
X152299116Y-97651327D01*
X152346849Y-97600303D01*
X152414589Y-97583185D01*
X152480830Y-97605407D01*
X152482714Y-97606748D01*
X152544071Y-97651327D01*
X152547270Y-97653651D01*
X152720192Y-97730642D01*
X152720197Y-97730644D01*
X152905354Y-97770000D01*
X152905355Y-97770000D01*
X153094644Y-97770000D01*
X153094646Y-97770000D01*
X153279803Y-97730644D01*
X153452730Y-97653651D01*
X153605871Y-97542388D01*
X153732533Y-97401716D01*
X153772417Y-97332633D01*
X153822982Y-97284420D01*
X153891588Y-97271196D01*
X153956453Y-97297163D01*
X153996983Y-97354077D01*
X154003123Y-97381672D01*
X154014326Y-97488256D01*
X154014327Y-97488259D01*
X154072818Y-97668277D01*
X154072821Y-97668284D01*
X154167467Y-97832216D01*
X154294128Y-97972887D01*
X154294129Y-97972888D01*
X154447265Y-98084148D01*
X154447270Y-98084151D01*
X154620192Y-98161142D01*
X154620197Y-98161144D01*
X154805354Y-98200500D01*
X154805355Y-98200500D01*
X154933928Y-98200500D01*
X155000967Y-98220185D01*
X155038918Y-98258524D01*
X155085048Y-98331938D01*
X155109523Y-98370890D01*
X155229109Y-98490476D01*
X155229115Y-98490481D01*
X155372302Y-98580452D01*
X155372308Y-98580455D01*
X155372310Y-98580456D01*
X155428164Y-98600000D01*
X155475993Y-98616736D01*
X155532769Y-98657458D01*
X155558259Y-98719891D01*
X155563687Y-98768059D01*
X155575038Y-98800499D01*
X155619544Y-98927692D01*
X155619547Y-98927697D01*
X155709518Y-99070884D01*
X155709523Y-99070890D01*
X155829109Y-99190476D01*
X155829115Y-99190481D01*
X155972302Y-99280452D01*
X155972305Y-99280454D01*
X155972309Y-99280455D01*
X155972310Y-99280456D01*
X156044913Y-99305860D01*
X156131943Y-99336314D01*
X156299997Y-99355249D01*
X156300000Y-99355249D01*
X156300003Y-99355249D01*
X156468056Y-99336314D01*
X156468059Y-99336313D01*
X156627690Y-99280456D01*
X156627692Y-99280454D01*
X156627694Y-99280454D01*
X156627697Y-99280452D01*
X156770884Y-99190481D01*
X156770885Y-99190480D01*
X156770890Y-99190477D01*
X156890477Y-99070890D01*
X156910605Y-99038857D01*
X156980452Y-98927697D01*
X156980454Y-98927694D01*
X156980454Y-98927692D01*
X156980456Y-98927690D01*
X157036313Y-98768059D01*
X157036313Y-98768058D01*
X157036314Y-98768056D01*
X157055249Y-98600002D01*
X157055249Y-98599997D01*
X157043982Y-98500002D01*
X160444751Y-98500002D01*
X160463685Y-98668056D01*
X160519545Y-98827694D01*
X160519547Y-98827697D01*
X160609518Y-98970884D01*
X160609523Y-98970890D01*
X160729109Y-99090476D01*
X160729115Y-99090481D01*
X160872302Y-99180452D01*
X160872305Y-99180454D01*
X160872309Y-99180455D01*
X160872310Y-99180456D01*
X160900946Y-99190476D01*
X161031943Y-99236314D01*
X161199997Y-99255249D01*
X161200000Y-99255249D01*
X161200003Y-99255249D01*
X161368056Y-99236314D01*
X161394357Y-99227111D01*
X161527690Y-99180456D01*
X161527692Y-99180454D01*
X161527694Y-99180454D01*
X161527697Y-99180452D01*
X161670884Y-99090481D01*
X161670885Y-99090480D01*
X161670890Y-99090477D01*
X161790477Y-98970890D01*
X161790481Y-98970884D01*
X161880452Y-98827697D01*
X161880454Y-98827694D01*
X161880454Y-98827692D01*
X161880456Y-98827690D01*
X161936313Y-98668059D01*
X161936313Y-98668058D01*
X161936314Y-98668056D01*
X161955249Y-98500002D01*
X161955249Y-98499997D01*
X161936313Y-98331940D01*
X161936313Y-98331938D01*
X161930603Y-98315620D01*
X161927041Y-98245841D01*
X161961769Y-98185214D01*
X162023763Y-98152986D01*
X162033761Y-98151445D01*
X162168055Y-98136314D01*
X162168057Y-98136313D01*
X162168059Y-98136313D01*
X162327690Y-98080456D01*
X162327692Y-98080454D01*
X162327694Y-98080454D01*
X162327697Y-98080452D01*
X162470884Y-97990481D01*
X162470885Y-97990480D01*
X162470890Y-97990477D01*
X162590477Y-97870890D01*
X162596215Y-97861758D01*
X162680452Y-97727697D01*
X162680454Y-97727694D01*
X162680454Y-97727692D01*
X162680456Y-97727690D01*
X162736313Y-97568059D01*
X162736313Y-97568058D01*
X162736314Y-97568056D01*
X162755249Y-97400002D01*
X162755249Y-97399997D01*
X162736314Y-97231943D01*
X162695691Y-97115850D01*
X162680456Y-97072310D01*
X162680455Y-97072309D01*
X162680454Y-97072305D01*
X162680452Y-97072302D01*
X162590481Y-96929115D01*
X162590476Y-96929109D01*
X162470890Y-96809523D01*
X162470884Y-96809518D01*
X162327697Y-96719547D01*
X162327694Y-96719545D01*
X162168056Y-96663685D01*
X162000003Y-96644751D01*
X161999997Y-96644751D01*
X161831943Y-96663685D01*
X161672305Y-96719545D01*
X161672302Y-96719547D01*
X161529115Y-96809518D01*
X161529109Y-96809523D01*
X161409523Y-96929109D01*
X161409518Y-96929115D01*
X161319547Y-97072302D01*
X161319545Y-97072305D01*
X161263685Y-97231943D01*
X161244751Y-97399997D01*
X161244751Y-97400002D01*
X161263686Y-97568057D01*
X161269398Y-97584382D01*
X161272958Y-97654161D01*
X161238227Y-97714788D01*
X161176233Y-97747013D01*
X161166239Y-97748554D01*
X161031944Y-97763685D01*
X160872305Y-97819545D01*
X160872302Y-97819547D01*
X160729115Y-97909518D01*
X160729109Y-97909523D01*
X160609523Y-98029109D01*
X160609518Y-98029115D01*
X160519547Y-98172302D01*
X160519545Y-98172305D01*
X160463685Y-98331943D01*
X160444751Y-98499997D01*
X160444751Y-98500002D01*
X157043982Y-98500002D01*
X157036314Y-98431943D01*
X156980454Y-98272305D01*
X156980452Y-98272302D01*
X156890481Y-98129115D01*
X156890476Y-98129109D01*
X156770890Y-98009523D01*
X156770884Y-98009518D01*
X156627697Y-97919547D01*
X156627692Y-97919544D01*
X156561961Y-97896544D01*
X156524004Y-97883263D01*
X156467230Y-97842542D01*
X156441740Y-97780104D01*
X156436314Y-97731944D01*
X156434827Y-97727694D01*
X156380456Y-97572310D01*
X156380455Y-97572309D01*
X156380454Y-97572305D01*
X156380452Y-97572302D01*
X156290481Y-97429115D01*
X156290476Y-97429109D01*
X156170888Y-97309521D01*
X156170879Y-97309514D01*
X156169216Y-97308469D01*
X156168371Y-97307514D01*
X156165440Y-97305176D01*
X156165849Y-97304662D01*
X156122929Y-97256131D01*
X156112286Y-97187077D01*
X156140202Y-97123780D01*
X156152123Y-97109574D01*
X156155757Y-97105608D01*
X156161590Y-97099777D01*
X156181923Y-97074060D01*
X156231302Y-97015214D01*
X156231309Y-97015198D01*
X156235272Y-97009176D01*
X156235324Y-97009210D01*
X156239371Y-97002858D01*
X156239317Y-97002825D01*
X156243104Y-96996684D01*
X156243110Y-96996677D01*
X156273402Y-96931716D01*
X156275561Y-96927086D01*
X156296657Y-96885080D01*
X156310040Y-96858433D01*
X156310042Y-96858421D01*
X156312510Y-96851644D01*
X156312568Y-96851665D01*
X156315043Y-96844546D01*
X156314985Y-96844527D01*
X156317256Y-96837672D01*
X156321851Y-96815420D01*
X156332784Y-96762467D01*
X156350500Y-96687721D01*
X156350500Y-96687720D01*
X156351339Y-96680548D01*
X156351397Y-96680554D01*
X156352164Y-96673056D01*
X156352104Y-96673051D01*
X156352733Y-96665860D01*
X156351214Y-96613663D01*
X156350500Y-96589102D01*
X156350500Y-95900000D01*
X157694540Y-95900000D01*
X157714326Y-96088256D01*
X157714327Y-96088259D01*
X157772818Y-96268277D01*
X157772821Y-96268284D01*
X157867467Y-96432216D01*
X157957063Y-96531722D01*
X157994129Y-96572888D01*
X158147265Y-96684148D01*
X158147270Y-96684151D01*
X158320192Y-96761142D01*
X158320197Y-96761144D01*
X158505354Y-96800500D01*
X158505355Y-96800500D01*
X158694644Y-96800500D01*
X158694646Y-96800500D01*
X158879803Y-96761144D01*
X159052730Y-96684151D01*
X159205871Y-96572888D01*
X159332533Y-96432216D01*
X159427179Y-96268284D01*
X159485674Y-96088256D01*
X159505460Y-95900000D01*
X159485674Y-95711744D01*
X159427179Y-95531716D01*
X159332533Y-95367784D01*
X159205871Y-95227112D01*
X159169243Y-95200500D01*
X159052734Y-95115851D01*
X159052729Y-95115848D01*
X158879807Y-95038857D01*
X158879802Y-95038855D01*
X158734000Y-95007865D01*
X158694646Y-94999500D01*
X158505354Y-94999500D01*
X158472897Y-95006398D01*
X158320197Y-95038855D01*
X158320192Y-95038857D01*
X158147270Y-95115848D01*
X158147265Y-95115851D01*
X157994129Y-95227111D01*
X157867466Y-95367785D01*
X157772821Y-95531715D01*
X157772818Y-95531722D01*
X157714327Y-95711740D01*
X157714326Y-95711744D01*
X157694540Y-95900000D01*
X156350500Y-95900000D01*
X156350500Y-93063705D01*
X156351809Y-93045735D01*
X156352129Y-93043547D01*
X156355289Y-93021977D01*
X156353366Y-93000002D01*
X160944751Y-93000002D01*
X160963685Y-93168056D01*
X161019545Y-93327694D01*
X161019547Y-93327697D01*
X161109518Y-93470884D01*
X161109523Y-93470890D01*
X161229109Y-93590476D01*
X161229115Y-93590481D01*
X161372302Y-93680452D01*
X161372305Y-93680454D01*
X161372309Y-93680455D01*
X161372310Y-93680456D01*
X161444913Y-93705860D01*
X161531943Y-93736314D01*
X161699997Y-93755249D01*
X161700000Y-93755249D01*
X161700003Y-93755249D01*
X161868056Y-93736314D01*
X161868059Y-93736313D01*
X162027690Y-93680456D01*
X162027692Y-93680454D01*
X162027694Y-93680454D01*
X162027697Y-93680452D01*
X162170884Y-93590481D01*
X162170885Y-93590480D01*
X162170890Y-93590477D01*
X162290477Y-93470890D01*
X162310605Y-93438857D01*
X162380452Y-93327697D01*
X162380454Y-93327694D01*
X162380454Y-93327692D01*
X162380456Y-93327690D01*
X162436313Y-93168059D01*
X162436313Y-93168058D01*
X162436314Y-93168056D01*
X162455249Y-93000002D01*
X162455249Y-92999997D01*
X162436314Y-92831943D01*
X162383380Y-92680666D01*
X162380456Y-92672310D01*
X162380455Y-92672309D01*
X162380454Y-92672305D01*
X162380452Y-92672302D01*
X162290481Y-92529115D01*
X162290476Y-92529109D01*
X162170890Y-92409523D01*
X162170884Y-92409518D01*
X162027697Y-92319547D01*
X162027694Y-92319545D01*
X161868056Y-92263685D01*
X161700003Y-92244751D01*
X161699997Y-92244751D01*
X161531943Y-92263685D01*
X161372305Y-92319545D01*
X161372302Y-92319547D01*
X161229115Y-92409518D01*
X161229109Y-92409523D01*
X161109523Y-92529109D01*
X161109518Y-92529115D01*
X161019547Y-92672302D01*
X161019545Y-92672305D01*
X160963685Y-92831943D01*
X160944751Y-92999997D01*
X160944751Y-93000002D01*
X156353366Y-93000002D01*
X156353366Y-93000000D01*
X156350736Y-92969934D01*
X156350500Y-92964528D01*
X156350500Y-92956297D01*
X156350500Y-92956291D01*
X156346693Y-92923724D01*
X156341219Y-92861144D01*
X156339999Y-92847201D01*
X156338539Y-92840129D01*
X156338597Y-92840116D01*
X156336965Y-92832757D01*
X156336906Y-92832772D01*
X156335242Y-92825753D01*
X156335241Y-92825745D01*
X156308974Y-92753576D01*
X156284814Y-92680666D01*
X156284809Y-92680659D01*
X156281760Y-92674118D01*
X156281815Y-92674091D01*
X156278533Y-92667313D01*
X156278480Y-92667340D01*
X156275235Y-92660880D01*
X156233028Y-92596708D01*
X156192710Y-92531342D01*
X156188234Y-92525682D01*
X156188281Y-92525644D01*
X156183519Y-92519799D01*
X156183474Y-92519838D01*
X156178834Y-92514309D01*
X156178832Y-92514307D01*
X156178830Y-92514304D01*
X156148061Y-92485275D01*
X156122965Y-92461597D01*
X155946204Y-92284836D01*
X155912719Y-92223513D01*
X155917703Y-92153821D01*
X155959575Y-92097888D01*
X155960860Y-92096939D01*
X156037506Y-92041253D01*
X156164168Y-91900581D01*
X156258814Y-91736649D01*
X156317309Y-91556621D01*
X156337095Y-91368365D01*
X156319400Y-91200000D01*
X158494540Y-91200000D01*
X158514326Y-91388256D01*
X158514327Y-91388259D01*
X158572818Y-91568277D01*
X158572821Y-91568284D01*
X158667467Y-91732216D01*
X158699538Y-91767834D01*
X158794129Y-91872888D01*
X158947265Y-91984148D01*
X158947270Y-91984151D01*
X159120192Y-92061142D01*
X159120197Y-92061144D01*
X159305354Y-92100500D01*
X159305355Y-92100500D01*
X159494644Y-92100500D01*
X159494646Y-92100500D01*
X159679803Y-92061144D01*
X159852730Y-91984151D01*
X160005871Y-91872888D01*
X160132533Y-91732216D01*
X160227179Y-91568284D01*
X160285674Y-91388256D01*
X160305460Y-91200000D01*
X160285674Y-91011744D01*
X160228115Y-90834596D01*
X160227181Y-90831722D01*
X160227180Y-90831721D01*
X160227179Y-90831716D01*
X160132533Y-90667784D01*
X160005871Y-90527112D01*
X160005870Y-90527111D01*
X159852734Y-90415851D01*
X159852729Y-90415848D01*
X159679807Y-90338857D01*
X159679802Y-90338855D01*
X159534001Y-90307865D01*
X159494646Y-90299500D01*
X159305354Y-90299500D01*
X159272897Y-90306398D01*
X159120197Y-90338855D01*
X159120192Y-90338857D01*
X158947270Y-90415848D01*
X158947265Y-90415851D01*
X158794129Y-90527111D01*
X158667466Y-90667785D01*
X158572821Y-90831715D01*
X158572818Y-90831722D01*
X158514327Y-91011740D01*
X158514326Y-91011744D01*
X158494540Y-91200000D01*
X156319400Y-91200000D01*
X156317309Y-91180109D01*
X156258814Y-91000081D01*
X156164168Y-90836149D01*
X156164168Y-90836148D01*
X156160350Y-90830894D01*
X156161629Y-90829964D01*
X156134854Y-90774188D01*
X156143470Y-90704851D01*
X156169547Y-90666514D01*
X159324243Y-87511819D01*
X159385567Y-87478334D01*
X159411925Y-87475500D01*
X159736600Y-87475500D01*
X159754570Y-87476809D01*
X159778328Y-87480289D01*
X159830373Y-87475735D01*
X159835775Y-87475500D01*
X159844009Y-87475500D01*
X159844014Y-87475500D01*
X159866358Y-87472888D01*
X159876581Y-87471693D01*
X159960298Y-87464370D01*
X159960455Y-87466165D01*
X160020784Y-87471114D01*
X160076277Y-87513568D01*
X160100009Y-87579283D01*
X160084445Y-87647397D01*
X160049125Y-87687155D01*
X159994127Y-87727113D01*
X159867466Y-87867785D01*
X159772821Y-88031715D01*
X159772818Y-88031722D01*
X159717979Y-88200500D01*
X159714326Y-88211744D01*
X159694540Y-88400000D01*
X159714326Y-88588256D01*
X159714327Y-88588259D01*
X159772818Y-88768277D01*
X159772821Y-88768284D01*
X159867467Y-88932216D01*
X159994129Y-89072888D01*
X160147265Y-89184148D01*
X160147270Y-89184151D01*
X160320192Y-89261142D01*
X160320197Y-89261144D01*
X160505354Y-89300500D01*
X160505355Y-89300500D01*
X160694644Y-89300500D01*
X160694646Y-89300500D01*
X160879803Y-89261144D01*
X161052730Y-89184151D01*
X161205871Y-89072888D01*
X161332533Y-88932216D01*
X161427179Y-88768284D01*
X161485674Y-88588256D01*
X161505460Y-88400000D01*
X161485674Y-88211744D01*
X161427179Y-88031716D01*
X161332533Y-87867784D01*
X161205871Y-87727112D01*
X161205870Y-87727111D01*
X161052734Y-87615851D01*
X161052729Y-87615848D01*
X160879807Y-87538857D01*
X160879802Y-87538855D01*
X160734000Y-87507865D01*
X160694646Y-87499500D01*
X160505354Y-87499500D01*
X160410687Y-87519622D01*
X160385671Y-87524939D01*
X160316004Y-87519622D01*
X160260271Y-87477484D01*
X160236166Y-87411904D01*
X160251344Y-87343703D01*
X160282165Y-87310500D01*
X160280466Y-87308475D01*
X160286001Y-87303830D01*
X160338690Y-87247983D01*
X161570824Y-86015848D01*
X162005642Y-85581029D01*
X162019271Y-85569252D01*
X162038530Y-85554915D01*
X162072101Y-85514906D01*
X162075761Y-85510911D01*
X162081590Y-85505083D01*
X162101941Y-85479344D01*
X162107948Y-85472184D01*
X162151302Y-85420519D01*
X162151306Y-85420510D01*
X162155274Y-85414480D01*
X162155325Y-85414513D01*
X162159372Y-85408161D01*
X162159320Y-85408129D01*
X162163112Y-85401980D01*
X162195575Y-85332363D01*
X162222800Y-85278154D01*
X162230040Y-85263738D01*
X162230042Y-85263726D01*
X162232509Y-85256951D01*
X162232567Y-85256972D01*
X162235043Y-85249851D01*
X162234986Y-85249833D01*
X162237257Y-85242978D01*
X162252792Y-85167739D01*
X162270498Y-85093033D01*
X162270500Y-85093026D01*
X162270500Y-85093015D01*
X162271338Y-85085853D01*
X162271398Y-85085860D01*
X162272164Y-85078360D01*
X162272105Y-85078355D01*
X162272734Y-85071165D01*
X162270500Y-84994388D01*
X162270500Y-84989321D01*
X162287113Y-84927321D01*
X162347179Y-84823284D01*
X162405674Y-84643256D01*
X162425460Y-84455000D01*
X162405674Y-84266744D01*
X162347179Y-84086716D01*
X162252533Y-83922784D01*
X162125871Y-83782112D01*
X162083129Y-83751058D01*
X161972734Y-83670851D01*
X161972729Y-83670848D01*
X161799807Y-83593857D01*
X161799802Y-83593855D01*
X161654001Y-83562865D01*
X161614646Y-83554500D01*
X161454500Y-83554500D01*
X161387461Y-83534815D01*
X161341706Y-83482011D01*
X161330500Y-83430500D01*
X161330500Y-82299256D01*
X161315074Y-82147560D01*
X161254162Y-81953420D01*
X161254160Y-81953416D01*
X161254159Y-81953412D01*
X161155409Y-81775498D01*
X161155408Y-81775497D01*
X161155407Y-81775495D01*
X161022867Y-81621106D01*
X161022865Y-81621104D01*
X160861962Y-81496554D01*
X160861959Y-81496553D01*
X160861958Y-81496552D01*
X160679271Y-81406940D01*
X160482285Y-81355937D01*
X160482287Y-81355937D01*
X160346804Y-81349066D01*
X160279064Y-81345631D01*
X160279063Y-81345631D01*
X160279061Y-81345631D01*
X160077936Y-81376442D01*
X160077924Y-81376445D01*
X159887118Y-81447111D01*
X159887111Y-81447115D01*
X159714432Y-81554745D01*
X159714427Y-81554749D01*
X159566949Y-81694938D01*
X159566947Y-81694940D01*
X159566947Y-81694941D01*
X159552395Y-81715849D01*
X159450704Y-81861952D01*
X159437667Y-81892331D01*
X159393139Y-81946174D01*
X159326570Y-81967396D01*
X159259096Y-81949259D01*
X159248231Y-81941805D01*
X159190233Y-81897302D01*
X159190230Y-81897300D01*
X159099731Y-81859814D01*
X159050236Y-81839313D01*
X159036171Y-81837461D01*
X158937727Y-81824500D01*
X158937720Y-81824500D01*
X158862280Y-81824500D01*
X158862272Y-81824500D01*
X158749764Y-81839313D01*
X158749763Y-81839313D01*
X158609770Y-81897300D01*
X158609767Y-81897301D01*
X158609767Y-81897302D01*
X158489549Y-81989549D01*
X158404419Y-82100493D01*
X158397300Y-82109770D01*
X158339313Y-82249763D01*
X158339312Y-82249765D01*
X158319534Y-82399999D01*
X158319534Y-82400000D01*
X158339312Y-82550234D01*
X158339313Y-82550236D01*
X158397302Y-82690233D01*
X158489549Y-82810451D01*
X158609767Y-82902698D01*
X158749764Y-82960687D01*
X158862280Y-82975500D01*
X158862287Y-82975500D01*
X158937713Y-82975500D01*
X158937720Y-82975500D01*
X159050236Y-82960687D01*
X159158046Y-82916030D01*
X159227517Y-82908561D01*
X159289996Y-82939836D01*
X159325648Y-82999925D01*
X159329500Y-83030591D01*
X159329500Y-83500743D01*
X159344925Y-83652439D01*
X159387659Y-83788640D01*
X159388947Y-83858498D01*
X159352261Y-83917962D01*
X159319782Y-83939040D01*
X159147270Y-84015848D01*
X159147265Y-84015851D01*
X158994129Y-84127111D01*
X158867466Y-84267785D01*
X158772821Y-84431715D01*
X158772818Y-84431722D01*
X158714327Y-84611740D01*
X158714326Y-84611744D01*
X158694540Y-84800000D01*
X158714326Y-84988256D01*
X158714327Y-84988259D01*
X158772818Y-85168277D01*
X158772821Y-85168284D01*
X158867467Y-85332216D01*
X158938086Y-85410646D01*
X158994129Y-85472888D01*
X159147265Y-85584148D01*
X159147270Y-85584151D01*
X159320192Y-85661142D01*
X159320197Y-85661144D01*
X159494807Y-85698258D01*
X159556289Y-85731450D01*
X159590065Y-85792613D01*
X159585413Y-85862328D01*
X159556709Y-85907227D01*
X159525755Y-85938181D01*
X159464435Y-85971666D01*
X159438075Y-85974500D01*
X159113400Y-85974500D01*
X159095430Y-85973191D01*
X159071667Y-85969710D01*
X159026228Y-85973686D01*
X159019626Y-85974264D01*
X159014225Y-85974500D01*
X159005984Y-85974500D01*
X158984274Y-85977037D01*
X158973419Y-85978306D01*
X158958114Y-85979645D01*
X158896894Y-85985001D01*
X158889827Y-85986460D01*
X158889815Y-85986404D01*
X158882458Y-85988035D01*
X158882472Y-85988092D01*
X158875438Y-85989759D01*
X158803270Y-86016025D01*
X158730360Y-86040185D01*
X158723821Y-86043235D01*
X158723796Y-86043183D01*
X158717003Y-86046471D01*
X158717029Y-86046522D01*
X158710579Y-86049761D01*
X158646411Y-86091964D01*
X158581042Y-86132285D01*
X158575372Y-86136769D01*
X158575336Y-86136723D01*
X158569493Y-86141484D01*
X158569530Y-86141528D01*
X158564005Y-86146164D01*
X158511309Y-86202017D01*
X158178472Y-86534853D01*
X158117149Y-86568338D01*
X158047457Y-86563354D01*
X157998642Y-86530145D01*
X157905871Y-86427112D01*
X157898542Y-86421787D01*
X157752734Y-86315851D01*
X157752729Y-86315848D01*
X157579807Y-86238857D01*
X157579802Y-86238855D01*
X157434000Y-86207865D01*
X157394646Y-86199500D01*
X157205354Y-86199500D01*
X157172897Y-86206398D01*
X157020197Y-86238855D01*
X157020192Y-86238857D01*
X156847270Y-86315848D01*
X156847265Y-86315851D01*
X156694129Y-86427111D01*
X156567466Y-86567785D01*
X156472821Y-86731715D01*
X156472818Y-86731722D01*
X156428609Y-86867785D01*
X156414326Y-86911744D01*
X156394540Y-87100000D01*
X156414326Y-87288256D01*
X156414327Y-87288259D01*
X156472818Y-87468277D01*
X156472821Y-87468284D01*
X156567467Y-87632216D01*
X156629480Y-87701088D01*
X156694128Y-87772887D01*
X156719332Y-87791199D01*
X156761997Y-87846529D01*
X156767976Y-87916143D01*
X156735370Y-87977938D01*
X156734127Y-87979198D01*
X154114358Y-90598967D01*
X154100729Y-90610746D01*
X154081468Y-90625085D01*
X154047898Y-90665092D01*
X154044253Y-90669071D01*
X154038409Y-90674917D01*
X154018059Y-90700654D01*
X153968695Y-90759484D01*
X153964729Y-90765514D01*
X153964682Y-90765483D01*
X153960630Y-90771842D01*
X153960679Y-90771872D01*
X153956889Y-90778016D01*
X153924424Y-90847636D01*
X153886720Y-90922713D01*
X153883971Y-90921332D01*
X153850651Y-90966474D01*
X153785352Y-90991332D01*
X153716981Y-90976940D01*
X153668286Y-90929710D01*
X153660522Y-90916262D01*
X153632533Y-90867784D01*
X153505871Y-90727112D01*
X153505870Y-90727111D01*
X153352734Y-90615851D01*
X153352729Y-90615848D01*
X153179807Y-90538857D01*
X153179802Y-90538855D01*
X153034001Y-90507865D01*
X152994646Y-90499500D01*
X152805354Y-90499500D01*
X152772897Y-90506398D01*
X152620197Y-90538855D01*
X152620192Y-90538857D01*
X152447270Y-90615848D01*
X152447265Y-90615851D01*
X152294129Y-90727111D01*
X152167466Y-90867785D01*
X152072821Y-91031715D01*
X152072818Y-91031722D01*
X152022817Y-91185611D01*
X152014326Y-91211744D01*
X151994540Y-91400000D01*
X152014326Y-91588256D01*
X152014327Y-91588259D01*
X152072818Y-91768277D01*
X152072821Y-91768284D01*
X152167467Y-91932216D01*
X152265642Y-92041250D01*
X152294129Y-92072888D01*
X152447265Y-92184148D01*
X152447270Y-92184151D01*
X152620192Y-92261142D01*
X152620197Y-92261144D01*
X152805354Y-92300500D01*
X152805355Y-92300500D01*
X152994644Y-92300500D01*
X152994646Y-92300500D01*
X153179803Y-92261144D01*
X153352730Y-92184151D01*
X153505871Y-92072888D01*
X153505870Y-92072888D01*
X153511129Y-92069068D01*
X153512170Y-92070501D01*
X153567330Y-92044012D01*
X153636667Y-92052618D01*
X153690345Y-92097344D01*
X153710664Y-92153422D01*
X153714325Y-92188253D01*
X153714326Y-92188257D01*
X153772818Y-92368277D01*
X153772821Y-92368284D01*
X153867467Y-92532216D01*
X153925536Y-92596708D01*
X153994129Y-92672888D01*
X154147265Y-92784148D01*
X154147270Y-92784151D01*
X154320191Y-92861142D01*
X154320194Y-92861142D01*
X154320197Y-92861144D01*
X154354221Y-92868375D01*
X154385329Y-92874988D01*
X154446811Y-92908180D01*
X154447230Y-92908597D01*
X154813181Y-93274548D01*
X154846666Y-93335871D01*
X154849500Y-93362229D01*
X154849500Y-96237770D01*
X154829815Y-96304809D01*
X154813185Y-96325446D01*
X154770848Y-96367784D01*
X154747229Y-96391403D01*
X154685905Y-96424887D01*
X154685330Y-96425011D01*
X154620196Y-96438856D01*
X154620192Y-96438857D01*
X154447270Y-96515848D01*
X154447265Y-96515851D01*
X154294129Y-96627111D01*
X154167465Y-96767785D01*
X154127583Y-96836864D01*
X154077016Y-96885080D01*
X154008409Y-96898302D01*
X153943544Y-96872334D01*
X153903016Y-96815420D01*
X153896876Y-96787832D01*
X153885674Y-96681244D01*
X153827179Y-96501216D01*
X153732533Y-96337284D01*
X153605871Y-96196612D01*
X153569243Y-96170000D01*
X153452734Y-96085351D01*
X153452729Y-96085348D01*
X153279807Y-96008357D01*
X153279802Y-96008355D01*
X153134001Y-95977365D01*
X153094646Y-95969000D01*
X152905354Y-95969000D01*
X152872897Y-95975898D01*
X152720197Y-96008355D01*
X152720192Y-96008357D01*
X152547270Y-96085348D01*
X152547265Y-96085351D01*
X152394129Y-96196611D01*
X152267466Y-96337285D01*
X152172821Y-96501215D01*
X152172818Y-96501222D01*
X152116988Y-96673051D01*
X152114326Y-96681244D01*
X152095703Y-96858433D01*
X152094540Y-96869500D01*
X152113452Y-97049442D01*
X152100882Y-97118172D01*
X152053150Y-97169195D01*
X151985410Y-97186313D01*
X151919168Y-97164090D01*
X151917246Y-97162721D01*
X151852734Y-97115850D01*
X151852729Y-97115847D01*
X151679807Y-97038856D01*
X151679802Y-97038854D01*
X151522112Y-97005337D01*
X151494646Y-96999499D01*
X151327568Y-96999499D01*
X151260529Y-96979814D01*
X151214774Y-96927010D01*
X151204247Y-96888461D01*
X151201091Y-96858433D01*
X151185674Y-96711744D01*
X151127179Y-96531716D01*
X151032533Y-96367784D01*
X150905871Y-96227112D01*
X150905870Y-96227111D01*
X150752734Y-96115851D01*
X150752729Y-96115848D01*
X150579807Y-96038857D01*
X150579802Y-96038855D01*
X150434001Y-96007865D01*
X150394646Y-95999500D01*
X150205354Y-95999500D01*
X150172897Y-96006398D01*
X150020197Y-96038855D01*
X150020192Y-96038857D01*
X149847270Y-96115848D01*
X149847265Y-96115851D01*
X149694129Y-96227111D01*
X149567466Y-96367785D01*
X149472821Y-96531715D01*
X149472818Y-96531722D01*
X149414327Y-96711740D01*
X149414326Y-96711744D01*
X149394540Y-96900000D01*
X149414326Y-97088256D01*
X149414327Y-97088259D01*
X149472818Y-97268277D01*
X149472821Y-97268284D01*
X149567467Y-97432216D01*
X149650880Y-97524855D01*
X149694129Y-97572888D01*
X149847265Y-97684148D01*
X149847270Y-97684151D01*
X150020192Y-97761142D01*
X150020197Y-97761144D01*
X150205354Y-97800500D01*
X150205355Y-97800500D01*
X150372432Y-97800500D01*
X150439471Y-97820185D01*
X150485226Y-97872989D01*
X150495752Y-97911536D01*
X150514326Y-98088255D01*
X150514327Y-98088258D01*
X150572818Y-98268276D01*
X150572821Y-98268283D01*
X150667467Y-98432215D01*
X150728501Y-98500000D01*
X150794129Y-98572887D01*
X150947265Y-98684147D01*
X150947270Y-98684150D01*
X151120191Y-98761141D01*
X151120193Y-98761141D01*
X151120197Y-98761143D01*
X151202843Y-98778709D01*
X151264322Y-98811901D01*
X151298099Y-98873063D01*
X151293447Y-98942778D01*
X151251843Y-98998911D01*
X151202841Y-99021289D01*
X151120197Y-99038855D01*
X151120192Y-99038857D01*
X150947270Y-99115848D01*
X150947265Y-99115851D01*
X150794129Y-99227111D01*
X150667466Y-99367785D01*
X150572821Y-99531715D01*
X150572818Y-99531722D01*
X150514327Y-99711740D01*
X150514326Y-99711744D01*
X150494540Y-99900000D01*
X150514326Y-100088256D01*
X150514327Y-100088259D01*
X150572818Y-100268277D01*
X150572821Y-100268284D01*
X150667467Y-100432216D01*
X150775475Y-100552171D01*
X150794129Y-100572888D01*
X150947265Y-100684148D01*
X150947270Y-100684151D01*
X151120191Y-100761142D01*
X151120193Y-100761142D01*
X151120197Y-100761144D01*
X151202843Y-100778710D01*
X151264322Y-100811902D01*
X151298099Y-100873064D01*
X151293447Y-100942779D01*
X151251843Y-100998912D01*
X151202841Y-101021290D01*
X151120197Y-101038856D01*
X151120192Y-101038858D01*
X150947270Y-101115849D01*
X150947265Y-101115852D01*
X150794129Y-101227112D01*
X150667466Y-101367786D01*
X150572821Y-101531716D01*
X150572123Y-101533285D01*
X150571478Y-101534043D01*
X150569572Y-101537345D01*
X150568967Y-101536996D01*
X150526867Y-101586517D01*
X150460016Y-101606832D01*
X150408412Y-101596117D01*
X150279807Y-101538857D01*
X150279802Y-101538855D01*
X150134001Y-101507865D01*
X150094646Y-101499500D01*
X149905354Y-101499500D01*
X149872897Y-101506398D01*
X149720197Y-101538855D01*
X149720192Y-101538857D01*
X149547270Y-101615848D01*
X149547265Y-101615851D01*
X149394129Y-101727111D01*
X149267466Y-101867785D01*
X149172821Y-102031715D01*
X149172818Y-102031722D01*
X149114327Y-102211740D01*
X149114326Y-102211744D01*
X149094540Y-102400000D01*
X147827156Y-102400000D01*
X147986401Y-102288495D01*
X148153495Y-102121401D01*
X148289035Y-101927830D01*
X148388903Y-101713663D01*
X148450063Y-101485408D01*
X148470659Y-101250000D01*
X148450063Y-101014592D01*
X148395753Y-100811902D01*
X148388905Y-100786344D01*
X148388904Y-100786343D01*
X148388903Y-100786337D01*
X148289035Y-100572171D01*
X148191037Y-100432214D01*
X148153494Y-100378597D01*
X147986402Y-100211506D01*
X147986396Y-100211501D01*
X147800842Y-100081575D01*
X147757217Y-100026998D01*
X147750023Y-99957500D01*
X147781546Y-99895145D01*
X147800842Y-99878425D01*
X147829405Y-99858425D01*
X147986401Y-99748495D01*
X148153495Y-99581401D01*
X148289035Y-99387830D01*
X148388903Y-99173663D01*
X148450063Y-98945408D01*
X148470659Y-98710000D01*
X148450063Y-98474592D01*
X148394783Y-98268283D01*
X148388905Y-98246344D01*
X148388904Y-98246343D01*
X148388903Y-98246337D01*
X148289035Y-98032171D01*
X148286896Y-98029115D01*
X148153494Y-97838597D01*
X147986402Y-97671506D01*
X147986396Y-97671501D01*
X147800842Y-97541575D01*
X147757217Y-97486998D01*
X147750023Y-97417500D01*
X147781546Y-97355145D01*
X147800842Y-97338425D01*
X147877969Y-97284420D01*
X147986401Y-97208495D01*
X148153495Y-97041401D01*
X148289035Y-96847830D01*
X148388903Y-96633663D01*
X148450063Y-96405408D01*
X148470659Y-96170000D01*
X148450063Y-95934592D01*
X148388903Y-95706337D01*
X148289035Y-95492171D01*
X148201940Y-95367785D01*
X148153494Y-95298597D01*
X147986402Y-95131506D01*
X147986396Y-95131501D01*
X147800842Y-95001575D01*
X147757217Y-94946998D01*
X147750023Y-94877500D01*
X147781546Y-94815145D01*
X147800842Y-94798425D01*
X147829405Y-94778425D01*
X147986401Y-94668495D01*
X148153495Y-94501401D01*
X148289035Y-94307830D01*
X148292686Y-94300000D01*
X152394540Y-94300000D01*
X152414326Y-94488256D01*
X152414327Y-94488259D01*
X152472818Y-94668277D01*
X152472821Y-94668284D01*
X152567467Y-94832216D01*
X152686896Y-94964855D01*
X152694129Y-94972888D01*
X152847265Y-95084148D01*
X152847270Y-95084151D01*
X153020192Y-95161142D01*
X153020197Y-95161144D01*
X153205354Y-95200500D01*
X153205355Y-95200500D01*
X153394644Y-95200500D01*
X153394646Y-95200500D01*
X153579803Y-95161144D01*
X153752730Y-95084151D01*
X153905871Y-94972888D01*
X154032533Y-94832216D01*
X154127179Y-94668284D01*
X154185674Y-94488256D01*
X154205460Y-94300000D01*
X154185674Y-94111744D01*
X154127179Y-93931716D01*
X154032533Y-93767784D01*
X153905871Y-93627112D01*
X153905870Y-93627111D01*
X153752734Y-93515851D01*
X153752729Y-93515848D01*
X153579807Y-93438857D01*
X153579802Y-93438855D01*
X153434000Y-93407865D01*
X153394646Y-93399500D01*
X153205354Y-93399500D01*
X153172897Y-93406398D01*
X153020197Y-93438855D01*
X153020192Y-93438857D01*
X152847270Y-93515848D01*
X152847265Y-93515851D01*
X152694129Y-93627111D01*
X152567466Y-93767785D01*
X152472821Y-93931715D01*
X152472818Y-93931722D01*
X152414327Y-94111740D01*
X152414326Y-94111744D01*
X152394540Y-94300000D01*
X148292686Y-94300000D01*
X148388903Y-94093663D01*
X148450063Y-93865408D01*
X148470659Y-93630000D01*
X148450063Y-93394592D01*
X148403626Y-93221285D01*
X148388905Y-93166344D01*
X148388904Y-93166343D01*
X148388903Y-93166337D01*
X148289035Y-92952171D01*
X148269117Y-92923724D01*
X148153494Y-92758597D01*
X147986402Y-92591506D01*
X147986396Y-92591501D01*
X147800842Y-92461575D01*
X147757217Y-92406998D01*
X147750023Y-92337500D01*
X147781546Y-92275145D01*
X147800842Y-92258425D01*
X147901052Y-92188257D01*
X147986401Y-92128495D01*
X148153495Y-91961401D01*
X148289035Y-91767830D01*
X148388903Y-91553663D01*
X148450063Y-91325408D01*
X148470659Y-91090000D01*
X148450063Y-90854592D01*
X148388903Y-90626337D01*
X148289035Y-90412171D01*
X148237701Y-90338857D01*
X148153494Y-90218597D01*
X147986402Y-90051506D01*
X147986395Y-90051501D01*
X147792834Y-89915967D01*
X147792830Y-89915965D01*
X147749938Y-89895964D01*
X147578663Y-89816097D01*
X147578659Y-89816096D01*
X147578655Y-89816094D01*
X147350413Y-89754938D01*
X147350403Y-89754936D01*
X147115001Y-89734341D01*
X147114999Y-89734341D01*
X146879596Y-89754936D01*
X146879586Y-89754938D01*
X146651344Y-89816094D01*
X146651335Y-89816098D01*
X146437171Y-89915964D01*
X146437169Y-89915965D01*
X146243597Y-90051505D01*
X146076505Y-90218597D01*
X145940965Y-90412169D01*
X145940964Y-90412171D01*
X145841098Y-90626335D01*
X145841094Y-90626344D01*
X145779938Y-90854586D01*
X145779936Y-90854596D01*
X145759341Y-91089999D01*
X145759341Y-91090000D01*
X145779936Y-91325403D01*
X145779938Y-91325413D01*
X145841094Y-91553655D01*
X145841096Y-91553659D01*
X145841097Y-91553663D01*
X145877494Y-91631716D01*
X145940965Y-91767830D01*
X145940967Y-91767834D01*
X146076501Y-91961395D01*
X146076506Y-91961402D01*
X146243597Y-92128493D01*
X146243603Y-92128498D01*
X146429158Y-92258425D01*
X146472783Y-92313002D01*
X146479977Y-92382500D01*
X146448454Y-92444855D01*
X146429158Y-92461575D01*
X146243597Y-92591505D01*
X146076505Y-92758597D01*
X145940965Y-92952169D01*
X145940964Y-92952171D01*
X145841098Y-93166335D01*
X145841094Y-93166344D01*
X145779938Y-93394586D01*
X145779936Y-93394596D01*
X145759341Y-93629999D01*
X145759341Y-93630000D01*
X145779936Y-93865403D01*
X145779938Y-93865413D01*
X145841094Y-94093655D01*
X145841096Y-94093659D01*
X145841097Y-94093663D01*
X145931639Y-94287830D01*
X145940965Y-94307830D01*
X145940967Y-94307834D01*
X146076501Y-94501395D01*
X146076506Y-94501402D01*
X146243597Y-94668493D01*
X146243603Y-94668498D01*
X146429158Y-94798425D01*
X146472783Y-94853002D01*
X146479977Y-94922500D01*
X146448454Y-94984855D01*
X146429158Y-95001575D01*
X146243597Y-95131505D01*
X146076505Y-95298597D01*
X145940965Y-95492169D01*
X145940964Y-95492171D01*
X145841098Y-95706335D01*
X145841094Y-95706344D01*
X145779938Y-95934586D01*
X145779936Y-95934596D01*
X145759341Y-96169999D01*
X145759341Y-96170000D01*
X145779936Y-96405403D01*
X145779938Y-96405413D01*
X145841094Y-96633655D01*
X145841096Y-96633659D01*
X145841097Y-96633663D01*
X145903639Y-96767784D01*
X145940965Y-96847830D01*
X145940967Y-96847834D01*
X146076501Y-97041395D01*
X146076506Y-97041402D01*
X146243597Y-97208493D01*
X146243603Y-97208498D01*
X146429158Y-97338425D01*
X146472783Y-97393002D01*
X146479977Y-97462500D01*
X146448454Y-97524855D01*
X146429158Y-97541575D01*
X146243597Y-97671505D01*
X146076505Y-97838597D01*
X145940965Y-98032169D01*
X145940964Y-98032171D01*
X145841098Y-98246335D01*
X145841094Y-98246344D01*
X145779938Y-98474586D01*
X145779936Y-98474596D01*
X145759341Y-98709999D01*
X145759341Y-98710000D01*
X145779936Y-98945403D01*
X145779938Y-98945413D01*
X145841094Y-99173655D01*
X145841096Y-99173659D01*
X145841097Y-99173663D01*
X145890894Y-99280452D01*
X145940965Y-99387830D01*
X145940967Y-99387834D01*
X146076501Y-99581395D01*
X146076506Y-99581402D01*
X146243597Y-99748493D01*
X146243603Y-99748498D01*
X146429158Y-99878425D01*
X146472783Y-99933002D01*
X146479977Y-100002500D01*
X146448454Y-100064855D01*
X146429158Y-100081575D01*
X146243597Y-100211505D01*
X146076505Y-100378597D01*
X145940965Y-100572169D01*
X145940964Y-100572171D01*
X145841098Y-100786335D01*
X145841094Y-100786344D01*
X145779938Y-101014586D01*
X145779936Y-101014596D01*
X145759341Y-101249999D01*
X145759341Y-101250000D01*
X145779936Y-101485403D01*
X145779938Y-101485413D01*
X145841094Y-101713655D01*
X145841096Y-101713659D01*
X145841097Y-101713663D01*
X145927988Y-101900001D01*
X145940965Y-101927830D01*
X145940967Y-101927834D01*
X146076501Y-102121395D01*
X146076506Y-102121402D01*
X146243597Y-102288493D01*
X146243603Y-102288498D01*
X146429158Y-102418425D01*
X146472783Y-102473002D01*
X146479977Y-102542500D01*
X146448454Y-102604855D01*
X146429158Y-102621575D01*
X146243597Y-102751505D01*
X146076505Y-102918597D01*
X145940965Y-103112169D01*
X145940964Y-103112171D01*
X145841098Y-103326335D01*
X145841094Y-103326344D01*
X145779938Y-103554586D01*
X145779936Y-103554596D01*
X145759341Y-103789999D01*
X145759341Y-103790000D01*
X145779936Y-104025403D01*
X145779938Y-104025413D01*
X145841094Y-104253655D01*
X145841096Y-104253659D01*
X145841097Y-104253663D01*
X145931639Y-104447830D01*
X145940965Y-104467830D01*
X145940967Y-104467834D01*
X146076501Y-104661395D01*
X146076506Y-104661402D01*
X146243597Y-104828493D01*
X146243603Y-104828498D01*
X146429158Y-104958425D01*
X146472783Y-105013002D01*
X146479977Y-105082500D01*
X146448454Y-105144855D01*
X146429158Y-105161575D01*
X146243597Y-105291505D01*
X146076505Y-105458597D01*
X145940965Y-105652169D01*
X145940964Y-105652171D01*
X145841098Y-105866335D01*
X145841094Y-105866344D01*
X145779938Y-106094586D01*
X145779936Y-106094596D01*
X145759341Y-106329999D01*
X145759341Y-106330000D01*
X145779936Y-106565403D01*
X145779938Y-106565413D01*
X145841094Y-106793655D01*
X145841096Y-106793659D01*
X145841097Y-106793663D01*
X145905475Y-106931722D01*
X145940965Y-107007830D01*
X145940967Y-107007834D01*
X146076501Y-107201395D01*
X146076506Y-107201402D01*
X146243597Y-107368493D01*
X146243603Y-107368498D01*
X146429158Y-107498425D01*
X146472783Y-107553002D01*
X146479977Y-107622500D01*
X146448454Y-107684855D01*
X146429158Y-107701575D01*
X146243597Y-107831505D01*
X146076505Y-107998597D01*
X145940965Y-108192169D01*
X145940964Y-108192171D01*
X145841098Y-108406335D01*
X145841094Y-108406344D01*
X145779938Y-108634586D01*
X145779936Y-108634596D01*
X145759341Y-108869999D01*
X145759341Y-108870000D01*
X145779936Y-109105403D01*
X145779938Y-109105413D01*
X145841094Y-109333655D01*
X145841096Y-109333659D01*
X145841097Y-109333663D01*
X145885604Y-109429108D01*
X145940965Y-109547830D01*
X145940967Y-109547834D01*
X146049281Y-109702521D01*
X146069882Y-109731943D01*
X146076501Y-109741395D01*
X146076506Y-109741402D01*
X146243597Y-109908493D01*
X146243603Y-109908498D01*
X146429158Y-110038425D01*
X146472783Y-110093002D01*
X146479977Y-110162500D01*
X146448454Y-110224855D01*
X146429158Y-110241575D01*
X146243597Y-110371505D01*
X146076505Y-110538597D01*
X145940965Y-110732169D01*
X145940964Y-110732171D01*
X145841098Y-110946335D01*
X145841094Y-110946344D01*
X145779938Y-111174586D01*
X145779936Y-111174596D01*
X145759341Y-111409999D01*
X145759341Y-111410000D01*
X145100500Y-111410000D01*
X145100500Y-86724500D01*
X145120185Y-86657461D01*
X145172989Y-86611706D01*
X145224500Y-86600500D01*
X148775240Y-86600500D01*
X148775383Y-86600528D01*
X148775384Y-86600524D01*
X148799997Y-86600539D01*
X148800000Y-86600541D01*
X148800383Y-86600383D01*
X148800500Y-86600099D01*
X148800541Y-86600000D01*
X148800540Y-86599997D01*
X148800583Y-86575889D01*
X148800500Y-86575467D01*
X148800500Y-83169811D01*
X148820185Y-83102772D01*
X148872989Y-83057017D01*
X148942147Y-83047073D01*
X149005703Y-83076098D01*
X149016650Y-83086839D01*
X149094129Y-83172888D01*
X149247265Y-83284148D01*
X149247270Y-83284151D01*
X149420192Y-83361142D01*
X149420197Y-83361144D01*
X149605354Y-83400500D01*
X149605355Y-83400500D01*
X149794644Y-83400500D01*
X149794646Y-83400500D01*
X149979803Y-83361144D01*
X150152730Y-83284151D01*
X150305871Y-83172888D01*
X150432533Y-83032216D01*
X150458113Y-82987910D01*
X150508679Y-82939695D01*
X150577286Y-82926471D01*
X150642151Y-82952439D01*
X150682680Y-83009353D01*
X150689500Y-83049910D01*
X150689500Y-83500743D01*
X150704925Y-83652439D01*
X150765837Y-83846579D01*
X150765842Y-83846591D01*
X150795488Y-83900003D01*
X150810810Y-83968172D01*
X150786845Y-84033803D01*
X150731202Y-84076059D01*
X150661546Y-84081524D01*
X150614184Y-84060498D01*
X150552730Y-84015849D01*
X150552729Y-84015848D01*
X150379807Y-83938857D01*
X150379802Y-83938855D01*
X150197012Y-83900003D01*
X150194646Y-83899500D01*
X150005354Y-83899500D01*
X150002988Y-83900003D01*
X149820197Y-83938855D01*
X149820192Y-83938857D01*
X149647270Y-84015848D01*
X149647265Y-84015851D01*
X149494129Y-84127111D01*
X149367466Y-84267785D01*
X149272821Y-84431715D01*
X149272818Y-84431722D01*
X149214327Y-84611740D01*
X149214326Y-84611744D01*
X149194540Y-84800000D01*
X149214326Y-84988256D01*
X149214327Y-84988259D01*
X149272818Y-85168277D01*
X149272821Y-85168284D01*
X149367467Y-85332216D01*
X149438086Y-85410646D01*
X149494129Y-85472888D01*
X149647265Y-85584148D01*
X149647270Y-85584151D01*
X149820192Y-85661142D01*
X149820197Y-85661144D01*
X149902839Y-85678710D01*
X149964321Y-85711902D01*
X149998097Y-85773065D01*
X149993445Y-85842780D01*
X149951840Y-85898912D01*
X149902839Y-85921290D01*
X149820197Y-85938855D01*
X149820192Y-85938857D01*
X149647270Y-86015848D01*
X149647265Y-86015851D01*
X149494129Y-86127111D01*
X149367466Y-86267785D01*
X149272821Y-86431715D01*
X149272818Y-86431722D01*
X149217970Y-86600528D01*
X149214326Y-86611744D01*
X149194540Y-86800000D01*
X149214326Y-86988256D01*
X149214327Y-86988259D01*
X149272818Y-87168277D01*
X149272821Y-87168284D01*
X149367467Y-87332216D01*
X149437337Y-87409814D01*
X149494129Y-87472888D01*
X149647265Y-87584148D01*
X149647270Y-87584151D01*
X149820192Y-87661142D01*
X149820197Y-87661144D01*
X149902839Y-87678710D01*
X149964321Y-87711902D01*
X149998097Y-87773065D01*
X149993445Y-87842780D01*
X149951840Y-87898912D01*
X149902839Y-87921290D01*
X149820197Y-87938855D01*
X149820192Y-87938857D01*
X149647270Y-88015848D01*
X149647265Y-88015851D01*
X149494129Y-88127111D01*
X149367466Y-88267785D01*
X149272821Y-88431715D01*
X149272818Y-88431722D01*
X149214327Y-88611740D01*
X149214326Y-88611744D01*
X149194540Y-88800000D01*
X149214326Y-88988256D01*
X149214327Y-88988259D01*
X149272818Y-89168277D01*
X149272821Y-89168284D01*
X149367467Y-89332216D01*
X149494128Y-89472888D01*
X149494129Y-89472888D01*
X149647265Y-89584148D01*
X149647270Y-89584151D01*
X149820192Y-89661142D01*
X149820197Y-89661144D01*
X150005354Y-89700500D01*
X150005355Y-89700500D01*
X150194644Y-89700500D01*
X150194646Y-89700500D01*
X150379803Y-89661144D01*
X150552730Y-89584151D01*
X150705871Y-89472888D01*
X150832533Y-89332216D01*
X150927179Y-89168284D01*
X150985674Y-88988256D01*
X151005460Y-88800000D01*
X150985674Y-88611744D01*
X150927179Y-88431716D01*
X150832533Y-88267784D01*
X150705871Y-88127112D01*
X150705870Y-88127111D01*
X150552734Y-88015851D01*
X150552729Y-88015848D01*
X150379807Y-87938857D01*
X150379800Y-87938855D01*
X150297161Y-87921290D01*
X150235679Y-87888098D01*
X150201902Y-87826935D01*
X150206554Y-87757221D01*
X150248158Y-87701088D01*
X150297161Y-87678710D01*
X150303201Y-87677426D01*
X150379803Y-87661144D01*
X150552730Y-87584151D01*
X150705871Y-87472888D01*
X150784869Y-87385151D01*
X150844353Y-87348504D01*
X150914210Y-87349834D01*
X150972259Y-87388721D01*
X151000069Y-87452817D01*
X151000334Y-87455133D01*
X151014326Y-87588256D01*
X151014327Y-87588259D01*
X151072818Y-87768277D01*
X151072821Y-87768284D01*
X151167467Y-87932216D01*
X151257063Y-88031722D01*
X151294129Y-88072888D01*
X151447265Y-88184148D01*
X151447270Y-88184151D01*
X151620192Y-88261142D01*
X151620197Y-88261144D01*
X151805354Y-88300500D01*
X151805355Y-88300500D01*
X151994644Y-88300500D01*
X151994646Y-88300500D01*
X152179803Y-88261144D01*
X152352730Y-88184151D01*
X152505871Y-88072888D01*
X152632533Y-87932216D01*
X152727179Y-87768284D01*
X152785674Y-87588256D01*
X152805460Y-87400000D01*
X152785674Y-87211744D01*
X152727179Y-87031716D01*
X152632533Y-86867784D01*
X152505871Y-86727112D01*
X152494154Y-86718599D01*
X152352734Y-86615851D01*
X152352729Y-86615848D01*
X152179807Y-86538857D01*
X152179802Y-86538855D01*
X152034000Y-86507865D01*
X151994646Y-86499500D01*
X151805354Y-86499500D01*
X151772897Y-86506398D01*
X151620197Y-86538855D01*
X151620192Y-86538857D01*
X151447270Y-86615848D01*
X151447265Y-86615851D01*
X151294129Y-86727111D01*
X151294128Y-86727112D01*
X151215131Y-86814847D01*
X151155645Y-86851495D01*
X151085788Y-86850164D01*
X151027740Y-86811277D01*
X150999930Y-86747180D01*
X150999673Y-86744946D01*
X150985674Y-86611744D01*
X150927179Y-86431716D01*
X150832533Y-86267784D01*
X150705871Y-86127112D01*
X150705870Y-86127111D01*
X150552734Y-86015851D01*
X150552729Y-86015848D01*
X150379807Y-85938857D01*
X150379800Y-85938855D01*
X150297161Y-85921290D01*
X150235679Y-85888098D01*
X150201902Y-85826935D01*
X150206554Y-85757221D01*
X150248158Y-85701088D01*
X150297161Y-85678710D01*
X150303201Y-85677426D01*
X150379803Y-85661144D01*
X150552730Y-85584151D01*
X150705871Y-85472888D01*
X150832533Y-85332216D01*
X150863746Y-85278152D01*
X150914310Y-85229939D01*
X150982917Y-85216715D01*
X151047782Y-85242682D01*
X151078519Y-85278154D01*
X151167465Y-85432214D01*
X151294129Y-85572888D01*
X151447265Y-85684148D01*
X151447270Y-85684151D01*
X151620192Y-85761142D01*
X151620197Y-85761144D01*
X151805354Y-85800500D01*
X151805355Y-85800500D01*
X151994644Y-85800500D01*
X151994646Y-85800500D01*
X152179803Y-85761144D01*
X152352730Y-85684151D01*
X152505871Y-85572888D01*
X152632533Y-85432216D01*
X152727179Y-85268284D01*
X152785674Y-85088256D01*
X152805460Y-84900000D01*
X152785674Y-84711744D01*
X152727179Y-84531716D01*
X152632533Y-84367784D01*
X152505871Y-84227112D01*
X152505868Y-84227110D01*
X152505863Y-84227104D01*
X152502468Y-84224046D01*
X152465824Y-84164557D01*
X152467159Y-84094700D01*
X152483671Y-84061068D01*
X152569295Y-83938049D01*
X152649540Y-83751058D01*
X152690500Y-83551741D01*
X152690500Y-83030590D01*
X152710185Y-82963552D01*
X152762989Y-82917797D01*
X152832147Y-82907853D01*
X152861953Y-82916030D01*
X152969764Y-82960687D01*
X153082280Y-82975500D01*
X153082287Y-82975500D01*
X153157713Y-82975500D01*
X153157720Y-82975500D01*
X153270236Y-82960687D01*
X153410233Y-82902698D01*
X153530451Y-82810451D01*
X153622698Y-82690233D01*
X153680687Y-82550236D01*
X153700466Y-82400000D01*
X153680687Y-82249764D01*
X153622698Y-82109767D01*
X153530451Y-81989549D01*
X153410233Y-81897302D01*
X153410229Y-81897300D01*
X153324891Y-81861952D01*
X153270236Y-81839313D01*
X153256171Y-81837461D01*
X153157727Y-81824500D01*
X153157720Y-81824500D01*
X153082280Y-81824500D01*
X153082272Y-81824500D01*
X152969764Y-81839313D01*
X152969763Y-81839313D01*
X152829769Y-81897300D01*
X152829766Y-81897302D01*
X152770823Y-81942531D01*
X152705654Y-81967725D01*
X152637209Y-81953686D01*
X152587220Y-81904872D01*
X152586918Y-81904333D01*
X152515409Y-81775498D01*
X152515407Y-81775495D01*
X152382867Y-81621106D01*
X152382865Y-81621104D01*
X152221962Y-81496554D01*
X152221959Y-81496553D01*
X152221958Y-81496552D01*
X152039271Y-81406940D01*
X151842285Y-81355937D01*
X151842287Y-81355937D01*
X151706804Y-81349066D01*
X151639064Y-81345631D01*
X151639063Y-81345631D01*
X151639061Y-81345631D01*
X151437936Y-81376442D01*
X151437924Y-81376445D01*
X151247118Y-81447111D01*
X151247111Y-81447115D01*
X151074432Y-81554745D01*
X151074427Y-81554749D01*
X150926949Y-81694938D01*
X150926948Y-81694940D01*
X150810705Y-81861949D01*
X150730458Y-82048947D01*
X150730238Y-82050018D01*
X150729954Y-82050551D01*
X150728577Y-82054942D01*
X150727758Y-82054685D01*
X150697459Y-82111720D01*
X150636523Y-82145906D01*
X150566779Y-82141721D01*
X150510369Y-82100493D01*
X150501391Y-82087050D01*
X150487956Y-82063780D01*
X150432533Y-81967784D01*
X150305871Y-81827112D01*
X150302276Y-81824500D01*
X150152734Y-81715851D01*
X150152729Y-81715848D01*
X149979807Y-81638857D01*
X149979803Y-81638856D01*
X149897159Y-81621289D01*
X149835678Y-81588096D01*
X149801901Y-81526933D01*
X149806554Y-81457218D01*
X149848159Y-81401086D01*
X149897154Y-81378711D01*
X149979803Y-81361144D01*
X150152730Y-81284151D01*
X150305871Y-81172888D01*
X150432533Y-81032216D01*
X150527179Y-80868284D01*
X150585674Y-80688256D01*
X150605460Y-80500000D01*
X150585674Y-80311744D01*
X150527179Y-80131716D01*
X150432533Y-79967784D01*
X150305871Y-79827112D01*
X150299350Y-79822374D01*
X150152734Y-79715851D01*
X150152729Y-79715848D01*
X149979807Y-79638857D01*
X149979803Y-79638856D01*
X149897159Y-79621289D01*
X149835678Y-79588096D01*
X149801901Y-79526933D01*
X149806554Y-79457218D01*
X149848159Y-79401086D01*
X149897154Y-79378711D01*
X149979803Y-79361144D01*
X150152730Y-79284151D01*
X150305871Y-79172888D01*
X150432533Y-79032216D01*
X150458113Y-78987910D01*
X150508679Y-78939695D01*
X150577286Y-78926471D01*
X150642151Y-78952439D01*
X150682680Y-79009353D01*
X150689500Y-79049910D01*
X150689500Y-79170743D01*
X150704925Y-79322439D01*
X150765837Y-79516579D01*
X150765844Y-79516594D01*
X150864589Y-79694499D01*
X150864592Y-79694504D01*
X150997132Y-79848893D01*
X150997134Y-79848895D01*
X151158037Y-79973445D01*
X151158038Y-79973445D01*
X151158042Y-79973448D01*
X151340729Y-80063060D01*
X151537715Y-80114063D01*
X151740936Y-80124369D01*
X151942071Y-80093556D01*
X152132887Y-80022886D01*
X152305571Y-79915252D01*
X152453053Y-79775059D01*
X152569295Y-79608049D01*
X152649540Y-79421058D01*
X152690500Y-79221741D01*
X152690500Y-79082298D01*
X152710185Y-79015259D01*
X152762989Y-78969504D01*
X152832147Y-78959560D01*
X152895703Y-78988585D01*
X152932431Y-79043980D01*
X152972817Y-79168278D01*
X152972820Y-79168284D01*
X153067466Y-79332216D01*
X153129477Y-79401086D01*
X153194128Y-79472888D01*
X153347264Y-79584148D01*
X153347269Y-79584151D01*
X153520191Y-79661142D01*
X153520196Y-79661144D01*
X153705353Y-79700500D01*
X153705354Y-79700500D01*
X153894643Y-79700500D01*
X153894645Y-79700500D01*
X154079802Y-79661144D01*
X154252729Y-79584151D01*
X154405870Y-79472888D01*
X154532532Y-79332216D01*
X154627178Y-79168284D01*
X154682069Y-78999347D01*
X154721505Y-78941674D01*
X154785864Y-78914475D01*
X154854710Y-78926389D01*
X154906186Y-78973633D01*
X154917930Y-78999349D01*
X154972818Y-79168277D01*
X154972821Y-79168284D01*
X155067467Y-79332216D01*
X155129478Y-79401086D01*
X155194129Y-79472888D01*
X155347265Y-79584148D01*
X155347270Y-79584151D01*
X155520192Y-79661142D01*
X155520197Y-79661144D01*
X155705354Y-79700500D01*
X155705355Y-79700500D01*
X155894644Y-79700500D01*
X155894646Y-79700500D01*
X156079803Y-79661144D01*
X156252730Y-79584151D01*
X156405871Y-79472888D01*
X156532533Y-79332216D01*
X156627179Y-79168284D01*
X156682070Y-78999347D01*
X156721506Y-78941674D01*
X156785865Y-78914475D01*
X156854711Y-78926389D01*
X156906187Y-78973633D01*
X156917931Y-78999349D01*
X156972819Y-79168277D01*
X156972822Y-79168284D01*
X157067468Y-79332216D01*
X157129479Y-79401086D01*
X157194130Y-79472888D01*
X157347266Y-79584148D01*
X157347271Y-79584151D01*
X157520193Y-79661142D01*
X157520198Y-79661144D01*
X157705355Y-79700500D01*
X157705356Y-79700500D01*
X157894645Y-79700500D01*
X157894647Y-79700500D01*
X158079804Y-79661144D01*
X158252731Y-79584151D01*
X158405872Y-79472888D01*
X158532534Y-79332216D01*
X158627180Y-79168284D01*
X158685675Y-78988256D01*
X158705461Y-78800000D01*
X158685675Y-78611744D01*
X158627180Y-78431716D01*
X158532534Y-78267784D01*
X158405872Y-78127112D01*
X158405871Y-78127111D01*
X158252735Y-78015851D01*
X158252730Y-78015848D01*
X158079808Y-77938857D01*
X158079803Y-77938855D01*
X157934002Y-77907865D01*
X157894647Y-77899500D01*
X157705355Y-77899500D01*
X157672898Y-77906398D01*
X157520198Y-77938855D01*
X157520193Y-77938857D01*
X157347271Y-78015848D01*
X157347266Y-78015851D01*
X157194130Y-78127111D01*
X157067467Y-78267785D01*
X156972822Y-78431715D01*
X156972820Y-78431719D01*
X156917931Y-78600651D01*
X156878493Y-78658326D01*
X156814134Y-78685524D01*
X156745288Y-78673609D01*
X156693812Y-78626365D01*
X156682070Y-78600652D01*
X156649366Y-78500000D01*
X156627181Y-78431721D01*
X156627178Y-78431715D01*
X156557913Y-78311744D01*
X156532533Y-78267784D01*
X156405871Y-78127112D01*
X156405870Y-78127111D01*
X156252734Y-78015851D01*
X156252729Y-78015848D01*
X156079807Y-77938857D01*
X156079802Y-77938855D01*
X155934000Y-77907865D01*
X155894646Y-77899500D01*
X155705354Y-77899500D01*
X155672897Y-77906398D01*
X155520197Y-77938855D01*
X155520192Y-77938857D01*
X155347270Y-78015848D01*
X155347265Y-78015851D01*
X155194129Y-78127111D01*
X155067466Y-78267785D01*
X154972821Y-78431715D01*
X154972819Y-78431719D01*
X154917930Y-78600651D01*
X154878492Y-78658326D01*
X154814133Y-78685524D01*
X154745287Y-78673609D01*
X154693811Y-78626365D01*
X154682069Y-78600652D01*
X154649365Y-78500000D01*
X154627180Y-78431721D01*
X154627177Y-78431715D01*
X154557912Y-78311744D01*
X154532532Y-78267784D01*
X154405870Y-78127112D01*
X154405869Y-78127111D01*
X154252733Y-78015851D01*
X154252728Y-78015848D01*
X154079806Y-77938857D01*
X154079801Y-77938855D01*
X153934000Y-77907865D01*
X153894645Y-77899500D01*
X153705353Y-77899500D01*
X153672896Y-77906398D01*
X153520196Y-77938855D01*
X153520191Y-77938857D01*
X153347269Y-78015848D01*
X153347264Y-78015851D01*
X153194128Y-78127111D01*
X153067465Y-78267785D01*
X152972820Y-78431715D01*
X152972817Y-78431722D01*
X152932431Y-78556019D01*
X152892993Y-78613695D01*
X152828635Y-78640893D01*
X152759788Y-78628978D01*
X152708313Y-78581734D01*
X152690500Y-78517701D01*
X152690500Y-78269256D01*
X152675074Y-78117560D01*
X152614162Y-77923420D01*
X152614160Y-77923416D01*
X152614159Y-77923412D01*
X152515409Y-77745498D01*
X152515408Y-77745497D01*
X152515407Y-77745495D01*
X152382867Y-77591106D01*
X152382865Y-77591104D01*
X152221962Y-77466554D01*
X152221959Y-77466553D01*
X152221958Y-77466552D01*
X152039271Y-77376940D01*
X151842285Y-77325937D01*
X151842287Y-77325937D01*
X151706804Y-77319066D01*
X151639064Y-77315631D01*
X151639063Y-77315631D01*
X151639061Y-77315631D01*
X151437936Y-77346442D01*
X151437924Y-77346445D01*
X151247118Y-77417111D01*
X151247111Y-77417115D01*
X151074432Y-77524745D01*
X151074427Y-77524749D01*
X150926949Y-77664938D01*
X150926948Y-77664940D01*
X150810705Y-77831949D01*
X150730458Y-78018946D01*
X150725692Y-78042138D01*
X150692914Y-78103842D01*
X150631980Y-78138030D01*
X150562236Y-78133847D01*
X150505825Y-78092622D01*
X150496849Y-78079184D01*
X150432533Y-77967784D01*
X150305871Y-77827112D01*
X150305870Y-77827111D01*
X150152734Y-77715851D01*
X150152729Y-77715848D01*
X149979807Y-77638857D01*
X149979802Y-77638855D01*
X149834001Y-77607865D01*
X149794646Y-77599500D01*
X149605354Y-77599500D01*
X149572897Y-77606398D01*
X149420197Y-77638855D01*
X149420192Y-77638857D01*
X149247270Y-77715848D01*
X149247265Y-77715851D01*
X149094129Y-77827111D01*
X149094128Y-77827112D01*
X149016649Y-77913161D01*
X148957163Y-77949809D01*
X148887306Y-77948478D01*
X148829258Y-77909591D01*
X148801448Y-77845494D01*
X148800500Y-77830188D01*
X148800500Y-77124500D01*
X148820185Y-77057461D01*
X148872989Y-77011706D01*
X148924500Y-77000500D01*
X163075500Y-77000500D01*
X163142539Y-77020185D01*
G37*
%TD.AperFunction*%
%TD*%
M02*
