%TF.GenerationSoftware,KiCad,Pcbnew,7.0.6*%
%TF.CreationDate,2023-07-23T20:03:58-07:00*%
%TF.ProjectId,iCEGenius,69434547-656e-4697-9573-2e6b69636164,rev?*%
%TF.SameCoordinates,Original*%
%TF.FileFunction,Copper,L2,Inr*%
%TF.FilePolarity,Positive*%
%FSLAX46Y46*%
G04 Gerber Fmt 4.6, Leading zero omitted, Abs format (unit mm)*
G04 Created by KiCad (PCBNEW 7.0.6) date 2023-07-23 20:03:58*
%MOMM*%
%LPD*%
G01*
G04 APERTURE LIST*
%TA.AperFunction,ComponentPad*%
%ADD10R,1.700000X1.700000*%
%TD*%
%TA.AperFunction,ComponentPad*%
%ADD11O,1.700000X1.700000*%
%TD*%
%TA.AperFunction,ComponentPad*%
%ADD12O,1.000000X2.100000*%
%TD*%
%TA.AperFunction,ComponentPad*%
%ADD13O,1.000000X1.800000*%
%TD*%
%TA.AperFunction,ViaPad*%
%ADD14C,0.800000*%
%TD*%
%TA.AperFunction,ViaPad*%
%ADD15C,0.500000*%
%TD*%
G04 APERTURE END LIST*
D10*
%TO.N,+3V3*%
%TO.C,J3*%
X164915000Y-88530000D03*
D11*
%TO.N,IOL_2A*%
X164915000Y-91070000D03*
%TO.N,IOL_2B*%
X164915000Y-93610000D03*
%TO.N,IOT_52*%
X164915000Y-96150000D03*
%TO.N,IOT_53*%
X164915000Y-98690000D03*
%TO.N,IOT_50_GBIN1*%
X164915000Y-101230000D03*
%TO.N,IOL_4A*%
X164915000Y-103770000D03*
%TO.N,IOT_47*%
X164915000Y-106310000D03*
%TO.N,IOT_45*%
X164915000Y-108850000D03*
%TO.N,GND*%
X164915000Y-111390000D03*
%TD*%
D10*
%TO.N,+3V3*%
%TO.C,J2*%
X147115000Y-88550000D03*
D11*
%TO.N,IOL_4B_GBIN7*%
X147115000Y-91090000D03*
%TO.N,IOL_5B*%
X147115000Y-93630000D03*
%TO.N,IOL_5A_GBIN6*%
X147115000Y-96170000D03*
%TO.N,IOR_34*%
X147115000Y-98710000D03*
%TO.N,IOR_35_GBIN3*%
X147115000Y-101250000D03*
%TO.N,IOR_36_GBIN2*%
X147115000Y-103790000D03*
%TO.N,IOR_38*%
X147115000Y-106330000D03*
%TO.N,IOR_39*%
X147115000Y-108870000D03*
%TO.N,GND*%
X147115000Y-111410000D03*
%TD*%
D12*
%TO.N,unconnected-(J1-SHIELD-PadS1)*%
%TO.C,J1*%
X160330000Y-82900000D03*
D13*
X160330000Y-78720000D03*
D12*
X151690000Y-82900000D03*
D13*
X151690000Y-78720000D03*
%TD*%
D14*
%TO.N,+5V*%
X154600000Y-92000000D03*
X154900000Y-97300000D03*
X161520000Y-84455000D03*
%TO.N,GND*%
X163600000Y-119500000D03*
X151900000Y-84900000D03*
X151400000Y-97899999D03*
X151400000Y-99900000D03*
X156500000Y-119900000D03*
X164700000Y-113600000D03*
X153000000Y-96869500D03*
X155800000Y-78800000D03*
X159400000Y-91200000D03*
X152900000Y-91400000D03*
X157800001Y-78800000D03*
X150100000Y-88800000D03*
X158600000Y-95900000D03*
X150300000Y-96900000D03*
X153799999Y-78800000D03*
D15*
X161700000Y-93000000D03*
D14*
X151400000Y-101900001D03*
X153300000Y-94300000D03*
X161200000Y-109200000D03*
X156300000Y-107300000D03*
X153200000Y-106900000D03*
D15*
X149700000Y-112600000D03*
D14*
X156550000Y-118650000D03*
X149700000Y-80500000D03*
X150100000Y-84800000D03*
X150000000Y-102400000D03*
X151900000Y-87400000D03*
X149700000Y-78500000D03*
X160600000Y-88400000D03*
X155431635Y-91368365D03*
X146800000Y-119300000D03*
X162200000Y-79400000D03*
D15*
X152200000Y-115700000D03*
D14*
X154300000Y-119700000D03*
X149700000Y-82500000D03*
X159641121Y-117650468D03*
X150100000Y-86800000D03*
X146000000Y-120600000D03*
X156000000Y-112438990D03*
X163000000Y-87300000D03*
X157300000Y-87100000D03*
X159600000Y-84800000D03*
%TO.N,+3V3*%
X160400000Y-108500000D03*
X164700000Y-120100000D03*
X150000000Y-114700000D03*
X154700000Y-107200000D03*
X151500000Y-103700000D03*
X153000000Y-99300000D03*
X160400000Y-117000000D03*
X149700000Y-120900000D03*
X150200000Y-110600000D03*
X162800500Y-100700000D03*
D15*
%TO.N,SS*%
X152397937Y-110576525D03*
X156500000Y-101100000D03*
X155700000Y-97900000D03*
%TO.N,CRESET_B_CTL*%
X146800000Y-113000000D03*
X156300000Y-98600000D03*
%TO.N,IOL_4B_GBIN7*%
X158533627Y-108620571D03*
%TO.N,IOL_5A_GBIN6*%
X157003934Y-108596040D03*
%TO.N,IOT_50_GBIN1*%
X159500000Y-114149500D03*
%TO.N,MOSI*%
X152600000Y-109900000D03*
X153100000Y-105600000D03*
%TO.N,IOR_36_GBIN2*%
X153700000Y-115000000D03*
%TO.N,IOR_35_GBIN3*%
X153100000Y-114500000D03*
%TO.N,IOL_2A*%
X159800000Y-111100000D03*
%TO.N,IOL_2B*%
X159900000Y-111800000D03*
%TO.N,IOR_34*%
X152500000Y-113900000D03*
%TO.N,IOR_38*%
X154059891Y-115599818D03*
%TO.N,IOR_39*%
X154496826Y-116146070D03*
%TO.N,IOT_45*%
X157480298Y-116059602D03*
%TO.N,IOT_47*%
X157900000Y-115500000D03*
%TO.N,IOT_52*%
X160200000Y-112600000D03*
%TO.N,IOT_53*%
X160100000Y-113600000D03*
%TO.N,IOL_4A*%
X158700000Y-109300000D03*
%TO.N,IOL_5B*%
X157738543Y-108638543D03*
%TO.N,CRESET_B*%
X149300000Y-116000000D03*
X154500000Y-109200000D03*
%TO.N,SCK*%
X161200000Y-98500000D03*
X151600000Y-111100000D03*
X158800000Y-103600000D03*
%TO.N,MISO*%
X156500000Y-102400000D03*
X152900497Y-109200000D03*
X162000000Y-97400000D03*
%TO.N,Net-(D5-A)*%
X153638804Y-109160489D03*
X150450500Y-108400000D03*
%TD*%
%TA.AperFunction,Conductor*%
%TO.N,GND*%
G36*
X163142539Y-77020185D02*
G01*
X163188294Y-77072989D01*
X163199500Y-77124500D01*
X163199500Y-86575467D01*
X163199416Y-86575889D01*
X163199459Y-86600001D01*
X163199500Y-86600099D01*
X163199616Y-86600382D01*
X163199618Y-86600384D01*
X163199808Y-86600462D01*
X163200000Y-86600541D01*
X163200002Y-86600539D01*
X163224616Y-86600524D01*
X163224616Y-86600528D01*
X163224760Y-86600500D01*
X166775500Y-86600500D01*
X166842539Y-86620185D01*
X166888294Y-86672989D01*
X166899500Y-86724500D01*
X166899500Y-121475500D01*
X166879815Y-121542539D01*
X166827011Y-121588294D01*
X166775500Y-121599500D01*
X150550726Y-121599500D01*
X150483687Y-121579815D01*
X150437932Y-121527011D01*
X150427988Y-121457853D01*
X150443339Y-121413500D01*
X150464302Y-121377190D01*
X150527179Y-121268284D01*
X150585674Y-121088256D01*
X150605460Y-120900000D01*
X150585674Y-120711744D01*
X150527179Y-120531716D01*
X150432533Y-120367784D01*
X150305871Y-120227112D01*
X150305870Y-120227111D01*
X150152734Y-120115851D01*
X150152729Y-120115848D01*
X150117134Y-120100000D01*
X163794540Y-120100000D01*
X163814326Y-120288256D01*
X163814327Y-120288259D01*
X163872818Y-120468277D01*
X163872821Y-120468284D01*
X163967467Y-120632216D01*
X164039071Y-120711740D01*
X164094129Y-120772888D01*
X164247265Y-120884148D01*
X164247270Y-120884151D01*
X164420192Y-120961142D01*
X164420197Y-120961144D01*
X164605354Y-121000500D01*
X164605355Y-121000500D01*
X164794644Y-121000500D01*
X164794646Y-121000500D01*
X164979803Y-120961144D01*
X165152730Y-120884151D01*
X165305871Y-120772888D01*
X165432533Y-120632216D01*
X165527179Y-120468284D01*
X165585674Y-120288256D01*
X165605460Y-120100000D01*
X165585674Y-119911744D01*
X165527179Y-119731716D01*
X165432533Y-119567784D01*
X165305871Y-119427112D01*
X165305870Y-119427111D01*
X165152734Y-119315851D01*
X165152729Y-119315848D01*
X164979807Y-119238857D01*
X164979802Y-119238855D01*
X164834000Y-119207865D01*
X164794646Y-119199500D01*
X164605354Y-119199500D01*
X164572897Y-119206398D01*
X164420197Y-119238855D01*
X164420192Y-119238857D01*
X164247270Y-119315848D01*
X164247265Y-119315851D01*
X164094129Y-119427111D01*
X163967466Y-119567785D01*
X163872821Y-119731715D01*
X163872818Y-119731722D01*
X163814327Y-119911740D01*
X163814326Y-119911744D01*
X163794540Y-120100000D01*
X150117134Y-120100000D01*
X149979807Y-120038857D01*
X149979802Y-120038855D01*
X149834000Y-120007865D01*
X149794646Y-119999500D01*
X149605354Y-119999500D01*
X149572897Y-120006398D01*
X149420197Y-120038855D01*
X149420192Y-120038857D01*
X149247270Y-120115848D01*
X149247265Y-120115851D01*
X149094129Y-120227111D01*
X148967466Y-120367785D01*
X148872821Y-120531715D01*
X148872818Y-120531722D01*
X148840166Y-120632216D01*
X148814326Y-120711744D01*
X148794540Y-120900000D01*
X148814326Y-121088256D01*
X148814327Y-121088259D01*
X148872818Y-121268277D01*
X148872821Y-121268284D01*
X148956661Y-121413500D01*
X148973134Y-121481401D01*
X148950281Y-121547427D01*
X148895360Y-121590618D01*
X148849274Y-121599500D01*
X145224500Y-121599500D01*
X145157461Y-121579815D01*
X145111706Y-121527011D01*
X145100500Y-121475500D01*
X145100500Y-117000000D01*
X159494540Y-117000000D01*
X159514326Y-117188256D01*
X159514327Y-117188259D01*
X159572818Y-117368277D01*
X159572821Y-117368284D01*
X159667467Y-117532216D01*
X159794128Y-117672887D01*
X159794129Y-117672888D01*
X159947265Y-117784148D01*
X159947270Y-117784151D01*
X160120192Y-117861142D01*
X160120197Y-117861144D01*
X160305354Y-117900500D01*
X160305355Y-117900500D01*
X160494644Y-117900500D01*
X160494646Y-117900500D01*
X160679803Y-117861144D01*
X160852730Y-117784151D01*
X161005871Y-117672888D01*
X161132533Y-117532216D01*
X161227179Y-117368284D01*
X161285674Y-117188256D01*
X161305460Y-117000000D01*
X161285674Y-116811744D01*
X161227179Y-116631716D01*
X161132533Y-116467784D01*
X161005871Y-116327112D01*
X161005870Y-116327111D01*
X160852734Y-116215851D01*
X160852729Y-116215848D01*
X160679807Y-116138857D01*
X160679802Y-116138855D01*
X160534000Y-116107865D01*
X160494646Y-116099500D01*
X160305354Y-116099500D01*
X160272897Y-116106398D01*
X160120197Y-116138855D01*
X160120192Y-116138857D01*
X159947270Y-116215848D01*
X159947265Y-116215851D01*
X159794129Y-116327111D01*
X159667466Y-116467785D01*
X159572821Y-116631715D01*
X159572818Y-116631722D01*
X159514327Y-116811740D01*
X159514326Y-116811744D01*
X159494540Y-117000000D01*
X145100500Y-117000000D01*
X145100500Y-116000002D01*
X148544751Y-116000002D01*
X148563685Y-116168056D01*
X148619545Y-116327694D01*
X148619547Y-116327697D01*
X148709518Y-116470884D01*
X148709523Y-116470890D01*
X148829109Y-116590476D01*
X148829115Y-116590481D01*
X148972302Y-116680452D01*
X148972305Y-116680454D01*
X148972309Y-116680455D01*
X148972310Y-116680456D01*
X149044913Y-116705860D01*
X149131943Y-116736314D01*
X149299997Y-116755249D01*
X149300000Y-116755249D01*
X149300003Y-116755249D01*
X149468056Y-116736314D01*
X149468059Y-116736313D01*
X149627690Y-116680456D01*
X149627692Y-116680454D01*
X149627694Y-116680454D01*
X149627697Y-116680452D01*
X149770884Y-116590481D01*
X149770885Y-116590480D01*
X149770890Y-116590477D01*
X149890477Y-116470890D01*
X149943005Y-116387293D01*
X149980452Y-116327697D01*
X149980454Y-116327694D01*
X149980454Y-116327692D01*
X149980456Y-116327690D01*
X150036313Y-116168059D01*
X150036313Y-116168058D01*
X150036314Y-116168056D01*
X150055249Y-116000002D01*
X150055249Y-115999997D01*
X150036313Y-115831941D01*
X150011497Y-115761021D01*
X150007934Y-115691242D01*
X150042663Y-115630614D01*
X150102752Y-115598776D01*
X150279803Y-115561144D01*
X150279807Y-115561142D01*
X150279808Y-115561142D01*
X150351754Y-115529109D01*
X150452730Y-115484151D01*
X150605871Y-115372888D01*
X150732533Y-115232216D01*
X150827179Y-115068284D01*
X150885674Y-114888256D01*
X150905460Y-114700000D01*
X150885674Y-114511744D01*
X150827179Y-114331716D01*
X150732533Y-114167784D01*
X150605871Y-114027112D01*
X150543013Y-113981443D01*
X150452734Y-113915851D01*
X150452729Y-113915848D01*
X150417139Y-113900002D01*
X151744751Y-113900002D01*
X151763685Y-114068056D01*
X151819545Y-114227694D01*
X151819547Y-114227697D01*
X151909518Y-114370884D01*
X151909523Y-114370890D01*
X152029109Y-114490476D01*
X152029115Y-114490481D01*
X152172302Y-114580452D01*
X152172308Y-114580455D01*
X152172310Y-114580456D01*
X152299093Y-114624819D01*
X152355869Y-114665541D01*
X152375181Y-114700907D01*
X152419544Y-114827691D01*
X152419547Y-114827697D01*
X152509518Y-114970884D01*
X152509523Y-114970890D01*
X152629109Y-115090476D01*
X152629115Y-115090481D01*
X152772302Y-115180452D01*
X152772308Y-115180455D01*
X152772310Y-115180456D01*
X152894646Y-115223263D01*
X152938514Y-115238613D01*
X152937489Y-115241541D01*
X152986491Y-115268898D01*
X153015033Y-115314799D01*
X153019544Y-115327693D01*
X153109518Y-115470884D01*
X153109523Y-115470890D01*
X153229110Y-115590477D01*
X153242315Y-115598774D01*
X153258701Y-115609070D01*
X153304992Y-115661405D01*
X153315949Y-115700179D01*
X153323576Y-115767871D01*
X153379435Y-115927510D01*
X153379438Y-115927515D01*
X153469409Y-116070702D01*
X153469414Y-116070708D01*
X153589001Y-116190295D01*
X153716570Y-116270452D01*
X153762859Y-116322785D01*
X153767638Y-116334490D01*
X153816370Y-116473761D01*
X153816373Y-116473767D01*
X153906344Y-116616954D01*
X153906349Y-116616960D01*
X154025935Y-116736546D01*
X154025941Y-116736551D01*
X154169128Y-116826522D01*
X154169131Y-116826524D01*
X154169135Y-116826525D01*
X154169136Y-116826526D01*
X154241739Y-116851930D01*
X154328769Y-116882384D01*
X154496823Y-116901319D01*
X154496826Y-116901319D01*
X154496829Y-116901319D01*
X154664882Y-116882384D01*
X154664885Y-116882383D01*
X154824516Y-116826526D01*
X154824518Y-116826524D01*
X154824520Y-116826524D01*
X154824523Y-116826522D01*
X154967710Y-116736551D01*
X154967711Y-116736550D01*
X154967716Y-116736547D01*
X155087303Y-116616960D01*
X155103941Y-116590481D01*
X155177278Y-116473767D01*
X155177280Y-116473764D01*
X155177281Y-116473761D01*
X155177282Y-116473760D01*
X155233139Y-116314129D01*
X155233139Y-116314128D01*
X155233140Y-116314126D01*
X155252075Y-116146072D01*
X155252075Y-116146067D01*
X155242333Y-116059604D01*
X156725049Y-116059604D01*
X156743983Y-116227658D01*
X156799843Y-116387296D01*
X156799845Y-116387299D01*
X156889816Y-116530486D01*
X156889821Y-116530492D01*
X157009407Y-116650078D01*
X157009413Y-116650083D01*
X157152600Y-116740054D01*
X157152603Y-116740056D01*
X157152607Y-116740057D01*
X157152608Y-116740058D01*
X157196022Y-116755249D01*
X157312241Y-116795916D01*
X157480295Y-116814851D01*
X157480298Y-116814851D01*
X157480301Y-116814851D01*
X157648354Y-116795916D01*
X157648357Y-116795915D01*
X157807988Y-116740058D01*
X157807990Y-116740056D01*
X157807992Y-116740056D01*
X157807995Y-116740054D01*
X157951182Y-116650083D01*
X157951183Y-116650082D01*
X157951188Y-116650079D01*
X158070775Y-116530492D01*
X158106422Y-116473761D01*
X158160750Y-116387299D01*
X158160753Y-116387293D01*
X158160754Y-116387292D01*
X158216611Y-116227661D01*
X158216611Y-116227660D01*
X158218911Y-116221088D01*
X158220922Y-116221791D01*
X158250000Y-116169788D01*
X158270817Y-116153356D01*
X158370890Y-116090477D01*
X158490477Y-115970890D01*
X158490481Y-115970884D01*
X158580452Y-115827697D01*
X158580454Y-115827694D01*
X158580454Y-115827692D01*
X158580456Y-115827690D01*
X158636313Y-115668059D01*
X158636313Y-115668058D01*
X158636314Y-115668056D01*
X158655249Y-115500002D01*
X158655249Y-115499997D01*
X158636314Y-115331943D01*
X158580454Y-115172305D01*
X158580452Y-115172302D01*
X158490481Y-115029115D01*
X158490476Y-115029109D01*
X158370890Y-114909523D01*
X158370884Y-114909518D01*
X158227697Y-114819547D01*
X158227694Y-114819545D01*
X158068056Y-114763685D01*
X157900003Y-114744751D01*
X157899997Y-114744751D01*
X157731943Y-114763685D01*
X157572305Y-114819545D01*
X157572302Y-114819547D01*
X157429115Y-114909518D01*
X157429109Y-114909523D01*
X157309523Y-115029109D01*
X157309518Y-115029115D01*
X157219547Y-115172302D01*
X157219544Y-115172307D01*
X157187570Y-115263687D01*
X157163687Y-115331941D01*
X157163686Y-115331943D01*
X157161388Y-115338513D01*
X157159381Y-115337811D01*
X157130275Y-115389835D01*
X157109474Y-115406249D01*
X157009407Y-115469125D01*
X156889821Y-115588711D01*
X156889816Y-115588717D01*
X156799845Y-115731904D01*
X156799843Y-115731907D01*
X156743983Y-115891545D01*
X156725049Y-116059599D01*
X156725049Y-116059604D01*
X155242333Y-116059604D01*
X155233140Y-115978013D01*
X155180541Y-115827694D01*
X155177282Y-115818380D01*
X155177281Y-115818379D01*
X155177280Y-115818375D01*
X155177278Y-115818372D01*
X155087307Y-115675185D01*
X155087302Y-115675179D01*
X154967714Y-115555591D01*
X154840147Y-115475435D01*
X154793857Y-115423101D01*
X154789083Y-115411408D01*
X154740347Y-115272128D01*
X154740346Y-115272125D01*
X154740343Y-115272120D01*
X154650372Y-115128933D01*
X154650367Y-115128927D01*
X154530782Y-115009342D01*
X154530781Y-115009341D01*
X154501186Y-114990745D01*
X154454896Y-114938409D01*
X154443940Y-114899634D01*
X154436314Y-114831943D01*
X154380455Y-114672308D01*
X154380452Y-114672302D01*
X154290481Y-114529115D01*
X154290476Y-114529109D01*
X154170890Y-114409523D01*
X154170884Y-114409518D01*
X154027697Y-114319547D01*
X154027692Y-114319544D01*
X153915979Y-114280455D01*
X153868059Y-114263687D01*
X153868056Y-114263686D01*
X153861487Y-114261388D01*
X153862503Y-114258484D01*
X153813405Y-114230996D01*
X153784966Y-114185200D01*
X153780456Y-114172310D01*
X153780454Y-114172307D01*
X153780454Y-114172306D01*
X153780452Y-114172302D01*
X153766126Y-114149502D01*
X158744751Y-114149502D01*
X158763685Y-114317556D01*
X158819545Y-114477194D01*
X158819547Y-114477197D01*
X158909518Y-114620384D01*
X158909523Y-114620390D01*
X159029109Y-114739976D01*
X159029115Y-114739981D01*
X159172302Y-114829952D01*
X159172305Y-114829954D01*
X159172309Y-114829955D01*
X159172310Y-114829956D01*
X159177983Y-114831941D01*
X159331943Y-114885814D01*
X159499997Y-114904749D01*
X159500000Y-114904749D01*
X159500003Y-114904749D01*
X159668056Y-114885814D01*
X159668059Y-114885813D01*
X159827690Y-114829956D01*
X159827692Y-114829954D01*
X159827694Y-114829954D01*
X159827697Y-114829952D01*
X159970884Y-114739981D01*
X159970885Y-114739980D01*
X159970890Y-114739977D01*
X160090477Y-114620390D01*
X160090481Y-114620384D01*
X160180452Y-114477197D01*
X160180456Y-114477189D01*
X160204682Y-114407954D01*
X160245403Y-114351177D01*
X160280768Y-114331865D01*
X160427690Y-114280456D01*
X160427693Y-114280453D01*
X160427697Y-114280452D01*
X160570884Y-114190481D01*
X160570885Y-114190480D01*
X160570890Y-114190477D01*
X160690477Y-114070890D01*
X160716726Y-114029115D01*
X160780452Y-113927697D01*
X160780454Y-113927694D01*
X160780454Y-113927692D01*
X160780456Y-113927690D01*
X160836313Y-113768059D01*
X160836313Y-113768058D01*
X160836314Y-113768056D01*
X160855249Y-113600002D01*
X160855249Y-113599997D01*
X160836314Y-113431943D01*
X160804683Y-113341548D01*
X160780456Y-113272310D01*
X160759210Y-113238497D01*
X160740210Y-113171261D01*
X160760578Y-113104425D01*
X160776521Y-113084845D01*
X160790477Y-113070890D01*
X160880456Y-112927690D01*
X160936313Y-112768059D01*
X160936313Y-112768058D01*
X160936314Y-112768056D01*
X160955249Y-112600002D01*
X160955249Y-112599997D01*
X160936314Y-112431943D01*
X160880454Y-112272305D01*
X160880452Y-112272302D01*
X160790481Y-112129115D01*
X160790476Y-112129109D01*
X160677841Y-112016474D01*
X160644356Y-111955151D01*
X160642302Y-111914909D01*
X160655249Y-111800002D01*
X160655249Y-111799997D01*
X160636314Y-111631943D01*
X160588504Y-111495310D01*
X160580456Y-111472310D01*
X160580454Y-111472307D01*
X160580454Y-111472306D01*
X160537967Y-111404689D01*
X160518966Y-111337452D01*
X160525917Y-111297766D01*
X160536313Y-111268059D01*
X160537561Y-111256981D01*
X160555249Y-111100002D01*
X160555249Y-111099997D01*
X160536314Y-110931943D01*
X160480454Y-110772305D01*
X160480452Y-110772302D01*
X160390481Y-110629115D01*
X160390476Y-110629109D01*
X160270890Y-110509523D01*
X160270884Y-110509518D01*
X160127697Y-110419547D01*
X160127694Y-110419545D01*
X159968056Y-110363685D01*
X159800003Y-110344751D01*
X159799997Y-110344751D01*
X159631943Y-110363685D01*
X159472305Y-110419545D01*
X159472302Y-110419547D01*
X159329115Y-110509518D01*
X159329109Y-110509523D01*
X159209523Y-110629109D01*
X159209518Y-110629115D01*
X159119547Y-110772302D01*
X159119545Y-110772305D01*
X159063685Y-110931943D01*
X159044751Y-111099997D01*
X159044751Y-111100002D01*
X159063685Y-111268056D01*
X159093803Y-111354127D01*
X159115041Y-111414822D01*
X159119545Y-111427692D01*
X159162032Y-111495310D01*
X159181032Y-111562547D01*
X159174081Y-111602233D01*
X159163686Y-111631942D01*
X159144751Y-111799997D01*
X159144751Y-111800002D01*
X159163685Y-111968056D01*
X159219545Y-112127694D01*
X159219547Y-112127697D01*
X159309518Y-112270884D01*
X159309523Y-112270890D01*
X159422158Y-112383525D01*
X159455643Y-112444848D01*
X159457697Y-112485089D01*
X159444751Y-112599995D01*
X159444751Y-112600002D01*
X159463685Y-112768056D01*
X159519544Y-112927691D01*
X159540790Y-112961504D01*
X159559789Y-113028741D01*
X159539420Y-113095576D01*
X159523479Y-113115153D01*
X159509520Y-113129112D01*
X159419548Y-113272300D01*
X159419543Y-113272311D01*
X159395316Y-113341548D01*
X159354594Y-113398324D01*
X159319229Y-113417635D01*
X159172308Y-113469044D01*
X159172302Y-113469047D01*
X159029115Y-113559018D01*
X159029109Y-113559023D01*
X158909523Y-113678609D01*
X158909518Y-113678615D01*
X158819547Y-113821802D01*
X158819545Y-113821805D01*
X158763685Y-113981443D01*
X158744751Y-114149497D01*
X158744751Y-114149502D01*
X153766126Y-114149502D01*
X153690481Y-114029115D01*
X153690476Y-114029109D01*
X153570890Y-113909523D01*
X153570884Y-113909518D01*
X153427697Y-113819547D01*
X153427691Y-113819544D01*
X153300907Y-113775181D01*
X153244131Y-113734459D01*
X153224819Y-113699093D01*
X153218296Y-113680452D01*
X153180456Y-113572310D01*
X153180453Y-113572305D01*
X153180452Y-113572302D01*
X153090481Y-113429115D01*
X153090476Y-113429109D01*
X152970890Y-113309523D01*
X152970884Y-113309518D01*
X152827697Y-113219547D01*
X152827694Y-113219545D01*
X152668056Y-113163685D01*
X152500003Y-113144751D01*
X152499997Y-113144751D01*
X152331943Y-113163685D01*
X152172305Y-113219545D01*
X152172302Y-113219547D01*
X152029115Y-113309518D01*
X152029109Y-113309523D01*
X151909523Y-113429109D01*
X151909518Y-113429115D01*
X151819547Y-113572302D01*
X151819545Y-113572305D01*
X151763685Y-113731943D01*
X151744751Y-113899997D01*
X151744751Y-113900002D01*
X150417139Y-113900002D01*
X150279807Y-113838857D01*
X150279802Y-113838855D01*
X150134001Y-113807865D01*
X150094646Y-113799500D01*
X149905354Y-113799500D01*
X149872897Y-113806398D01*
X149720197Y-113838855D01*
X149720192Y-113838857D01*
X149547270Y-113915848D01*
X149547265Y-113915851D01*
X149394129Y-114027111D01*
X149267466Y-114167785D01*
X149172821Y-114331715D01*
X149172818Y-114331722D01*
X149114327Y-114511740D01*
X149114326Y-114511744D01*
X149094540Y-114700000D01*
X149114326Y-114888256D01*
X149114327Y-114888259D01*
X149172818Y-115068277D01*
X149172822Y-115068286D01*
X149184975Y-115089336D01*
X149201446Y-115157236D01*
X149178593Y-115223263D01*
X149123671Y-115266452D01*
X149118547Y-115268373D01*
X149107818Y-115272128D01*
X148972308Y-115319544D01*
X148972302Y-115319547D01*
X148829115Y-115409518D01*
X148829109Y-115409523D01*
X148709523Y-115529109D01*
X148709518Y-115529115D01*
X148619547Y-115672302D01*
X148619545Y-115672305D01*
X148563685Y-115831943D01*
X148544751Y-115999997D01*
X148544751Y-116000002D01*
X145100500Y-116000002D01*
X145100500Y-113000002D01*
X146044751Y-113000002D01*
X146063685Y-113168056D01*
X146119545Y-113327694D01*
X146119547Y-113327697D01*
X146209518Y-113470884D01*
X146209523Y-113470890D01*
X146329109Y-113590476D01*
X146329115Y-113590481D01*
X146472302Y-113680452D01*
X146472305Y-113680454D01*
X146472309Y-113680455D01*
X146472310Y-113680456D01*
X146525572Y-113699093D01*
X146631943Y-113736314D01*
X146799997Y-113755249D01*
X146800000Y-113755249D01*
X146800003Y-113755249D01*
X146968056Y-113736314D01*
X146980548Y-113731943D01*
X147127690Y-113680456D01*
X147127692Y-113680454D01*
X147127694Y-113680454D01*
X147127697Y-113680452D01*
X147270884Y-113590481D01*
X147270885Y-113590480D01*
X147270890Y-113590477D01*
X147390477Y-113470890D01*
X147414949Y-113431943D01*
X147480452Y-113327697D01*
X147480454Y-113327694D01*
X147480454Y-113327692D01*
X147480456Y-113327690D01*
X147536313Y-113168059D01*
X147536313Y-113168058D01*
X147536314Y-113168056D01*
X147555249Y-113000002D01*
X147555249Y-112999997D01*
X147536314Y-112831943D01*
X147480454Y-112672305D01*
X147480452Y-112672302D01*
X147390481Y-112529115D01*
X147390476Y-112529109D01*
X147270890Y-112409523D01*
X147270884Y-112409518D01*
X147127697Y-112319547D01*
X147127694Y-112319545D01*
X146968056Y-112263685D01*
X146800003Y-112244751D01*
X146799997Y-112244751D01*
X146631943Y-112263685D01*
X146472305Y-112319545D01*
X146472302Y-112319547D01*
X146329115Y-112409518D01*
X146329109Y-112409523D01*
X146209523Y-112529109D01*
X146209518Y-112529115D01*
X146119547Y-112672302D01*
X146119545Y-112672305D01*
X146063685Y-112831943D01*
X146044751Y-112999997D01*
X146044751Y-113000002D01*
X145100500Y-113000002D01*
X145100500Y-110600000D01*
X149294540Y-110600000D01*
X149314326Y-110788256D01*
X149314327Y-110788259D01*
X149372818Y-110968277D01*
X149372821Y-110968284D01*
X149467467Y-111132216D01*
X149579806Y-111256981D01*
X149594129Y-111272888D01*
X149747265Y-111384148D01*
X149747270Y-111384151D01*
X149920192Y-111461142D01*
X149920197Y-111461144D01*
X150105354Y-111500500D01*
X150105355Y-111500500D01*
X150294644Y-111500500D01*
X150294646Y-111500500D01*
X150479803Y-111461144D01*
X150652730Y-111384151D01*
X150718448Y-111336403D01*
X150784251Y-111312924D01*
X150852306Y-111328749D01*
X150901001Y-111378854D01*
X150908374Y-111395767D01*
X150919545Y-111427694D01*
X150919547Y-111427697D01*
X151009518Y-111570884D01*
X151009523Y-111570890D01*
X151129109Y-111690476D01*
X151129115Y-111690481D01*
X151272302Y-111780452D01*
X151272305Y-111780454D01*
X151272309Y-111780455D01*
X151272310Y-111780456D01*
X151328155Y-111799997D01*
X151431943Y-111836314D01*
X151599997Y-111855249D01*
X151600000Y-111855249D01*
X151600003Y-111855249D01*
X151768056Y-111836314D01*
X151768059Y-111836313D01*
X151927690Y-111780456D01*
X151927692Y-111780454D01*
X151927694Y-111780454D01*
X151927697Y-111780452D01*
X152070884Y-111690481D01*
X152070885Y-111690480D01*
X152070890Y-111690477D01*
X152190477Y-111570890D01*
X152190481Y-111570884D01*
X152280452Y-111427697D01*
X152280453Y-111427693D01*
X152280456Y-111427690D01*
X152284959Y-111414822D01*
X152325679Y-111358045D01*
X152390632Y-111332296D01*
X152395146Y-111332088D01*
X152397934Y-111331773D01*
X152397937Y-111331774D01*
X152466533Y-111324044D01*
X152565993Y-111312839D01*
X152565996Y-111312838D01*
X152725627Y-111256981D01*
X152725629Y-111256979D01*
X152725631Y-111256979D01*
X152725634Y-111256977D01*
X152868821Y-111167006D01*
X152868822Y-111167005D01*
X152868827Y-111167002D01*
X152988414Y-111047415D01*
X153038140Y-110968277D01*
X153078389Y-110904222D01*
X153078391Y-110904219D01*
X153078391Y-110904217D01*
X153078393Y-110904215D01*
X153134250Y-110744584D01*
X153134250Y-110744583D01*
X153134251Y-110744581D01*
X153153186Y-110576527D01*
X153153186Y-110576524D01*
X153145636Y-110509523D01*
X153142824Y-110484567D01*
X153154878Y-110415747D01*
X153178366Y-110383000D01*
X153190477Y-110370890D01*
X153280456Y-110227690D01*
X153336313Y-110068059D01*
X153336313Y-110068057D01*
X153336314Y-110068055D01*
X153343169Y-110007213D01*
X153370235Y-109942799D01*
X153427830Y-109903244D01*
X153480273Y-109897876D01*
X153638801Y-109915738D01*
X153638804Y-109915738D01*
X153638807Y-109915738D01*
X153806863Y-109896802D01*
X153806865Y-109896802D01*
X153870715Y-109874459D01*
X153966494Y-109840945D01*
X153971984Y-109837495D01*
X154039216Y-109818491D01*
X154103934Y-109837492D01*
X154172309Y-109880456D01*
X154228155Y-109899997D01*
X154331941Y-109936313D01*
X154373955Y-109941047D01*
X154499997Y-109955249D01*
X154500000Y-109955249D01*
X154500003Y-109955249D01*
X154668056Y-109936314D01*
X154726859Y-109915738D01*
X154827690Y-109880456D01*
X154827692Y-109880454D01*
X154827694Y-109880454D01*
X154827697Y-109880452D01*
X154970884Y-109790481D01*
X154970885Y-109790480D01*
X154970890Y-109790477D01*
X155090477Y-109670890D01*
X155117622Y-109627690D01*
X155180452Y-109527697D01*
X155180454Y-109527694D01*
X155180454Y-109527692D01*
X155180456Y-109527690D01*
X155236313Y-109368059D01*
X155236313Y-109368058D01*
X155236314Y-109368056D01*
X155255249Y-109200002D01*
X155255249Y-109199997D01*
X155236314Y-109031943D01*
X155198450Y-108923734D01*
X155180456Y-108872310D01*
X155180455Y-108872309D01*
X155180454Y-108872305D01*
X155180452Y-108872302D01*
X155090481Y-108729115D01*
X155090476Y-108729109D01*
X154970890Y-108609523D01*
X154970884Y-108609518D01*
X154949437Y-108596042D01*
X156248685Y-108596042D01*
X156267619Y-108764096D01*
X156323479Y-108923734D01*
X156323481Y-108923737D01*
X156413452Y-109066924D01*
X156413457Y-109066930D01*
X156533043Y-109186516D01*
X156533049Y-109186521D01*
X156676236Y-109276492D01*
X156676239Y-109276494D01*
X156676243Y-109276495D01*
X156676244Y-109276496D01*
X156722870Y-109292811D01*
X156835877Y-109332354D01*
X157003931Y-109351289D01*
X157003934Y-109351289D01*
X157003937Y-109351289D01*
X157129978Y-109337087D01*
X157171993Y-109332353D01*
X157282703Y-109293613D01*
X157352479Y-109290051D01*
X157389628Y-109305662D01*
X157410853Y-109318999D01*
X157570484Y-109374856D01*
X157612498Y-109379590D01*
X157738540Y-109393792D01*
X157738543Y-109393792D01*
X157738544Y-109393792D01*
X157759350Y-109391447D01*
X157831880Y-109383275D01*
X157900701Y-109395329D01*
X157952081Y-109442678D01*
X157962806Y-109465541D01*
X158019544Y-109627691D01*
X158019547Y-109627697D01*
X158109518Y-109770884D01*
X158109523Y-109770890D01*
X158229109Y-109890476D01*
X158229115Y-109890481D01*
X158372302Y-109980452D01*
X158372305Y-109980454D01*
X158372309Y-109980455D01*
X158372310Y-109980456D01*
X158444913Y-110005860D01*
X158531943Y-110036314D01*
X158699997Y-110055249D01*
X158700000Y-110055249D01*
X158700003Y-110055249D01*
X158868056Y-110036314D01*
X158868059Y-110036313D01*
X159027690Y-109980456D01*
X159027692Y-109980454D01*
X159027694Y-109980454D01*
X159027697Y-109980452D01*
X159170884Y-109890481D01*
X159170885Y-109890480D01*
X159170890Y-109890477D01*
X159290477Y-109770890D01*
X159309006Y-109741402D01*
X159380452Y-109627697D01*
X159380454Y-109627694D01*
X159380455Y-109627691D01*
X159380456Y-109627690D01*
X159436313Y-109468059D01*
X159436313Y-109468058D01*
X159436314Y-109468056D01*
X159455249Y-109300002D01*
X159455249Y-109299997D01*
X159436806Y-109136314D01*
X159436313Y-109131941D01*
X159428835Y-109110572D01*
X159425273Y-109040795D01*
X159460001Y-108980167D01*
X159521993Y-108947939D01*
X159591569Y-108954342D01*
X159646638Y-108997345D01*
X159653263Y-109007616D01*
X159667463Y-109032211D01*
X159667465Y-109032214D01*
X159794129Y-109172888D01*
X159947265Y-109284148D01*
X159947270Y-109284151D01*
X160120192Y-109361142D01*
X160120197Y-109361144D01*
X160305354Y-109400500D01*
X160305355Y-109400500D01*
X160494644Y-109400500D01*
X160494646Y-109400500D01*
X160679803Y-109361144D01*
X160852730Y-109284151D01*
X161005871Y-109172888D01*
X161132533Y-109032216D01*
X161227179Y-108868284D01*
X161285674Y-108688256D01*
X161305460Y-108500000D01*
X161285674Y-108311744D01*
X161227179Y-108131716D01*
X161132533Y-107967784D01*
X161005871Y-107827112D01*
X161005870Y-107827111D01*
X160852734Y-107715851D01*
X160852729Y-107715848D01*
X160679807Y-107638857D01*
X160679802Y-107638855D01*
X160534000Y-107607865D01*
X160494646Y-107599500D01*
X160305354Y-107599500D01*
X160272897Y-107606398D01*
X160120197Y-107638855D01*
X160120192Y-107638857D01*
X159947270Y-107715848D01*
X159947265Y-107715851D01*
X159794129Y-107827111D01*
X159667466Y-107967785D01*
X159572821Y-108131715D01*
X159572818Y-108131722D01*
X159520455Y-108292881D01*
X159514326Y-108311744D01*
X159504282Y-108407312D01*
X159477697Y-108471926D01*
X159420400Y-108511911D01*
X159350581Y-108514571D01*
X159290407Y-108479061D01*
X159263919Y-108435305D01*
X159214081Y-108292876D01*
X159214079Y-108292873D01*
X159124108Y-108149686D01*
X159124103Y-108149680D01*
X159004517Y-108030094D01*
X159004511Y-108030089D01*
X158861324Y-107940118D01*
X158861321Y-107940116D01*
X158701683Y-107884256D01*
X158533630Y-107865322D01*
X158533624Y-107865322D01*
X158365570Y-107884256D01*
X158205935Y-107940115D01*
X158187155Y-107951916D01*
X158119918Y-107970915D01*
X158072962Y-107959942D01*
X158072807Y-107960387D01*
X158068665Y-107958937D01*
X158067374Y-107958636D01*
X158066235Y-107958087D01*
X157906600Y-107902229D01*
X157738546Y-107883294D01*
X157738540Y-107883294D01*
X157570483Y-107902229D01*
X157570481Y-107902229D01*
X157459775Y-107940968D01*
X157389996Y-107944530D01*
X157352849Y-107928920D01*
X157331624Y-107915584D01*
X157331621Y-107915582D01*
X157171991Y-107859726D01*
X157003937Y-107840791D01*
X157003931Y-107840791D01*
X156835877Y-107859725D01*
X156676239Y-107915585D01*
X156676236Y-107915587D01*
X156533049Y-108005558D01*
X156533043Y-108005563D01*
X156413457Y-108125149D01*
X156413452Y-108125155D01*
X156323481Y-108268342D01*
X156323479Y-108268345D01*
X156267619Y-108427983D01*
X156248685Y-108596037D01*
X156248685Y-108596042D01*
X154949437Y-108596042D01*
X154827697Y-108519547D01*
X154827694Y-108519545D01*
X154668056Y-108463685D01*
X154500003Y-108444751D01*
X154499997Y-108444751D01*
X154331943Y-108463685D01*
X154202250Y-108509067D01*
X154172310Y-108519544D01*
X154172308Y-108519544D01*
X154172308Y-108519545D01*
X154166809Y-108523000D01*
X154099572Y-108541996D01*
X154034869Y-108522996D01*
X153966496Y-108480034D01*
X153966498Y-108480034D01*
X153806860Y-108424174D01*
X153638807Y-108405240D01*
X153638801Y-108405240D01*
X153470747Y-108424174D01*
X153311111Y-108480034D01*
X153291619Y-108492281D01*
X153224381Y-108511277D01*
X153184698Y-108504326D01*
X153068554Y-108463686D01*
X152900500Y-108444751D01*
X152900494Y-108444751D01*
X152732440Y-108463685D01*
X152572802Y-108519545D01*
X152572799Y-108519547D01*
X152429612Y-108609518D01*
X152429606Y-108609523D01*
X152310020Y-108729109D01*
X152310015Y-108729115D01*
X152220044Y-108872302D01*
X152220042Y-108872305D01*
X152164182Y-109031943D01*
X152145248Y-109199997D01*
X152145248Y-109200002D01*
X152148018Y-109224588D01*
X152135963Y-109293410D01*
X152112480Y-109326151D01*
X152009524Y-109429108D01*
X152009518Y-109429115D01*
X151919547Y-109572302D01*
X151919545Y-109572305D01*
X151863685Y-109731943D01*
X151844751Y-109899997D01*
X151844751Y-109900004D01*
X151855111Y-109991957D01*
X151843056Y-110060779D01*
X151819575Y-110093519D01*
X151807457Y-110105637D01*
X151717485Y-110248825D01*
X151717481Y-110248833D01*
X151712977Y-110261707D01*
X151672255Y-110318483D01*
X151607302Y-110344229D01*
X151602791Y-110344436D01*
X151431943Y-110363685D01*
X151272306Y-110419545D01*
X151254151Y-110430953D01*
X151186914Y-110449952D01*
X151120079Y-110429583D01*
X151074866Y-110376315D01*
X151070254Y-110364286D01*
X151036924Y-110261707D01*
X151027181Y-110231721D01*
X151027178Y-110231715D01*
X150932533Y-110067784D01*
X150805871Y-109927112D01*
X150780247Y-109908495D01*
X150652734Y-109815851D01*
X150652729Y-109815848D01*
X150479807Y-109738857D01*
X150479802Y-109738855D01*
X150334000Y-109707865D01*
X150294646Y-109699500D01*
X150105354Y-109699500D01*
X150072897Y-109706398D01*
X149920197Y-109738855D01*
X149920192Y-109738857D01*
X149747270Y-109815848D01*
X149747265Y-109815851D01*
X149594129Y-109927111D01*
X149467466Y-110067785D01*
X149372821Y-110231715D01*
X149372818Y-110231722D01*
X149323666Y-110382998D01*
X149314326Y-110411744D01*
X149294540Y-110600000D01*
X145100500Y-110600000D01*
X145100500Y-108870000D01*
X145759341Y-108870000D01*
X145779936Y-109105403D01*
X145779938Y-109105413D01*
X145841094Y-109333655D01*
X145841096Y-109333659D01*
X145841097Y-109333663D01*
X145872264Y-109400500D01*
X145940965Y-109547830D01*
X145940967Y-109547834D01*
X146047166Y-109699500D01*
X146076505Y-109741401D01*
X146243599Y-109908495D01*
X146283329Y-109936314D01*
X146437165Y-110044032D01*
X146437167Y-110044033D01*
X146437170Y-110044035D01*
X146651337Y-110143903D01*
X146879592Y-110205063D01*
X147067918Y-110221539D01*
X147114999Y-110225659D01*
X147115000Y-110225659D01*
X147115001Y-110225659D01*
X147154234Y-110222226D01*
X147350408Y-110205063D01*
X147578663Y-110143903D01*
X147792830Y-110044035D01*
X147986401Y-109908495D01*
X148153495Y-109741401D01*
X148289035Y-109547830D01*
X148388903Y-109333663D01*
X148450063Y-109105408D01*
X148470659Y-108870000D01*
X148450063Y-108634592D01*
X148388903Y-108406337D01*
X148385949Y-108400002D01*
X149695251Y-108400002D01*
X149714185Y-108568056D01*
X149770045Y-108727694D01*
X149770047Y-108727697D01*
X149860018Y-108870884D01*
X149860023Y-108870890D01*
X149979609Y-108990476D01*
X149979615Y-108990481D01*
X150122802Y-109080452D01*
X150122805Y-109080454D01*
X150122809Y-109080455D01*
X150122810Y-109080456D01*
X150194105Y-109105403D01*
X150282443Y-109136314D01*
X150450497Y-109155249D01*
X150450500Y-109155249D01*
X150450503Y-109155249D01*
X150618556Y-109136314D01*
X150631048Y-109131943D01*
X150778190Y-109080456D01*
X150778192Y-109080454D01*
X150778194Y-109080454D01*
X150778197Y-109080452D01*
X150921384Y-108990481D01*
X150921385Y-108990480D01*
X150921390Y-108990477D01*
X151040977Y-108870890D01*
X151041537Y-108869999D01*
X151130952Y-108727697D01*
X151130954Y-108727694D01*
X151130954Y-108727692D01*
X151130956Y-108727690D01*
X151186813Y-108568059D01*
X151186813Y-108568058D01*
X151186814Y-108568056D01*
X151205749Y-108400002D01*
X151205749Y-108399997D01*
X151186814Y-108231943D01*
X151130954Y-108072305D01*
X151130952Y-108072302D01*
X151040981Y-107929115D01*
X151040976Y-107929109D01*
X150921390Y-107809523D01*
X150921384Y-107809518D01*
X150778197Y-107719547D01*
X150778194Y-107719545D01*
X150618556Y-107663685D01*
X150450503Y-107644751D01*
X150450497Y-107644751D01*
X150282443Y-107663685D01*
X150122805Y-107719545D01*
X150122802Y-107719547D01*
X149979615Y-107809518D01*
X149979609Y-107809523D01*
X149860023Y-107929109D01*
X149860018Y-107929115D01*
X149770047Y-108072302D01*
X149770045Y-108072305D01*
X149714185Y-108231943D01*
X149695251Y-108399997D01*
X149695251Y-108400002D01*
X148385949Y-108400002D01*
X148289035Y-108192171D01*
X148259284Y-108149681D01*
X148153494Y-107998597D01*
X147986402Y-107831506D01*
X147986396Y-107831501D01*
X147800842Y-107701575D01*
X147757217Y-107646998D01*
X147750023Y-107577500D01*
X147781546Y-107515145D01*
X147800842Y-107498425D01*
X147958179Y-107388256D01*
X147986401Y-107368495D01*
X148153495Y-107201401D01*
X148154476Y-107200000D01*
X153794540Y-107200000D01*
X153814326Y-107388256D01*
X153814327Y-107388259D01*
X153872818Y-107568277D01*
X153872821Y-107568284D01*
X153967467Y-107732216D01*
X154065229Y-107840791D01*
X154094129Y-107872888D01*
X154247265Y-107984148D01*
X154247270Y-107984151D01*
X154420192Y-108061142D01*
X154420197Y-108061144D01*
X154605354Y-108100500D01*
X154605355Y-108100500D01*
X154794644Y-108100500D01*
X154794646Y-108100500D01*
X154979803Y-108061144D01*
X155152730Y-107984151D01*
X155305871Y-107872888D01*
X155432533Y-107732216D01*
X155527179Y-107568284D01*
X155585674Y-107388256D01*
X155605460Y-107200000D01*
X155585674Y-107011744D01*
X155527179Y-106831716D01*
X155432533Y-106667784D01*
X155305871Y-106527112D01*
X155305870Y-106527111D01*
X155152734Y-106415851D01*
X155152729Y-106415848D01*
X154979807Y-106338857D01*
X154979802Y-106338855D01*
X154834000Y-106307865D01*
X154794646Y-106299500D01*
X154605354Y-106299500D01*
X154572897Y-106306398D01*
X154420197Y-106338855D01*
X154420192Y-106338857D01*
X154247270Y-106415848D01*
X154247265Y-106415851D01*
X154094129Y-106527111D01*
X153967466Y-106667785D01*
X153872821Y-106831715D01*
X153872818Y-106831722D01*
X153815596Y-107007834D01*
X153814326Y-107011744D01*
X153794540Y-107200000D01*
X148154476Y-107200000D01*
X148289035Y-107007830D01*
X148388903Y-106793663D01*
X148450063Y-106565408D01*
X148470659Y-106330000D01*
X148450063Y-106094592D01*
X148388903Y-105866337D01*
X148289035Y-105652171D01*
X148252506Y-105600002D01*
X152344751Y-105600002D01*
X152363685Y-105768056D01*
X152419545Y-105927694D01*
X152419547Y-105927697D01*
X152509518Y-106070884D01*
X152509523Y-106070890D01*
X152629109Y-106190476D01*
X152629115Y-106190481D01*
X152772302Y-106280452D01*
X152772305Y-106280454D01*
X152772309Y-106280455D01*
X152772310Y-106280456D01*
X152826735Y-106299500D01*
X152931943Y-106336314D01*
X153099997Y-106355249D01*
X153100000Y-106355249D01*
X153100003Y-106355249D01*
X153268056Y-106336314D01*
X153268059Y-106336313D01*
X153427690Y-106280456D01*
X153427692Y-106280454D01*
X153427694Y-106280454D01*
X153427697Y-106280452D01*
X153570884Y-106190481D01*
X153570885Y-106190480D01*
X153570890Y-106190477D01*
X153690477Y-106070890D01*
X153780452Y-105927697D01*
X153780454Y-105927694D01*
X153780454Y-105927692D01*
X153780456Y-105927690D01*
X153836313Y-105768059D01*
X153836313Y-105768058D01*
X153836314Y-105768056D01*
X153855249Y-105600002D01*
X153855249Y-105599997D01*
X153836314Y-105431943D01*
X153787173Y-105291506D01*
X153780456Y-105272310D01*
X153780455Y-105272309D01*
X153780454Y-105272305D01*
X153780452Y-105272302D01*
X153690481Y-105129115D01*
X153690476Y-105129109D01*
X153570890Y-105009523D01*
X153570884Y-105009518D01*
X153427697Y-104919547D01*
X153427694Y-104919545D01*
X153268056Y-104863685D01*
X153100003Y-104844751D01*
X153099997Y-104844751D01*
X152931943Y-104863685D01*
X152772305Y-104919545D01*
X152772302Y-104919547D01*
X152629115Y-105009518D01*
X152629109Y-105009523D01*
X152509523Y-105129109D01*
X152509518Y-105129115D01*
X152419547Y-105272302D01*
X152419545Y-105272305D01*
X152363685Y-105431943D01*
X152344751Y-105599997D01*
X152344751Y-105600002D01*
X148252506Y-105600002D01*
X148153495Y-105458599D01*
X148153494Y-105458597D01*
X147986402Y-105291506D01*
X147986396Y-105291501D01*
X147800842Y-105161575D01*
X147757217Y-105106998D01*
X147750023Y-105037500D01*
X147781546Y-104975145D01*
X147800842Y-104958425D01*
X147856370Y-104919544D01*
X147986401Y-104828495D01*
X148153495Y-104661401D01*
X148289035Y-104467830D01*
X148388903Y-104253663D01*
X148450063Y-104025408D01*
X148470659Y-103790000D01*
X148462785Y-103700000D01*
X150594540Y-103700000D01*
X150614326Y-103888256D01*
X150614327Y-103888259D01*
X150672818Y-104068277D01*
X150672821Y-104068284D01*
X150767467Y-104232216D01*
X150810901Y-104280454D01*
X150894129Y-104372888D01*
X151047265Y-104484148D01*
X151047270Y-104484151D01*
X151220192Y-104561142D01*
X151220197Y-104561144D01*
X151405354Y-104600500D01*
X151405355Y-104600500D01*
X151594644Y-104600500D01*
X151594646Y-104600500D01*
X151779803Y-104561144D01*
X151952730Y-104484151D01*
X152105871Y-104372888D01*
X152232533Y-104232216D01*
X152327179Y-104068284D01*
X152385674Y-103888256D01*
X152405460Y-103700000D01*
X152394950Y-103600002D01*
X158044751Y-103600002D01*
X158063685Y-103768056D01*
X158119545Y-103927694D01*
X158119547Y-103927697D01*
X158209518Y-104070884D01*
X158209523Y-104070890D01*
X158329109Y-104190476D01*
X158329115Y-104190481D01*
X158472302Y-104280452D01*
X158472305Y-104280454D01*
X158472309Y-104280455D01*
X158472310Y-104280456D01*
X158544913Y-104305860D01*
X158631943Y-104336314D01*
X158799997Y-104355249D01*
X158800000Y-104355249D01*
X158800003Y-104355249D01*
X158968056Y-104336314D01*
X158968059Y-104336313D01*
X159127690Y-104280456D01*
X159127692Y-104280454D01*
X159127694Y-104280454D01*
X159127697Y-104280452D01*
X159270884Y-104190481D01*
X159270885Y-104190480D01*
X159270890Y-104190477D01*
X159390477Y-104070890D01*
X159390481Y-104070884D01*
X159480452Y-103927697D01*
X159480454Y-103927694D01*
X159480454Y-103927692D01*
X159480456Y-103927690D01*
X159536313Y-103768059D01*
X159536313Y-103768058D01*
X159536314Y-103768056D01*
X159555249Y-103600002D01*
X159555249Y-103599997D01*
X159536314Y-103431943D01*
X159480454Y-103272305D01*
X159480452Y-103272302D01*
X159390481Y-103129115D01*
X159390476Y-103129109D01*
X159270890Y-103009523D01*
X159270884Y-103009518D01*
X159127697Y-102919547D01*
X159127694Y-102919545D01*
X158968056Y-102863685D01*
X158800003Y-102844751D01*
X158799997Y-102844751D01*
X158631943Y-102863685D01*
X158472305Y-102919545D01*
X158472302Y-102919547D01*
X158329115Y-103009518D01*
X158329109Y-103009523D01*
X158209523Y-103129109D01*
X158209518Y-103129115D01*
X158119547Y-103272302D01*
X158119545Y-103272305D01*
X158063685Y-103431943D01*
X158044751Y-103599997D01*
X158044751Y-103600002D01*
X152394950Y-103600002D01*
X152385674Y-103511744D01*
X152327179Y-103331716D01*
X152232533Y-103167784D01*
X152105871Y-103027112D01*
X152055453Y-102990481D01*
X151952734Y-102915851D01*
X151952729Y-102915848D01*
X151779807Y-102838857D01*
X151779802Y-102838855D01*
X151634001Y-102807865D01*
X151594646Y-102799500D01*
X151405354Y-102799500D01*
X151372897Y-102806398D01*
X151220197Y-102838855D01*
X151220192Y-102838857D01*
X151047270Y-102915848D01*
X151047265Y-102915851D01*
X150894129Y-103027111D01*
X150767466Y-103167785D01*
X150672821Y-103331715D01*
X150672818Y-103331722D01*
X150614327Y-103511740D01*
X150614326Y-103511744D01*
X150594540Y-103700000D01*
X148462785Y-103700000D01*
X148450063Y-103554592D01*
X148388903Y-103326337D01*
X148289035Y-103112171D01*
X148266826Y-103080452D01*
X148153494Y-102918597D01*
X147986402Y-102751506D01*
X147986396Y-102751501D01*
X147800842Y-102621575D01*
X147757217Y-102566998D01*
X147750023Y-102497500D01*
X147781546Y-102435145D01*
X147800842Y-102418425D01*
X147827153Y-102400002D01*
X155744751Y-102400002D01*
X155763685Y-102568056D01*
X155819545Y-102727694D01*
X155819547Y-102727697D01*
X155909518Y-102870884D01*
X155909523Y-102870890D01*
X156029109Y-102990476D01*
X156029115Y-102990481D01*
X156172302Y-103080452D01*
X156172305Y-103080454D01*
X156172309Y-103080455D01*
X156172310Y-103080456D01*
X156205784Y-103092169D01*
X156331943Y-103136314D01*
X156499997Y-103155249D01*
X156500000Y-103155249D01*
X156500003Y-103155249D01*
X156668056Y-103136314D01*
X156668059Y-103136313D01*
X156827690Y-103080456D01*
X156827692Y-103080454D01*
X156827694Y-103080454D01*
X156827697Y-103080452D01*
X156970884Y-102990481D01*
X156970885Y-102990480D01*
X156970890Y-102990477D01*
X157090477Y-102870890D01*
X157095004Y-102863685D01*
X157180452Y-102727697D01*
X157180454Y-102727694D01*
X157180454Y-102727692D01*
X157180456Y-102727690D01*
X157236313Y-102568059D01*
X157236313Y-102568058D01*
X157236314Y-102568056D01*
X157255249Y-102400002D01*
X157255249Y-102399997D01*
X157236314Y-102231943D01*
X157180454Y-102072305D01*
X157180452Y-102072302D01*
X157090481Y-101929115D01*
X157090476Y-101929109D01*
X156999048Y-101837681D01*
X156965563Y-101776358D01*
X156970547Y-101706666D01*
X156999048Y-101662319D01*
X156999048Y-101662318D01*
X157090477Y-101570890D01*
X157144186Y-101485413D01*
X157180452Y-101427697D01*
X157180454Y-101427694D01*
X157180454Y-101427692D01*
X157180456Y-101427690D01*
X157236313Y-101268059D01*
X157236313Y-101268058D01*
X157236314Y-101268056D01*
X157255249Y-101100002D01*
X157255249Y-101099997D01*
X157236314Y-100931943D01*
X157205860Y-100844913D01*
X157180456Y-100772310D01*
X157180455Y-100772309D01*
X157180454Y-100772305D01*
X157180452Y-100772302D01*
X157135021Y-100700000D01*
X161895040Y-100700000D01*
X161914826Y-100888256D01*
X161914827Y-100888259D01*
X161973318Y-101068277D01*
X161973321Y-101068284D01*
X162067967Y-101232216D01*
X162187321Y-101364772D01*
X162194629Y-101372888D01*
X162347765Y-101484148D01*
X162347770Y-101484151D01*
X162520692Y-101561142D01*
X162520697Y-101561144D01*
X162705854Y-101600500D01*
X162705855Y-101600500D01*
X162895144Y-101600500D01*
X162895146Y-101600500D01*
X163080303Y-101561144D01*
X163253230Y-101484151D01*
X163385226Y-101388250D01*
X163451028Y-101364772D01*
X163519082Y-101380597D01*
X163567777Y-101430703D01*
X163577931Y-101460341D01*
X163578536Y-101460179D01*
X163641094Y-101693655D01*
X163641096Y-101693659D01*
X163641097Y-101693663D01*
X163695124Y-101809523D01*
X163740965Y-101907830D01*
X163740967Y-101907834D01*
X163876501Y-102101395D01*
X163876506Y-102101402D01*
X164043597Y-102268493D01*
X164043603Y-102268498D01*
X164229158Y-102398425D01*
X164272783Y-102453002D01*
X164279977Y-102522500D01*
X164248454Y-102584855D01*
X164229158Y-102601575D01*
X164043597Y-102731505D01*
X163876505Y-102898597D01*
X163740965Y-103092169D01*
X163740964Y-103092171D01*
X163641098Y-103306335D01*
X163641094Y-103306344D01*
X163579938Y-103534586D01*
X163579936Y-103534596D01*
X163559341Y-103769999D01*
X163559341Y-103770000D01*
X163579936Y-104005403D01*
X163579938Y-104005413D01*
X163641094Y-104233655D01*
X163641096Y-104233659D01*
X163641097Y-104233663D01*
X163662916Y-104280454D01*
X163740965Y-104447830D01*
X163740967Y-104447834D01*
X163876501Y-104641395D01*
X163876506Y-104641402D01*
X164043597Y-104808493D01*
X164043603Y-104808498D01*
X164229158Y-104938425D01*
X164272783Y-104993002D01*
X164279977Y-105062500D01*
X164248454Y-105124855D01*
X164229158Y-105141575D01*
X164043597Y-105271505D01*
X163876505Y-105438597D01*
X163740965Y-105632169D01*
X163740964Y-105632171D01*
X163641098Y-105846335D01*
X163641094Y-105846344D01*
X163579938Y-106074586D01*
X163579936Y-106074596D01*
X163559341Y-106309999D01*
X163559341Y-106310000D01*
X163579936Y-106545403D01*
X163579938Y-106545413D01*
X163641094Y-106773655D01*
X163641096Y-106773659D01*
X163641097Y-106773663D01*
X163740965Y-106987830D01*
X163740967Y-106987834D01*
X163876501Y-107181395D01*
X163876506Y-107181402D01*
X164043597Y-107348493D01*
X164043603Y-107348498D01*
X164229158Y-107478425D01*
X164272783Y-107533002D01*
X164279977Y-107602500D01*
X164248454Y-107664855D01*
X164229158Y-107681575D01*
X164043597Y-107811505D01*
X163876505Y-107978597D01*
X163740965Y-108172169D01*
X163740964Y-108172171D01*
X163641098Y-108386335D01*
X163641094Y-108386344D01*
X163579938Y-108614586D01*
X163579936Y-108614596D01*
X163559341Y-108849999D01*
X163559341Y-108850000D01*
X163579936Y-109085403D01*
X163579938Y-109085413D01*
X163641094Y-109313655D01*
X163641096Y-109313659D01*
X163641097Y-109313663D01*
X163701258Y-109442678D01*
X163740965Y-109527830D01*
X163740967Y-109527834D01*
X163841133Y-109670884D01*
X163876505Y-109721401D01*
X164043599Y-109888495D01*
X164098750Y-109927112D01*
X164237165Y-110024032D01*
X164237167Y-110024033D01*
X164237170Y-110024035D01*
X164451337Y-110123903D01*
X164679592Y-110185063D01*
X164867918Y-110201539D01*
X164914999Y-110205659D01*
X164915000Y-110205659D01*
X164915001Y-110205659D01*
X164954234Y-110202226D01*
X165150408Y-110185063D01*
X165378663Y-110123903D01*
X165592830Y-110024035D01*
X165786401Y-109888495D01*
X165953495Y-109721401D01*
X166089035Y-109527830D01*
X166188903Y-109313663D01*
X166250063Y-109085408D01*
X166270659Y-108850000D01*
X166250063Y-108614592D01*
X166193968Y-108405240D01*
X166188905Y-108386344D01*
X166188904Y-108386343D01*
X166188903Y-108386337D01*
X166089035Y-108172171D01*
X166073288Y-108149681D01*
X165953494Y-107978597D01*
X165786402Y-107811506D01*
X165786396Y-107811501D01*
X165600842Y-107681575D01*
X165557217Y-107626998D01*
X165550023Y-107557500D01*
X165581546Y-107495145D01*
X165600842Y-107478425D01*
X165729616Y-107388256D01*
X165786401Y-107348495D01*
X165953495Y-107181401D01*
X166089035Y-106987830D01*
X166188903Y-106773663D01*
X166250063Y-106545408D01*
X166270659Y-106310000D01*
X166250063Y-106074592D01*
X166188903Y-105846337D01*
X166089035Y-105632171D01*
X166066511Y-105600002D01*
X165953494Y-105438597D01*
X165786402Y-105271506D01*
X165786396Y-105271501D01*
X165600842Y-105141575D01*
X165557217Y-105086998D01*
X165550023Y-105017500D01*
X165581546Y-104955145D01*
X165600842Y-104938425D01*
X165627807Y-104919544D01*
X165786401Y-104808495D01*
X165953495Y-104641401D01*
X166089035Y-104447830D01*
X166188903Y-104233663D01*
X166250063Y-104005408D01*
X166270659Y-103770000D01*
X166250063Y-103534592D01*
X166188903Y-103306337D01*
X166089035Y-103092171D01*
X166080833Y-103080456D01*
X165953494Y-102898597D01*
X165786402Y-102731506D01*
X165786396Y-102731501D01*
X165600842Y-102601575D01*
X165557217Y-102546998D01*
X165550023Y-102477500D01*
X165581546Y-102415145D01*
X165600842Y-102398425D01*
X165623026Y-102382891D01*
X165786401Y-102268495D01*
X165953495Y-102101401D01*
X166089035Y-101907830D01*
X166188903Y-101693663D01*
X166250063Y-101465408D01*
X166270659Y-101230000D01*
X166250063Y-100994592D01*
X166194261Y-100786335D01*
X166188905Y-100766344D01*
X166188904Y-100766343D01*
X166188903Y-100766337D01*
X166089035Y-100552171D01*
X166059170Y-100509518D01*
X165953494Y-100358597D01*
X165786402Y-100191506D01*
X165786396Y-100191501D01*
X165600842Y-100061575D01*
X165557217Y-100006998D01*
X165550023Y-99937500D01*
X165581546Y-99875145D01*
X165600842Y-99858425D01*
X165684995Y-99799500D01*
X165786401Y-99728495D01*
X165953495Y-99561401D01*
X166089035Y-99367830D01*
X166188903Y-99153663D01*
X166188905Y-99153651D01*
X166188908Y-99153647D01*
X166237878Y-98970884D01*
X166250063Y-98925408D01*
X166270659Y-98690000D01*
X166250063Y-98454592D01*
X166188903Y-98226337D01*
X166089035Y-98012171D01*
X166087178Y-98009518D01*
X165953494Y-97818597D01*
X165786402Y-97651506D01*
X165786396Y-97651501D01*
X165600842Y-97521575D01*
X165557217Y-97466998D01*
X165550023Y-97397500D01*
X165581546Y-97335145D01*
X165600842Y-97318425D01*
X165623026Y-97302891D01*
X165786401Y-97188495D01*
X165953495Y-97021401D01*
X166089035Y-96827830D01*
X166188903Y-96613663D01*
X166250063Y-96385408D01*
X166270659Y-96150000D01*
X166250063Y-95914592D01*
X166188903Y-95686337D01*
X166089035Y-95472171D01*
X165953495Y-95278599D01*
X165953494Y-95278597D01*
X165786402Y-95111506D01*
X165786396Y-95111501D01*
X165600842Y-94981575D01*
X165557217Y-94926998D01*
X165550023Y-94857500D01*
X165581546Y-94795145D01*
X165600842Y-94778425D01*
X165623026Y-94762891D01*
X165786401Y-94648495D01*
X165953495Y-94481401D01*
X166089035Y-94287830D01*
X166188903Y-94073663D01*
X166250063Y-93845408D01*
X166270659Y-93610000D01*
X166250063Y-93374592D01*
X166188903Y-93146337D01*
X166089035Y-92932171D01*
X166039301Y-92861142D01*
X165953494Y-92738597D01*
X165786402Y-92571506D01*
X165786396Y-92571501D01*
X165600842Y-92441575D01*
X165557217Y-92386998D01*
X165550023Y-92317500D01*
X165581546Y-92255145D01*
X165600842Y-92238425D01*
X165672486Y-92188259D01*
X165786401Y-92108495D01*
X165953495Y-91941401D01*
X166089035Y-91747830D01*
X166188903Y-91533663D01*
X166250063Y-91305408D01*
X166270659Y-91070000D01*
X166250063Y-90834592D01*
X166188903Y-90606337D01*
X166089035Y-90392171D01*
X165953495Y-90198599D01*
X165831567Y-90076671D01*
X165798084Y-90015351D01*
X165803068Y-89945659D01*
X165844939Y-89889725D01*
X165875915Y-89872810D01*
X166007331Y-89823796D01*
X166122546Y-89737546D01*
X166208796Y-89622331D01*
X166259091Y-89487483D01*
X166265500Y-89427873D01*
X166265499Y-87632128D01*
X166259091Y-87572517D01*
X166216256Y-87457671D01*
X166208797Y-87437671D01*
X166208793Y-87437664D01*
X166122547Y-87322455D01*
X166122544Y-87322452D01*
X166007335Y-87236206D01*
X166007328Y-87236202D01*
X165872482Y-87185908D01*
X165872483Y-87185908D01*
X165812883Y-87179501D01*
X165812881Y-87179500D01*
X165812873Y-87179500D01*
X165812864Y-87179500D01*
X164017129Y-87179500D01*
X164017123Y-87179501D01*
X163957516Y-87185908D01*
X163822671Y-87236202D01*
X163822664Y-87236206D01*
X163707455Y-87322452D01*
X163707452Y-87322455D01*
X163621206Y-87437664D01*
X163621202Y-87437671D01*
X163570908Y-87572517D01*
X163564501Y-87632116D01*
X163564501Y-87632123D01*
X163564500Y-87632135D01*
X163564500Y-89427870D01*
X163564501Y-89427876D01*
X163570908Y-89487483D01*
X163621202Y-89622328D01*
X163621206Y-89622335D01*
X163707452Y-89737544D01*
X163707455Y-89737547D01*
X163822664Y-89823793D01*
X163822671Y-89823797D01*
X163954081Y-89872810D01*
X164010015Y-89914681D01*
X164034432Y-89980145D01*
X164019580Y-90048418D01*
X163998430Y-90076673D01*
X163876503Y-90198600D01*
X163740965Y-90392169D01*
X163740964Y-90392171D01*
X163641098Y-90606335D01*
X163641094Y-90606344D01*
X163579938Y-90834586D01*
X163579936Y-90834596D01*
X163559341Y-91069999D01*
X163559341Y-91070000D01*
X163579936Y-91305403D01*
X163579938Y-91305413D01*
X163641094Y-91533655D01*
X163641096Y-91533659D01*
X163641097Y-91533663D01*
X163650424Y-91553664D01*
X163740965Y-91747830D01*
X163740967Y-91747834D01*
X163876501Y-91941395D01*
X163876506Y-91941402D01*
X164043597Y-92108493D01*
X164043603Y-92108498D01*
X164229158Y-92238425D01*
X164272783Y-92293002D01*
X164279977Y-92362500D01*
X164248454Y-92424855D01*
X164229158Y-92441575D01*
X164043597Y-92571505D01*
X163876505Y-92738597D01*
X163740965Y-92932169D01*
X163740964Y-92932171D01*
X163641098Y-93146335D01*
X163641094Y-93146344D01*
X163579938Y-93374586D01*
X163579936Y-93374596D01*
X163559341Y-93609999D01*
X163559341Y-93610000D01*
X163579936Y-93845403D01*
X163579938Y-93845413D01*
X163641094Y-94073655D01*
X163641096Y-94073659D01*
X163641097Y-94073663D01*
X163650424Y-94093664D01*
X163740965Y-94287830D01*
X163740967Y-94287834D01*
X163876501Y-94481395D01*
X163876506Y-94481402D01*
X164043597Y-94648493D01*
X164043603Y-94648498D01*
X164229158Y-94778425D01*
X164272783Y-94833002D01*
X164279977Y-94902500D01*
X164248454Y-94964855D01*
X164229158Y-94981575D01*
X164043597Y-95111505D01*
X163876505Y-95278597D01*
X163740965Y-95472169D01*
X163740964Y-95472171D01*
X163641098Y-95686335D01*
X163641094Y-95686344D01*
X163579938Y-95914586D01*
X163579936Y-95914596D01*
X163559341Y-96149999D01*
X163559341Y-96150000D01*
X163579936Y-96385403D01*
X163579938Y-96385413D01*
X163641094Y-96613655D01*
X163641096Y-96613659D01*
X163641097Y-96613663D01*
X163732426Y-96809518D01*
X163740965Y-96827830D01*
X163740967Y-96827834D01*
X163876501Y-97021395D01*
X163876506Y-97021402D01*
X164043597Y-97188493D01*
X164043603Y-97188498D01*
X164229158Y-97318425D01*
X164272783Y-97373002D01*
X164279977Y-97442500D01*
X164248454Y-97504855D01*
X164229158Y-97521575D01*
X164043597Y-97651505D01*
X163876505Y-97818597D01*
X163740965Y-98012169D01*
X163740964Y-98012171D01*
X163641098Y-98226335D01*
X163641094Y-98226344D01*
X163579938Y-98454586D01*
X163579936Y-98454596D01*
X163559341Y-98689999D01*
X163559341Y-98690000D01*
X163579936Y-98925403D01*
X163579938Y-98925413D01*
X163641092Y-99153647D01*
X163641094Y-99153655D01*
X163641097Y-99153663D01*
X163700220Y-99280452D01*
X163740965Y-99367830D01*
X163740967Y-99367834D01*
X163876501Y-99561395D01*
X163876506Y-99561402D01*
X164043597Y-99728493D01*
X164043603Y-99728498D01*
X164229158Y-99858425D01*
X164272783Y-99913002D01*
X164279977Y-99982500D01*
X164248454Y-100044855D01*
X164229158Y-100061575D01*
X164043597Y-100191505D01*
X163876505Y-100358597D01*
X163855161Y-100389079D01*
X163800583Y-100432703D01*
X163731084Y-100439894D01*
X163668730Y-100408370D01*
X163635657Y-100356271D01*
X163627679Y-100331716D01*
X163533033Y-100167784D01*
X163406371Y-100027112D01*
X163406214Y-100026998D01*
X163253234Y-99915851D01*
X163253229Y-99915848D01*
X163080307Y-99838857D01*
X163080302Y-99838855D01*
X162934500Y-99807865D01*
X162895146Y-99799500D01*
X162705854Y-99799500D01*
X162673397Y-99806398D01*
X162520697Y-99838855D01*
X162520692Y-99838857D01*
X162347770Y-99915848D01*
X162347765Y-99915851D01*
X162194629Y-100027111D01*
X162067966Y-100167785D01*
X161973321Y-100331715D01*
X161973318Y-100331722D01*
X161914827Y-100511740D01*
X161914826Y-100511744D01*
X161895040Y-100700000D01*
X157135021Y-100700000D01*
X157090481Y-100629115D01*
X157090476Y-100629109D01*
X156970890Y-100509523D01*
X156970884Y-100509518D01*
X156827697Y-100419547D01*
X156827694Y-100419545D01*
X156668056Y-100363685D01*
X156500003Y-100344751D01*
X156499997Y-100344751D01*
X156331943Y-100363685D01*
X156172305Y-100419545D01*
X156172302Y-100419547D01*
X156029115Y-100509518D01*
X156029109Y-100509523D01*
X155909523Y-100629109D01*
X155909518Y-100629115D01*
X155819547Y-100772302D01*
X155819545Y-100772305D01*
X155763685Y-100931943D01*
X155744751Y-101099997D01*
X155744751Y-101100002D01*
X155763685Y-101268056D01*
X155819545Y-101427694D01*
X155819547Y-101427697D01*
X155909518Y-101570884D01*
X155909523Y-101570890D01*
X156000952Y-101662319D01*
X156034437Y-101723642D01*
X156029453Y-101793334D01*
X156000952Y-101837681D01*
X155909523Y-101929109D01*
X155909518Y-101929115D01*
X155819547Y-102072302D01*
X155819545Y-102072305D01*
X155763685Y-102231943D01*
X155744751Y-102399997D01*
X155744751Y-102400002D01*
X147827153Y-102400002D01*
X147986401Y-102288495D01*
X148153495Y-102121401D01*
X148289035Y-101927830D01*
X148388903Y-101713663D01*
X148450063Y-101485408D01*
X148470659Y-101250000D01*
X148450063Y-101014592D01*
X148388903Y-100786337D01*
X148289035Y-100572171D01*
X148160834Y-100389079D01*
X148153494Y-100378597D01*
X147986402Y-100211506D01*
X147986396Y-100211501D01*
X147800842Y-100081575D01*
X147757217Y-100026998D01*
X147750023Y-99957500D01*
X147781546Y-99895145D01*
X147800842Y-99878425D01*
X147913558Y-99799500D01*
X147986401Y-99748495D01*
X148153495Y-99581401D01*
X148289035Y-99387830D01*
X148329991Y-99300000D01*
X152094540Y-99300000D01*
X152114326Y-99488256D01*
X152114327Y-99488259D01*
X152172818Y-99668277D01*
X152172821Y-99668284D01*
X152267467Y-99832216D01*
X152380274Y-99957500D01*
X152394129Y-99972888D01*
X152547265Y-100084148D01*
X152547270Y-100084151D01*
X152720192Y-100161142D01*
X152720197Y-100161144D01*
X152905354Y-100200500D01*
X152905355Y-100200500D01*
X153094644Y-100200500D01*
X153094646Y-100200500D01*
X153279803Y-100161144D01*
X153452730Y-100084151D01*
X153605871Y-99972888D01*
X153732533Y-99832216D01*
X153827179Y-99668284D01*
X153885674Y-99488256D01*
X153905460Y-99300000D01*
X153885674Y-99111744D01*
X153827179Y-98931716D01*
X153732533Y-98767784D01*
X153605871Y-98627112D01*
X153591590Y-98616736D01*
X153452734Y-98515851D01*
X153452729Y-98515848D01*
X153279807Y-98438857D01*
X153279802Y-98438855D01*
X153134001Y-98407865D01*
X153094646Y-98399500D01*
X152905354Y-98399500D01*
X152872897Y-98406398D01*
X152720197Y-98438855D01*
X152720192Y-98438857D01*
X152547270Y-98515848D01*
X152547265Y-98515851D01*
X152394129Y-98627111D01*
X152267466Y-98767785D01*
X152172821Y-98931715D01*
X152172818Y-98931722D01*
X152114327Y-99111740D01*
X152114326Y-99111744D01*
X152099243Y-99255249D01*
X152096595Y-99280452D01*
X152094540Y-99300000D01*
X148329991Y-99300000D01*
X148388903Y-99173663D01*
X148450063Y-98945408D01*
X148470659Y-98710000D01*
X148450063Y-98474592D01*
X148388903Y-98246337D01*
X148289035Y-98032171D01*
X148286896Y-98029115D01*
X148153494Y-97838597D01*
X147986402Y-97671506D01*
X147986396Y-97671501D01*
X147800842Y-97541575D01*
X147757217Y-97486998D01*
X147750023Y-97417500D01*
X147781546Y-97355145D01*
X147800842Y-97338425D01*
X147855718Y-97300000D01*
X153994540Y-97300000D01*
X154014326Y-97488256D01*
X154014327Y-97488259D01*
X154072818Y-97668277D01*
X154072821Y-97668284D01*
X154167467Y-97832216D01*
X154294128Y-97972887D01*
X154294129Y-97972888D01*
X154447265Y-98084148D01*
X154447270Y-98084151D01*
X154620192Y-98161142D01*
X154620197Y-98161144D01*
X154805354Y-98200500D01*
X154805355Y-98200500D01*
X154933928Y-98200500D01*
X155000967Y-98220185D01*
X155038918Y-98258524D01*
X155085048Y-98331938D01*
X155109523Y-98370890D01*
X155229109Y-98490476D01*
X155229115Y-98490481D01*
X155372302Y-98580452D01*
X155372308Y-98580455D01*
X155372310Y-98580456D01*
X155428164Y-98600000D01*
X155475993Y-98616736D01*
X155532769Y-98657458D01*
X155558259Y-98719891D01*
X155563687Y-98768058D01*
X155619544Y-98927692D01*
X155619547Y-98927697D01*
X155709518Y-99070884D01*
X155709523Y-99070890D01*
X155829109Y-99190476D01*
X155829115Y-99190481D01*
X155972302Y-99280452D01*
X155972305Y-99280454D01*
X155972309Y-99280455D01*
X155972310Y-99280456D01*
X156028161Y-99299999D01*
X156131943Y-99336314D01*
X156299997Y-99355249D01*
X156300000Y-99355249D01*
X156300003Y-99355249D01*
X156468056Y-99336314D01*
X156468059Y-99336313D01*
X156627690Y-99280456D01*
X156627692Y-99280454D01*
X156627694Y-99280454D01*
X156627697Y-99280452D01*
X156770884Y-99190481D01*
X156770885Y-99190480D01*
X156770890Y-99190477D01*
X156890477Y-99070890D01*
X156890481Y-99070884D01*
X156980452Y-98927697D01*
X156980454Y-98927694D01*
X156980454Y-98927692D01*
X156980456Y-98927690D01*
X157036313Y-98768059D01*
X157036313Y-98768058D01*
X157036314Y-98768056D01*
X157055249Y-98600002D01*
X157055249Y-98599997D01*
X157043982Y-98500002D01*
X160444751Y-98500002D01*
X160463685Y-98668056D01*
X160519545Y-98827694D01*
X160519547Y-98827697D01*
X160609518Y-98970884D01*
X160609523Y-98970890D01*
X160729109Y-99090476D01*
X160729115Y-99090481D01*
X160872302Y-99180452D01*
X160872305Y-99180454D01*
X160872309Y-99180455D01*
X160872310Y-99180456D01*
X160900946Y-99190476D01*
X161031943Y-99236314D01*
X161199997Y-99255249D01*
X161200000Y-99255249D01*
X161200003Y-99255249D01*
X161368056Y-99236314D01*
X161368059Y-99236313D01*
X161527690Y-99180456D01*
X161527692Y-99180454D01*
X161527694Y-99180454D01*
X161527697Y-99180452D01*
X161670884Y-99090481D01*
X161670885Y-99090480D01*
X161670890Y-99090477D01*
X161790477Y-98970890D01*
X161790481Y-98970884D01*
X161880452Y-98827697D01*
X161880454Y-98827694D01*
X161880454Y-98827692D01*
X161880456Y-98827690D01*
X161936313Y-98668059D01*
X161936313Y-98668058D01*
X161936314Y-98668056D01*
X161955249Y-98500002D01*
X161955249Y-98499997D01*
X161936313Y-98331940D01*
X161936313Y-98331938D01*
X161930603Y-98315620D01*
X161927041Y-98245841D01*
X161961769Y-98185214D01*
X162023763Y-98152986D01*
X162033761Y-98151445D01*
X162168055Y-98136314D01*
X162168057Y-98136313D01*
X162168059Y-98136313D01*
X162327690Y-98080456D01*
X162327692Y-98080454D01*
X162327694Y-98080454D01*
X162327697Y-98080452D01*
X162470884Y-97990481D01*
X162470885Y-97990480D01*
X162470890Y-97990477D01*
X162590477Y-97870890D01*
X162596215Y-97861758D01*
X162680452Y-97727697D01*
X162680454Y-97727694D01*
X162680454Y-97727692D01*
X162680456Y-97727690D01*
X162736313Y-97568059D01*
X162736313Y-97568058D01*
X162736314Y-97568056D01*
X162755249Y-97400002D01*
X162755249Y-97399997D01*
X162736314Y-97231943D01*
X162680454Y-97072305D01*
X162680452Y-97072302D01*
X162590481Y-96929115D01*
X162590476Y-96929109D01*
X162470890Y-96809523D01*
X162470884Y-96809518D01*
X162327697Y-96719547D01*
X162327694Y-96719545D01*
X162168056Y-96663685D01*
X162000003Y-96644751D01*
X161999997Y-96644751D01*
X161831943Y-96663685D01*
X161672305Y-96719545D01*
X161672302Y-96719547D01*
X161529115Y-96809518D01*
X161529109Y-96809523D01*
X161409523Y-96929109D01*
X161409518Y-96929115D01*
X161319547Y-97072302D01*
X161319545Y-97072305D01*
X161263685Y-97231943D01*
X161244751Y-97399997D01*
X161244751Y-97400002D01*
X161263686Y-97568057D01*
X161269398Y-97584382D01*
X161272958Y-97654161D01*
X161238227Y-97714788D01*
X161176233Y-97747013D01*
X161166239Y-97748554D01*
X161031944Y-97763685D01*
X160872305Y-97819545D01*
X160872302Y-97819547D01*
X160729115Y-97909518D01*
X160729109Y-97909523D01*
X160609523Y-98029109D01*
X160609518Y-98029115D01*
X160519547Y-98172302D01*
X160519545Y-98172305D01*
X160463685Y-98331943D01*
X160444751Y-98499997D01*
X160444751Y-98500002D01*
X157043982Y-98500002D01*
X157036314Y-98431943D01*
X156980454Y-98272305D01*
X156980452Y-98272302D01*
X156890481Y-98129115D01*
X156890476Y-98129109D01*
X156770890Y-98009523D01*
X156770884Y-98009518D01*
X156627697Y-97919547D01*
X156627692Y-97919544D01*
X156561961Y-97896544D01*
X156524004Y-97883263D01*
X156467230Y-97842542D01*
X156441740Y-97780104D01*
X156436314Y-97731944D01*
X156434827Y-97727694D01*
X156380456Y-97572310D01*
X156380455Y-97572309D01*
X156380454Y-97572305D01*
X156380452Y-97572302D01*
X156290481Y-97429115D01*
X156290476Y-97429109D01*
X156170890Y-97309523D01*
X156170884Y-97309518D01*
X156027697Y-97219547D01*
X156027692Y-97219544D01*
X155868056Y-97163686D01*
X155865894Y-97163193D01*
X155864638Y-97162490D01*
X155861487Y-97161388D01*
X155861680Y-97160835D01*
X155804917Y-97129081D01*
X155775561Y-97080621D01*
X155756319Y-97021401D01*
X155727179Y-96931716D01*
X155632533Y-96767784D01*
X155505871Y-96627112D01*
X155505870Y-96627111D01*
X155352734Y-96515851D01*
X155352729Y-96515848D01*
X155179807Y-96438857D01*
X155179802Y-96438855D01*
X155034000Y-96407865D01*
X154994646Y-96399500D01*
X154805354Y-96399500D01*
X154777582Y-96405403D01*
X154620197Y-96438855D01*
X154620192Y-96438857D01*
X154447270Y-96515848D01*
X154447265Y-96515851D01*
X154294129Y-96627111D01*
X154167466Y-96767785D01*
X154072821Y-96931715D01*
X154072818Y-96931722D01*
X154014327Y-97111740D01*
X154014326Y-97111744D01*
X153994540Y-97300000D01*
X147855718Y-97300000D01*
X147986401Y-97208495D01*
X148153495Y-97041401D01*
X148289035Y-96847830D01*
X148388903Y-96633663D01*
X148450063Y-96405408D01*
X148470659Y-96170000D01*
X148450063Y-95934592D01*
X148388903Y-95706337D01*
X148289035Y-95492171D01*
X148153495Y-95298599D01*
X148153494Y-95298597D01*
X147986402Y-95131506D01*
X147986396Y-95131501D01*
X147800842Y-95001575D01*
X147757217Y-94946998D01*
X147750023Y-94877500D01*
X147781546Y-94815145D01*
X147800842Y-94798425D01*
X147829405Y-94778425D01*
X147986401Y-94668495D01*
X148153495Y-94501401D01*
X148289035Y-94307830D01*
X148388903Y-94093663D01*
X148450063Y-93865408D01*
X148470659Y-93630000D01*
X148450063Y-93394592D01*
X148388903Y-93166337D01*
X148289035Y-92952171D01*
X148225298Y-92861144D01*
X148153494Y-92758597D01*
X147986402Y-92591506D01*
X147986396Y-92591501D01*
X147800842Y-92461575D01*
X147757217Y-92406998D01*
X147750023Y-92337500D01*
X147781546Y-92275145D01*
X147800842Y-92258425D01*
X147901049Y-92188259D01*
X147986401Y-92128495D01*
X148114896Y-92000000D01*
X153694540Y-92000000D01*
X153714326Y-92188256D01*
X153714327Y-92188259D01*
X153772818Y-92368277D01*
X153772821Y-92368284D01*
X153867467Y-92532216D01*
X153994129Y-92672888D01*
X154147265Y-92784148D01*
X154147270Y-92784151D01*
X154320192Y-92861142D01*
X154320197Y-92861144D01*
X154505354Y-92900500D01*
X154505355Y-92900500D01*
X154694644Y-92900500D01*
X154694646Y-92900500D01*
X154879803Y-92861144D01*
X155052730Y-92784151D01*
X155205871Y-92672888D01*
X155332533Y-92532216D01*
X155427179Y-92368284D01*
X155485674Y-92188256D01*
X155505460Y-92000000D01*
X155485674Y-91811744D01*
X155427179Y-91631716D01*
X155332533Y-91467784D01*
X155205871Y-91327112D01*
X155175998Y-91305408D01*
X155052734Y-91215851D01*
X155052729Y-91215848D01*
X154879807Y-91138857D01*
X154879802Y-91138855D01*
X154734001Y-91107865D01*
X154694646Y-91099500D01*
X154505354Y-91099500D01*
X154472897Y-91106398D01*
X154320197Y-91138855D01*
X154320192Y-91138857D01*
X154147270Y-91215848D01*
X154147265Y-91215851D01*
X153994129Y-91327111D01*
X153867466Y-91467785D01*
X153772821Y-91631715D01*
X153772818Y-91631722D01*
X153728593Y-91767834D01*
X153714326Y-91811744D01*
X153694540Y-92000000D01*
X148114896Y-92000000D01*
X148153495Y-91961401D01*
X148289035Y-91767830D01*
X148388903Y-91553663D01*
X148450063Y-91325408D01*
X148470659Y-91090000D01*
X148450063Y-90854592D01*
X148388903Y-90626337D01*
X148289035Y-90412171D01*
X148153495Y-90218599D01*
X148031567Y-90096671D01*
X147998084Y-90035351D01*
X148003068Y-89965659D01*
X148044939Y-89909725D01*
X148075915Y-89892810D01*
X148207331Y-89843796D01*
X148322546Y-89757546D01*
X148408796Y-89642331D01*
X148459091Y-89507483D01*
X148465500Y-89447873D01*
X148465499Y-87652128D01*
X148459091Y-87592517D01*
X148451631Y-87572517D01*
X148408797Y-87457671D01*
X148408793Y-87457664D01*
X148322547Y-87342455D01*
X148322544Y-87342452D01*
X148207335Y-87256206D01*
X148207328Y-87256202D01*
X148072482Y-87205908D01*
X148072483Y-87205908D01*
X148012883Y-87199501D01*
X148012881Y-87199500D01*
X148012873Y-87199500D01*
X148012864Y-87199500D01*
X146217129Y-87199500D01*
X146217123Y-87199501D01*
X146157516Y-87205908D01*
X146022671Y-87256202D01*
X146022664Y-87256206D01*
X145907455Y-87342452D01*
X145907452Y-87342455D01*
X145821206Y-87457664D01*
X145821202Y-87457671D01*
X145770908Y-87592517D01*
X145766650Y-87632127D01*
X145764501Y-87652123D01*
X145764500Y-87652135D01*
X145764500Y-89447870D01*
X145764501Y-89447876D01*
X145770908Y-89507483D01*
X145821202Y-89642328D01*
X145821206Y-89642335D01*
X145907452Y-89757544D01*
X145907455Y-89757547D01*
X146022664Y-89843793D01*
X146022671Y-89843797D01*
X146154081Y-89892810D01*
X146210015Y-89934681D01*
X146234432Y-90000145D01*
X146219580Y-90068418D01*
X146198430Y-90096673D01*
X146076503Y-90218600D01*
X145940965Y-90412169D01*
X145940964Y-90412171D01*
X145841098Y-90626335D01*
X145841094Y-90626344D01*
X145779938Y-90854586D01*
X145779936Y-90854596D01*
X145759341Y-91089999D01*
X145759341Y-91090000D01*
X145779936Y-91325403D01*
X145779938Y-91325413D01*
X145841094Y-91553655D01*
X145841096Y-91553659D01*
X145841097Y-91553663D01*
X145877494Y-91631716D01*
X145940965Y-91767830D01*
X145940967Y-91767834D01*
X146076501Y-91961395D01*
X146076506Y-91961402D01*
X146243597Y-92128493D01*
X146243603Y-92128498D01*
X146429158Y-92258425D01*
X146472783Y-92313002D01*
X146479977Y-92382500D01*
X146448454Y-92444855D01*
X146429158Y-92461575D01*
X146243597Y-92591505D01*
X146076505Y-92758597D01*
X145940965Y-92952169D01*
X145940964Y-92952171D01*
X145841098Y-93166335D01*
X145841094Y-93166344D01*
X145779938Y-93394586D01*
X145779936Y-93394596D01*
X145759341Y-93629999D01*
X145759341Y-93630000D01*
X145779936Y-93865403D01*
X145779938Y-93865413D01*
X145841094Y-94093655D01*
X145841096Y-94093659D01*
X145841097Y-94093663D01*
X145931639Y-94287830D01*
X145940965Y-94307830D01*
X145940967Y-94307834D01*
X146076501Y-94501395D01*
X146076506Y-94501402D01*
X146243597Y-94668493D01*
X146243603Y-94668498D01*
X146429158Y-94798425D01*
X146472783Y-94853002D01*
X146479977Y-94922500D01*
X146448454Y-94984855D01*
X146429158Y-95001575D01*
X146243597Y-95131505D01*
X146076505Y-95298597D01*
X145940965Y-95492169D01*
X145940964Y-95492171D01*
X145841098Y-95706335D01*
X145841094Y-95706344D01*
X145779938Y-95934586D01*
X145779936Y-95934596D01*
X145759341Y-96169999D01*
X145759341Y-96170000D01*
X145779936Y-96405403D01*
X145779938Y-96405413D01*
X145841094Y-96633655D01*
X145841096Y-96633659D01*
X145841097Y-96633663D01*
X145903639Y-96767784D01*
X145940965Y-96847830D01*
X145940967Y-96847834D01*
X146076501Y-97041395D01*
X146076506Y-97041402D01*
X146243597Y-97208493D01*
X146243603Y-97208498D01*
X146429158Y-97338425D01*
X146472783Y-97393002D01*
X146479977Y-97462500D01*
X146448454Y-97524855D01*
X146429158Y-97541575D01*
X146243597Y-97671505D01*
X146076505Y-97838597D01*
X145940965Y-98032169D01*
X145940964Y-98032171D01*
X145841098Y-98246335D01*
X145841094Y-98246344D01*
X145779938Y-98474586D01*
X145779936Y-98474596D01*
X145759341Y-98709999D01*
X145759341Y-98710000D01*
X145779936Y-98945403D01*
X145779938Y-98945413D01*
X145841094Y-99173655D01*
X145841096Y-99173659D01*
X145841097Y-99173663D01*
X145890894Y-99280452D01*
X145940965Y-99387830D01*
X145940967Y-99387834D01*
X146076501Y-99581395D01*
X146076506Y-99581402D01*
X146243597Y-99748493D01*
X146243603Y-99748498D01*
X146429158Y-99878425D01*
X146472783Y-99933002D01*
X146479977Y-100002500D01*
X146448454Y-100064855D01*
X146429158Y-100081575D01*
X146243597Y-100211505D01*
X146076505Y-100378597D01*
X145940965Y-100572169D01*
X145940964Y-100572171D01*
X145841098Y-100786335D01*
X145841094Y-100786344D01*
X145779938Y-101014586D01*
X145779936Y-101014596D01*
X145759341Y-101249999D01*
X145759341Y-101250000D01*
X145779936Y-101485403D01*
X145779938Y-101485413D01*
X145841094Y-101713655D01*
X145841096Y-101713659D01*
X145841097Y-101713663D01*
X145898928Y-101837681D01*
X145940965Y-101927830D01*
X145940967Y-101927834D01*
X146076501Y-102121395D01*
X146076506Y-102121402D01*
X146243597Y-102288493D01*
X146243603Y-102288498D01*
X146429158Y-102418425D01*
X146472783Y-102473002D01*
X146479977Y-102542500D01*
X146448454Y-102604855D01*
X146429158Y-102621575D01*
X146243597Y-102751505D01*
X146076505Y-102918597D01*
X145940965Y-103112169D01*
X145940964Y-103112171D01*
X145841098Y-103326335D01*
X145841094Y-103326344D01*
X145779938Y-103554586D01*
X145779936Y-103554596D01*
X145759341Y-103789999D01*
X145759341Y-103790000D01*
X145779936Y-104025403D01*
X145779938Y-104025413D01*
X145841094Y-104253655D01*
X145841096Y-104253659D01*
X145841097Y-104253663D01*
X145896693Y-104372888D01*
X145940965Y-104467830D01*
X145940967Y-104467834D01*
X146076501Y-104661395D01*
X146076506Y-104661402D01*
X146243597Y-104828493D01*
X146243603Y-104828498D01*
X146429158Y-104958425D01*
X146472783Y-105013002D01*
X146479977Y-105082500D01*
X146448454Y-105144855D01*
X146429158Y-105161575D01*
X146243597Y-105291505D01*
X146076505Y-105458597D01*
X145940965Y-105652169D01*
X145940964Y-105652171D01*
X145841098Y-105866335D01*
X145841094Y-105866344D01*
X145779938Y-106094586D01*
X145779936Y-106094596D01*
X145759341Y-106329999D01*
X145759341Y-106330000D01*
X145779936Y-106565403D01*
X145779938Y-106565413D01*
X145841094Y-106793655D01*
X145841096Y-106793659D01*
X145841097Y-106793663D01*
X145931639Y-106987830D01*
X145940965Y-107007830D01*
X145940967Y-107007834D01*
X146076501Y-107201395D01*
X146076506Y-107201402D01*
X146243597Y-107368493D01*
X146243603Y-107368498D01*
X146429158Y-107498425D01*
X146472783Y-107553002D01*
X146479977Y-107622500D01*
X146448454Y-107684855D01*
X146429158Y-107701575D01*
X146243597Y-107831505D01*
X146076505Y-107998597D01*
X145940965Y-108192169D01*
X145940964Y-108192171D01*
X145841098Y-108406335D01*
X145841094Y-108406344D01*
X145779938Y-108634586D01*
X145779936Y-108634596D01*
X145759341Y-108869999D01*
X145759341Y-108870000D01*
X145100500Y-108870000D01*
X145100500Y-86724500D01*
X145120185Y-86657461D01*
X145172989Y-86611706D01*
X145224500Y-86600500D01*
X148775240Y-86600500D01*
X148775383Y-86600528D01*
X148775384Y-86600524D01*
X148799997Y-86600539D01*
X148800000Y-86600541D01*
X148800383Y-86600383D01*
X148800500Y-86600099D01*
X148800541Y-86600000D01*
X148800540Y-86599997D01*
X148800583Y-86575889D01*
X148800500Y-86575467D01*
X148800500Y-83500743D01*
X150689500Y-83500743D01*
X150704925Y-83652439D01*
X150765837Y-83846579D01*
X150765844Y-83846594D01*
X150864589Y-84024499D01*
X150864592Y-84024504D01*
X150997132Y-84178893D01*
X150997134Y-84178895D01*
X151158037Y-84303445D01*
X151158038Y-84303445D01*
X151158042Y-84303448D01*
X151340729Y-84393060D01*
X151537715Y-84444063D01*
X151740936Y-84454369D01*
X151942071Y-84423556D01*
X152132887Y-84352886D01*
X152305571Y-84245252D01*
X152453053Y-84105059D01*
X152569295Y-83938049D01*
X152649540Y-83751058D01*
X152690500Y-83551741D01*
X152690500Y-83030590D01*
X152710185Y-82963552D01*
X152762989Y-82917797D01*
X152832147Y-82907853D01*
X152861953Y-82916030D01*
X152969764Y-82960687D01*
X153082280Y-82975500D01*
X153082287Y-82975500D01*
X153157713Y-82975500D01*
X153157720Y-82975500D01*
X153270236Y-82960687D01*
X153410233Y-82902698D01*
X153530451Y-82810451D01*
X153622698Y-82690233D01*
X153680687Y-82550236D01*
X153700466Y-82400000D01*
X158319534Y-82400000D01*
X158339312Y-82550234D01*
X158339313Y-82550236D01*
X158397302Y-82690233D01*
X158489549Y-82810451D01*
X158609767Y-82902698D01*
X158749764Y-82960687D01*
X158862280Y-82975500D01*
X158862287Y-82975500D01*
X158937713Y-82975500D01*
X158937720Y-82975500D01*
X159050236Y-82960687D01*
X159158046Y-82916030D01*
X159227517Y-82908561D01*
X159289996Y-82939836D01*
X159325648Y-82999925D01*
X159329500Y-83030591D01*
X159329500Y-83500743D01*
X159344925Y-83652439D01*
X159405837Y-83846579D01*
X159405844Y-83846594D01*
X159504589Y-84024499D01*
X159504592Y-84024504D01*
X159637132Y-84178893D01*
X159637134Y-84178895D01*
X159798037Y-84303445D01*
X159798038Y-84303445D01*
X159798042Y-84303448D01*
X159980729Y-84393060D01*
X160177715Y-84444063D01*
X160380936Y-84454369D01*
X160482266Y-84438845D01*
X160551510Y-84448150D01*
X160604734Y-84493417D01*
X160624362Y-84548453D01*
X160634326Y-84643256D01*
X160634327Y-84643259D01*
X160692818Y-84823277D01*
X160692821Y-84823284D01*
X160787467Y-84987216D01*
X160914129Y-85127888D01*
X161067265Y-85239148D01*
X161067270Y-85239151D01*
X161240192Y-85316142D01*
X161240197Y-85316144D01*
X161425354Y-85355500D01*
X161425355Y-85355500D01*
X161614644Y-85355500D01*
X161614646Y-85355500D01*
X161799803Y-85316144D01*
X161972730Y-85239151D01*
X162125871Y-85127888D01*
X162252533Y-84987216D01*
X162347179Y-84823284D01*
X162405674Y-84643256D01*
X162425460Y-84455000D01*
X162405674Y-84266744D01*
X162347179Y-84086716D01*
X162252533Y-83922784D01*
X162125871Y-83782112D01*
X162083129Y-83751058D01*
X161972734Y-83670851D01*
X161972729Y-83670848D01*
X161799807Y-83593857D01*
X161799802Y-83593855D01*
X161654001Y-83562865D01*
X161614646Y-83554500D01*
X161454500Y-83554500D01*
X161387461Y-83534815D01*
X161341706Y-83482011D01*
X161330500Y-83430500D01*
X161330500Y-82299256D01*
X161315074Y-82147560D01*
X161254162Y-81953420D01*
X161254160Y-81953416D01*
X161254159Y-81953412D01*
X161155409Y-81775498D01*
X161155408Y-81775497D01*
X161155407Y-81775495D01*
X161022867Y-81621106D01*
X161022865Y-81621104D01*
X160861962Y-81496554D01*
X160861959Y-81496553D01*
X160861958Y-81496552D01*
X160679271Y-81406940D01*
X160482285Y-81355937D01*
X160482287Y-81355937D01*
X160346804Y-81349066D01*
X160279064Y-81345631D01*
X160279063Y-81345631D01*
X160279061Y-81345631D01*
X160077936Y-81376442D01*
X160077924Y-81376445D01*
X159887118Y-81447111D01*
X159887111Y-81447115D01*
X159714432Y-81554745D01*
X159714427Y-81554749D01*
X159566949Y-81694938D01*
X159566948Y-81694940D01*
X159450704Y-81861952D01*
X159437667Y-81892331D01*
X159393139Y-81946174D01*
X159326570Y-81967396D01*
X159259096Y-81949259D01*
X159248231Y-81941805D01*
X159190233Y-81897302D01*
X159190230Y-81897300D01*
X159099731Y-81859814D01*
X159050236Y-81839313D01*
X159036171Y-81837461D01*
X158937727Y-81824500D01*
X158937720Y-81824500D01*
X158862280Y-81824500D01*
X158862272Y-81824500D01*
X158749764Y-81839313D01*
X158749763Y-81839313D01*
X158609770Y-81897300D01*
X158609767Y-81897301D01*
X158609767Y-81897302D01*
X158489549Y-81989549D01*
X158429892Y-82067296D01*
X158397300Y-82109770D01*
X158339313Y-82249763D01*
X158339312Y-82249765D01*
X158319534Y-82399999D01*
X158319534Y-82400000D01*
X153700466Y-82400000D01*
X153680687Y-82249764D01*
X153622698Y-82109767D01*
X153530451Y-81989549D01*
X153410233Y-81897302D01*
X153410229Y-81897300D01*
X153324891Y-81861952D01*
X153270236Y-81839313D01*
X153256171Y-81837461D01*
X153157727Y-81824500D01*
X153157720Y-81824500D01*
X153082280Y-81824500D01*
X153082272Y-81824500D01*
X152969764Y-81839313D01*
X152969763Y-81839313D01*
X152829769Y-81897300D01*
X152829766Y-81897302D01*
X152770823Y-81942531D01*
X152705654Y-81967725D01*
X152637209Y-81953686D01*
X152587220Y-81904872D01*
X152586918Y-81904333D01*
X152515409Y-81775498D01*
X152515407Y-81775495D01*
X152382867Y-81621106D01*
X152382865Y-81621104D01*
X152221962Y-81496554D01*
X152221959Y-81496553D01*
X152221958Y-81496552D01*
X152039271Y-81406940D01*
X151842285Y-81355937D01*
X151842287Y-81355937D01*
X151706804Y-81349066D01*
X151639064Y-81345631D01*
X151639063Y-81345631D01*
X151639061Y-81345631D01*
X151437936Y-81376442D01*
X151437924Y-81376445D01*
X151247118Y-81447111D01*
X151247111Y-81447115D01*
X151074432Y-81554745D01*
X151074427Y-81554749D01*
X150926949Y-81694938D01*
X150926948Y-81694940D01*
X150810705Y-81861949D01*
X150730459Y-82048943D01*
X150689500Y-82248258D01*
X150689500Y-83500743D01*
X148800500Y-83500743D01*
X148800500Y-79170743D01*
X150689500Y-79170743D01*
X150704925Y-79322439D01*
X150765837Y-79516579D01*
X150765844Y-79516594D01*
X150864589Y-79694499D01*
X150864592Y-79694504D01*
X150997132Y-79848893D01*
X150997134Y-79848895D01*
X151158037Y-79973445D01*
X151158038Y-79973445D01*
X151158042Y-79973448D01*
X151340729Y-80063060D01*
X151537715Y-80114063D01*
X151740936Y-80124369D01*
X151942071Y-80093556D01*
X152132887Y-80022886D01*
X152305571Y-79915252D01*
X152453053Y-79775059D01*
X152569295Y-79608049D01*
X152649540Y-79421058D01*
X152690500Y-79221741D01*
X152690500Y-79170743D01*
X159329500Y-79170743D01*
X159344925Y-79322439D01*
X159405837Y-79516579D01*
X159405844Y-79516594D01*
X159504589Y-79694499D01*
X159504592Y-79694504D01*
X159637132Y-79848893D01*
X159637134Y-79848895D01*
X159798037Y-79973445D01*
X159798038Y-79973445D01*
X159798042Y-79973448D01*
X159980729Y-80063060D01*
X160177715Y-80114063D01*
X160380936Y-80124369D01*
X160582071Y-80093556D01*
X160772887Y-80022886D01*
X160945571Y-79915252D01*
X161093053Y-79775059D01*
X161209295Y-79608049D01*
X161289540Y-79421058D01*
X161330500Y-79221741D01*
X161330500Y-78269258D01*
X161315074Y-78117562D01*
X161315074Y-78117560D01*
X161254162Y-77923420D01*
X161254160Y-77923416D01*
X161254159Y-77923412D01*
X161155409Y-77745498D01*
X161155408Y-77745497D01*
X161155407Y-77745495D01*
X161022867Y-77591106D01*
X161022865Y-77591104D01*
X160861962Y-77466554D01*
X160861959Y-77466553D01*
X160861958Y-77466552D01*
X160679271Y-77376940D01*
X160482285Y-77325937D01*
X160482287Y-77325937D01*
X160346804Y-77319066D01*
X160279064Y-77315631D01*
X160279063Y-77315631D01*
X160279061Y-77315631D01*
X160077936Y-77346442D01*
X160077924Y-77346445D01*
X159887118Y-77417111D01*
X159887111Y-77417115D01*
X159714432Y-77524745D01*
X159714427Y-77524749D01*
X159566949Y-77664938D01*
X159566948Y-77664940D01*
X159450705Y-77831949D01*
X159370459Y-78018943D01*
X159329500Y-78218258D01*
X159329500Y-79170743D01*
X152690500Y-79170743D01*
X152690500Y-78269258D01*
X152675074Y-78117562D01*
X152675074Y-78117560D01*
X152614162Y-77923420D01*
X152614160Y-77923416D01*
X152614159Y-77923412D01*
X152515409Y-77745498D01*
X152515408Y-77745497D01*
X152515407Y-77745495D01*
X152382867Y-77591106D01*
X152382865Y-77591104D01*
X152221962Y-77466554D01*
X152221959Y-77466553D01*
X152221958Y-77466552D01*
X152039271Y-77376940D01*
X151842285Y-77325937D01*
X151842287Y-77325937D01*
X151706804Y-77319066D01*
X151639064Y-77315631D01*
X151639063Y-77315631D01*
X151639061Y-77315631D01*
X151437936Y-77346442D01*
X151437924Y-77346445D01*
X151247118Y-77417111D01*
X151247111Y-77417115D01*
X151074432Y-77524745D01*
X151074427Y-77524749D01*
X150926949Y-77664938D01*
X150926948Y-77664940D01*
X150810705Y-77831949D01*
X150730459Y-78018943D01*
X150689500Y-78218258D01*
X150689500Y-79170743D01*
X148800500Y-79170743D01*
X148800500Y-77124500D01*
X148820185Y-77057461D01*
X148872989Y-77011706D01*
X148924500Y-77000500D01*
X163075500Y-77000500D01*
X163142539Y-77020185D01*
G37*
%TD.AperFunction*%
%TD*%
M02*
