%TF.GenerationSoftware,KiCad,Pcbnew,7.0.2*%
%TF.CreationDate,2023-06-09T21:10:51-07:00*%
%TF.ProjectId,iCEGenius,69434547-656e-4697-9573-2e6b69636164,rev?*%
%TF.SameCoordinates,Original*%
%TF.FileFunction,Other,Comment*%
%FSLAX46Y46*%
G04 Gerber Fmt 4.6, Leading zero omitted, Abs format (unit mm)*
G04 Created by KiCad (PCBNEW 7.0.2) date 2023-06-09 21:10:51*
%MOMM*%
%LPD*%
G01*
G04 APERTURE LIST*
%ADD10C,0.150000*%
G04 APERTURE END LIST*
D10*
X151380953Y-124507857D02*
X151428572Y-124460238D01*
X151428572Y-124460238D02*
X151523810Y-124412619D01*
X151523810Y-124412619D02*
X151761905Y-124412619D01*
X151761905Y-124412619D02*
X151857143Y-124460238D01*
X151857143Y-124460238D02*
X151904762Y-124507857D01*
X151904762Y-124507857D02*
X151952381Y-124603095D01*
X151952381Y-124603095D02*
X151952381Y-124698333D01*
X151952381Y-124698333D02*
X151904762Y-124841190D01*
X151904762Y-124841190D02*
X151333334Y-125412619D01*
X151333334Y-125412619D02*
X151952381Y-125412619D01*
X152904762Y-125412619D02*
X152333334Y-125412619D01*
X152619048Y-125412619D02*
X152619048Y-124412619D01*
X152619048Y-124412619D02*
X152523810Y-124555476D01*
X152523810Y-124555476D02*
X152428572Y-124650714D01*
X152428572Y-124650714D02*
X152333334Y-124698333D01*
X153333334Y-125317380D02*
X153380953Y-125365000D01*
X153380953Y-125365000D02*
X153333334Y-125412619D01*
X153333334Y-125412619D02*
X153285715Y-125365000D01*
X153285715Y-125365000D02*
X153333334Y-125317380D01*
X153333334Y-125317380D02*
X153333334Y-125412619D01*
X153952381Y-124841190D02*
X153857143Y-124793571D01*
X153857143Y-124793571D02*
X153809524Y-124745952D01*
X153809524Y-124745952D02*
X153761905Y-124650714D01*
X153761905Y-124650714D02*
X153761905Y-124603095D01*
X153761905Y-124603095D02*
X153809524Y-124507857D01*
X153809524Y-124507857D02*
X153857143Y-124460238D01*
X153857143Y-124460238D02*
X153952381Y-124412619D01*
X153952381Y-124412619D02*
X154142857Y-124412619D01*
X154142857Y-124412619D02*
X154238095Y-124460238D01*
X154238095Y-124460238D02*
X154285714Y-124507857D01*
X154285714Y-124507857D02*
X154333333Y-124603095D01*
X154333333Y-124603095D02*
X154333333Y-124650714D01*
X154333333Y-124650714D02*
X154285714Y-124745952D01*
X154285714Y-124745952D02*
X154238095Y-124793571D01*
X154238095Y-124793571D02*
X154142857Y-124841190D01*
X154142857Y-124841190D02*
X153952381Y-124841190D01*
X153952381Y-124841190D02*
X153857143Y-124888809D01*
X153857143Y-124888809D02*
X153809524Y-124936428D01*
X153809524Y-124936428D02*
X153761905Y-125031666D01*
X153761905Y-125031666D02*
X153761905Y-125222142D01*
X153761905Y-125222142D02*
X153809524Y-125317380D01*
X153809524Y-125317380D02*
X153857143Y-125365000D01*
X153857143Y-125365000D02*
X153952381Y-125412619D01*
X153952381Y-125412619D02*
X154142857Y-125412619D01*
X154142857Y-125412619D02*
X154238095Y-125365000D01*
X154238095Y-125365000D02*
X154285714Y-125317380D01*
X154285714Y-125317380D02*
X154333333Y-125222142D01*
X154333333Y-125222142D02*
X154333333Y-125031666D01*
X154333333Y-125031666D02*
X154285714Y-124936428D01*
X154285714Y-124936428D02*
X154238095Y-124888809D01*
X154238095Y-124888809D02*
X154142857Y-124841190D01*
X154952381Y-124412619D02*
X155047619Y-124412619D01*
X155047619Y-124412619D02*
X155142857Y-124460238D01*
X155142857Y-124460238D02*
X155190476Y-124507857D01*
X155190476Y-124507857D02*
X155238095Y-124603095D01*
X155238095Y-124603095D02*
X155285714Y-124793571D01*
X155285714Y-124793571D02*
X155285714Y-125031666D01*
X155285714Y-125031666D02*
X155238095Y-125222142D01*
X155238095Y-125222142D02*
X155190476Y-125317380D01*
X155190476Y-125317380D02*
X155142857Y-125365000D01*
X155142857Y-125365000D02*
X155047619Y-125412619D01*
X155047619Y-125412619D02*
X154952381Y-125412619D01*
X154952381Y-125412619D02*
X154857143Y-125365000D01*
X154857143Y-125365000D02*
X154809524Y-125317380D01*
X154809524Y-125317380D02*
X154761905Y-125222142D01*
X154761905Y-125222142D02*
X154714286Y-125031666D01*
X154714286Y-125031666D02*
X154714286Y-124793571D01*
X154714286Y-124793571D02*
X154761905Y-124603095D01*
X154761905Y-124603095D02*
X154809524Y-124507857D01*
X154809524Y-124507857D02*
X154857143Y-124460238D01*
X154857143Y-124460238D02*
X154952381Y-124412619D01*
X155904762Y-124412619D02*
X156000000Y-124412619D01*
X156000000Y-124412619D02*
X156095238Y-124460238D01*
X156095238Y-124460238D02*
X156142857Y-124507857D01*
X156142857Y-124507857D02*
X156190476Y-124603095D01*
X156190476Y-124603095D02*
X156238095Y-124793571D01*
X156238095Y-124793571D02*
X156238095Y-125031666D01*
X156238095Y-125031666D02*
X156190476Y-125222142D01*
X156190476Y-125222142D02*
X156142857Y-125317380D01*
X156142857Y-125317380D02*
X156095238Y-125365000D01*
X156095238Y-125365000D02*
X156000000Y-125412619D01*
X156000000Y-125412619D02*
X155904762Y-125412619D01*
X155904762Y-125412619D02*
X155809524Y-125365000D01*
X155809524Y-125365000D02*
X155761905Y-125317380D01*
X155761905Y-125317380D02*
X155714286Y-125222142D01*
X155714286Y-125222142D02*
X155666667Y-125031666D01*
X155666667Y-125031666D02*
X155666667Y-124793571D01*
X155666667Y-124793571D02*
X155714286Y-124603095D01*
X155714286Y-124603095D02*
X155761905Y-124507857D01*
X155761905Y-124507857D02*
X155809524Y-124460238D01*
X155809524Y-124460238D02*
X155904762Y-124412619D01*
X156857143Y-124412619D02*
X156952381Y-124412619D01*
X156952381Y-124412619D02*
X157047619Y-124460238D01*
X157047619Y-124460238D02*
X157095238Y-124507857D01*
X157095238Y-124507857D02*
X157142857Y-124603095D01*
X157142857Y-124603095D02*
X157190476Y-124793571D01*
X157190476Y-124793571D02*
X157190476Y-125031666D01*
X157190476Y-125031666D02*
X157142857Y-125222142D01*
X157142857Y-125222142D02*
X157095238Y-125317380D01*
X157095238Y-125317380D02*
X157047619Y-125365000D01*
X157047619Y-125365000D02*
X156952381Y-125412619D01*
X156952381Y-125412619D02*
X156857143Y-125412619D01*
X156857143Y-125412619D02*
X156761905Y-125365000D01*
X156761905Y-125365000D02*
X156714286Y-125317380D01*
X156714286Y-125317380D02*
X156666667Y-125222142D01*
X156666667Y-125222142D02*
X156619048Y-125031666D01*
X156619048Y-125031666D02*
X156619048Y-124793571D01*
X156619048Y-124793571D02*
X156666667Y-124603095D01*
X156666667Y-124603095D02*
X156714286Y-124507857D01*
X156714286Y-124507857D02*
X156761905Y-124460238D01*
X156761905Y-124460238D02*
X156857143Y-124412619D01*
X158380953Y-125412619D02*
X158380953Y-124745952D01*
X158380953Y-124841190D02*
X158428572Y-124793571D01*
X158428572Y-124793571D02*
X158523810Y-124745952D01*
X158523810Y-124745952D02*
X158666667Y-124745952D01*
X158666667Y-124745952D02*
X158761905Y-124793571D01*
X158761905Y-124793571D02*
X158809524Y-124888809D01*
X158809524Y-124888809D02*
X158809524Y-125412619D01*
X158809524Y-124888809D02*
X158857143Y-124793571D01*
X158857143Y-124793571D02*
X158952381Y-124745952D01*
X158952381Y-124745952D02*
X159095238Y-124745952D01*
X159095238Y-124745952D02*
X159190477Y-124793571D01*
X159190477Y-124793571D02*
X159238096Y-124888809D01*
X159238096Y-124888809D02*
X159238096Y-125412619D01*
X159714286Y-125412619D02*
X159714286Y-124745952D01*
X159714286Y-124841190D02*
X159761905Y-124793571D01*
X159761905Y-124793571D02*
X159857143Y-124745952D01*
X159857143Y-124745952D02*
X160000000Y-124745952D01*
X160000000Y-124745952D02*
X160095238Y-124793571D01*
X160095238Y-124793571D02*
X160142857Y-124888809D01*
X160142857Y-124888809D02*
X160142857Y-125412619D01*
X160142857Y-124888809D02*
X160190476Y-124793571D01*
X160190476Y-124793571D02*
X160285714Y-124745952D01*
X160285714Y-124745952D02*
X160428571Y-124745952D01*
X160428571Y-124745952D02*
X160523810Y-124793571D01*
X160523810Y-124793571D02*
X160571429Y-124888809D01*
X160571429Y-124888809D02*
X160571429Y-125412619D01*
X166900000Y-122100000D02*
X166900000Y-126686420D01*
X145100000Y-122100000D02*
X145100000Y-126686420D01*
X166900000Y-126100000D02*
X145100000Y-126100000D01*
X166900000Y-126100000D02*
X145100000Y-126100000D01*
X166900000Y-126100000D02*
X165773496Y-126686421D01*
X166900000Y-126100000D02*
X165773496Y-125513579D01*
X145100000Y-126100000D02*
X146226504Y-125513579D01*
X145100000Y-126100000D02*
X146226504Y-126686421D01*
X171145952Y-103442856D02*
X171812619Y-103442856D01*
X170765000Y-103680951D02*
X171479285Y-103919046D01*
X171479285Y-103919046D02*
X171479285Y-103299999D01*
X171145952Y-102490475D02*
X171812619Y-102490475D01*
X170765000Y-102728570D02*
X171479285Y-102966665D01*
X171479285Y-102966665D02*
X171479285Y-102347618D01*
X171717380Y-101966665D02*
X171765000Y-101919046D01*
X171765000Y-101919046D02*
X171812619Y-101966665D01*
X171812619Y-101966665D02*
X171765000Y-102014284D01*
X171765000Y-102014284D02*
X171717380Y-101966665D01*
X171717380Y-101966665D02*
X171812619Y-101966665D01*
X170812619Y-101061904D02*
X170812619Y-101252380D01*
X170812619Y-101252380D02*
X170860238Y-101347618D01*
X170860238Y-101347618D02*
X170907857Y-101395237D01*
X170907857Y-101395237D02*
X171050714Y-101490475D01*
X171050714Y-101490475D02*
X171241190Y-101538094D01*
X171241190Y-101538094D02*
X171622142Y-101538094D01*
X171622142Y-101538094D02*
X171717380Y-101490475D01*
X171717380Y-101490475D02*
X171765000Y-101442856D01*
X171765000Y-101442856D02*
X171812619Y-101347618D01*
X171812619Y-101347618D02*
X171812619Y-101157142D01*
X171812619Y-101157142D02*
X171765000Y-101061904D01*
X171765000Y-101061904D02*
X171717380Y-101014285D01*
X171717380Y-101014285D02*
X171622142Y-100966666D01*
X171622142Y-100966666D02*
X171384047Y-100966666D01*
X171384047Y-100966666D02*
X171288809Y-101014285D01*
X171288809Y-101014285D02*
X171241190Y-101061904D01*
X171241190Y-101061904D02*
X171193571Y-101157142D01*
X171193571Y-101157142D02*
X171193571Y-101347618D01*
X171193571Y-101347618D02*
X171241190Y-101442856D01*
X171241190Y-101442856D02*
X171288809Y-101490475D01*
X171288809Y-101490475D02*
X171384047Y-101538094D01*
X170812619Y-100347618D02*
X170812619Y-100252380D01*
X170812619Y-100252380D02*
X170860238Y-100157142D01*
X170860238Y-100157142D02*
X170907857Y-100109523D01*
X170907857Y-100109523D02*
X171003095Y-100061904D01*
X171003095Y-100061904D02*
X171193571Y-100014285D01*
X171193571Y-100014285D02*
X171431666Y-100014285D01*
X171431666Y-100014285D02*
X171622142Y-100061904D01*
X171622142Y-100061904D02*
X171717380Y-100109523D01*
X171717380Y-100109523D02*
X171765000Y-100157142D01*
X171765000Y-100157142D02*
X171812619Y-100252380D01*
X171812619Y-100252380D02*
X171812619Y-100347618D01*
X171812619Y-100347618D02*
X171765000Y-100442856D01*
X171765000Y-100442856D02*
X171717380Y-100490475D01*
X171717380Y-100490475D02*
X171622142Y-100538094D01*
X171622142Y-100538094D02*
X171431666Y-100585713D01*
X171431666Y-100585713D02*
X171193571Y-100585713D01*
X171193571Y-100585713D02*
X171003095Y-100538094D01*
X171003095Y-100538094D02*
X170907857Y-100490475D01*
X170907857Y-100490475D02*
X170860238Y-100442856D01*
X170860238Y-100442856D02*
X170812619Y-100347618D01*
X170812619Y-99395237D02*
X170812619Y-99299999D01*
X170812619Y-99299999D02*
X170860238Y-99204761D01*
X170860238Y-99204761D02*
X170907857Y-99157142D01*
X170907857Y-99157142D02*
X171003095Y-99109523D01*
X171003095Y-99109523D02*
X171193571Y-99061904D01*
X171193571Y-99061904D02*
X171431666Y-99061904D01*
X171431666Y-99061904D02*
X171622142Y-99109523D01*
X171622142Y-99109523D02*
X171717380Y-99157142D01*
X171717380Y-99157142D02*
X171765000Y-99204761D01*
X171765000Y-99204761D02*
X171812619Y-99299999D01*
X171812619Y-99299999D02*
X171812619Y-99395237D01*
X171812619Y-99395237D02*
X171765000Y-99490475D01*
X171765000Y-99490475D02*
X171717380Y-99538094D01*
X171717380Y-99538094D02*
X171622142Y-99585713D01*
X171622142Y-99585713D02*
X171431666Y-99633332D01*
X171431666Y-99633332D02*
X171193571Y-99633332D01*
X171193571Y-99633332D02*
X171003095Y-99585713D01*
X171003095Y-99585713D02*
X170907857Y-99538094D01*
X170907857Y-99538094D02*
X170860238Y-99490475D01*
X170860238Y-99490475D02*
X170812619Y-99395237D01*
X170812619Y-98442856D02*
X170812619Y-98347618D01*
X170812619Y-98347618D02*
X170860238Y-98252380D01*
X170860238Y-98252380D02*
X170907857Y-98204761D01*
X170907857Y-98204761D02*
X171003095Y-98157142D01*
X171003095Y-98157142D02*
X171193571Y-98109523D01*
X171193571Y-98109523D02*
X171431666Y-98109523D01*
X171431666Y-98109523D02*
X171622142Y-98157142D01*
X171622142Y-98157142D02*
X171717380Y-98204761D01*
X171717380Y-98204761D02*
X171765000Y-98252380D01*
X171765000Y-98252380D02*
X171812619Y-98347618D01*
X171812619Y-98347618D02*
X171812619Y-98442856D01*
X171812619Y-98442856D02*
X171765000Y-98538094D01*
X171765000Y-98538094D02*
X171717380Y-98585713D01*
X171717380Y-98585713D02*
X171622142Y-98633332D01*
X171622142Y-98633332D02*
X171431666Y-98680951D01*
X171431666Y-98680951D02*
X171193571Y-98680951D01*
X171193571Y-98680951D02*
X171003095Y-98633332D01*
X171003095Y-98633332D02*
X170907857Y-98585713D01*
X170907857Y-98585713D02*
X170860238Y-98538094D01*
X170860238Y-98538094D02*
X170812619Y-98442856D01*
X171812619Y-96919046D02*
X171145952Y-96919046D01*
X171241190Y-96919046D02*
X171193571Y-96871427D01*
X171193571Y-96871427D02*
X171145952Y-96776189D01*
X171145952Y-96776189D02*
X171145952Y-96633332D01*
X171145952Y-96633332D02*
X171193571Y-96538094D01*
X171193571Y-96538094D02*
X171288809Y-96490475D01*
X171288809Y-96490475D02*
X171812619Y-96490475D01*
X171288809Y-96490475D02*
X171193571Y-96442856D01*
X171193571Y-96442856D02*
X171145952Y-96347618D01*
X171145952Y-96347618D02*
X171145952Y-96204761D01*
X171145952Y-96204761D02*
X171193571Y-96109522D01*
X171193571Y-96109522D02*
X171288809Y-96061903D01*
X171288809Y-96061903D02*
X171812619Y-96061903D01*
X171812619Y-95585713D02*
X171145952Y-95585713D01*
X171241190Y-95585713D02*
X171193571Y-95538094D01*
X171193571Y-95538094D02*
X171145952Y-95442856D01*
X171145952Y-95442856D02*
X171145952Y-95299999D01*
X171145952Y-95299999D02*
X171193571Y-95204761D01*
X171193571Y-95204761D02*
X171288809Y-95157142D01*
X171288809Y-95157142D02*
X171812619Y-95157142D01*
X171288809Y-95157142D02*
X171193571Y-95109523D01*
X171193571Y-95109523D02*
X171145952Y-95014285D01*
X171145952Y-95014285D02*
X171145952Y-94871428D01*
X171145952Y-94871428D02*
X171193571Y-94776189D01*
X171193571Y-94776189D02*
X171288809Y-94728570D01*
X171288809Y-94728570D02*
X171812619Y-94728570D01*
X167400000Y-121600000D02*
X173086420Y-121600000D01*
X167400000Y-77000000D02*
X173086420Y-77000000D01*
X172500000Y-121600000D02*
X172500000Y-77000000D01*
X172500000Y-121600000D02*
X172500000Y-77000000D01*
X172500000Y-121600000D02*
X171913579Y-120473496D01*
X172500000Y-121600000D02*
X173086421Y-120473496D01*
X172500000Y-77000000D02*
X173086421Y-78126504D01*
X172500000Y-77000000D02*
X171913579Y-78126504D01*
M02*
