%TF.GenerationSoftware,KiCad,Pcbnew,7.0.6*%
%TF.CreationDate,2023-07-23T20:03:58-07:00*%
%TF.ProjectId,iCEGenius,69434547-656e-4697-9573-2e6b69636164,rev?*%
%TF.SameCoordinates,Original*%
%TF.FileFunction,Legend,Top*%
%TF.FilePolarity,Positive*%
%FSLAX46Y46*%
G04 Gerber Fmt 4.6, Leading zero omitted, Abs format (unit mm)*
G04 Created by KiCad (PCBNEW 7.0.6) date 2023-07-23 20:03:58*
%MOMM*%
%LPD*%
G01*
G04 APERTURE LIST*
G04 Aperture macros list*
%AMRoundRect*
0 Rectangle with rounded corners*
0 $1 Rounding radius*
0 $2 $3 $4 $5 $6 $7 $8 $9 X,Y pos of 4 corners*
0 Add a 4 corners polygon primitive as box body*
4,1,4,$2,$3,$4,$5,$6,$7,$8,$9,$2,$3,0*
0 Add four circle primitives for the rounded corners*
1,1,$1+$1,$2,$3*
1,1,$1+$1,$4,$5*
1,1,$1+$1,$6,$7*
1,1,$1+$1,$8,$9*
0 Add four rect primitives between the rounded corners*
20,1,$1+$1,$2,$3,$4,$5,0*
20,1,$1+$1,$4,$5,$6,$7,0*
20,1,$1+$1,$6,$7,$8,$9,0*
20,1,$1+$1,$8,$9,$2,$3,0*%
%AMRotRect*
0 Rectangle, with rotation*
0 The origin of the aperture is its center*
0 $1 length*
0 $2 width*
0 $3 Rotation angle, in degrees counterclockwise*
0 Add horizontal line*
21,1,$1,$2,0,0,$3*%
G04 Aperture macros list end*
%ADD10C,0.150000*%
%ADD11C,0.254000*%
%ADD12C,0.120000*%
%ADD13C,0.100000*%
%ADD14C,0.325000*%
%ADD15C,0.200000*%
%ADD16R,1.700000X1.700000*%
%ADD17O,1.700000X1.700000*%
%ADD18RoundRect,0.135000X-0.185000X0.135000X-0.185000X-0.135000X0.185000X-0.135000X0.185000X0.135000X0*%
%ADD19RoundRect,0.218750X-0.256250X0.218750X-0.256250X-0.218750X0.256250X-0.218750X0.256250X0.218750X0*%
%ADD20RoundRect,0.140000X-0.021213X0.219203X-0.219203X0.021213X0.021213X-0.219203X0.219203X-0.021213X0*%
%ADD21RoundRect,0.150000X-0.150000X-0.200000X0.150000X-0.200000X0.150000X0.200000X-0.150000X0.200000X0*%
%ADD22RoundRect,0.062500X0.220971X0.309359X-0.309359X-0.220971X-0.220971X-0.309359X0.309359X0.220971X0*%
%ADD23RoundRect,0.062500X-0.220971X0.309359X-0.309359X0.220971X0.220971X-0.309359X0.309359X-0.220971X0*%
%ADD24RotRect,3.100000X3.100000X225.000000*%
%ADD25R,1.100000X1.300000*%
%ADD26RotRect,0.350000X0.850000X135.000000*%
%ADD27RotRect,0.350000X0.850000X45.000000*%
%ADD28RotRect,3.350000X3.350000X45.000000*%
%ADD29RoundRect,0.100000X0.021213X0.162635X-0.162635X-0.021213X-0.021213X-0.162635X0.162635X0.021213X0*%
%ADD30RoundRect,0.200000X-0.250000X-0.200000X0.250000X-0.200000X0.250000X0.200000X-0.250000X0.200000X0*%
%ADD31R,0.650000X0.400000*%
%ADD32RoundRect,0.135000X0.135000X0.185000X-0.135000X0.185000X-0.135000X-0.185000X0.135000X-0.185000X0*%
%ADD33RoundRect,0.135000X-0.135000X-0.185000X0.135000X-0.185000X0.135000X0.185000X-0.135000X0.185000X0*%
%ADD34R,1.525000X0.700000*%
%ADD35RoundRect,0.100000X-0.021213X-0.162635X0.162635X0.021213X0.021213X0.162635X-0.162635X-0.021213X0*%
%ADD36RoundRect,0.140000X-0.219203X-0.021213X-0.021213X-0.219203X0.219203X0.021213X0.021213X0.219203X0*%
%ADD37RoundRect,0.100000X-0.100000X0.130000X-0.100000X-0.130000X0.100000X-0.130000X0.100000X0.130000X0*%
%ADD38RoundRect,0.100000X-0.162635X0.021213X0.021213X-0.162635X0.162635X-0.021213X-0.021213X0.162635X0*%
%ADD39R,0.600000X0.900000*%
%ADD40RoundRect,0.135000X0.185000X-0.135000X0.185000X0.135000X-0.185000X0.135000X-0.185000X-0.135000X0*%
%ADD41RoundRect,0.150000X0.150000X0.200000X-0.150000X0.200000X-0.150000X-0.200000X0.150000X-0.200000X0*%
%ADD42RoundRect,0.140000X0.021213X-0.219203X0.219203X-0.021213X-0.021213X0.219203X-0.219203X0.021213X0*%
%ADD43RoundRect,0.140000X0.140000X0.170000X-0.140000X0.170000X-0.140000X-0.170000X0.140000X-0.170000X0*%
%ADD44RoundRect,0.100000X0.162635X-0.021213X-0.021213X0.162635X-0.162635X0.021213X0.021213X-0.162635X0*%
%ADD45RoundRect,0.100000X0.100000X-0.130000X0.100000X0.130000X-0.100000X0.130000X-0.100000X-0.130000X0*%
%ADD46RoundRect,0.140000X0.170000X-0.140000X0.170000X0.140000X-0.170000X0.140000X-0.170000X-0.140000X0*%
%ADD47RoundRect,0.150000X0.200000X-0.150000X0.200000X0.150000X-0.200000X0.150000X-0.200000X-0.150000X0*%
%ADD48C,0.650000*%
%ADD49R,0.600000X1.150000*%
%ADD50R,0.300000X1.150000*%
%ADD51O,1.000000X2.100000*%
%ADD52O,1.000000X1.800000*%
%ADD53RotRect,1.500000X1.700000X225.000000*%
%ADD54RoundRect,0.140000X-0.140000X-0.170000X0.140000X-0.170000X0.140000X0.170000X-0.140000X0.170000X0*%
%ADD55RoundRect,0.225000X-0.106066X0.424264X-0.424264X0.106066X0.106066X-0.424264X0.424264X-0.106066X0*%
G04 APERTURE END LIST*
D10*
X148693466Y-98632017D02*
X148693466Y-98232017D01*
X148693466Y-98432017D02*
X149393466Y-98432017D01*
X149393466Y-98432017D02*
X149293466Y-98365350D01*
X149293466Y-98365350D02*
X149226800Y-98298684D01*
X149226800Y-98298684D02*
X149193466Y-98232017D01*
X149093466Y-99032017D02*
X149126800Y-98965351D01*
X149126800Y-98965351D02*
X149160133Y-98932017D01*
X149160133Y-98932017D02*
X149226800Y-98898684D01*
X149226800Y-98898684D02*
X149260133Y-98898684D01*
X149260133Y-98898684D02*
X149326800Y-98932017D01*
X149326800Y-98932017D02*
X149360133Y-98965351D01*
X149360133Y-98965351D02*
X149393466Y-99032017D01*
X149393466Y-99032017D02*
X149393466Y-99165351D01*
X149393466Y-99165351D02*
X149360133Y-99232017D01*
X149360133Y-99232017D02*
X149326800Y-99265351D01*
X149326800Y-99265351D02*
X149260133Y-99298684D01*
X149260133Y-99298684D02*
X149226800Y-99298684D01*
X149226800Y-99298684D02*
X149160133Y-99265351D01*
X149160133Y-99265351D02*
X149126800Y-99232017D01*
X149126800Y-99232017D02*
X149093466Y-99165351D01*
X149093466Y-99165351D02*
X149093466Y-99032017D01*
X149093466Y-99032017D02*
X149060133Y-98965351D01*
X149060133Y-98965351D02*
X149026800Y-98932017D01*
X149026800Y-98932017D02*
X148960133Y-98898684D01*
X148960133Y-98898684D02*
X148826800Y-98898684D01*
X148826800Y-98898684D02*
X148760133Y-98932017D01*
X148760133Y-98932017D02*
X148726800Y-98965351D01*
X148726800Y-98965351D02*
X148693466Y-99032017D01*
X148693466Y-99032017D02*
X148693466Y-99165351D01*
X148693466Y-99165351D02*
X148726800Y-99232017D01*
X148726800Y-99232017D02*
X148760133Y-99265351D01*
X148760133Y-99265351D02*
X148826800Y-99298684D01*
X148826800Y-99298684D02*
X148960133Y-99298684D01*
X148960133Y-99298684D02*
X149026800Y-99265351D01*
X149026800Y-99265351D02*
X149060133Y-99232017D01*
X149060133Y-99232017D02*
X149093466Y-99165351D01*
X162673200Y-109167982D02*
X162639866Y-109134649D01*
X162639866Y-109134649D02*
X162606533Y-109067982D01*
X162606533Y-109067982D02*
X162606533Y-108901316D01*
X162606533Y-108901316D02*
X162639866Y-108834649D01*
X162639866Y-108834649D02*
X162673200Y-108801316D01*
X162673200Y-108801316D02*
X162739866Y-108767982D01*
X162739866Y-108767982D02*
X162806533Y-108767982D01*
X162806533Y-108767982D02*
X162906533Y-108801316D01*
X162906533Y-108801316D02*
X163306533Y-109201316D01*
X163306533Y-109201316D02*
X163306533Y-108767982D01*
X162606533Y-108167982D02*
X162606533Y-108301315D01*
X162606533Y-108301315D02*
X162639866Y-108367982D01*
X162639866Y-108367982D02*
X162673200Y-108401315D01*
X162673200Y-108401315D02*
X162773200Y-108467982D01*
X162773200Y-108467982D02*
X162906533Y-108501315D01*
X162906533Y-108501315D02*
X163173200Y-108501315D01*
X163173200Y-108501315D02*
X163239866Y-108467982D01*
X163239866Y-108467982D02*
X163273200Y-108434649D01*
X163273200Y-108434649D02*
X163306533Y-108367982D01*
X163306533Y-108367982D02*
X163306533Y-108234649D01*
X163306533Y-108234649D02*
X163273200Y-108167982D01*
X163273200Y-108167982D02*
X163239866Y-108134649D01*
X163239866Y-108134649D02*
X163173200Y-108101315D01*
X163173200Y-108101315D02*
X163006533Y-108101315D01*
X163006533Y-108101315D02*
X162939866Y-108134649D01*
X162939866Y-108134649D02*
X162906533Y-108167982D01*
X162906533Y-108167982D02*
X162873200Y-108234649D01*
X162873200Y-108234649D02*
X162873200Y-108367982D01*
X162873200Y-108367982D02*
X162906533Y-108434649D01*
X162906533Y-108434649D02*
X162939866Y-108467982D01*
X162939866Y-108467982D02*
X163006533Y-108501315D01*
X162606533Y-101701317D02*
X162606533Y-101267983D01*
X162606533Y-101267983D02*
X162873200Y-101501317D01*
X162873200Y-101501317D02*
X162873200Y-101401317D01*
X162873200Y-101401317D02*
X162906533Y-101334650D01*
X162906533Y-101334650D02*
X162939866Y-101301317D01*
X162939866Y-101301317D02*
X163006533Y-101267983D01*
X163006533Y-101267983D02*
X163173200Y-101267983D01*
X163173200Y-101267983D02*
X163239866Y-101301317D01*
X163239866Y-101301317D02*
X163273200Y-101334650D01*
X163273200Y-101334650D02*
X163306533Y-101401317D01*
X163306533Y-101401317D02*
X163306533Y-101601317D01*
X163306533Y-101601317D02*
X163273200Y-101667983D01*
X163273200Y-101667983D02*
X163239866Y-101701317D01*
X162606533Y-100834650D02*
X162606533Y-100767983D01*
X162606533Y-100767983D02*
X162639866Y-100701316D01*
X162639866Y-100701316D02*
X162673200Y-100667983D01*
X162673200Y-100667983D02*
X162739866Y-100634650D01*
X162739866Y-100634650D02*
X162873200Y-100601316D01*
X162873200Y-100601316D02*
X163039866Y-100601316D01*
X163039866Y-100601316D02*
X163173200Y-100634650D01*
X163173200Y-100634650D02*
X163239866Y-100667983D01*
X163239866Y-100667983D02*
X163273200Y-100701316D01*
X163273200Y-100701316D02*
X163306533Y-100767983D01*
X163306533Y-100767983D02*
X163306533Y-100834650D01*
X163306533Y-100834650D02*
X163273200Y-100901316D01*
X163273200Y-100901316D02*
X163239866Y-100934650D01*
X163239866Y-100934650D02*
X163173200Y-100967983D01*
X163173200Y-100967983D02*
X163039866Y-101001316D01*
X163039866Y-101001316D02*
X162873200Y-101001316D01*
X162873200Y-101001316D02*
X162739866Y-100967983D01*
X162739866Y-100967983D02*
X162673200Y-100934650D01*
X162673200Y-100934650D02*
X162639866Y-100901316D01*
X162639866Y-100901316D02*
X162606533Y-100834650D01*
X162639866Y-111967982D02*
X162606533Y-112034649D01*
X162606533Y-112034649D02*
X162606533Y-112134649D01*
X162606533Y-112134649D02*
X162639866Y-112234649D01*
X162639866Y-112234649D02*
X162706533Y-112301316D01*
X162706533Y-112301316D02*
X162773200Y-112334649D01*
X162773200Y-112334649D02*
X162906533Y-112367982D01*
X162906533Y-112367982D02*
X163006533Y-112367982D01*
X163006533Y-112367982D02*
X163139866Y-112334649D01*
X163139866Y-112334649D02*
X163206533Y-112301316D01*
X163206533Y-112301316D02*
X163273200Y-112234649D01*
X163273200Y-112234649D02*
X163306533Y-112134649D01*
X163306533Y-112134649D02*
X163306533Y-112067982D01*
X163306533Y-112067982D02*
X163273200Y-111967982D01*
X163273200Y-111967982D02*
X163239866Y-111934649D01*
X163239866Y-111934649D02*
X163006533Y-111934649D01*
X163006533Y-111934649D02*
X163006533Y-112067982D01*
X163306533Y-111634649D02*
X162606533Y-111634649D01*
X162606533Y-111634649D02*
X163306533Y-111234649D01*
X163306533Y-111234649D02*
X162606533Y-111234649D01*
X163306533Y-110901316D02*
X162606533Y-110901316D01*
X162606533Y-110901316D02*
X162606533Y-110734649D01*
X162606533Y-110734649D02*
X162639866Y-110634649D01*
X162639866Y-110634649D02*
X162706533Y-110567983D01*
X162706533Y-110567983D02*
X162773200Y-110534649D01*
X162773200Y-110534649D02*
X162906533Y-110501316D01*
X162906533Y-110501316D02*
X163006533Y-110501316D01*
X163006533Y-110501316D02*
X163139866Y-110534649D01*
X163139866Y-110534649D02*
X163206533Y-110567983D01*
X163206533Y-110567983D02*
X163273200Y-110634649D01*
X163273200Y-110634649D02*
X163306533Y-110734649D01*
X163306533Y-110734649D02*
X163306533Y-110901316D01*
X163306533Y-90767982D02*
X163306533Y-91167982D01*
X163306533Y-90967982D02*
X162606533Y-90967982D01*
X162606533Y-90967982D02*
X162706533Y-91034649D01*
X162706533Y-91034649D02*
X162773200Y-91101316D01*
X162773200Y-91101316D02*
X162806533Y-91167982D01*
X162606533Y-104301316D02*
X162606533Y-104634649D01*
X162606533Y-104634649D02*
X162939866Y-104667982D01*
X162939866Y-104667982D02*
X162906533Y-104634649D01*
X162906533Y-104634649D02*
X162873200Y-104567982D01*
X162873200Y-104567982D02*
X162873200Y-104401316D01*
X162873200Y-104401316D02*
X162906533Y-104334649D01*
X162906533Y-104334649D02*
X162939866Y-104301316D01*
X162939866Y-104301316D02*
X163006533Y-104267982D01*
X163006533Y-104267982D02*
X163173200Y-104267982D01*
X163173200Y-104267982D02*
X163239866Y-104301316D01*
X163239866Y-104301316D02*
X163273200Y-104334649D01*
X163273200Y-104334649D02*
X163306533Y-104401316D01*
X163306533Y-104401316D02*
X163306533Y-104567982D01*
X163306533Y-104567982D02*
X163273200Y-104634649D01*
X163273200Y-104634649D02*
X163239866Y-104667982D01*
X152165350Y-121306533D02*
X152165350Y-120839866D01*
X152165350Y-120606533D02*
X152132017Y-120639866D01*
X152132017Y-120639866D02*
X152165350Y-120673200D01*
X152165350Y-120673200D02*
X152198684Y-120639866D01*
X152198684Y-120639866D02*
X152165350Y-120606533D01*
X152165350Y-120606533D02*
X152165350Y-120673200D01*
X152898683Y-121239866D02*
X152865350Y-121273200D01*
X152865350Y-121273200D02*
X152765350Y-121306533D01*
X152765350Y-121306533D02*
X152698683Y-121306533D01*
X152698683Y-121306533D02*
X152598683Y-121273200D01*
X152598683Y-121273200D02*
X152532017Y-121206533D01*
X152532017Y-121206533D02*
X152498683Y-121139866D01*
X152498683Y-121139866D02*
X152465350Y-121006533D01*
X152465350Y-121006533D02*
X152465350Y-120906533D01*
X152465350Y-120906533D02*
X152498683Y-120773200D01*
X152498683Y-120773200D02*
X152532017Y-120706533D01*
X152532017Y-120706533D02*
X152598683Y-120639866D01*
X152598683Y-120639866D02*
X152698683Y-120606533D01*
X152698683Y-120606533D02*
X152765350Y-120606533D01*
X152765350Y-120606533D02*
X152865350Y-120639866D01*
X152865350Y-120639866D02*
X152898683Y-120673200D01*
X153198683Y-120939866D02*
X153432017Y-120939866D01*
X153532017Y-121306533D02*
X153198683Y-121306533D01*
X153198683Y-121306533D02*
X153198683Y-120606533D01*
X153198683Y-120606533D02*
X153532017Y-120606533D01*
X154198683Y-120639866D02*
X154132016Y-120606533D01*
X154132016Y-120606533D02*
X154032016Y-120606533D01*
X154032016Y-120606533D02*
X153932016Y-120639866D01*
X153932016Y-120639866D02*
X153865350Y-120706533D01*
X153865350Y-120706533D02*
X153832016Y-120773200D01*
X153832016Y-120773200D02*
X153798683Y-120906533D01*
X153798683Y-120906533D02*
X153798683Y-121006533D01*
X153798683Y-121006533D02*
X153832016Y-121139866D01*
X153832016Y-121139866D02*
X153865350Y-121206533D01*
X153865350Y-121206533D02*
X153932016Y-121273200D01*
X153932016Y-121273200D02*
X154032016Y-121306533D01*
X154032016Y-121306533D02*
X154098683Y-121306533D01*
X154098683Y-121306533D02*
X154198683Y-121273200D01*
X154198683Y-121273200D02*
X154232016Y-121239866D01*
X154232016Y-121239866D02*
X154232016Y-121006533D01*
X154232016Y-121006533D02*
X154098683Y-121006533D01*
X154532016Y-120939866D02*
X154765350Y-120939866D01*
X154865350Y-121306533D02*
X154532016Y-121306533D01*
X154532016Y-121306533D02*
X154532016Y-120606533D01*
X154532016Y-120606533D02*
X154865350Y-120606533D01*
X155165349Y-121306533D02*
X155165349Y-120606533D01*
X155165349Y-120606533D02*
X155565349Y-121306533D01*
X155565349Y-121306533D02*
X155565349Y-120606533D01*
X155898682Y-121306533D02*
X155898682Y-120606533D01*
X156232015Y-120606533D02*
X156232015Y-121173200D01*
X156232015Y-121173200D02*
X156265349Y-121239866D01*
X156265349Y-121239866D02*
X156298682Y-121273200D01*
X156298682Y-121273200D02*
X156365349Y-121306533D01*
X156365349Y-121306533D02*
X156498682Y-121306533D01*
X156498682Y-121306533D02*
X156565349Y-121273200D01*
X156565349Y-121273200D02*
X156598682Y-121239866D01*
X156598682Y-121239866D02*
X156632015Y-121173200D01*
X156632015Y-121173200D02*
X156632015Y-120606533D01*
X156932015Y-121273200D02*
X157032015Y-121306533D01*
X157032015Y-121306533D02*
X157198682Y-121306533D01*
X157198682Y-121306533D02*
X157265348Y-121273200D01*
X157265348Y-121273200D02*
X157298682Y-121239866D01*
X157298682Y-121239866D02*
X157332015Y-121173200D01*
X157332015Y-121173200D02*
X157332015Y-121106533D01*
X157332015Y-121106533D02*
X157298682Y-121039866D01*
X157298682Y-121039866D02*
X157265348Y-121006533D01*
X157265348Y-121006533D02*
X157198682Y-120973200D01*
X157198682Y-120973200D02*
X157065348Y-120939866D01*
X157065348Y-120939866D02*
X156998682Y-120906533D01*
X156998682Y-120906533D02*
X156965348Y-120873200D01*
X156965348Y-120873200D02*
X156932015Y-120806533D01*
X156932015Y-120806533D02*
X156932015Y-120739866D01*
X156932015Y-120739866D02*
X156965348Y-120673200D01*
X156965348Y-120673200D02*
X156998682Y-120639866D01*
X156998682Y-120639866D02*
X157065348Y-120606533D01*
X157065348Y-120606533D02*
X157232015Y-120606533D01*
X157232015Y-120606533D02*
X157332015Y-120639866D01*
X149326800Y-105932017D02*
X149360133Y-105965350D01*
X149360133Y-105965350D02*
X149393466Y-106032017D01*
X149393466Y-106032017D02*
X149393466Y-106198684D01*
X149393466Y-106198684D02*
X149360133Y-106265350D01*
X149360133Y-106265350D02*
X149326800Y-106298684D01*
X149326800Y-106298684D02*
X149260133Y-106332017D01*
X149260133Y-106332017D02*
X149193466Y-106332017D01*
X149193466Y-106332017D02*
X149093466Y-106298684D01*
X149093466Y-106298684D02*
X148693466Y-105898684D01*
X148693466Y-105898684D02*
X148693466Y-106332017D01*
X149326800Y-106598684D02*
X149360133Y-106632017D01*
X149360133Y-106632017D02*
X149393466Y-106698684D01*
X149393466Y-106698684D02*
X149393466Y-106865351D01*
X149393466Y-106865351D02*
X149360133Y-106932017D01*
X149360133Y-106932017D02*
X149326800Y-106965351D01*
X149326800Y-106965351D02*
X149260133Y-106998684D01*
X149260133Y-106998684D02*
X149193466Y-106998684D01*
X149193466Y-106998684D02*
X149093466Y-106965351D01*
X149093466Y-106965351D02*
X148693466Y-106565351D01*
X148693466Y-106565351D02*
X148693466Y-106998684D01*
X162673200Y-93667982D02*
X162639866Y-93634649D01*
X162639866Y-93634649D02*
X162606533Y-93567982D01*
X162606533Y-93567982D02*
X162606533Y-93401316D01*
X162606533Y-93401316D02*
X162639866Y-93334649D01*
X162639866Y-93334649D02*
X162673200Y-93301316D01*
X162673200Y-93301316D02*
X162739866Y-93267982D01*
X162739866Y-93267982D02*
X162806533Y-93267982D01*
X162806533Y-93267982D02*
X162906533Y-93301316D01*
X162906533Y-93301316D02*
X163306533Y-93701316D01*
X163306533Y-93701316D02*
X163306533Y-93267982D01*
X149393466Y-93498684D02*
X149393466Y-93965350D01*
X149393466Y-93965350D02*
X148693466Y-93665350D01*
X149326800Y-108532017D02*
X149360133Y-108565350D01*
X149360133Y-108565350D02*
X149393466Y-108632017D01*
X149393466Y-108632017D02*
X149393466Y-108798684D01*
X149393466Y-108798684D02*
X149360133Y-108865350D01*
X149360133Y-108865350D02*
X149326800Y-108898684D01*
X149326800Y-108898684D02*
X149260133Y-108932017D01*
X149260133Y-108932017D02*
X149193466Y-108932017D01*
X149193466Y-108932017D02*
X149093466Y-108898684D01*
X149093466Y-108898684D02*
X148693466Y-108498684D01*
X148693466Y-108498684D02*
X148693466Y-108932017D01*
X149393466Y-109165351D02*
X149393466Y-109598684D01*
X149393466Y-109598684D02*
X149126800Y-109365351D01*
X149126800Y-109365351D02*
X149126800Y-109465351D01*
X149126800Y-109465351D02*
X149093466Y-109532017D01*
X149093466Y-109532017D02*
X149060133Y-109565351D01*
X149060133Y-109565351D02*
X148993466Y-109598684D01*
X148993466Y-109598684D02*
X148826800Y-109598684D01*
X148826800Y-109598684D02*
X148760133Y-109565351D01*
X148760133Y-109565351D02*
X148726800Y-109532017D01*
X148726800Y-109532017D02*
X148693466Y-109465351D01*
X148693466Y-109465351D02*
X148693466Y-109265351D01*
X148693466Y-109265351D02*
X148726800Y-109198684D01*
X148726800Y-109198684D02*
X148760133Y-109165351D01*
X162791533Y-89601316D02*
X162791533Y-89167982D01*
X162791533Y-89167982D02*
X163058200Y-89401316D01*
X163058200Y-89401316D02*
X163058200Y-89301316D01*
X163058200Y-89301316D02*
X163091533Y-89234649D01*
X163091533Y-89234649D02*
X163124866Y-89201316D01*
X163124866Y-89201316D02*
X163191533Y-89167982D01*
X163191533Y-89167982D02*
X163358200Y-89167982D01*
X163358200Y-89167982D02*
X163424866Y-89201316D01*
X163424866Y-89201316D02*
X163458200Y-89234649D01*
X163458200Y-89234649D02*
X163491533Y-89301316D01*
X163491533Y-89301316D02*
X163491533Y-89501316D01*
X163491533Y-89501316D02*
X163458200Y-89567982D01*
X163458200Y-89567982D02*
X163424866Y-89601316D01*
X162791533Y-88967982D02*
X163491533Y-88734649D01*
X163491533Y-88734649D02*
X162791533Y-88501315D01*
X162791533Y-88334649D02*
X162791533Y-87901315D01*
X162791533Y-87901315D02*
X163058200Y-88134649D01*
X163058200Y-88134649D02*
X163058200Y-88034649D01*
X163058200Y-88034649D02*
X163091533Y-87967982D01*
X163091533Y-87967982D02*
X163124866Y-87934649D01*
X163124866Y-87934649D02*
X163191533Y-87901315D01*
X163191533Y-87901315D02*
X163358200Y-87901315D01*
X163358200Y-87901315D02*
X163424866Y-87934649D01*
X163424866Y-87934649D02*
X163458200Y-87967982D01*
X163458200Y-87967982D02*
X163491533Y-88034649D01*
X163491533Y-88034649D02*
X163491533Y-88234649D01*
X163491533Y-88234649D02*
X163458200Y-88301315D01*
X163458200Y-88301315D02*
X163424866Y-88334649D01*
X157898684Y-120839866D02*
X158065350Y-121306533D01*
X158065350Y-121306533D02*
X158232017Y-120839866D01*
X158798683Y-120839866D02*
X158798683Y-121306533D01*
X158632017Y-120573200D02*
X158465350Y-121073200D01*
X158465350Y-121073200D02*
X158898683Y-121073200D01*
X162606533Y-99101316D02*
X162606533Y-98667982D01*
X162606533Y-98667982D02*
X162873200Y-98901316D01*
X162873200Y-98901316D02*
X162873200Y-98801316D01*
X162873200Y-98801316D02*
X162906533Y-98734649D01*
X162906533Y-98734649D02*
X162939866Y-98701316D01*
X162939866Y-98701316D02*
X163006533Y-98667982D01*
X163006533Y-98667982D02*
X163173200Y-98667982D01*
X163173200Y-98667982D02*
X163239866Y-98701316D01*
X163239866Y-98701316D02*
X163273200Y-98734649D01*
X163273200Y-98734649D02*
X163306533Y-98801316D01*
X163306533Y-98801316D02*
X163306533Y-99001316D01*
X163306533Y-99001316D02*
X163273200Y-99067982D01*
X163273200Y-99067982D02*
X163239866Y-99101316D01*
X163306533Y-98001315D02*
X163306533Y-98401315D01*
X163306533Y-98201315D02*
X162606533Y-98201315D01*
X162606533Y-98201315D02*
X162706533Y-98267982D01*
X162706533Y-98267982D02*
X162773200Y-98334649D01*
X162773200Y-98334649D02*
X162806533Y-98401315D01*
X148693466Y-101232017D02*
X148693466Y-100832017D01*
X148693466Y-101032017D02*
X149393466Y-101032017D01*
X149393466Y-101032017D02*
X149293466Y-100965350D01*
X149293466Y-100965350D02*
X149226800Y-100898684D01*
X149226800Y-100898684D02*
X149193466Y-100832017D01*
X148693466Y-101565351D02*
X148693466Y-101698684D01*
X148693466Y-101698684D02*
X148726800Y-101765351D01*
X148726800Y-101765351D02*
X148760133Y-101798684D01*
X148760133Y-101798684D02*
X148860133Y-101865351D01*
X148860133Y-101865351D02*
X148993466Y-101898684D01*
X148993466Y-101898684D02*
X149260133Y-101898684D01*
X149260133Y-101898684D02*
X149326800Y-101865351D01*
X149326800Y-101865351D02*
X149360133Y-101832017D01*
X149360133Y-101832017D02*
X149393466Y-101765351D01*
X149393466Y-101765351D02*
X149393466Y-101632017D01*
X149393466Y-101632017D02*
X149360133Y-101565351D01*
X149360133Y-101565351D02*
X149326800Y-101532017D01*
X149326800Y-101532017D02*
X149260133Y-101498684D01*
X149260133Y-101498684D02*
X149093466Y-101498684D01*
X149093466Y-101498684D02*
X149026800Y-101532017D01*
X149026800Y-101532017D02*
X148993466Y-101565351D01*
X148993466Y-101565351D02*
X148960133Y-101632017D01*
X148960133Y-101632017D02*
X148960133Y-101765351D01*
X148960133Y-101765351D02*
X148993466Y-101832017D01*
X148993466Y-101832017D02*
X149026800Y-101865351D01*
X149026800Y-101865351D02*
X149093466Y-101898684D01*
X149326800Y-103332017D02*
X149360133Y-103365350D01*
X149360133Y-103365350D02*
X149393466Y-103432017D01*
X149393466Y-103432017D02*
X149393466Y-103598684D01*
X149393466Y-103598684D02*
X149360133Y-103665350D01*
X149360133Y-103665350D02*
X149326800Y-103698684D01*
X149326800Y-103698684D02*
X149260133Y-103732017D01*
X149260133Y-103732017D02*
X149193466Y-103732017D01*
X149193466Y-103732017D02*
X149093466Y-103698684D01*
X149093466Y-103698684D02*
X148693466Y-103298684D01*
X148693466Y-103298684D02*
X148693466Y-103732017D01*
X149393466Y-104165351D02*
X149393466Y-104232017D01*
X149393466Y-104232017D02*
X149360133Y-104298684D01*
X149360133Y-104298684D02*
X149326800Y-104332017D01*
X149326800Y-104332017D02*
X149260133Y-104365351D01*
X149260133Y-104365351D02*
X149126800Y-104398684D01*
X149126800Y-104398684D02*
X148960133Y-104398684D01*
X148960133Y-104398684D02*
X148826800Y-104365351D01*
X148826800Y-104365351D02*
X148760133Y-104332017D01*
X148760133Y-104332017D02*
X148726800Y-104298684D01*
X148726800Y-104298684D02*
X148693466Y-104232017D01*
X148693466Y-104232017D02*
X148693466Y-104165351D01*
X148693466Y-104165351D02*
X148726800Y-104098684D01*
X148726800Y-104098684D02*
X148760133Y-104065351D01*
X148760133Y-104065351D02*
X148826800Y-104032017D01*
X148826800Y-104032017D02*
X148960133Y-103998684D01*
X148960133Y-103998684D02*
X149126800Y-103998684D01*
X149126800Y-103998684D02*
X149260133Y-104032017D01*
X149260133Y-104032017D02*
X149326800Y-104065351D01*
X149326800Y-104065351D02*
X149360133Y-104098684D01*
X149360133Y-104098684D02*
X149393466Y-104165351D01*
X149393466Y-87418684D02*
X149393466Y-87852017D01*
X149393466Y-87852017D02*
X149126800Y-87618684D01*
X149126800Y-87618684D02*
X149126800Y-87718684D01*
X149126800Y-87718684D02*
X149093466Y-87785350D01*
X149093466Y-87785350D02*
X149060133Y-87818684D01*
X149060133Y-87818684D02*
X148993466Y-87852017D01*
X148993466Y-87852017D02*
X148826800Y-87852017D01*
X148826800Y-87852017D02*
X148760133Y-87818684D01*
X148760133Y-87818684D02*
X148726800Y-87785350D01*
X148726800Y-87785350D02*
X148693466Y-87718684D01*
X148693466Y-87718684D02*
X148693466Y-87518684D01*
X148693466Y-87518684D02*
X148726800Y-87452017D01*
X148726800Y-87452017D02*
X148760133Y-87418684D01*
X149393466Y-88052017D02*
X148693466Y-88285351D01*
X148693466Y-88285351D02*
X149393466Y-88518684D01*
X149393466Y-88685351D02*
X149393466Y-89118684D01*
X149393466Y-89118684D02*
X149126800Y-88885351D01*
X149126800Y-88885351D02*
X149126800Y-88985351D01*
X149126800Y-88985351D02*
X149093466Y-89052017D01*
X149093466Y-89052017D02*
X149060133Y-89085351D01*
X149060133Y-89085351D02*
X148993466Y-89118684D01*
X148993466Y-89118684D02*
X148826800Y-89118684D01*
X148826800Y-89118684D02*
X148760133Y-89085351D01*
X148760133Y-89085351D02*
X148726800Y-89052017D01*
X148726800Y-89052017D02*
X148693466Y-88985351D01*
X148693466Y-88985351D02*
X148693466Y-88785351D01*
X148693466Y-88785351D02*
X148726800Y-88718684D01*
X148726800Y-88718684D02*
X148760133Y-88685351D01*
X149393466Y-91265350D02*
X149393466Y-91132017D01*
X149393466Y-91132017D02*
X149360133Y-91065350D01*
X149360133Y-91065350D02*
X149326800Y-91032017D01*
X149326800Y-91032017D02*
X149226800Y-90965350D01*
X149226800Y-90965350D02*
X149093466Y-90932017D01*
X149093466Y-90932017D02*
X148826800Y-90932017D01*
X148826800Y-90932017D02*
X148760133Y-90965350D01*
X148760133Y-90965350D02*
X148726800Y-90998684D01*
X148726800Y-90998684D02*
X148693466Y-91065350D01*
X148693466Y-91065350D02*
X148693466Y-91198684D01*
X148693466Y-91198684D02*
X148726800Y-91265350D01*
X148726800Y-91265350D02*
X148760133Y-91298684D01*
X148760133Y-91298684D02*
X148826800Y-91332017D01*
X148826800Y-91332017D02*
X148993466Y-91332017D01*
X148993466Y-91332017D02*
X149060133Y-91298684D01*
X149060133Y-91298684D02*
X149093466Y-91265350D01*
X149093466Y-91265350D02*
X149126800Y-91198684D01*
X149126800Y-91198684D02*
X149126800Y-91065350D01*
X149126800Y-91065350D02*
X149093466Y-90998684D01*
X149093466Y-90998684D02*
X149060133Y-90965350D01*
X149060133Y-90965350D02*
X148993466Y-90932017D01*
X162673200Y-106667982D02*
X162639866Y-106634649D01*
X162639866Y-106634649D02*
X162606533Y-106567982D01*
X162606533Y-106567982D02*
X162606533Y-106401316D01*
X162606533Y-106401316D02*
X162639866Y-106334649D01*
X162639866Y-106334649D02*
X162673200Y-106301316D01*
X162673200Y-106301316D02*
X162739866Y-106267982D01*
X162739866Y-106267982D02*
X162806533Y-106267982D01*
X162806533Y-106267982D02*
X162906533Y-106301316D01*
X162906533Y-106301316D02*
X163306533Y-106701316D01*
X163306533Y-106701316D02*
X163306533Y-106267982D01*
X162606533Y-106034649D02*
X162606533Y-105567982D01*
X162606533Y-105567982D02*
X163306533Y-105867982D01*
X149360133Y-111032017D02*
X149393466Y-110965350D01*
X149393466Y-110965350D02*
X149393466Y-110865350D01*
X149393466Y-110865350D02*
X149360133Y-110765350D01*
X149360133Y-110765350D02*
X149293466Y-110698684D01*
X149293466Y-110698684D02*
X149226800Y-110665350D01*
X149226800Y-110665350D02*
X149093466Y-110632017D01*
X149093466Y-110632017D02*
X148993466Y-110632017D01*
X148993466Y-110632017D02*
X148860133Y-110665350D01*
X148860133Y-110665350D02*
X148793466Y-110698684D01*
X148793466Y-110698684D02*
X148726800Y-110765350D01*
X148726800Y-110765350D02*
X148693466Y-110865350D01*
X148693466Y-110865350D02*
X148693466Y-110932017D01*
X148693466Y-110932017D02*
X148726800Y-111032017D01*
X148726800Y-111032017D02*
X148760133Y-111065350D01*
X148760133Y-111065350D02*
X148993466Y-111065350D01*
X148993466Y-111065350D02*
X148993466Y-110932017D01*
X148693466Y-111365350D02*
X149393466Y-111365350D01*
X149393466Y-111365350D02*
X148693466Y-111765350D01*
X148693466Y-111765350D02*
X149393466Y-111765350D01*
X148693466Y-112098683D02*
X149393466Y-112098683D01*
X149393466Y-112098683D02*
X149393466Y-112265350D01*
X149393466Y-112265350D02*
X149360133Y-112365350D01*
X149360133Y-112365350D02*
X149293466Y-112432017D01*
X149293466Y-112432017D02*
X149226800Y-112465350D01*
X149226800Y-112465350D02*
X149093466Y-112498683D01*
X149093466Y-112498683D02*
X148993466Y-112498683D01*
X148993466Y-112498683D02*
X148860133Y-112465350D01*
X148860133Y-112465350D02*
X148793466Y-112432017D01*
X148793466Y-112432017D02*
X148726800Y-112365350D01*
X148726800Y-112365350D02*
X148693466Y-112265350D01*
X148693466Y-112265350D02*
X148693466Y-112098683D01*
X162606533Y-96601316D02*
X162606533Y-96167982D01*
X162606533Y-96167982D02*
X162873200Y-96401316D01*
X162873200Y-96401316D02*
X162873200Y-96301316D01*
X162873200Y-96301316D02*
X162906533Y-96234649D01*
X162906533Y-96234649D02*
X162939866Y-96201316D01*
X162939866Y-96201316D02*
X163006533Y-96167982D01*
X163006533Y-96167982D02*
X163173200Y-96167982D01*
X163173200Y-96167982D02*
X163239866Y-96201316D01*
X163239866Y-96201316D02*
X163273200Y-96234649D01*
X163273200Y-96234649D02*
X163306533Y-96301316D01*
X163306533Y-96301316D02*
X163306533Y-96501316D01*
X163306533Y-96501316D02*
X163273200Y-96567982D01*
X163273200Y-96567982D02*
X163239866Y-96601316D01*
X162673200Y-95901315D02*
X162639866Y-95867982D01*
X162639866Y-95867982D02*
X162606533Y-95801315D01*
X162606533Y-95801315D02*
X162606533Y-95634649D01*
X162606533Y-95634649D02*
X162639866Y-95567982D01*
X162639866Y-95567982D02*
X162673200Y-95534649D01*
X162673200Y-95534649D02*
X162739866Y-95501315D01*
X162739866Y-95501315D02*
X162806533Y-95501315D01*
X162806533Y-95501315D02*
X162906533Y-95534649D01*
X162906533Y-95534649D02*
X163306533Y-95934649D01*
X163306533Y-95934649D02*
X163306533Y-95501315D01*
X149093466Y-96265350D02*
X149126800Y-96198684D01*
X149126800Y-96198684D02*
X149160133Y-96165350D01*
X149160133Y-96165350D02*
X149226800Y-96132017D01*
X149226800Y-96132017D02*
X149260133Y-96132017D01*
X149260133Y-96132017D02*
X149326800Y-96165350D01*
X149326800Y-96165350D02*
X149360133Y-96198684D01*
X149360133Y-96198684D02*
X149393466Y-96265350D01*
X149393466Y-96265350D02*
X149393466Y-96398684D01*
X149393466Y-96398684D02*
X149360133Y-96465350D01*
X149360133Y-96465350D02*
X149326800Y-96498684D01*
X149326800Y-96498684D02*
X149260133Y-96532017D01*
X149260133Y-96532017D02*
X149226800Y-96532017D01*
X149226800Y-96532017D02*
X149160133Y-96498684D01*
X149160133Y-96498684D02*
X149126800Y-96465350D01*
X149126800Y-96465350D02*
X149093466Y-96398684D01*
X149093466Y-96398684D02*
X149093466Y-96265350D01*
X149093466Y-96265350D02*
X149060133Y-96198684D01*
X149060133Y-96198684D02*
X149026800Y-96165350D01*
X149026800Y-96165350D02*
X148960133Y-96132017D01*
X148960133Y-96132017D02*
X148826800Y-96132017D01*
X148826800Y-96132017D02*
X148760133Y-96165350D01*
X148760133Y-96165350D02*
X148726800Y-96198684D01*
X148726800Y-96198684D02*
X148693466Y-96265350D01*
X148693466Y-96265350D02*
X148693466Y-96398684D01*
X148693466Y-96398684D02*
X148726800Y-96465350D01*
X148726800Y-96465350D02*
X148760133Y-96498684D01*
X148760133Y-96498684D02*
X148826800Y-96532017D01*
X148826800Y-96532017D02*
X148960133Y-96532017D01*
X148960133Y-96532017D02*
X149026800Y-96498684D01*
X149026800Y-96498684D02*
X149060133Y-96465350D01*
X149060133Y-96465350D02*
X149093466Y-96398684D01*
D11*
X159904318Y-89367619D02*
X160932413Y-89367619D01*
X160932413Y-89367619D02*
X161053365Y-89307142D01*
X161053365Y-89307142D02*
X161113842Y-89246666D01*
X161113842Y-89246666D02*
X161174318Y-89125714D01*
X161174318Y-89125714D02*
X161174318Y-88883809D01*
X161174318Y-88883809D02*
X161113842Y-88762857D01*
X161113842Y-88762857D02*
X161053365Y-88702380D01*
X161053365Y-88702380D02*
X160932413Y-88641904D01*
X160932413Y-88641904D02*
X159904318Y-88641904D01*
X161174318Y-87371904D02*
X161174318Y-88097619D01*
X161174318Y-87734762D02*
X159904318Y-87734762D01*
X159904318Y-87734762D02*
X160085746Y-87855714D01*
X160085746Y-87855714D02*
X160206699Y-87976666D01*
X160206699Y-87976666D02*
X160267175Y-88097619D01*
D12*
%TO.C,J3*%
X163585000Y-89800000D02*
X163585000Y-112720000D01*
X163585000Y-89800000D02*
X166245000Y-89800000D01*
X163585000Y-112720000D02*
X166245000Y-112720000D01*
X164915000Y-87200000D02*
X166245000Y-87200000D01*
X166245000Y-87200000D02*
X166245000Y-88530000D01*
X166245000Y-89800000D02*
X166245000Y-112720000D01*
%TO.C,R1*%
X158080000Y-85246359D02*
X158080000Y-85553641D01*
X157320000Y-85246359D02*
X157320000Y-85553641D01*
%TO.C,D5*%
X151500000Y-105000000D02*
X149900000Y-105000000D01*
X149900000Y-105000000D02*
X149900000Y-108000000D01*
X151500000Y-108000000D02*
X151500000Y-105000000D01*
X149900000Y-108000000D02*
X151500000Y-108000000D01*
D13*
X151700000Y-106100000D02*
X151500000Y-106100000D01*
X151500000Y-105700000D01*
X151700000Y-105700000D01*
X151700000Y-106100000D01*
G36*
X151700000Y-106100000D02*
G01*
X151500000Y-106100000D01*
X151500000Y-105700000D01*
X151700000Y-105700000D01*
X151700000Y-106100000D01*
G37*
X149900000Y-106100000D02*
X149700000Y-106100000D01*
X149700000Y-105700000D01*
X149900000Y-105700000D01*
X149900000Y-106100000D01*
G36*
X149900000Y-106100000D02*
G01*
X149700000Y-106100000D01*
X149700000Y-105700000D01*
X149900000Y-105700000D01*
X149900000Y-106100000D01*
G37*
D12*
%TO.C,C14*%
X157330810Y-117478307D02*
X157178307Y-117630810D01*
X156821693Y-116969190D02*
X156669190Y-117121693D01*
%TO.C,D2*%
X157800000Y-89100000D02*
X157800000Y-87500000D01*
X157800000Y-87500000D02*
X155200000Y-87500000D01*
X155200000Y-89100000D02*
X157800000Y-89100000D01*
X155200000Y-87500000D02*
X155200000Y-89100000D01*
%TO.C,R10*%
X150380000Y-103733859D02*
X150380000Y-104041141D01*
X149620000Y-103733859D02*
X149620000Y-104041141D01*
%TO.C,U4*%
X156000000Y-108747893D02*
X156335876Y-109083768D01*
X159355222Y-112774866D02*
X159691097Y-112438990D01*
X155664124Y-109083768D02*
X156000000Y-108747893D01*
X156335876Y-115794212D02*
X156000000Y-116130087D01*
X152644778Y-112103114D02*
X152308903Y-112438990D01*
X156000000Y-116130087D02*
X155664124Y-115794212D01*
X152308903Y-112438990D02*
X152644778Y-112774866D01*
%TO.C,C18*%
X159696495Y-116746835D02*
X159543992Y-116899338D01*
X159187378Y-116237718D02*
X159034875Y-116390221D01*
D13*
%TO.C,Y1*%
X151025000Y-96000000D02*
X151425000Y-96000000D01*
X153025000Y-95600000D02*
X153025000Y-95600000D01*
X153025000Y-95500000D02*
X153025000Y-95500000D01*
X149975000Y-94700000D02*
X149975000Y-94100000D01*
X152475000Y-94700000D02*
X152475000Y-94100000D01*
X151025000Y-92800000D02*
X151425000Y-92800000D01*
X153025000Y-95500000D02*
G75*
G03*
X153025000Y-95600000I0J-50000D01*
G01*
X153025000Y-95600000D02*
G75*
G03*
X153025000Y-95500000I0J50000D01*
G01*
D14*
%TO.C,IC1*%
X155121253Y-96323911D02*
G75*
G03*
X155121253Y-96323911I-162499J0D01*
G01*
D12*
%TO.C,Q1*%
X146000000Y-115550000D02*
X146000000Y-119150000D01*
X146000000Y-119150000D02*
X149600000Y-119150000D01*
X149600000Y-115550000D02*
X146000000Y-115550000D01*
X149600000Y-119150000D02*
X149600000Y-115550000D01*
%TO.C,U2*%
X161200000Y-118540000D02*
X159800000Y-118540000D01*
X159800000Y-120860000D02*
X161700000Y-120860000D01*
%TO.C,R4*%
X162453641Y-102680000D02*
X162146359Y-102680000D01*
X162453641Y-101920000D02*
X162146359Y-101920000D01*
%TO.C,R6*%
X162146359Y-103220000D02*
X162453641Y-103220000D01*
X162146359Y-103980000D02*
X162453641Y-103980000D01*
%TO.C,R2*%
X153953641Y-85680000D02*
X153646359Y-85680000D01*
X153953641Y-84920000D02*
X153646359Y-84920000D01*
D15*
%TO.C,U3*%
X154025000Y-100395000D02*
X155550000Y-100395000D01*
X155900000Y-100550000D02*
X159100000Y-100550000D01*
X155900000Y-105450000D02*
X155900000Y-100550000D01*
X159100000Y-100550000D02*
X159100000Y-105450000D01*
X159100000Y-105450000D02*
X155900000Y-105450000D01*
D12*
%TO.C,C16*%
X152078307Y-114169190D02*
X152230810Y-114321693D01*
X151569190Y-114678307D02*
X151721693Y-114830810D01*
%TO.C,C24*%
X151330810Y-112478307D02*
X151178307Y-112630810D01*
X150821693Y-111969190D02*
X150669190Y-112121693D01*
%TO.C,R8*%
X151163640Y-109780000D02*
X150856358Y-109780000D01*
X151163640Y-109020000D02*
X150856358Y-109020000D01*
D15*
%TO.C,U1*%
X162100000Y-86550000D02*
X162100000Y-87450000D01*
X162050000Y-87800000D02*
X162050000Y-89000000D01*
X159150000Y-87800000D02*
X162050000Y-87800000D01*
X162050000Y-89000000D02*
X159150000Y-89000000D01*
X159150000Y-89000000D02*
X159150000Y-87800000D01*
D12*
%TO.C,R9*%
X148420000Y-114453641D02*
X148420000Y-114146359D01*
X149180000Y-114453641D02*
X149180000Y-114146359D01*
%TO.C,D4*%
X152400000Y-86600000D02*
X152400000Y-88200000D01*
X152400000Y-88200000D02*
X155000000Y-88200000D01*
X155000000Y-86600000D02*
X152400000Y-86600000D01*
X155000000Y-88200000D02*
X155000000Y-86600000D01*
%TO.C,C12*%
X154978307Y-117269190D02*
X155130810Y-117421693D01*
X154469190Y-117778307D02*
X154621693Y-117930810D01*
%TO.C,C5*%
X155369190Y-92221693D02*
X155521693Y-92069190D01*
X155878307Y-92730810D02*
X156030810Y-92578307D01*
%TO.C,C22*%
X153787836Y-108160000D02*
X153572164Y-108160000D01*
X153787836Y-107440000D02*
X153572164Y-107440000D01*
%TO.C,R5*%
X152546359Y-103320000D02*
X152853641Y-103320000D01*
X152546359Y-104080000D02*
X152853641Y-104080000D01*
%TO.C,C3*%
X162240000Y-119927836D02*
X162240000Y-119712164D01*
X162960000Y-119927836D02*
X162960000Y-119712164D01*
%TO.C,J2*%
X145785000Y-89820000D02*
X145785000Y-112740000D01*
X145785000Y-89820000D02*
X148445000Y-89820000D01*
X145785000Y-112740000D02*
X148445000Y-112740000D01*
X147115000Y-87220000D02*
X148445000Y-87220000D01*
X148445000Y-87220000D02*
X148445000Y-88550000D01*
X148445000Y-89820000D02*
X148445000Y-112740000D01*
%TO.C,D3*%
X163000000Y-79900000D02*
X161400000Y-79900000D01*
X161400000Y-79900000D02*
X161400000Y-82500000D01*
X163000000Y-82500000D02*
X163000000Y-79900000D01*
X161400000Y-82500000D02*
X163000000Y-82500000D01*
%TO.C,C2*%
X161207836Y-91460000D02*
X160992164Y-91460000D01*
X161207836Y-90740000D02*
X160992164Y-90740000D01*
%TO.C,J1*%
X160680000Y-79795000D02*
X160680000Y-81595000D01*
X160680000Y-77695000D02*
X160680000Y-76545000D01*
X151340000Y-79795000D02*
X151340000Y-81595000D01*
X151340000Y-77695000D02*
X151340000Y-76545000D01*
D15*
%TO.C,Y2*%
X163936396Y-118699138D02*
X166199138Y-116436396D01*
X162277524Y-117040265D02*
X162059735Y-116822476D01*
X164540265Y-114777524D02*
X164322476Y-114559735D01*
X162663604Y-112900862D02*
X160400862Y-115163604D01*
X165716104Y-115257649D02*
G75*
G03*
X165716104Y-115257649I-36690J0D01*
G01*
D12*
%TO.C,C1*%
X161892164Y-85240000D02*
X162107836Y-85240000D01*
X161892164Y-85960000D02*
X162107836Y-85960000D01*
%TO.C,R7*%
X152620000Y-100753641D02*
X152620000Y-100446359D01*
X153380000Y-100753641D02*
X153380000Y-100446359D01*
%TO.C,R11*%
X146420000Y-114403641D02*
X146420000Y-114096359D01*
X147180000Y-114403641D02*
X147180000Y-114096359D01*
%TO.C,D1*%
X154275879Y-118038335D02*
X152861665Y-116624121D01*
X154275879Y-118038335D02*
X151440381Y-120873833D01*
X152861665Y-116624121D02*
X150026167Y-119459619D01*
%TO.C,C4*%
X158007836Y-120060000D02*
X157792164Y-120060000D01*
X158007836Y-119340000D02*
X157792164Y-119340000D01*
%TO.C,C20*%
X160178307Y-109269190D02*
X160330810Y-109421693D01*
X159669190Y-109778307D02*
X159821693Y-109930810D01*
%TO.C,R3*%
X154020000Y-94353641D02*
X154020000Y-94046359D01*
X154780000Y-94353641D02*
X154780000Y-94046359D01*
%TD*%
%LPC*%
D16*
%TO.C,J3*%
X164915000Y-88530000D03*
D17*
X164915000Y-91070000D03*
X164915000Y-93610000D03*
X164915000Y-96150000D03*
X164915000Y-98690000D03*
X164915000Y-101230000D03*
X164915000Y-103770000D03*
X164915000Y-106310000D03*
X164915000Y-108850000D03*
X164915000Y-111390000D03*
%TD*%
D18*
%TO.C,R1*%
X157700000Y-84890000D03*
X157700000Y-85910000D03*
%TD*%
D19*
%TO.C,D5*%
X150700000Y-105712500D03*
X150700000Y-107287500D03*
%TD*%
D20*
%TO.C,C14*%
X157339411Y-116960589D03*
X156660589Y-117639411D03*
%TD*%
D21*
%TO.C,D2*%
X157200000Y-88300000D03*
X155800000Y-88300000D03*
%TD*%
D18*
%TO.C,R10*%
X150000000Y-103377500D03*
X150000000Y-104397500D03*
%TD*%
D22*
%TO.C,U4*%
X158961010Y-111952854D03*
X158607456Y-111599301D03*
X158253903Y-111245747D03*
X157900349Y-110892194D03*
X157546796Y-110538641D03*
X157193243Y-110185087D03*
X156839689Y-109831534D03*
X156486136Y-109477980D03*
D23*
X155513864Y-109477980D03*
X155160311Y-109831534D03*
X154806757Y-110185087D03*
X154453204Y-110538641D03*
X154099651Y-110892194D03*
X153746097Y-111245747D03*
X153392544Y-111599301D03*
X153038990Y-111952854D03*
D22*
X153038990Y-112925126D03*
X153392544Y-113278679D03*
X153746097Y-113632233D03*
X154099651Y-113985786D03*
X154453204Y-114339339D03*
X154806757Y-114692893D03*
X155160311Y-115046446D03*
X155513864Y-115400000D03*
D23*
X156486136Y-115400000D03*
X156839689Y-115046446D03*
X157193243Y-114692893D03*
X157546796Y-114339339D03*
X157900349Y-113985786D03*
X158253903Y-113632233D03*
X158607456Y-113278679D03*
X158961010Y-112925126D03*
D24*
X156000000Y-112438990D03*
%TD*%
D20*
%TO.C,C18*%
X159705096Y-116229117D03*
X159026274Y-116907939D03*
%TD*%
D25*
%TO.C,Y1*%
X152175000Y-95550000D03*
X152175000Y-93250000D03*
X150275000Y-93250000D03*
X150275000Y-95550000D03*
%TD*%
D26*
%TO.C,IC1*%
X155948350Y-96713173D03*
X156407969Y-97172792D03*
X156867588Y-97632412D03*
X157327208Y-98092031D03*
X157786827Y-98551650D03*
D27*
X159413173Y-98551650D03*
X159872792Y-98092031D03*
X160332412Y-97632412D03*
X160792031Y-97172792D03*
X161251650Y-96713173D03*
D26*
X161251650Y-95086827D03*
X160792031Y-94627208D03*
X160332412Y-94167588D03*
X159872792Y-93707969D03*
X159413173Y-93248350D03*
D27*
X157786827Y-93248350D03*
X157327208Y-93707969D03*
X156867588Y-94167588D03*
X156407969Y-94627208D03*
X155948350Y-95086827D03*
D28*
X158600000Y-95900000D03*
%TD*%
D29*
%TO.C,C15*%
X158085409Y-117756084D03*
X157632861Y-118208632D03*
%TD*%
D30*
%TO.C,Q1*%
X146800000Y-116400000D03*
X146800000Y-118300000D03*
X148800000Y-117350000D03*
%TD*%
D31*
%TO.C,U2*%
X161450000Y-120350000D03*
X161450000Y-119700000D03*
X161450000Y-119050000D03*
X159550000Y-119050000D03*
X159550000Y-120350000D03*
%TD*%
D32*
%TO.C,R4*%
X162810000Y-102300000D03*
X161790000Y-102300000D03*
%TD*%
D33*
%TO.C,R6*%
X161790000Y-103600000D03*
X162810000Y-103600000D03*
%TD*%
D32*
%TO.C,R2*%
X154310000Y-85300000D03*
X153290000Y-85300000D03*
%TD*%
D34*
%TO.C,U3*%
X154788000Y-101095000D03*
X154788000Y-102365000D03*
X154788000Y-103635000D03*
X154788000Y-104905000D03*
X160212000Y-104905000D03*
X160212000Y-103635000D03*
X160212000Y-102365000D03*
X160212000Y-101095000D03*
%TD*%
D35*
%TO.C,C25*%
X154873726Y-108526274D03*
X155326274Y-108073726D03*
%TD*%
D36*
%TO.C,C16*%
X151560589Y-114160589D03*
X152239411Y-114839411D03*
%TD*%
D20*
%TO.C,C24*%
X151339411Y-111960589D03*
X150660589Y-112639411D03*
%TD*%
D32*
%TO.C,R8*%
X151519999Y-109400000D03*
X150499999Y-109400000D03*
%TD*%
D37*
%TO.C,C8*%
X153600000Y-95580000D03*
X153600000Y-96220000D03*
%TD*%
D38*
%TO.C,C9*%
X160773726Y-93073726D03*
X161226274Y-93526274D03*
%TD*%
D39*
%TO.C,U1*%
X161550000Y-87000000D03*
X160600000Y-87000000D03*
X159650000Y-87000000D03*
X159650000Y-89800000D03*
X161550000Y-89800000D03*
%TD*%
D40*
%TO.C,R9*%
X148800000Y-114810000D03*
X148800000Y-113790000D03*
%TD*%
D35*
%TO.C,C6*%
X156099516Y-93385409D03*
X156552064Y-92932861D03*
%TD*%
D38*
%TO.C,C13*%
X155153554Y-116539340D03*
X155606102Y-116991888D03*
%TD*%
D29*
%TO.C,C23*%
X150626274Y-111373726D03*
X150173726Y-111826274D03*
%TD*%
D41*
%TO.C,D4*%
X153000000Y-87400000D03*
X154400000Y-87400000D03*
%TD*%
D36*
%TO.C,C12*%
X154460589Y-117260589D03*
X155139411Y-117939411D03*
%TD*%
D38*
%TO.C,C21*%
X158973726Y-109973726D03*
X159426274Y-110426274D03*
%TD*%
D42*
%TO.C,C5*%
X155360589Y-92739411D03*
X156039411Y-92060589D03*
%TD*%
D43*
%TO.C,C22*%
X154160000Y-107800000D03*
X153200000Y-107800000D03*
%TD*%
D44*
%TO.C,C11*%
X161726274Y-117726274D03*
X161273726Y-117273726D03*
%TD*%
D45*
%TO.C,C7*%
X153600000Y-92620000D03*
X153600000Y-91980000D03*
%TD*%
D33*
%TO.C,R5*%
X152190000Y-103700000D03*
X153210000Y-103700000D03*
%TD*%
D46*
%TO.C,C3*%
X162600000Y-120300000D03*
X162600000Y-119340000D03*
%TD*%
D16*
%TO.C,J2*%
X147115000Y-88550000D03*
D17*
X147115000Y-91090000D03*
X147115000Y-93630000D03*
X147115000Y-96170000D03*
X147115000Y-98710000D03*
X147115000Y-101250000D03*
X147115000Y-103790000D03*
X147115000Y-106330000D03*
X147115000Y-108870000D03*
X147115000Y-111410000D03*
%TD*%
D47*
%TO.C,D3*%
X162200000Y-80500000D03*
X162200000Y-81900000D03*
%TD*%
D45*
%TO.C,C10*%
X161800000Y-101020000D03*
X161800000Y-100380000D03*
%TD*%
D43*
%TO.C,C2*%
X161580000Y-91100000D03*
X160620000Y-91100000D03*
%TD*%
D48*
%TO.C,J1*%
X158900000Y-82400000D03*
X153120000Y-82400000D03*
D49*
X159210000Y-83475000D03*
X158410000Y-83475000D03*
D50*
X157260000Y-83475000D03*
X156260000Y-83475000D03*
X155760000Y-83475000D03*
X154760000Y-83475000D03*
D49*
X153610000Y-83475000D03*
X152810000Y-83475000D03*
X152810000Y-83475000D03*
X153610000Y-83475000D03*
D50*
X154260000Y-83475000D03*
X155260000Y-83475000D03*
X156760000Y-83475000D03*
X157760000Y-83475000D03*
D49*
X158410000Y-83475000D03*
X159210000Y-83475000D03*
D51*
X160330000Y-82900000D03*
D52*
X160330000Y-78720000D03*
D51*
X151690000Y-82900000D03*
D52*
X151690000Y-78720000D03*
%TD*%
D38*
%TO.C,C17*%
X150873726Y-114873726D03*
X151326274Y-115326274D03*
%TD*%
D53*
%TO.C,Y2*%
X164975843Y-115920208D03*
X163179792Y-114124157D03*
X161624157Y-115679792D03*
X163420208Y-117475843D03*
%TD*%
D54*
%TO.C,C1*%
X161520000Y-85600000D03*
X162480000Y-85600000D03*
%TD*%
D40*
%TO.C,R7*%
X153000000Y-101110000D03*
X153000000Y-100090000D03*
%TD*%
%TO.C,R11*%
X146800000Y-114760000D03*
X146800000Y-113740000D03*
%TD*%
D55*
%TO.C,D1*%
X153066726Y-117833274D03*
X150733274Y-120166726D03*
%TD*%
D43*
%TO.C,C4*%
X158380000Y-119700000D03*
X157420000Y-119700000D03*
%TD*%
D36*
%TO.C,C20*%
X159660589Y-109260589D03*
X160339411Y-109939411D03*
%TD*%
D40*
%TO.C,R3*%
X154400000Y-94710000D03*
X154400000Y-93690000D03*
%TD*%
D29*
%TO.C,C19*%
X159026274Y-115493726D03*
X158573726Y-115946274D03*
%TD*%
%LPD*%
M02*
